<svg width="1440" height="2025" viewBox="0 0 1440 2025" fill="none" xmlns="http://www.w3.org/2000/svg">
<g clip-path="url(#clip0_321_127)">
<rect width="1440" height="2025" fill="white"/>
<circle cx="89" cy="13" r="250" fill="#7093EC"/>
<circle cx="832.5" cy="1242.5" r="99.5" fill="#7093EC"/>
<circle cx="397" cy="946" r="62" fill="#7093EC"/>
<circle cx="479" cy="1451" r="62" fill="#7093EC"/>
<circle cx="614.5" cy="262.5" r="73.5" fill="#7093EC"/>
<circle cx="151" cy="591" r="32" fill="#7093EC"/>
<circle cx="1240" cy="742" r="32" fill="#7093EC"/>
<circle cx="1316" cy="1275" r="32" fill="#7093EC"/>
<circle cx="1236" cy="1301" r="19" fill="#7093EC"/>
<circle cx="1279.5" cy="1352.5" r="14.5" fill="#7093EC"/>
<circle cx="326" cy="710" r="32" fill="#7093EC"/>
<circle cx="954.5" cy="842.5" r="82.5" fill="#7093EC"/>
<line y1="-1" x2="707.13" y2="-1" transform="matrix(1 0 0.000540089 1 379.373 1925.5)" stroke="#FBF9F9" stroke-width="2"/>
<path d="M478.977 1947.67C478.977 1948.27 478.817 1948.74 478.498 1949.06C478.186 1949.38 477.697 1949.54 477.033 1949.54C476.311 1949.54 475.751 1949.31 475.354 1948.83C474.956 1948.35 474.758 1947.7 474.758 1946.87V1945.76C474.758 1944.92 474.943 1944.27 475.314 1943.8C475.692 1943.33 476.239 1943.09 476.955 1943.09C477.619 1943.09 478.124 1943.24 478.469 1943.55C478.814 1943.85 478.986 1944.3 478.986 1944.89H480.666C480.666 1943.89 480.35 1943.09 479.719 1942.48C479.087 1941.88 478.169 1941.57 476.965 1941.57C475.754 1941.57 474.787 1941.96 474.064 1942.75C473.342 1943.53 472.98 1944.66 472.98 1946.13V1946.51C472.98 1947.98 473.339 1949.09 474.055 1949.86C474.777 1950.62 475.699 1951 476.818 1951C477.893 1951 478.801 1950.72 479.543 1950.16C480.285 1949.59 480.656 1948.76 480.656 1947.67H478.977ZM470.646 1946.29C470.646 1944.4 471.258 1942.82 472.482 1941.54C473.713 1940.25 475.201 1939.61 476.945 1939.61C478.684 1939.61 480.165 1940.25 481.389 1941.54C482.619 1942.82 483.234 1944.4 483.234 1946.29C483.234 1948.18 482.619 1949.77 481.389 1951.07C480.165 1952.36 478.684 1953 476.945 1953C475.201 1953 473.713 1952.36 472.482 1951.07C471.258 1949.77 470.646 1948.18 470.646 1946.29ZM469.26 1946.29C469.26 1948.57 470.008 1950.49 471.506 1952.06C473.003 1953.62 474.813 1954.41 476.936 1954.41C479.051 1954.41 480.858 1953.62 482.355 1952.06C483.859 1950.49 484.611 1948.57 484.611 1946.29C484.611 1944 483.859 1942.08 482.355 1940.53C480.858 1938.97 479.051 1938.2 476.936 1938.2C474.813 1938.2 473.003 1938.97 471.506 1940.53C470.008 1942.08 469.26 1944 469.26 1946.29ZM490.705 1953H499.875V1951.47H492.893L496.867 1947.13C497.616 1946.32 498.241 1945.54 498.742 1944.8C499.243 1944.05 499.494 1943.22 499.494 1942.32C499.494 1941.27 499.1 1940.37 498.312 1939.62C497.531 1938.87 496.506 1938.5 495.236 1938.5C493.954 1938.5 492.876 1938.9 492.004 1939.72C491.138 1940.53 490.705 1941.58 490.705 1942.88V1942.99H492.463V1942.88C492.463 1941.95 492.73 1941.23 493.264 1940.72C493.804 1940.22 494.462 1939.96 495.236 1939.96C496.011 1939.96 496.62 1940.2 497.062 1940.68C497.512 1941.15 497.736 1941.73 497.736 1942.41C497.736 1943.07 497.561 1943.68 497.209 1944.25C496.857 1944.82 496.353 1945.46 495.695 1946.17L490.705 1951.71V1953ZM501.691 1948.55C501.691 1949.99 502.082 1951.13 502.863 1951.99C503.651 1952.85 504.742 1953.28 506.135 1953.28C507.515 1953.28 508.599 1952.85 509.387 1951.99C510.181 1951.13 510.578 1949.99 510.578 1948.55V1943.23C510.578 1941.8 510.181 1940.65 509.387 1939.79C508.599 1938.93 507.515 1938.5 506.135 1938.5C504.742 1938.5 503.651 1938.93 502.863 1939.79C502.082 1940.65 501.691 1941.8 501.691 1943.23V1948.55ZM503.469 1948.64V1943.14C503.469 1942.2 503.687 1941.44 504.123 1940.85C504.559 1940.26 505.23 1939.96 506.135 1939.96C507.033 1939.96 507.701 1940.26 508.137 1940.85C508.573 1941.44 508.791 1942.2 508.791 1943.14V1948.64C508.791 1949.58 508.573 1950.35 508.137 1950.94C507.701 1951.53 507.033 1951.82 506.135 1951.82C505.23 1951.82 504.559 1951.53 504.123 1950.94C503.687 1950.35 503.469 1949.58 503.469 1948.64ZM512.619 1953H521.789V1951.47H514.807L518.781 1947.13C519.53 1946.32 520.155 1945.54 520.656 1944.8C521.158 1944.05 521.408 1943.22 521.408 1942.32C521.408 1941.27 521.014 1940.37 520.227 1939.62C519.445 1938.87 518.42 1938.5 517.15 1938.5C515.868 1938.5 514.79 1938.9 513.918 1939.72C513.052 1940.53 512.619 1941.58 512.619 1942.88V1942.99H514.377V1942.88C514.377 1941.95 514.644 1941.23 515.178 1940.72C515.718 1940.22 516.376 1939.96 517.15 1939.96C517.925 1939.96 518.534 1940.2 518.977 1940.68C519.426 1941.15 519.65 1941.73 519.65 1942.41C519.65 1943.07 519.475 1943.68 519.123 1944.25C518.771 1944.82 518.267 1945.46 517.609 1946.17L512.619 1951.71V1953ZM523.576 1953H532.746V1951.47H525.764L529.738 1947.13C530.487 1946.32 531.112 1945.54 531.613 1944.8C532.115 1944.05 532.365 1943.22 532.365 1942.32C532.365 1941.27 531.971 1940.37 531.184 1939.62C530.402 1938.87 529.377 1938.5 528.107 1938.5C526.825 1938.5 525.747 1938.9 524.875 1939.72C524.009 1940.53 523.576 1941.58 523.576 1942.88V1942.99H525.334V1942.88C525.334 1941.95 525.601 1941.23 526.135 1940.72C526.675 1940.22 527.333 1939.96 528.107 1939.96C528.882 1939.96 529.491 1940.2 529.934 1940.68C530.383 1941.15 530.607 1941.73 530.607 1942.41C530.607 1943.07 530.432 1943.68 530.08 1944.25C529.729 1944.82 529.224 1945.46 528.566 1946.17L523.576 1951.71V1953ZM538.039 1940.25H542.541V1953H544.309V1940.25H548.811V1938.78H538.039V1940.25ZM548.439 1948.11C548.439 1949.63 548.869 1950.87 549.729 1951.84C550.588 1952.8 551.734 1953.28 553.166 1953.28C554.605 1953.28 555.751 1952.8 556.604 1951.84C557.463 1950.87 557.893 1949.63 557.893 1948.11V1947.79C557.893 1946.27 557.463 1945.03 556.604 1944.07C555.751 1943.11 554.605 1942.63 553.166 1942.63C551.734 1942.63 550.588 1943.11 549.729 1944.07C548.869 1945.03 548.439 1946.27 548.439 1947.79V1948.11ZM550.188 1947.79C550.188 1946.74 550.438 1945.85 550.939 1945.13C551.441 1944.41 552.183 1944.04 553.166 1944.04C554.149 1944.04 554.891 1944.41 555.393 1945.13C555.894 1945.85 556.145 1946.74 556.145 1947.79V1948.11C556.145 1949.17 555.894 1950.06 555.393 1950.78C554.891 1951.51 554.149 1951.87 553.166 1951.87C552.183 1951.87 551.441 1951.51 550.939 1950.78C550.438 1950.06 550.188 1949.17 550.188 1948.11V1947.79ZM559.494 1948.11C559.494 1949.58 559.875 1950.8 560.637 1951.76C561.398 1952.72 562.421 1953.2 563.703 1953.2C564.413 1953.2 565.031 1953.05 565.559 1952.75C566.086 1952.45 566.48 1952.09 566.74 1951.67H566.799L566.867 1953H568.42V1938.11H566.701V1944.09C566.408 1943.68 566.011 1943.35 565.51 1943.1C565.015 1942.84 564.413 1942.72 563.703 1942.72C562.427 1942.72 561.405 1943.2 560.637 1944.15C559.875 1945.11 559.494 1946.32 559.494 1947.79V1948.11ZM561.242 1948.11V1947.79C561.242 1946.75 561.47 1945.88 561.926 1945.18C562.382 1944.47 563.094 1944.12 564.064 1944.12C564.715 1944.12 565.269 1944.3 565.725 1944.65C566.18 1945 566.506 1945.41 566.701 1945.86V1950.03C566.499 1950.49 566.171 1950.89 565.715 1951.25C565.266 1951.6 564.715 1951.78 564.064 1951.78C563.094 1951.78 562.382 1951.43 561.926 1950.72C561.47 1950.02 561.242 1949.15 561.242 1948.11ZM570.627 1948.11C570.627 1949.63 571.057 1950.87 571.916 1951.84C572.775 1952.8 573.921 1953.28 575.354 1953.28C576.792 1953.28 577.938 1952.8 578.791 1951.84C579.65 1950.87 580.08 1949.63 580.08 1948.11V1947.79C580.08 1946.27 579.65 1945.03 578.791 1944.07C577.938 1943.11 576.792 1942.63 575.354 1942.63C573.921 1942.63 572.775 1943.11 571.916 1944.07C571.057 1945.03 570.627 1946.27 570.627 1947.79V1948.11ZM572.375 1947.79C572.375 1946.74 572.626 1945.85 573.127 1945.13C573.628 1944.41 574.37 1944.04 575.354 1944.04C576.337 1944.04 577.079 1944.41 577.58 1945.13C578.081 1945.85 578.332 1946.74 578.332 1947.79V1948.11C578.332 1949.17 578.081 1950.06 577.58 1950.78C577.079 1951.51 576.337 1951.87 575.354 1951.87C574.37 1951.87 573.628 1951.51 573.127 1950.78C572.626 1950.06 572.375 1949.17 572.375 1948.11V1947.79ZM581.682 1950V1950.08C581.682 1951.06 582.027 1951.83 582.717 1952.41C583.413 1952.99 584.429 1953.28 585.764 1953.28C587.092 1953.28 588.088 1953 588.752 1952.42C589.416 1951.85 589.748 1951.12 589.748 1950.22C589.748 1949.33 589.452 1948.65 588.859 1948.19C588.273 1947.71 587.44 1947.34 586.359 1947.08C585.279 1946.82 584.553 1946.58 584.182 1946.35C583.811 1946.12 583.625 1945.8 583.625 1945.41C583.625 1945.01 583.791 1944.68 584.123 1944.43C584.455 1944.17 584.973 1944.04 585.676 1944.04C586.379 1944.04 586.903 1944.18 587.248 1944.46C587.593 1944.73 587.766 1945.12 587.766 1945.63V1945.72H589.475V1945.66C589.475 1944.72 589.126 1943.98 588.43 1943.44C587.733 1942.9 586.815 1942.63 585.676 1942.63C584.536 1942.63 583.625 1942.9 582.941 1943.44C582.264 1943.98 581.926 1944.67 581.926 1945.5C581.926 1946.33 582.238 1946.97 582.863 1947.43C583.488 1947.89 584.344 1948.25 585.432 1948.51C586.512 1948.77 587.219 1949.02 587.551 1949.27C587.889 1949.51 588.059 1949.86 588.059 1950.32C588.059 1950.79 587.854 1951.16 587.443 1951.45C587.033 1951.73 586.47 1951.87 585.754 1951.87C585.044 1951.87 584.475 1951.72 584.045 1951.43C583.615 1951.13 583.4 1950.68 583.4 1950.08V1950H581.682ZM596.701 1953H598.41V1938.11H596.701V1953ZM600.686 1948.11C600.686 1949.63 601.115 1950.87 601.975 1951.84C602.834 1952.8 603.98 1953.28 605.412 1953.28C606.851 1953.28 607.997 1952.8 608.85 1951.84C609.709 1950.87 610.139 1949.63 610.139 1948.11V1947.79C610.139 1946.27 609.709 1945.03 608.85 1944.07C607.997 1943.11 606.851 1942.63 605.412 1942.63C603.98 1942.63 602.834 1943.11 601.975 1944.07C601.115 1945.03 600.686 1946.27 600.686 1947.79V1948.11ZM602.434 1947.79C602.434 1946.74 602.684 1945.85 603.186 1945.13C603.687 1944.41 604.429 1944.04 605.412 1944.04C606.395 1944.04 607.137 1944.41 607.639 1945.13C608.14 1945.85 608.391 1946.74 608.391 1947.79V1948.11C608.391 1949.17 608.14 1950.06 607.639 1950.78C607.137 1951.51 606.395 1951.87 605.412 1951.87C604.429 1951.87 603.687 1951.51 603.186 1950.78C602.684 1950.06 602.434 1949.17 602.434 1948.11V1947.79ZM611.74 1950V1950.08C611.74 1951.06 612.085 1951.83 612.775 1952.41C613.472 1952.99 614.488 1953.28 615.822 1953.28C617.15 1953.28 618.146 1953 618.811 1952.42C619.475 1951.85 619.807 1951.12 619.807 1950.22C619.807 1949.33 619.51 1948.65 618.918 1948.19C618.332 1947.71 617.499 1947.34 616.418 1947.08C615.337 1946.82 614.611 1946.58 614.24 1946.35C613.869 1946.12 613.684 1945.8 613.684 1945.41C613.684 1945.01 613.85 1944.68 614.182 1944.43C614.514 1944.17 615.031 1944.04 615.734 1944.04C616.438 1944.04 616.962 1944.18 617.307 1944.46C617.652 1944.73 617.824 1945.12 617.824 1945.63V1945.72H619.533V1945.66C619.533 1944.72 619.185 1943.98 618.488 1943.44C617.792 1942.9 616.874 1942.63 615.734 1942.63C614.595 1942.63 613.684 1942.9 613 1943.44C612.323 1943.98 611.984 1944.67 611.984 1945.5C611.984 1946.33 612.297 1946.97 612.922 1947.43C613.547 1947.89 614.403 1948.25 615.49 1948.51C616.571 1948.77 617.277 1949.02 617.609 1949.27C617.948 1949.51 618.117 1949.86 618.117 1950.32C618.117 1950.79 617.912 1951.16 617.502 1951.45C617.092 1951.73 616.529 1951.87 615.812 1951.87C615.103 1951.87 614.533 1951.72 614.104 1951.43C613.674 1951.13 613.459 1950.68 613.459 1950.08V1950H611.74ZM626.076 1948.11C626.076 1949.58 626.457 1950.8 627.219 1951.76C627.98 1952.72 629.003 1953.2 630.285 1953.2C630.995 1953.2 631.613 1953.05 632.141 1952.75C632.668 1952.45 633.062 1952.09 633.322 1951.67H633.381L633.449 1953H635.002V1938.11H633.283V1944.09C632.99 1943.68 632.593 1943.35 632.092 1943.1C631.597 1942.84 630.995 1942.72 630.285 1942.72C629.009 1942.72 627.987 1943.2 627.219 1944.15C626.457 1945.11 626.076 1946.32 626.076 1947.79V1948.11ZM627.824 1948.11V1947.79C627.824 1946.75 628.052 1945.88 628.508 1945.18C628.964 1944.47 629.676 1944.12 630.646 1944.12C631.298 1944.12 631.851 1944.3 632.307 1944.65C632.762 1945 633.088 1945.41 633.283 1945.86V1950.03C633.081 1950.49 632.753 1950.89 632.297 1951.25C631.848 1951.6 631.298 1951.78 630.646 1951.78C629.676 1951.78 628.964 1951.43 628.508 1950.72C628.052 1950.02 627.824 1949.15 627.824 1948.11ZM637.209 1948.11C637.209 1949.64 637.622 1950.88 638.449 1951.85C639.276 1952.8 640.464 1953.28 642.014 1953.28C642.971 1953.28 643.781 1953.08 644.445 1952.67C645.109 1952.25 645.598 1951.81 645.91 1951.33L644.807 1950.44C644.52 1950.83 644.143 1951.17 643.674 1951.45C643.212 1951.73 642.658 1951.87 642.014 1951.87C640.972 1951.87 640.201 1951.51 639.699 1950.78C639.204 1950.06 638.957 1949.17 638.957 1948.11V1947.79C638.957 1946.73 639.191 1945.84 639.66 1945.12C640.135 1944.4 640.852 1944.04 641.809 1944.04C642.616 1944.04 643.228 1944.3 643.645 1944.84C644.061 1945.36 644.27 1946 644.27 1946.74V1946.96H638.254V1948.32H645.988V1947.63C645.988 1946.09 645.62 1944.87 644.885 1943.98C644.156 1943.08 643.107 1942.63 641.74 1942.63C640.38 1942.63 639.283 1943.11 638.449 1944.07C637.622 1945.03 637.209 1946.27 637.209 1947.79V1948.11ZM648.137 1953H649.846V1945.88C650.048 1945.42 650.354 1945.03 650.764 1944.73C651.18 1944.42 651.672 1944.27 652.238 1944.27C652.414 1944.27 652.574 1944.28 652.717 1944.29C652.86 1944.3 652.993 1944.32 653.117 1944.35V1942.76C653.052 1942.73 652.941 1942.7 652.785 1942.68C652.629 1942.65 652.482 1942.63 652.346 1942.63C651.76 1942.63 651.255 1942.79 650.832 1943.11C650.409 1943.42 650.067 1943.79 649.807 1944.22H649.758L649.689 1942.91H648.137V1953ZM653.967 1948.11C653.967 1949.64 654.38 1950.88 655.207 1951.85C656.034 1952.8 657.222 1953.28 658.771 1953.28C659.729 1953.28 660.539 1953.08 661.203 1952.67C661.867 1952.25 662.355 1951.81 662.668 1951.33L661.564 1950.44C661.278 1950.83 660.9 1951.17 660.432 1951.45C659.969 1951.73 659.416 1951.87 658.771 1951.87C657.73 1951.87 656.958 1951.51 656.457 1950.78C655.962 1950.06 655.715 1949.17 655.715 1948.11V1947.79C655.715 1946.73 655.949 1945.84 656.418 1945.12C656.893 1944.4 657.609 1944.04 658.566 1944.04C659.374 1944.04 659.986 1944.3 660.402 1944.84C660.819 1945.36 661.027 1946 661.027 1946.74V1946.96H655.012V1948.32H662.746V1947.63C662.746 1946.09 662.378 1944.87 661.643 1943.98C660.913 1943.08 659.865 1942.63 658.498 1942.63C657.137 1942.63 656.04 1943.11 655.207 1944.07C654.38 1945.03 653.967 1946.27 653.967 1947.79V1948.11ZM664.279 1948.11C664.279 1949.64 664.689 1950.88 665.51 1951.85C666.337 1952.8 667.466 1953.28 668.898 1953.28C670.233 1953.28 671.245 1952.92 671.936 1952.2C672.632 1951.48 672.98 1950.66 672.98 1949.74V1949.68H671.32V1949.74C671.32 1950.32 671.125 1950.82 670.734 1951.24C670.35 1951.66 669.738 1951.87 668.898 1951.87C667.928 1951.87 667.206 1951.51 666.73 1950.78C666.262 1950.06 666.027 1949.17 666.027 1948.11V1947.79C666.027 1946.72 666.262 1945.83 666.73 1945.12C667.206 1944.4 667.932 1944.04 668.908 1944.04C669.742 1944.04 670.35 1944.25 670.734 1944.67C671.125 1945.09 671.32 1945.58 671.32 1946.15V1946.21H672.98V1946.15C672.98 1945.24 672.635 1944.42 671.945 1943.7C671.255 1942.99 670.24 1942.63 668.898 1942.63C667.466 1942.63 666.337 1943.11 665.51 1944.06C664.689 1945.02 664.279 1946.26 664.279 1947.79V1948.11ZM675.051 1953H676.76V1945.84C677.007 1945.35 677.352 1944.94 677.795 1944.63C678.238 1944.32 678.745 1944.16 679.318 1944.16C679.995 1944.16 680.516 1944.34 680.881 1944.7C681.252 1945.05 681.438 1945.64 681.438 1946.46V1953H683.146V1946.47C683.146 1945.11 682.847 1944.15 682.248 1943.58C681.649 1943 680.878 1942.72 679.934 1942.72C679.276 1942.72 678.671 1942.85 678.117 1943.12C677.564 1943.38 677.111 1943.73 676.76 1944.17V1938.11H675.051V1953ZM685.256 1948.11C685.256 1949.63 685.686 1950.87 686.545 1951.84C687.404 1952.8 688.55 1953.28 689.982 1953.28C691.421 1953.28 692.567 1952.8 693.42 1951.84C694.279 1950.87 694.709 1949.63 694.709 1948.11V1947.79C694.709 1946.27 694.279 1945.03 693.42 1944.07C692.567 1943.11 691.421 1942.63 689.982 1942.63C688.55 1942.63 687.404 1943.11 686.545 1944.07C685.686 1945.03 685.256 1946.27 685.256 1947.79V1948.11ZM687.004 1947.79C687.004 1946.74 687.255 1945.85 687.756 1945.13C688.257 1944.41 688.999 1944.04 689.982 1944.04C690.965 1944.04 691.708 1944.41 692.209 1945.13C692.71 1945.85 692.961 1946.74 692.961 1947.79V1948.11C692.961 1949.17 692.71 1950.06 692.209 1950.78C691.708 1951.51 690.965 1951.87 689.982 1951.87C688.999 1951.87 688.257 1951.51 687.756 1950.78C687.255 1950.06 687.004 1949.17 687.004 1948.11V1947.79ZM696.311 1950V1950.08C696.311 1951.06 696.656 1951.83 697.346 1952.41C698.042 1952.99 699.058 1953.28 700.393 1953.28C701.721 1953.28 702.717 1953 703.381 1952.42C704.045 1951.85 704.377 1951.12 704.377 1950.22C704.377 1949.33 704.081 1948.65 703.488 1948.19C702.902 1947.71 702.069 1947.34 700.988 1947.08C699.908 1946.82 699.182 1946.58 698.811 1946.35C698.439 1946.12 698.254 1945.8 698.254 1945.41C698.254 1945.01 698.42 1944.68 698.752 1944.43C699.084 1944.17 699.602 1944.04 700.305 1944.04C701.008 1944.04 701.532 1944.18 701.877 1944.46C702.222 1944.73 702.395 1945.12 702.395 1945.63V1945.72H704.104V1945.66C704.104 1944.72 703.755 1943.98 703.059 1943.44C702.362 1942.9 701.444 1942.63 700.305 1942.63C699.165 1942.63 698.254 1942.9 697.57 1943.44C696.893 1943.98 696.555 1944.67 696.555 1945.5C696.555 1946.33 696.867 1946.97 697.492 1947.43C698.117 1947.89 698.973 1948.25 700.061 1948.51C701.141 1948.77 701.848 1949.02 702.18 1949.27C702.518 1949.51 702.688 1949.86 702.688 1950.32C702.688 1950.79 702.482 1951.16 702.072 1951.45C701.662 1951.73 701.099 1951.87 700.383 1951.87C699.673 1951.87 699.104 1951.72 698.674 1951.43C698.244 1951.13 698.029 1950.68 698.029 1950.08V1950H696.311ZM711.262 1953H712.971V1945.88C713.173 1945.42 713.479 1945.03 713.889 1944.73C714.305 1944.42 714.797 1944.27 715.363 1944.27C715.539 1944.27 715.699 1944.28 715.842 1944.29C715.985 1944.3 716.118 1944.32 716.242 1944.35V1942.76C716.177 1942.73 716.066 1942.7 715.91 1942.68C715.754 1942.65 715.607 1942.63 715.471 1942.63C714.885 1942.63 714.38 1942.79 713.957 1943.11C713.534 1943.42 713.192 1943.79 712.932 1944.22H712.883L712.814 1942.91H711.262V1953ZM717.092 1948.11C717.092 1949.64 717.505 1950.88 718.332 1951.85C719.159 1952.8 720.347 1953.28 721.896 1953.28C722.854 1953.28 723.664 1953.08 724.328 1952.67C724.992 1952.25 725.48 1951.81 725.793 1951.33L724.689 1950.44C724.403 1950.83 724.025 1951.17 723.557 1951.45C723.094 1951.73 722.541 1951.87 721.896 1951.87C720.855 1951.87 720.083 1951.51 719.582 1950.78C719.087 1950.06 718.84 1949.17 718.84 1948.11V1947.79C718.84 1946.73 719.074 1945.84 719.543 1945.12C720.018 1944.4 720.734 1944.04 721.691 1944.04C722.499 1944.04 723.111 1944.3 723.527 1944.84C723.944 1945.36 724.152 1946 724.152 1946.74V1946.96H718.137V1948.32H725.871V1947.63C725.871 1946.09 725.503 1944.87 724.768 1943.98C724.038 1943.08 722.99 1942.63 721.623 1942.63C720.262 1942.63 719.165 1943.11 718.332 1944.07C717.505 1945.03 717.092 1946.27 717.092 1947.79V1948.11ZM727.404 1950V1950.08C727.404 1951.06 727.749 1951.83 728.439 1952.41C729.136 1952.99 730.152 1953.28 731.486 1953.28C732.814 1953.28 733.811 1953 734.475 1952.42C735.139 1951.85 735.471 1951.12 735.471 1950.22C735.471 1949.33 735.174 1948.65 734.582 1948.19C733.996 1947.71 733.163 1947.34 732.082 1947.08C731.001 1946.82 730.275 1946.58 729.904 1946.35C729.533 1946.12 729.348 1945.8 729.348 1945.41C729.348 1945.01 729.514 1944.68 729.846 1944.43C730.178 1944.17 730.695 1944.04 731.398 1944.04C732.102 1944.04 732.626 1944.18 732.971 1944.46C733.316 1944.73 733.488 1945.12 733.488 1945.63V1945.72H735.197V1945.66C735.197 1944.72 734.849 1943.98 734.152 1943.44C733.456 1942.9 732.538 1942.63 731.398 1942.63C730.259 1942.63 729.348 1942.9 728.664 1943.44C727.987 1943.98 727.648 1944.67 727.648 1945.5C727.648 1946.33 727.961 1946.97 728.586 1947.43C729.211 1947.89 730.067 1948.25 731.154 1948.51C732.235 1948.77 732.941 1949.02 733.273 1949.27C733.612 1949.51 733.781 1949.86 733.781 1950.32C733.781 1950.79 733.576 1951.16 733.166 1951.45C732.756 1951.73 732.193 1951.87 731.477 1951.87C730.767 1951.87 730.197 1951.72 729.768 1951.43C729.338 1951.13 729.123 1950.68 729.123 1950.08V1950H727.404ZM737.053 1948.11C737.053 1949.64 737.466 1950.88 738.293 1951.85C739.12 1952.8 740.308 1953.28 741.857 1953.28C742.814 1953.28 743.625 1953.08 744.289 1952.67C744.953 1952.25 745.441 1951.81 745.754 1951.33L744.65 1950.44C744.364 1950.83 743.986 1951.17 743.518 1951.45C743.055 1951.73 742.502 1951.87 741.857 1951.87C740.816 1951.87 740.044 1951.51 739.543 1950.78C739.048 1950.06 738.801 1949.17 738.801 1948.11V1947.79C738.801 1946.73 739.035 1945.84 739.504 1945.12C739.979 1944.4 740.695 1944.04 741.652 1944.04C742.46 1944.04 743.072 1944.3 743.488 1944.84C743.905 1945.36 744.113 1946 744.113 1946.74V1946.96H738.098V1948.32H745.832V1947.63C745.832 1946.09 745.464 1944.87 744.729 1943.98C743.999 1943.08 742.951 1942.63 741.584 1942.63C740.223 1942.63 739.126 1943.11 738.293 1944.07C737.466 1945.03 737.053 1946.27 737.053 1947.79V1948.11ZM747.98 1953H749.689V1945.88C749.891 1945.42 750.197 1945.03 750.607 1944.73C751.024 1944.42 751.516 1944.27 752.082 1944.27C752.258 1944.27 752.417 1944.28 752.561 1944.29C752.704 1944.3 752.837 1944.32 752.961 1944.35V1942.76C752.896 1942.73 752.785 1942.7 752.629 1942.68C752.473 1942.65 752.326 1942.63 752.189 1942.63C751.604 1942.63 751.099 1942.79 750.676 1943.11C750.253 1943.42 749.911 1943.79 749.65 1944.22H749.602L749.533 1942.91H747.98V1953ZM753.449 1942.91L757.297 1953H758.635L762.482 1942.91H760.852L758.391 1949.73C758.299 1949.98 758.221 1950.22 758.156 1950.45C758.091 1950.68 758.046 1950.86 758.02 1950.99H757.961C757.935 1950.86 757.889 1950.68 757.824 1950.45C757.759 1950.22 757.681 1949.98 757.59 1949.73L755.119 1942.91H753.449ZM763.176 1950.04C763.176 1951.06 763.505 1951.83 764.162 1952.38C764.826 1952.92 765.64 1953.19 766.604 1953.19C767.443 1953.19 768.127 1953.02 768.654 1952.7C769.188 1952.37 769.576 1952 769.816 1951.58C769.836 1951.84 769.882 1952.1 769.953 1952.37C770.031 1952.63 770.116 1952.84 770.207 1953H771.857V1952.84C771.74 1952.56 771.649 1952.23 771.584 1951.86C771.519 1951.48 771.486 1951.08 771.486 1950.66V1946.07C771.486 1944.91 771.154 1944.05 770.49 1943.49C769.833 1942.92 768.902 1942.63 767.697 1942.63C766.486 1942.63 765.526 1942.93 764.816 1943.52C764.113 1944.1 763.762 1944.79 763.762 1945.59V1945.69H765.471V1945.61C765.471 1945.17 765.64 1944.8 765.979 1944.48C766.324 1944.17 766.883 1944.01 767.658 1944.01C768.426 1944.01 768.97 1944.19 769.289 1944.57C769.615 1944.95 769.777 1945.45 769.777 1946.07V1946.8H767.473C766.216 1946.8 765.184 1947.09 764.377 1947.66C763.576 1948.23 763.176 1949.03 763.176 1950.04ZM764.885 1949.95C764.885 1949.37 765.119 1948.9 765.588 1948.56C766.057 1948.21 766.75 1948.04 767.668 1948.04H769.777V1949.49C769.777 1950.05 769.488 1950.58 768.908 1951.08C768.329 1951.56 767.681 1951.81 766.965 1951.81C766.262 1951.81 765.738 1951.65 765.393 1951.32C765.054 1950.99 764.885 1950.54 764.885 1949.95ZM773.635 1948.11C773.635 1949.58 774.016 1950.8 774.777 1951.76C775.539 1952.72 776.561 1953.2 777.844 1953.2C778.553 1953.2 779.172 1953.05 779.699 1952.75C780.227 1952.45 780.62 1952.09 780.881 1951.67H780.939L781.008 1953H782.561V1938.11H780.842V1944.09C780.549 1943.68 780.152 1943.35 779.65 1943.1C779.156 1942.84 778.553 1942.72 777.844 1942.72C776.568 1942.72 775.546 1943.2 774.777 1944.15C774.016 1945.11 773.635 1946.32 773.635 1947.79V1948.11ZM775.383 1948.11V1947.79C775.383 1946.75 775.611 1945.88 776.066 1945.18C776.522 1944.47 777.235 1944.12 778.205 1944.12C778.856 1944.12 779.41 1944.3 779.865 1944.65C780.321 1945 780.646 1945.41 780.842 1945.86V1950.03C780.64 1950.49 780.311 1950.89 779.855 1951.25C779.406 1951.6 778.856 1951.78 778.205 1951.78C777.235 1951.78 776.522 1951.43 776.066 1950.72C775.611 1950.02 775.383 1949.15 775.383 1948.11ZM784.768 1948.11C784.768 1949.63 785.197 1950.87 786.057 1951.84C786.916 1952.8 788.062 1953.28 789.494 1953.28C790.933 1953.28 792.079 1952.8 792.932 1951.84C793.791 1950.87 794.221 1949.63 794.221 1948.11V1947.79C794.221 1946.27 793.791 1945.03 792.932 1944.07C792.079 1943.11 790.933 1942.63 789.494 1942.63C788.062 1942.63 786.916 1943.11 786.057 1944.07C785.197 1945.03 784.768 1946.27 784.768 1947.79V1948.11ZM786.516 1947.79C786.516 1946.74 786.766 1945.85 787.268 1945.13C787.769 1944.41 788.511 1944.04 789.494 1944.04C790.477 1944.04 791.219 1944.41 791.721 1945.13C792.222 1945.85 792.473 1946.74 792.473 1947.79V1948.11C792.473 1949.17 792.222 1950.06 791.721 1950.78C791.219 1951.51 790.477 1951.87 789.494 1951.87C788.511 1951.87 787.769 1951.51 787.268 1950.78C786.766 1950.06 786.516 1949.17 786.516 1948.11V1947.79ZM795.822 1950V1950.08C795.822 1951.06 796.167 1951.83 796.857 1952.41C797.554 1952.99 798.57 1953.28 799.904 1953.28C801.232 1953.28 802.229 1953 802.893 1952.42C803.557 1951.85 803.889 1951.12 803.889 1950.22C803.889 1949.33 803.592 1948.65 803 1948.19C802.414 1947.71 801.581 1947.34 800.5 1947.08C799.419 1946.82 798.693 1946.58 798.322 1946.35C797.951 1946.12 797.766 1945.8 797.766 1945.41C797.766 1945.01 797.932 1944.68 798.264 1944.43C798.596 1944.17 799.113 1944.04 799.816 1944.04C800.52 1944.04 801.044 1944.18 801.389 1944.46C801.734 1944.73 801.906 1945.12 801.906 1945.63V1945.72H803.615V1945.66C803.615 1944.72 803.267 1943.98 802.57 1943.44C801.874 1942.9 800.956 1942.63 799.816 1942.63C798.677 1942.63 797.766 1942.9 797.082 1943.44C796.405 1943.98 796.066 1944.67 796.066 1945.5C796.066 1946.33 796.379 1946.97 797.004 1947.43C797.629 1947.89 798.485 1948.25 799.572 1948.51C800.653 1948.77 801.359 1949.02 801.691 1949.27C802.03 1949.51 802.199 1949.86 802.199 1950.32C802.199 1950.79 801.994 1951.16 801.584 1951.45C801.174 1951.73 800.611 1951.87 799.895 1951.87C799.185 1951.87 798.615 1951.72 798.186 1951.43C797.756 1951.13 797.541 1950.68 797.541 1950.08V1950H795.822ZM811.408 1957.06H813V1938.11H811.408V1957.06ZM821.35 1953H823.068V1943.03C823.068 1942.83 823.065 1942.61 823.059 1942.37C823.059 1942.12 823.055 1941.89 823.049 1941.69H823.117C823.202 1941.86 823.296 1942.05 823.4 1942.25C823.511 1942.44 823.628 1942.64 823.752 1942.83L830.139 1953H831.984V1938.78H830.266V1948.75C830.266 1948.95 830.266 1949.17 830.266 1949.42C830.272 1949.66 830.279 1949.88 830.285 1950.08H830.207C830.135 1949.91 830.044 1949.73 829.934 1949.53C829.823 1949.33 829.702 1949.13 829.572 1948.94L823.205 1938.78H821.35V1953ZM834.689 1946.33C834.689 1948.56 835.236 1950.27 836.33 1951.48C837.424 1952.68 838.83 1953.28 840.549 1953.28C842.268 1953.28 843.674 1952.68 844.768 1951.48C845.861 1950.27 846.408 1948.56 846.408 1946.33V1945.45C846.408 1943.22 845.861 1941.51 844.768 1940.3C843.674 1939.1 842.268 1938.5 840.549 1938.5C838.83 1938.5 837.424 1939.1 836.33 1940.3C835.236 1941.51 834.689 1943.22 834.689 1945.45V1946.33ZM836.477 1946.33V1945.45C836.477 1943.72 836.848 1942.38 837.59 1941.44C838.339 1940.49 839.325 1940.02 840.549 1940.02C841.779 1940.02 842.766 1940.49 843.508 1941.44C844.25 1942.38 844.621 1943.72 844.621 1945.45V1946.33C844.621 1948.06 844.25 1949.4 843.508 1950.34C842.766 1951.29 841.779 1951.76 840.549 1951.76C839.325 1951.76 838.339 1951.29 837.59 1950.34C836.848 1949.4 836.477 1948.06 836.477 1946.33ZM849.104 1953H850.773V1942.61C850.773 1942.41 850.767 1942.18 850.754 1941.93C850.747 1941.67 850.734 1941.44 850.715 1941.26H850.793C850.826 1941.44 850.881 1941.67 850.959 1941.93C851.037 1942.18 851.115 1942.41 851.193 1942.61L855.246 1953H856.789L860.822 1942.61C860.9 1942.41 860.979 1942.18 861.057 1941.94C861.141 1941.69 861.203 1941.46 861.242 1941.26H861.311C861.285 1941.46 861.268 1941.69 861.262 1941.94C861.262 1942.18 861.262 1942.41 861.262 1942.61V1953H862.971V1938.78H860.676L856.467 1949.6C856.389 1949.8 856.314 1950.01 856.242 1950.23C856.177 1950.43 856.122 1950.64 856.076 1950.84H855.998C855.946 1950.64 855.884 1950.43 855.812 1950.23C855.747 1950.01 855.676 1949.8 855.598 1949.6L851.389 1938.78H849.104V1953ZM866.193 1953H871.037C872.417 1953 873.524 1952.65 874.357 1951.94C875.191 1951.23 875.607 1950.22 875.607 1948.93C875.607 1948.01 875.383 1947.27 874.934 1946.7C874.484 1946.13 873.905 1945.74 873.195 1945.54V1945.5C873.775 1945.3 874.257 1944.95 874.641 1944.46C875.031 1943.95 875.227 1943.31 875.227 1942.52C875.227 1941.23 874.826 1940.29 874.025 1939.69C873.231 1939.08 872.137 1938.78 870.744 1938.78H866.193V1953ZM867.922 1951.54V1946.32H871.037C872.007 1946.32 872.717 1946.55 873.166 1947.02C873.622 1947.49 873.85 1948.13 873.85 1948.93C873.85 1949.73 873.622 1950.36 873.166 1950.83C872.717 1951.3 872.007 1951.54 871.037 1951.54H867.922ZM867.922 1944.88V1940.25H870.744C871.714 1940.25 872.411 1940.44 872.834 1940.83C873.264 1941.22 873.479 1941.79 873.479 1942.53C873.479 1943.27 873.264 1943.84 872.834 1944.26C872.411 1944.67 871.714 1944.88 870.744 1944.88H867.922ZM878.146 1953H879.914V1947.16H882.629C884.12 1947.16 885.266 1946.77 886.066 1946C886.874 1945.22 887.277 1944.2 887.277 1942.94C887.277 1941.68 886.874 1940.68 886.066 1939.92C885.266 1939.16 884.12 1938.78 882.629 1938.78H878.146V1953ZM879.914 1945.71V1940.23H882.629C883.703 1940.23 884.452 1940.49 884.875 1941.01C885.298 1941.52 885.51 1942.17 885.51 1942.94C885.51 1943.72 885.298 1944.37 884.875 1944.9C884.452 1945.44 883.703 1945.71 882.629 1945.71H879.914ZM886.037 1953H888.01L884.328 1946.17L882.561 1946.44L886.037 1953ZM889.963 1953H898.732V1951.54H891.73V1946.4H897.736V1944.93H891.73V1940.25H898.635V1938.78H889.963V1953ZM904.836 1950.04C904.836 1951.06 905.165 1951.83 905.822 1952.38C906.486 1952.92 907.3 1953.19 908.264 1953.19C909.104 1953.19 909.787 1953.02 910.314 1952.7C910.848 1952.37 911.236 1952 911.477 1951.58C911.496 1951.84 911.542 1952.1 911.613 1952.37C911.691 1952.63 911.776 1952.84 911.867 1953H913.518V1952.84C913.4 1952.56 913.309 1952.23 913.244 1951.86C913.179 1951.48 913.146 1951.08 913.146 1950.66V1946.07C913.146 1944.91 912.814 1944.05 912.15 1943.49C911.493 1942.92 910.562 1942.63 909.357 1942.63C908.146 1942.63 907.186 1942.93 906.477 1943.52C905.773 1944.1 905.422 1944.79 905.422 1945.59V1945.69H907.131V1945.61C907.131 1945.17 907.3 1944.8 907.639 1944.48C907.984 1944.17 908.544 1944.01 909.318 1944.01C910.087 1944.01 910.63 1944.19 910.949 1944.57C911.275 1944.95 911.438 1945.45 911.438 1946.07V1946.8H909.133C907.876 1946.8 906.844 1947.09 906.037 1947.66C905.236 1948.23 904.836 1949.03 904.836 1950.04ZM906.545 1949.95C906.545 1949.37 906.779 1948.9 907.248 1948.56C907.717 1948.21 908.41 1948.04 909.328 1948.04H911.438V1949.49C911.438 1950.05 911.148 1950.58 910.568 1951.08C909.989 1951.56 909.341 1951.81 908.625 1951.81C907.922 1951.81 907.398 1951.65 907.053 1951.32C906.714 1950.99 906.545 1950.54 906.545 1949.95ZM915.686 1955.82C916.161 1956.23 916.747 1956.57 917.443 1956.84C918.14 1957.11 918.898 1957.25 919.719 1957.25C921.06 1957.25 922.144 1956.86 922.971 1956.1C923.804 1955.33 924.221 1954.23 924.221 1952.79V1942.91H922.668L922.6 1944.23H922.541C922.281 1943.81 921.883 1943.45 921.35 1943.16C920.816 1942.86 920.197 1942.72 919.494 1942.72C918.218 1942.72 917.199 1943.2 916.438 1944.15C915.676 1945.11 915.295 1946.32 915.295 1947.79V1948.11C915.295 1949.58 915.676 1950.79 916.438 1951.75C917.199 1952.71 918.215 1953.19 919.484 1953.19C920.194 1953.19 920.799 1953.06 921.301 1952.8C921.802 1952.54 922.202 1952.2 922.502 1951.78V1952.79C922.502 1953.75 922.248 1954.48 921.74 1954.99C921.232 1955.5 920.549 1955.75 919.689 1955.75C919.038 1955.75 918.456 1955.63 917.941 1955.37C917.427 1955.13 917.027 1954.84 916.74 1954.52L915.686 1955.82ZM917.043 1948.11V1947.79C917.043 1946.75 917.271 1945.88 917.727 1945.18C918.182 1944.47 918.895 1944.12 919.865 1944.12C920.516 1944.12 921.066 1944.3 921.516 1944.66C921.971 1945.01 922.3 1945.42 922.502 1945.87V1950.02C922.307 1950.48 921.981 1950.88 921.525 1951.24C921.07 1951.59 920.516 1951.77 919.865 1951.77C918.895 1951.77 918.182 1951.42 917.727 1950.72C917.271 1950.02 917.043 1949.15 917.043 1948.11ZM926.428 1948.11C926.428 1949.64 926.841 1950.88 927.668 1951.85C928.495 1952.8 929.683 1953.28 931.232 1953.28C932.189 1953.28 933 1953.08 933.664 1952.67C934.328 1952.25 934.816 1951.81 935.129 1951.33L934.025 1950.44C933.739 1950.83 933.361 1951.17 932.893 1951.45C932.43 1951.73 931.877 1951.87 931.232 1951.87C930.191 1951.87 929.419 1951.51 928.918 1950.78C928.423 1950.06 928.176 1949.17 928.176 1948.11V1947.79C928.176 1946.73 928.41 1945.84 928.879 1945.12C929.354 1944.4 930.07 1944.04 931.027 1944.04C931.835 1944.04 932.447 1944.3 932.863 1944.84C933.28 1945.36 933.488 1946 933.488 1946.74V1946.96H927.473V1948.32H935.207V1947.63C935.207 1946.09 934.839 1944.87 934.104 1943.98C933.374 1943.08 932.326 1942.63 930.959 1942.63C929.598 1942.63 928.501 1943.11 927.668 1944.07C926.841 1945.03 926.428 1946.27 926.428 1947.79V1948.11ZM937.355 1953H939.064V1945.85C939.312 1945.35 939.657 1944.94 940.1 1944.63C940.542 1944.32 941.05 1944.16 941.623 1944.16C942.3 1944.16 942.821 1944.34 943.186 1944.7C943.557 1945.05 943.742 1945.64 943.742 1946.46V1953H945.451V1946.47C945.451 1945.11 945.152 1944.15 944.553 1943.58C943.954 1943 943.15 1942.72 942.141 1942.72C941.49 1942.72 940.897 1942.85 940.363 1943.12C939.836 1943.38 939.39 1943.75 939.025 1944.22H938.977L938.908 1942.91H937.355V1953ZM947.561 1948.11C947.561 1949.64 947.971 1950.88 948.791 1951.85C949.618 1952.8 950.747 1953.28 952.18 1953.28C953.514 1953.28 954.527 1952.92 955.217 1952.2C955.913 1951.48 956.262 1950.66 956.262 1949.74V1949.68H954.602V1949.74C954.602 1950.32 954.406 1950.82 954.016 1951.24C953.632 1951.66 953.02 1951.87 952.18 1951.87C951.21 1951.87 950.487 1951.51 950.012 1950.78C949.543 1950.06 949.309 1949.17 949.309 1948.11V1947.79C949.309 1946.72 949.543 1945.83 950.012 1945.12C950.487 1944.4 951.213 1944.04 952.189 1944.04C953.023 1944.04 953.632 1944.25 954.016 1944.67C954.406 1945.09 954.602 1945.58 954.602 1946.15V1946.21H956.262V1946.15C956.262 1945.24 955.917 1944.42 955.227 1943.7C954.536 1942.99 953.521 1942.63 952.18 1942.63C950.747 1942.63 949.618 1943.11 948.791 1944.06C947.971 1945.02 947.561 1946.26 947.561 1947.79V1948.11ZM958.42 1953H960.129V1942.91H958.42V1953ZM958.195 1939.76C958.195 1940.05 958.286 1940.3 958.469 1940.5C958.658 1940.7 958.924 1940.8 959.27 1940.8C959.621 1940.8 959.888 1940.71 960.07 1940.51C960.259 1940.31 960.354 1940.06 960.354 1939.76C960.354 1939.46 960.259 1939.22 960.07 1939.03C959.888 1938.82 959.621 1938.72 959.27 1938.72C958.924 1938.72 958.658 1938.82 958.469 1939.03C958.286 1939.22 958.195 1939.46 958.195 1939.76ZM962.473 1950.04C962.473 1951.06 962.801 1951.83 963.459 1952.38C964.123 1952.92 964.937 1953.19 965.9 1953.19C966.74 1953.19 967.424 1953.02 967.951 1952.7C968.485 1952.37 968.872 1952 969.113 1951.58C969.133 1951.84 969.178 1952.1 969.25 1952.37C969.328 1952.63 969.413 1952.84 969.504 1953H971.154V1952.84C971.037 1952.56 970.946 1952.23 970.881 1951.86C970.816 1951.48 970.783 1951.08 970.783 1950.66V1946.07C970.783 1944.91 970.451 1944.05 969.787 1943.49C969.13 1942.92 968.199 1942.63 966.994 1942.63C965.783 1942.63 964.823 1942.93 964.113 1943.52C963.41 1944.1 963.059 1944.79 963.059 1945.59V1945.69H964.768V1945.61C964.768 1945.17 964.937 1944.8 965.275 1944.48C965.62 1944.17 966.18 1944.01 966.955 1944.01C967.723 1944.01 968.267 1944.19 968.586 1944.57C968.911 1944.95 969.074 1945.45 969.074 1946.07V1946.8H966.77C965.513 1946.8 964.481 1947.09 963.674 1947.66C962.873 1948.23 962.473 1949.03 962.473 1950.04ZM964.182 1949.95C964.182 1949.37 964.416 1948.9 964.885 1948.56C965.354 1948.21 966.047 1948.04 966.965 1948.04H969.074V1949.49C969.074 1950.05 968.785 1950.58 968.205 1951.08C967.626 1951.56 966.978 1951.81 966.262 1951.81C965.559 1951.81 965.035 1951.65 964.689 1951.32C964.351 1950.99 964.182 1950.54 964.182 1949.95Z" fill="white"/>
</g>
<defs>
<clipPath id="clip0_321_127">
<rect width="1440" height="2025" fill="white"/>
</clipPath>
</defs>
</svg>
