<svg width="653" height="517" viewBox="0 0 653 517" fill="none" xmlns="http://www.w3.org/2000/svg">
<path d="M178.155 349.097C178.155 349.097 125.915 393.016 122.062 397.114C118.209 401.213 178.302 469.345 186.758 465.71C195.214 462.074 217.123 433.418 217.123 433.418L178.155 349.097Z" fill="#231F20"/>
<path d="M186.105 466.739C175.934 466.739 133.734 419.356 123.694 403.562C121.164 399.584 120.429 397.543 121.458 396.531C125.311 392.433 175.494 350.229 177.632 348.429C177.729 348.351 177.84 348.296 177.958 348.266C178.076 348.237 178.199 348.234 178.318 348.257C178.436 348.291 178.545 348.349 178.641 348.429C178.736 348.508 178.815 348.607 178.873 348.72L217.759 433.058C217.825 433.201 217.85 433.361 217.833 433.519C217.816 433.677 217.756 433.826 217.661 433.95C216.763 435.133 195.59 462.931 187.035 466.533C186.742 466.668 186.425 466.738 186.105 466.739ZM177.942 350.435C171.412 355.991 126.241 393.976 122.715 397.732C121.915 401.384 150.729 436.179 171.233 454.786C182.856 465.332 185.925 465.264 186.529 464.972C194.137 461.748 213.433 436.865 216.159 433.315L177.942 350.435Z" fill="#231F20"/>
<path d="M485.048 158.522C485.816 158.162 516.066 125.373 516.768 116.713C517.47 108.053 450.064 47.569 441.869 51.256C433.674 54.943 405.35 101.588 405.35 101.588L483.71 155.915" fill="#231F20"/>
<path d="M485.048 159.38C484.872 159.379 484.701 159.319 484.56 159.208C484.42 159.097 484.317 158.941 484.267 158.764C484.218 158.586 484.224 158.397 484.285 158.223C484.347 158.05 484.46 157.902 484.608 157.802C486.24 156.413 515.266 124.773 515.952 116.645C516.392 111.603 486.909 82.3469 462.504 63.7404C446.603 51.5647 442.914 51.7362 442.195 52.0449C436.008 54.7887 416.385 85.0736 406.476 101.331L484.2 155.195C484.38 155.324 484.504 155.522 484.547 155.746C484.59 155.971 484.547 156.204 484.428 156.396C484.308 156.584 484.123 156.714 483.912 156.759C483.701 156.804 483.482 156.76 483.302 156.636L404.86 102.291C404.686 102.166 404.564 101.974 404.522 101.756C404.479 101.539 404.518 101.313 404.631 101.125C405.791 99.2042 433.2 54.1542 441.526 50.4672C442.522 50.0042 445.542 48.6665 463.434 62.3513C485.212 79.0372 518.123 110.059 517.551 116.799C516.752 126.128 485.636 159.174 485.342 159.311C485.249 159.352 485.15 159.376 485.048 159.38Z" fill="#231F20"/>
<path d="M326.043 459.33C428.547 459.33 511.642 372.041 511.642 264.365C511.642 156.688 428.547 69.3995 326.043 69.3995C223.54 69.3995 140.444 156.688 140.444 264.365C140.444 372.041 223.54 459.33 326.043 459.33Z" fill="white"/>
<path d="M326.043 460.188C289.174 460.188 253.132 448.703 222.476 427.186C191.821 405.668 167.927 375.085 153.818 339.303C139.709 303.521 136.017 264.148 143.21 226.162C150.403 188.176 168.157 153.284 194.228 125.897C220.298 98.5109 253.514 79.8606 289.675 72.3048C325.836 64.7489 363.318 68.6268 397.381 83.4482C431.444 98.2696 460.558 123.369 481.042 155.572C501.525 187.774 512.458 225.635 512.458 264.365C512.402 316.282 492.744 366.056 457.797 402.767C422.849 439.478 375.466 460.129 326.043 460.188ZM326.043 70.257C289.497 70.257 253.771 81.6412 223.383 102.97C192.996 124.299 169.312 154.614 155.326 190.083C141.34 225.552 137.681 264.58 144.811 302.233C151.941 339.887 169.54 374.473 195.382 401.62C221.224 428.766 254.15 447.253 289.994 454.743C325.838 462.233 362.992 458.389 396.756 443.697C430.521 429.006 459.38 404.126 479.684 372.205C499.989 340.285 510.826 302.756 510.826 264.365C510.77 212.902 491.284 163.565 456.642 127.175C422.001 90.7855 375.033 70.316 326.043 70.257Z" fill="#231F20"/>
<path d="M303.575 161.946L256.052 131.761L236.069 166.478L283.592 196.663L303.575 161.946Z" fill="white"/>
<path d="M282.423 196.095C282.274 196.09 282.129 196.049 281.998 195.975L234.803 165.896C234.71 165.838 234.629 165.761 234.565 165.67C234.501 165.579 234.455 165.475 234.429 165.365C234.403 165.255 234.398 165.141 234.415 165.029C234.431 164.917 234.469 164.81 234.525 164.713L254.442 130.175C254.553 129.983 254.732 129.845 254.94 129.791C255.148 129.736 255.367 129.77 255.552 129.884L302.894 159.963C303.08 160.083 303.214 160.273 303.27 160.494C303.295 160.604 303.3 160.719 303.283 160.83C303.266 160.942 303.228 161.049 303.172 161.146L283.255 195.684C283.14 195.875 282.959 196.01 282.749 196.061L282.423 196.095ZM236.337 164.867L282.194 194.02L301.278 160.957L255.405 131.804L236.337 164.867Z" fill="#231F20"/>
<path d="M282.497 195.213L235.234 165.133L215.321 199.659L262.584 229.739L282.497 195.213Z" fill="white"/>
<path d="M262.555 230.616C262.406 230.619 262.258 230.578 262.131 230.496L214.87 200.417C214.688 200.296 214.559 200.105 214.511 199.885C214.462 199.668 214.497 199.44 214.609 199.251L234.525 164.713C234.639 164.518 234.821 164.377 235.031 164.318C235.238 164.267 235.455 164.304 235.635 164.421L282.896 194.5C283.077 194.625 283.21 194.814 283.272 195.032C283.321 195.254 283.286 195.488 283.174 195.684L263.257 230.204C263.184 230.331 263.081 230.435 262.958 230.507C262.835 230.579 262.696 230.617 262.555 230.616ZM216.421 199.405L262.278 228.558L281.345 195.495L235.488 166.342L216.421 199.405Z" fill="#231F20"/>
<path d="M279.321 185.171C279.176 185.174 279.034 185.133 278.913 185.051C278.824 184.998 278.746 184.927 278.684 184.841C278.622 184.756 278.577 184.658 278.553 184.553C278.529 184.449 278.525 184.34 278.542 184.234C278.558 184.128 278.596 184.027 278.651 183.937L291.091 162.363C291.145 162.271 291.215 162.191 291.298 162.127C291.381 162.063 291.476 162.017 291.576 161.992C291.676 161.966 291.78 161.962 291.881 161.978C291.983 161.995 292.081 162.033 292.168 162.089C292.343 162.206 292.467 162.389 292.516 162.6C292.565 162.811 292.534 163.033 292.43 163.221L279.99 184.76C279.922 184.884 279.825 184.987 279.707 185.059C279.59 185.131 279.457 185.17 279.321 185.171Z" fill="#D1D3D4"/>
<path d="M274.342 175.174C274.205 175.174 274.07 175.139 273.95 175.071C273.862 175.015 273.786 174.941 273.725 174.853C273.664 174.766 273.621 174.667 273.596 174.562C273.572 174.457 273.568 174.348 273.584 174.241C273.6 174.134 273.635 174.031 273.689 173.939L283.239 157.322C283.286 157.218 283.352 157.125 283.435 157.05C283.518 156.974 283.615 156.918 283.719 156.884C283.824 156.851 283.934 156.841 284.043 156.855C284.152 156.868 284.256 156.906 284.35 156.965C284.444 157.024 284.525 157.103 284.589 157.197C284.652 157.291 284.695 157.398 284.717 157.511C284.738 157.623 284.737 157.74 284.713 157.852C284.689 157.964 284.643 158.07 284.578 158.162L275.011 174.728C274.948 174.858 274.852 174.968 274.734 175.046C274.617 175.125 274.481 175.169 274.342 175.174Z" fill="#D1D3D4"/>
<path d="M263.616 175.174C263.472 175.177 263.33 175.135 263.208 175.054C263.12 174.999 263.044 174.927 262.984 174.841C262.923 174.755 262.88 174.657 262.855 174.554C262.831 174.45 262.827 174.342 262.842 174.237C262.858 174.131 262.893 174.03 262.947 173.939L273.035 156.447C273.144 156.265 273.315 156.135 273.513 156.084C273.711 156.032 273.921 156.064 274.097 156.173C274.274 156.287 274.402 156.468 274.453 156.68C274.505 156.891 274.477 157.115 274.374 157.305L264.285 174.779C264.215 174.9 264.117 174.999 264 175.068C263.883 175.137 263.75 175.174 263.616 175.174Z" fill="#D1D3D4"/>
<path d="M255.764 170.183C255.619 170.186 255.477 170.145 255.355 170.063C255.267 170.007 255.191 169.933 255.13 169.846C255.07 169.758 255.026 169.659 255.002 169.554C254.977 169.449 254.973 169.34 254.989 169.233C255.005 169.126 255.041 169.024 255.094 168.931L260.139 160.203C260.192 160.11 260.263 160.03 260.346 159.966C260.429 159.902 260.523 159.856 260.623 159.831C260.723 159.805 260.827 159.801 260.929 159.818C261.031 159.834 261.128 159.872 261.216 159.928C261.389 160.042 261.513 160.222 261.562 160.43C261.611 160.638 261.581 160.858 261.477 161.043L256.433 169.789C256.363 169.909 256.265 170.009 256.147 170.078C256.03 170.147 255.898 170.183 255.764 170.183Z" fill="#D1D3D4"/>
<path d="M263.845 156.173C263.7 156.174 263.559 156.132 263.436 156.053C263.262 155.936 263.138 155.753 263.089 155.542C263.04 155.331 263.071 155.108 263.175 154.921L267.534 147.375C267.65 147.211 267.819 147.098 268.01 147.059C268.201 147.019 268.399 147.054 268.565 147.159C268.732 147.264 268.856 147.43 268.913 147.625C268.97 147.82 268.955 148.031 268.873 148.216L264.465 155.778C264.399 155.892 264.309 155.987 264.201 156.055C264.093 156.124 263.971 156.164 263.845 156.173Z" fill="#D1D3D4"/>
<path d="M250.425 160.751C250.287 160.746 250.152 160.705 250.033 160.631C249.945 160.575 249.869 160.501 249.808 160.414C249.747 160.327 249.704 160.227 249.679 160.122C249.655 160.017 249.651 159.908 249.667 159.801C249.683 159.694 249.718 159.592 249.772 159.5L259.681 142.351C259.792 142.168 259.967 142.037 260.167 141.986C260.368 141.935 260.58 141.967 260.759 142.076C260.847 142.133 260.923 142.207 260.984 142.294C261.045 142.381 261.088 142.48 261.113 142.585C261.137 142.691 261.141 142.8 261.125 142.906C261.109 143.013 261.074 143.116 261.02 143.208L251.094 160.357C251.026 160.479 250.927 160.579 250.81 160.648C250.692 160.718 250.56 160.753 250.425 160.751Z" fill="#D1D3D4"/>
<path d="M259.387 219.709C259.248 219.712 259.112 219.67 258.996 219.589C258.907 219.536 258.829 219.465 258.767 219.379C258.705 219.294 258.66 219.195 258.636 219.091C258.612 218.987 258.608 218.878 258.625 218.772C258.641 218.666 258.679 218.565 258.734 218.475L271.174 196.901C271.22 196.794 271.287 196.699 271.37 196.622C271.454 196.544 271.552 196.486 271.659 196.452C271.766 196.418 271.878 196.408 271.988 196.423C272.099 196.438 272.205 196.477 272.3 196.539C272.395 196.6 272.476 196.682 272.539 196.779C272.601 196.877 272.643 196.987 272.661 197.102C272.68 197.218 272.675 197.336 272.646 197.449C272.618 197.562 272.567 197.668 272.496 197.759L260.057 219.315C259.988 219.437 259.89 219.537 259.772 219.606C259.655 219.676 259.522 219.711 259.387 219.709Z" fill="#D1D3D4"/>
<path d="M254.425 209.711C254.283 209.71 254.143 209.675 254.017 209.609C253.929 209.552 253.852 209.478 253.791 209.391C253.731 209.304 253.687 209.205 253.663 209.1C253.638 208.994 253.634 208.885 253.65 208.778C253.666 208.672 253.702 208.569 253.755 208.477L263.322 191.911C263.374 191.82 263.443 191.74 263.525 191.677C263.607 191.614 263.7 191.568 263.798 191.543C263.897 191.517 263.999 191.513 264.099 191.529C264.2 191.545 264.296 191.581 264.383 191.637C264.47 191.692 264.545 191.764 264.606 191.85C264.666 191.936 264.709 192.034 264.733 192.137C264.758 192.241 264.762 192.348 264.747 192.454C264.732 192.559 264.697 192.66 264.644 192.751L255.094 209.334C255.021 209.45 254.922 209.546 254.805 209.612C254.688 209.677 254.557 209.712 254.425 209.711Z" fill="#D1D3D4"/>
<path d="M243.683 209.711C243.546 209.712 243.411 209.677 243.291 209.609C243.203 209.552 243.127 209.478 243.066 209.391C243.005 209.304 242.961 209.205 242.937 209.1C242.913 208.994 242.909 208.885 242.924 208.778C242.94 208.672 242.976 208.569 243.03 208.477L253.102 190.985C253.216 190.805 253.39 190.677 253.59 190.626C253.79 190.575 254 190.605 254.18 190.711C254.268 190.767 254.344 190.841 254.405 190.928C254.466 191.015 254.509 191.114 254.534 191.22C254.558 191.325 254.562 191.434 254.546 191.541C254.53 191.647 254.495 191.75 254.441 191.842L244.352 209.317C244.283 209.439 244.185 209.539 244.068 209.608C243.95 209.678 243.817 209.713 243.683 209.711Z" fill="#D1D3D4"/>
<path d="M420.297 275.428L347.318 337.663L351.352 342.882L424.331 280.647L420.297 275.428Z" fill="white"/>
<path d="M351.347 343.781H351.265C351.049 343.757 350.851 343.646 350.71 343.472L346.678 338.328C346.543 338.147 346.482 337.919 346.506 337.691C346.531 337.463 346.639 337.255 346.808 337.11L419.781 274.877C419.953 274.736 420.171 274.671 420.387 274.697C420.604 274.722 420.803 274.836 420.94 275.014L424.973 280.159C425.102 280.341 425.166 280.566 425.152 280.793C425.129 281.02 425.024 281.229 424.858 281.376L351.869 343.61C351.718 343.726 351.534 343.786 351.347 343.781ZM348.457 337.813L351.477 341.706L423.193 280.57L420.173 276.661L348.457 337.813Z" fill="#231F20"/>
<path d="M423.236 281.576L352.45 341.941L382.165 380.392L452.951 320.027L423.236 281.576Z" fill="white"/>
<path d="M382.168 381.303H382.005C381.9 381.292 381.798 381.259 381.706 381.206C381.613 381.153 381.532 381.081 381.466 380.994L351.82 342.529C351.684 342.351 351.619 342.124 351.641 341.896C351.662 341.669 351.767 341.459 351.934 341.312L422.719 280.948C422.891 280.807 423.109 280.742 423.326 280.768C423.542 280.793 423.741 280.907 423.879 281.085L453.59 319.533C453.72 319.715 453.783 319.94 453.77 320.167C453.739 320.392 453.635 320.598 453.476 320.75L382.674 381.097C382.535 381.228 382.355 381.301 382.168 381.303ZM353.599 342.101L382.282 379.228L451.811 319.944L423.128 282.834L353.599 342.101Z" fill="#231F20"/>
<path d="M373.842 361.925C373.727 361.926 373.614 361.9 373.509 361.849C373.405 361.799 373.312 361.725 373.238 361.633L358.48 342.529C358.412 342.446 358.361 342.349 358.329 342.245C358.298 342.14 358.287 342.03 358.298 341.92C358.309 341.811 358.341 341.705 358.391 341.61C358.442 341.514 358.512 341.43 358.594 341.363L421.348 287.859C421.425 287.788 421.517 287.736 421.615 287.706C421.714 287.677 421.818 287.67 421.919 287.687C422.121 287.714 422.307 287.818 422.442 287.979L437.248 307.168C437.314 307.251 437.363 307.347 437.393 307.45C437.423 307.553 437.433 307.661 437.422 307.768C437.411 307.875 437.38 307.979 437.331 308.073C437.281 308.168 437.215 308.251 437.134 308.317L374.397 361.822C374.23 361.926 374.033 361.962 373.842 361.925ZM360.113 342.049L373.956 359.97L435.485 307.494L421.658 289.591L360.113 342.049Z" fill="#D1D3D4"/>
<path d="M406.949 354.071C406.831 354.071 406.713 354.043 406.606 353.99C406.499 353.936 406.404 353.858 406.329 353.762L399.097 344.399C399.031 344.317 398.982 344.221 398.953 344.117C398.925 344.013 398.919 343.905 398.934 343.798C398.942 343.692 398.971 343.588 399.019 343.494C399.067 343.4 399.132 343.317 399.211 343.25L414.802 329.959C414.88 329.89 414.971 329.839 415.069 329.807C415.168 329.776 415.271 329.766 415.373 329.777C415.475 329.788 415.573 329.82 415.663 329.872C415.753 329.924 415.832 329.995 415.895 330.079L423.127 339.443C423.193 339.525 423.242 339.621 423.272 339.724C423.302 339.827 423.312 339.935 423.301 340.042C423.29 340.149 423.259 340.253 423.21 340.348C423.16 340.442 423.094 340.525 423.013 340.592L407.439 353.882C407.3 353.999 407.128 354.066 406.949 354.071ZM400.795 344.004L407.064 352.098L421.429 339.837L415.177 331.743L400.795 344.004Z" fill="#D1D3D4"/>
<path d="M431.388 430.674C431.388 430.674 456.545 465.264 463.923 465.898C471.302 466.533 533.125 404.385 531.068 398.366C529.011 392.347 492.884 359.764 492.884 359.764L431.388 430.674Z" fill="#231F20"/>
<path d="M464.005 466.756H463.858C456.333 466.104 433.331 434.773 430.735 431.206C430.609 431.051 430.539 430.853 430.539 430.649C430.539 430.444 430.609 430.247 430.735 430.091L492.231 359.181C492.384 359.024 492.589 358.936 492.803 358.936C493.016 358.936 493.221 359.024 493.374 359.181C494.843 360.519 529.681 391.969 531.787 398.143C532.097 399.035 531.934 400.613 528.358 405.517C516.441 421.843 471.335 466.756 464.005 466.756ZM432.449 430.743C439.714 440.655 458.341 464.578 463.989 465.041H464.087C469.278 465.041 507.152 429.251 524.114 408.261C530.481 400.39 530.334 398.812 530.301 398.64C528.669 393.976 503.365 370.379 492.95 360.913L432.449 430.743Z" fill="#231F20"/>
<path d="M392.502 391.575C392.502 391.575 394.591 378.971 393.726 376.33C392.861 373.689 390.771 367.858 389.433 369.47C388.094 371.082 388.926 376.33 388.926 376.33C388.926 376.33 386.461 372.523 384.16 368.613C381.858 364.703 379.719 364.72 379.621 366.075C380.081 368.472 380.764 370.815 381.662 373.071C381.662 373.071 378.544 365.286 377.336 367.189C376.128 369.093 378.56 375.987 378.56 375.987C378.56 375.987 375.034 367.584 373.663 370.431C372.291 373.277 373.924 379.279 374.903 381.354C375.883 383.429 384.094 398.932 384.094 398.932L393.677 391.095" fill="white"/>
<path d="M384.16 399.686H383.996C383.882 399.661 383.774 399.611 383.679 399.54C383.583 399.47 383.503 399.379 383.441 399.275C383.115 398.64 375.279 383.721 374.234 381.646C373.189 379.571 371.475 373.209 372.993 369.968C373.113 369.662 373.313 369.4 373.571 369.211C373.828 369.022 374.132 368.916 374.446 368.904C374.811 368.964 375.16 369.099 375.474 369.303C375.788 369.506 376.06 369.773 376.275 370.088C376.057 368.931 376.188 367.732 376.65 366.658C376.783 366.433 376.972 366.25 377.196 366.129C377.421 366.008 377.672 365.954 377.924 365.972C378.262 366.028 378.578 366.183 378.838 366.418C378.823 366.258 378.823 366.097 378.838 365.938C378.857 365.577 378.984 365.232 379.201 364.952C379.418 364.671 379.714 364.47 380.046 364.377C381.482 364 383.311 365.406 384.943 368.098C385.988 369.813 387.082 371.631 387.947 373.02C387.826 371.566 388.171 370.112 388.927 368.887C389.093 368.679 389.31 368.522 389.554 368.432C389.798 368.341 390.06 368.321 390.314 368.373C390.869 368.493 392.192 368.767 394.591 376.09C395.342 378.37 394.2 386.602 393.644 390.203C393.797 390.161 393.958 390.168 394.106 390.223C394.255 390.278 394.384 390.378 394.477 390.512C394.611 390.69 394.672 390.915 394.647 391.14C394.623 391.365 394.515 391.571 394.346 391.712L384.764 399.549C384.587 399.676 384.37 399.726 384.16 399.686ZM374.495 370.636C373.401 372.986 374.675 378.559 375.72 380.806C376.552 382.52 382.69 394.165 384.437 397.474L391.718 391.524C391.71 391.473 391.71 391.42 391.718 391.369C392.502 386.568 393.547 378.319 392.959 376.553C391.326 371.408 390.314 370.293 390.004 370.019C389.335 371.031 389.449 374.083 389.743 376.021C389.775 376.211 389.744 376.407 389.654 376.575C389.565 376.744 389.423 376.875 389.253 376.947C389.081 377.021 388.89 377.03 388.712 376.974C388.533 376.918 388.379 376.799 388.274 376.638C388.274 376.638 385.759 372.78 383.474 368.904C381.841 366.109 380.584 365.903 380.421 365.955C380.89 368.228 381.562 370.45 382.429 372.591C382.469 372.695 382.488 372.805 382.486 372.917C382.485 373.028 382.462 373.138 382.42 373.241C382.377 373.343 382.316 373.435 382.239 373.512C382.162 373.589 382.071 373.649 381.972 373.689C381.875 373.733 381.77 373.756 381.664 373.757C381.558 373.758 381.453 373.735 381.355 373.692C381.258 373.649 381.169 373.585 381.096 373.505C381.022 373.425 380.965 373.33 380.927 373.226C380.206 371.236 379.198 369.373 377.94 367.704C377.532 368.956 378.315 372.608 379.344 375.524C379.414 375.736 379.404 375.968 379.316 376.172C379.228 376.376 379.068 376.537 378.87 376.621C378.675 376.702 378.457 376.701 378.263 376.618C378.068 376.535 377.912 376.377 377.826 376.175C377.077 374.115 375.945 372.232 374.495 370.636Z" fill="#231F20"/>
<path d="M425.299 329.222C425.299 329.222 413.561 332.652 410.982 332.034C408.402 331.417 402.656 329.805 403.994 328.244C405.333 326.684 410.394 327.027 410.394 327.027C410.394 327.027 406.541 324.832 402.607 322.808C398.672 320.785 398.477 318.555 399.75 318.332C402.064 318.566 404.35 319.043 406.574 319.756C406.574 319.756 398.901 317.269 400.583 315.829C402.264 314.388 409.039 316.223 409.039 316.223C409.039 316.223 400.729 313.376 403.227 311.661C405.725 309.947 411.651 311.044 413.708 311.867C415.765 312.69 431.274 319.721 431.274 319.721L424.744 330.508" fill="white"/>
<path d="M411.782 332.96C411.447 332.967 411.113 332.932 410.786 332.857C403.619 331.142 403.211 329.736 403.048 329.153C402.971 328.895 402.962 328.62 403.023 328.357C403.083 328.095 403.21 327.854 403.391 327.661C404.478 326.751 405.821 326.244 407.211 326.221C405.807 325.449 404.044 324.506 402.313 323.58C399.603 322.191 398.102 320.442 398.314 318.898C398.372 318.542 398.536 318.214 398.782 317.961C399.029 317.709 399.345 317.545 399.685 317.492C399.762 317.534 399.848 317.555 399.935 317.552C400.022 317.549 400.107 317.522 400.181 317.475C400.256 317.427 400.317 317.361 400.36 317.281C400.402 317.202 400.425 317.112 400.425 317.02C400.425 316.929 400.402 316.839 400.36 316.76C400.317 316.68 400.256 316.613 400.181 316.566C400.107 316.519 400.022 316.492 399.935 316.489C399.848 316.486 399.762 316.507 399.685 316.549C399.637 316.291 399.66 316.024 399.749 315.778C399.838 315.533 399.992 315.318 400.191 315.16C401.177 314.555 402.321 314.296 403.456 314.422C402.813 314.026 402.343 313.379 402.15 312.622C402.129 312.291 402.2 311.962 402.353 311.673C402.507 311.384 402.737 311.147 403.015 310.993C405.938 309.106 412.125 310.307 414.198 311.13C416.271 311.953 431.176 318.71 431.813 319.001C431.92 319.051 432.017 319.124 432.095 319.215C432.174 319.307 432.234 319.415 432.27 319.533C432.302 319.65 432.311 319.772 432.297 319.893C432.283 320.014 432.246 320.13 432.188 320.236L425.658 331.04C425.541 331.23 425.358 331.365 425.148 331.416C424.938 331.467 424.717 331.43 424.532 331.314C424.397 331.228 424.29 331.103 424.224 330.953C424.157 330.804 424.133 330.637 424.156 330.474C420.115 331.707 415.972 332.54 411.782 332.96ZM404.681 328.81C404.958 329.102 406.182 330.028 411.211 331.263C412.941 331.691 420.663 329.771 425.119 328.467H425.266L430.164 320.27C426.899 318.761 415.243 313.496 413.496 312.81C411.259 311.936 405.872 311.095 403.701 312.536C403.587 312.536 403.57 312.656 403.57 312.656C405.294 313.948 407.224 314.906 409.268 315.486C409.473 315.553 409.644 315.702 409.745 315.901C409.846 316.1 409.868 316.333 409.807 316.549C409.746 316.763 409.608 316.944 409.422 317.053C409.236 317.162 409.016 317.19 408.811 317.132C405.938 316.343 402.395 315.914 401.269 316.446C402.974 317.603 404.841 318.471 406.803 319.018C407.019 319.082 407.203 319.233 407.313 319.439C407.423 319.645 407.451 319.888 407.39 320.116C407.33 320.343 407.186 320.536 406.99 320.652C406.794 320.768 406.562 320.797 406.346 320.733C404.221 320.029 402.033 319.558 399.816 319.327C399.816 319.481 400.126 320.767 402.901 322.191C406.803 324.197 410.672 326.409 410.721 326.427C410.888 326.519 411.019 326.67 411.092 326.853C411.165 327.036 411.176 327.239 411.122 327.43C411.068 327.62 410.953 327.784 410.797 327.895C410.64 328.006 410.452 328.057 410.264 328.039C408.452 327.764 405.529 327.953 404.681 328.81Z" fill="#231F20"/>
<path d="M448.938 407.695C446.055 413.629 443.61 419.786 441.624 426.113C441.624 426.113 417.773 419.253 416.173 418.396C414.574 417.538 394.804 386.43 394.804 386.43L381.45 396.514C381.45 396.514 399.228 428.685 403.456 432.527C407.684 436.368 434.098 449.452 443.697 450.704C453.297 451.956 473.18 439.609 486.273 425.718C499.366 411.828 514.727 383.344 512.246 372.866C509.765 362.388 501.863 356.643 498.843 354.516C495.823 352.39 479.792 336.699 477.18 334.967C474.568 333.235 429.642 315.589 429.642 315.589L424.858 330.525C424.858 330.525 465.393 348.857 467.793 350.469C470.193 352.081 488.167 377.907 488.167 377.907C488.167 377.907 474.078 382.435 467.222 387.545C460.365 392.655 448.938 407.695 448.938 407.695Z" fill="#12275C"/>
<path d="M492.623 405.569C492.207 400.172 490.571 394.957 487.851 390.358C485.131 385.758 481.405 381.907 476.983 379.125C473.055 376.493 468.394 375.338 463.76 375.85C461.458 376.147 459.285 377.128 457.495 378.677C455.706 380.226 454.373 382.279 453.655 384.595C452.422 384.218 451.121 384.152 449.858 384.402C448.596 384.653 447.408 385.212 446.39 386.036C440.856 390.289 441.134 398.795 442.342 405.088C443.105 409.557 444.567 413.862 446.668 417.83C449.444 422.448 453.425 426.13 458.137 428.437C462.849 430.745 468.093 431.581 473.245 430.846C478.86 429.854 483.934 426.733 487.505 422.074C491.077 417.416 492.897 411.543 492.623 405.569Z" fill="white"/>
<path d="M469.637 431.961C464.906 431.983 460.247 430.735 456.104 428.334C451.961 425.933 448.471 422.458 445.966 418.242C443.814 414.191 442.319 409.792 441.542 405.226C440.269 398.64 439.909 389.792 445.917 385.316C446.935 384.512 448.099 383.937 449.338 383.627C450.577 383.317 451.863 383.279 453.116 383.515C453.977 381.225 455.409 379.22 457.262 377.711C459.115 376.203 461.32 375.246 463.646 374.941C468.47 374.432 473.316 375.64 477.408 378.371C481.948 381.215 485.773 385.161 488.563 389.879C491.352 394.596 493.024 399.947 493.439 405.483C493.742 411.671 491.871 417.76 488.181 422.593C484.491 427.427 479.24 430.669 473.425 431.703C472.17 431.886 470.904 431.972 469.637 431.961ZM451.484 385.076C449.816 385.125 448.205 385.725 446.88 386.791C441.656 390.786 441.983 398.881 443.142 404.968C443.878 409.349 445.307 413.568 447.37 417.453C450.066 421.918 453.929 425.475 458.497 427.698C463.064 429.92 468.145 430.716 473.131 429.989C478.546 429.037 483.44 426.03 486.883 421.537C490.326 417.045 492.078 411.38 491.807 405.62C491.411 400.365 489.821 395.287 487.171 390.811C484.521 386.336 480.887 382.593 476.575 379.897C472.801 377.369 468.329 376.246 463.875 376.707C461.734 376.99 459.714 377.903 458.047 379.342C456.38 380.78 455.135 382.685 454.455 384.836C454.387 385.06 454.241 385.25 454.047 385.367C453.944 385.413 453.833 385.437 453.72 385.437C453.608 385.437 453.497 385.413 453.394 385.367C452.776 385.165 452.131 385.067 451.484 385.076Z" fill="#231F20"/>
<path d="M475.939 423.129C475.653 424.65 475.866 426.228 476.543 427.605C477.026 428.257 477.426 428.972 477.735 429.731C477.866 430.438 477.833 431.168 477.637 431.858C477.23 433.733 476.724 435.582 476.119 437.397C475.998 437.639 475.963 437.919 476.021 438.186C476.184 438.7 476.87 438.717 477.392 438.632C480.804 438.1 484.347 437.5 487.187 435.356C488.878 433.869 490.236 432.008 491.164 429.907C492.093 427.805 492.569 425.514 492.558 423.198C492.558 419.545 491.742 413.217 487.416 412.788C482.159 412.308 476.69 418.087 475.939 423.129Z" fill="white"/>
<path d="M476.951 439.575C476.605 439.6 476.26 439.509 475.967 439.315C475.673 439.121 475.446 438.833 475.319 438.494C475.196 438.046 475.225 437.568 475.4 437.14C476.005 435.367 476.506 433.557 476.902 431.721C477.063 431.165 477.102 430.579 477.016 430.006C476.866 429.583 476.651 429.189 476.38 428.84C476.216 428.599 476.053 428.342 475.906 428.085C475.12 426.542 474.872 424.758 475.204 423.043C475.988 417.59 481.832 411.433 487.497 411.982C491.937 412.428 493.456 418.104 493.374 423.266C493.379 425.712 492.87 428.13 491.886 430.347C490.901 432.564 489.464 434.526 487.677 436.093C484.673 438.426 480.738 439.043 477.588 439.523L476.951 439.575ZM476.837 437.86C476.983 437.884 477.132 437.884 477.278 437.86C480.412 437.363 483.971 436.814 486.632 434.739C488.226 433.332 489.505 431.573 490.377 429.586C491.249 427.6 491.693 425.436 491.676 423.249C491.676 422.323 491.676 414.143 487.268 413.714C482.485 413.217 477.473 418.687 476.755 423.318C476.497 424.647 476.67 426.03 477.245 427.245L477.653 427.862C478.125 428.438 478.446 429.133 478.584 429.879C478.721 430.625 478.671 431.396 478.437 432.115C478.027 434.021 477.509 435.899 476.886 437.74L476.837 437.86Z" fill="#231F20"/>
<path d="M320.982 383.532C325.196 383.095 329.412 384.353 332.779 387.052C336.145 389.751 338.413 393.691 339.123 398.076C339.833 402.462 338.934 406.968 336.607 410.685C334.279 414.401 330.697 417.053 326.581 418.104L327.202 424.484C327.253 424.803 327.241 425.13 327.167 425.444C327.093 425.758 326.958 426.053 326.772 426.31C326.585 426.567 326.35 426.782 326.081 426.94C325.812 427.098 325.515 427.197 325.209 427.23C324.902 427.263 324.593 427.229 324.299 427.131C324.006 427.034 323.734 426.873 323.502 426.661C323.269 426.449 323.081 426.189 322.948 425.897C322.815 425.605 322.74 425.287 322.729 424.964L322.108 418.584C317.872 418.429 313.849 416.59 310.854 413.439C307.858 410.289 306.113 406.061 305.969 401.611C305.826 397.16 307.297 392.819 310.083 389.463C312.87 386.107 316.765 383.988 320.982 383.532Z" fill="white"/>
<path d="M324.965 427.948C324.205 427.948 323.472 427.651 322.908 427.116C322.344 426.58 321.989 425.844 321.912 425.05L321.373 419.408C316.989 419.077 312.882 417.03 309.866 413.671C306.849 410.312 305.142 405.887 305.083 401.27C305.023 396.652 306.615 392.18 309.544 388.737C312.473 385.293 316.526 383.13 320.9 382.675C325.216 382.305 329.51 383.624 332.956 386.379C336.402 389.134 338.757 393.131 339.567 397.599C340.377 402.068 339.586 406.694 337.346 410.587C335.105 414.48 331.573 417.365 327.43 418.687L327.985 424.329C328.067 425.18 327.824 426.03 327.31 426.692C326.796 427.355 326.052 427.775 325.242 427.862L324.965 427.948ZM321.063 384.39C317.059 384.832 313.362 386.852 310.719 390.043C308.076 393.234 306.682 397.358 306.819 401.586C306.956 405.813 308.612 409.829 311.456 412.824C314.299 415.819 318.117 417.571 322.141 417.727C322.338 417.734 322.526 417.817 322.67 417.958C322.814 418.1 322.905 418.292 322.924 418.499L323.545 424.878C323.563 425.082 323.62 425.279 323.713 425.459C323.805 425.638 323.932 425.796 324.085 425.923C324.237 426.05 324.413 426.142 324.601 426.196C324.788 426.249 324.985 426.262 325.177 426.233C325.369 426.212 325.556 426.15 325.725 426.052C325.894 425.953 326.042 425.82 326.161 425.66C326.28 425.5 326.367 425.316 326.417 425.12C326.466 424.924 326.478 424.719 326.45 424.518L325.83 418.121C325.81 417.914 325.864 417.706 325.982 417.538C326.099 417.37 326.272 417.254 326.467 417.213C330.393 416.223 333.815 413.703 336.039 410.162C338.263 406.621 339.122 402.325 338.444 398.144C337.765 393.962 335.599 390.208 332.384 387.642C329.169 385.075 325.145 383.888 321.129 384.321L321.063 384.39Z" fill="#231F20"/>
<path d="M322.68 413.457C329.217 413.457 334.516 407.891 334.516 401.024C334.516 394.158 329.217 388.591 322.68 388.591C316.144 388.591 310.845 394.158 310.845 401.024C310.845 407.891 316.144 413.457 322.68 413.457Z" fill="#231F20"/>
<path d="M322.647 414.315C319.38 414.352 316.226 413.058 313.847 410.705C311.468 408.352 310.05 405.122 309.889 401.694C309.729 398.266 310.839 394.906 312.986 392.319C315.134 389.732 318.152 388.119 321.407 387.82C324.743 387.465 328.076 388.517 330.674 390.744C333.272 392.971 334.921 396.191 335.258 399.695C335.596 403.199 334.595 406.701 332.475 409.43C330.355 412.159 327.289 413.891 323.953 414.246C323.52 414.294 323.084 414.317 322.647 414.315ZM321.603 389.517C319.07 389.788 316.705 390.973 314.911 392.871C313.117 394.768 312.005 397.26 311.764 399.922C311.523 402.584 312.168 405.252 313.589 407.47C315.011 409.689 317.121 411.321 319.56 412.088C321.998 412.856 324.615 412.711 326.963 411.679C329.312 410.647 331.247 408.792 332.439 406.429C333.631 404.066 334.007 401.342 333.501 398.721C332.996 396.1 331.641 393.744 329.667 392.055C327.405 390.121 324.505 389.209 321.603 389.517Z" fill="#231F20"/>
<path d="M199.72 251.315C203.793 252.592 207.25 255.449 209.391 259.306C211.531 263.164 212.194 267.732 211.244 272.084C210.295 276.436 207.804 280.246 204.278 282.739C200.752 285.233 196.455 286.223 192.26 285.509L190.513 291.649C190.317 292.217 189.922 292.686 189.408 292.958C188.894 293.23 188.3 293.285 187.748 293.111C187.197 292.938 186.729 292.55 186.442 292.026C186.155 291.502 186.069 290.882 186.203 290.294L187.966 284.155C184.087 282.32 181.018 279.002 179.385 274.875C177.752 270.749 177.676 266.124 179.173 261.941C180.67 257.757 183.628 254.33 187.445 252.356C191.262 250.383 195.651 250.01 199.72 251.315Z" fill="white"/>
<path d="M188.358 294.187C188.059 294.192 187.761 294.145 187.477 294.05C187.09 293.93 186.729 293.731 186.416 293.464C186.102 293.197 185.843 292.867 185.651 292.494C185.46 292.121 185.341 291.711 185.301 291.29C185.262 290.868 185.302 290.442 185.42 290.037L187.052 284.601C183.083 282.545 180 278.991 178.42 274.649C176.84 270.307 176.879 265.499 178.53 261.186C180.182 256.874 183.323 253.376 187.324 251.393C191.326 249.41 195.894 249.088 200.112 250.491C204.384 251.759 208.04 254.68 210.343 258.665C212.647 262.651 213.427 267.406 212.527 271.972C211.626 276.538 209.112 280.575 205.491 283.272C201.87 285.969 197.41 287.123 193.011 286.504L191.46 291.957C191.222 292.772 190.688 293.456 189.974 293.861C189.474 294.124 188.915 294.236 188.358 294.187ZM194.888 251.417C191.263 251.445 187.756 252.771 184.945 255.175C182.134 257.579 180.187 260.918 179.426 264.641C178.666 268.364 179.136 272.248 180.76 275.652C182.383 279.056 185.064 281.777 188.358 283.366C188.541 283.449 188.688 283.6 188.772 283.789C188.856 283.979 188.872 284.194 188.815 284.395L187.052 290.534C186.995 290.723 186.974 290.922 186.991 291.119C187.008 291.316 187.062 291.508 187.15 291.683C187.237 291.858 187.357 292.012 187.503 292.136C187.649 292.26 187.818 292.351 187.999 292.403C188.363 292.521 188.756 292.483 189.093 292.296C189.429 292.11 189.682 291.79 189.795 291.409L191.558 285.252C191.611 285.055 191.733 284.886 191.899 284.778C192.065 284.67 192.264 284.631 192.456 284.669C194.618 285.013 196.824 284.885 198.937 284.293C201.05 283.702 203.024 282.659 204.737 281.231C206.449 279.802 207.863 278.018 208.89 275.99C209.917 273.962 210.535 271.734 210.706 269.444C210.877 267.154 210.597 264.852 209.883 262.68C209.169 260.509 208.037 258.515 206.558 256.824C205.078 255.133 203.283 253.78 201.284 252.849C199.284 251.919 197.124 251.432 194.937 251.417H194.888Z" fill="#231F20"/>
<path d="M194.887 280.588C201.424 280.588 206.723 275.021 206.723 268.155C206.723 261.288 201.424 255.722 194.887 255.722C188.351 255.722 183.052 261.288 183.052 268.155C183.052 275.021 188.351 280.588 194.887 280.588Z" fill="#231F20"/>
<path d="M194.904 281.445C193.666 281.443 192.434 281.253 191.247 280.879C188.188 279.91 185.592 277.761 183.979 274.864C182.366 271.967 181.856 268.536 182.552 265.26C183.248 261.984 185.098 259.106 187.73 257.204C190.363 255.302 193.583 254.517 196.744 255.006C199.905 255.496 202.773 257.223 204.771 259.842C206.77 262.46 207.751 265.776 207.518 269.124C207.285 272.471 205.855 275.602 203.515 277.888C201.176 280.173 198.099 281.444 194.904 281.445ZM194.904 256.579C192.54 256.59 190.241 257.397 188.346 258.882C186.451 260.367 185.059 262.451 184.375 264.828C183.751 267.017 183.76 269.35 184.398 271.534C185.037 273.717 186.277 275.653 187.963 277.097C189.648 278.541 191.703 279.427 193.867 279.645C196.032 279.863 198.21 279.402 200.125 278.32C202.041 277.239 203.608 275.585 204.63 273.569C205.651 271.552 206.081 269.263 205.865 266.99C205.649 264.717 204.796 262.562 203.415 260.798C202.033 259.033 200.185 257.738 198.104 257.077C197.055 256.748 195.966 256.58 194.871 256.579H194.904Z" fill="#231F20"/>
<path d="M307.612 120.537C307.696 125.053 306.123 129.429 303.218 132.759C300.313 136.088 296.299 138.115 292.01 138.42C287.72 138.724 283.484 137.282 280.179 134.394C276.874 131.505 274.754 127.39 274.26 122.904H268.154C267.844 122.932 267.531 122.892 267.235 122.786C266.94 122.68 266.669 122.511 266.439 122.289C266.209 122.067 266.026 121.798 265.9 121.498C265.775 121.198 265.71 120.874 265.71 120.546C265.71 120.218 265.775 119.894 265.9 119.594C266.026 119.294 266.209 119.025 266.439 118.803C266.669 118.581 266.94 118.412 267.235 118.306C267.531 118.2 267.844 118.16 268.154 118.188H274.26C274.849 113.79 277 109.79 280.282 106.99C283.564 104.191 287.733 102.8 291.951 103.097C296.17 103.395 300.124 105.359 303.02 108.594C305.916 111.829 307.539 116.096 307.563 120.537H307.612Z" fill="white"/>
<path d="M290.878 138.972C286.758 138.967 282.771 137.441 279.614 134.661C276.457 131.88 274.33 128.022 273.607 123.761H268.203C267.782 123.794 267.36 123.735 266.962 123.588C266.564 123.441 266.199 123.209 265.89 122.907C265.581 122.606 265.334 122.24 265.166 121.834C264.997 121.428 264.91 120.989 264.91 120.546C264.91 120.103 264.997 119.664 265.166 119.258C265.334 118.852 265.581 118.486 265.89 118.185C266.199 117.883 266.564 117.651 266.962 117.504C267.36 117.357 267.782 117.298 268.203 117.331H273.607C274.188 113.875 275.696 110.665 277.954 108.078C280.211 105.492 283.125 103.636 286.353 102.729C289.58 101.822 292.987 101.901 296.172 102.958C299.358 104.015 302.191 106.004 304.337 108.694C306.483 111.383 307.854 114.66 308.289 118.14C308.723 121.619 308.203 125.157 306.79 128.337C305.376 131.517 303.128 134.207 300.31 136.091C297.491 137.975 294.219 138.974 290.878 138.972ZM268.203 119.045C268.003 119.023 267.8 119.045 267.608 119.11C267.416 119.175 267.24 119.282 267.09 119.424C266.94 119.565 266.82 119.738 266.738 119.932C266.656 120.125 266.613 120.334 266.613 120.546C266.613 120.758 266.656 120.967 266.738 121.16C266.82 121.354 266.94 121.527 267.09 121.668C267.24 121.81 267.416 121.917 267.608 121.982C267.8 122.047 268.003 122.069 268.203 122.047H274.26C274.457 122.049 274.647 122.127 274.794 122.266C274.942 122.405 275.036 122.595 275.059 122.801C275.604 127.001 277.646 130.827 280.774 133.506C283.901 136.184 287.881 137.514 291.907 137.228C295.933 136.941 299.705 135.059 302.46 131.962C305.215 128.865 306.748 124.785 306.748 120.546C306.748 116.307 305.215 112.227 302.46 109.13C299.705 106.033 295.933 104.151 291.907 103.864C287.881 103.578 283.901 104.908 280.774 107.586C277.646 110.265 275.604 114.091 275.059 118.291C275.036 118.497 274.942 118.687 274.794 118.826C274.647 118.965 274.457 119.043 274.26 119.045H268.203Z" fill="#231F20"/>
<path d="M290.879 132.97C297.415 132.97 302.714 127.404 302.714 120.537C302.714 113.671 297.415 108.104 290.879 108.104C284.342 108.104 279.043 113.671 279.043 120.537C279.043 127.404 284.342 132.97 290.879 132.97Z" fill="#231F20"/>
<path d="M290.878 133.828C288.376 133.828 285.93 133.048 283.849 131.588C281.769 130.128 280.147 128.052 279.19 125.623C278.232 123.195 277.981 120.523 278.47 117.945C278.958 115.367 280.163 112.998 281.932 111.14C283.702 109.281 285.956 108.015 288.41 107.502C290.864 106.99 293.408 107.253 295.72 108.259C298.032 109.265 300.008 110.968 301.398 113.154C302.788 115.339 303.53 117.909 303.53 120.537C303.526 124.061 302.192 127.439 299.82 129.93C297.448 132.422 294.233 133.823 290.878 133.828ZM290.878 108.979C288.698 108.979 286.567 109.658 284.755 110.931C282.942 112.204 281.53 114.013 280.696 116.129C279.863 118.245 279.645 120.573 280.072 122.819C280.499 125.065 281.55 127.128 283.092 128.746C284.635 130.364 286.6 131.465 288.739 131.91C290.877 132.354 293.093 132.123 295.107 131.244C297.12 130.365 298.84 128.879 300.049 126.973C301.258 125.067 301.901 122.828 301.898 120.537C301.893 117.47 300.731 114.531 298.665 112.363C296.598 110.196 293.798 108.979 290.878 108.979Z" fill="#231F20"/>
<path d="M489.749 226.895C489.726 231.336 488.103 235.603 485.207 238.838C482.311 242.073 478.356 244.037 474.138 244.335C469.92 244.632 465.751 243.241 462.469 240.442C459.187 237.642 457.035 233.642 456.446 229.244H450.341C450.03 229.272 449.717 229.232 449.422 229.126C449.126 229.02 448.855 228.851 448.626 228.629C448.396 228.407 448.212 228.138 448.087 227.838C447.961 227.538 447.896 227.214 447.896 226.886C447.896 226.558 447.961 226.234 448.087 225.934C448.212 225.634 448.396 225.365 448.626 225.143C448.855 224.921 449.126 224.752 449.422 224.646C449.717 224.54 450.03 224.5 450.341 224.528H456.446C457.035 220.129 459.188 216.127 462.472 213.328C465.756 210.528 469.927 209.139 474.146 209.439C478.365 209.738 482.32 211.705 485.215 214.944C488.11 218.182 489.73 222.452 489.749 226.895Z" fill="white"/>
<path d="M473.05 245.312C468.931 245.31 464.944 243.784 461.789 241.003C458.633 238.222 456.511 234.362 455.794 230.101H450.39C449.97 230.134 449.547 230.074 449.149 229.928C448.751 229.781 448.386 229.549 448.077 229.247C447.768 228.946 447.522 228.58 447.353 228.174C447.185 227.768 447.098 227.329 447.098 226.886C447.098 226.443 447.185 226.004 447.353 225.598C447.522 225.192 447.768 224.826 448.077 224.525C448.386 224.223 448.751 223.991 449.149 223.844C449.547 223.697 449.97 223.638 450.39 223.671H455.794C456.375 220.214 457.884 217.003 460.143 214.417C462.401 211.83 465.316 209.974 468.544 209.068C471.772 208.161 475.18 208.242 478.366 209.3C481.552 210.358 484.384 212.349 486.53 215.04C488.675 217.731 490.045 221.01 490.477 224.49C490.91 227.971 490.388 231.509 488.972 234.688C487.556 237.868 485.306 240.557 482.485 242.439C479.665 244.321 476.391 245.318 473.05 245.312ZM450.39 225.385C450.19 225.363 449.987 225.385 449.796 225.45C449.604 225.515 449.427 225.622 449.277 225.763C449.127 225.905 449.007 226.078 448.925 226.271C448.843 226.465 448.801 226.674 448.801 226.886C448.801 227.098 448.843 227.307 448.925 227.5C449.007 227.694 449.127 227.867 449.277 228.008C449.427 228.15 449.604 228.257 449.796 228.322C449.987 228.387 450.19 228.409 450.39 228.386H456.496C456.694 228.389 456.884 228.467 457.031 228.606C457.178 228.745 457.272 228.935 457.296 229.141C457.84 233.341 459.883 237.167 463.01 239.846C466.138 242.524 470.117 243.854 474.143 243.568C478.169 243.281 481.941 241.399 484.696 238.302C487.452 235.205 488.984 231.125 488.984 226.886C488.984 222.647 487.452 218.567 484.696 215.47C481.941 212.373 478.169 210.491 474.143 210.204C470.117 209.918 466.138 211.248 463.01 213.926C459.883 216.605 457.84 220.431 457.296 224.631C457.272 224.837 457.178 225.027 457.031 225.166C456.884 225.305 456.694 225.383 456.496 225.385H450.39Z" fill="#231F20"/>
<path d="M473.066 239.328C479.603 239.328 484.902 233.761 484.902 226.895C484.902 220.028 479.603 214.462 473.066 214.462C466.529 214.462 461.23 220.028 461.23 226.895C461.23 233.761 466.529 239.328 473.066 239.328Z" fill="#231F20"/>
<path d="M473.066 240.168C470.562 240.171 468.114 239.394 466.031 237.935C463.947 236.476 462.323 234.401 461.364 231.971C460.404 229.542 460.152 226.869 460.64 224.289C461.127 221.709 462.333 219.34 464.103 217.48C465.873 215.62 468.129 214.354 470.585 213.842C473.041 213.329 475.586 213.594 477.899 214.602C480.211 215.61 482.187 217.316 483.576 219.504C484.965 221.693 485.704 224.265 485.701 226.895C485.697 230.414 484.364 233.787 481.996 236.275C479.627 238.763 476.415 240.163 473.066 240.168ZM473.066 215.319C470.886 215.316 468.753 215.992 466.939 217.262C465.125 218.532 463.71 220.338 462.873 222.453C462.037 224.568 461.816 226.896 462.24 229.142C462.663 231.389 463.711 233.453 465.252 235.074C466.792 236.694 468.756 237.798 470.894 238.246C473.032 238.694 475.248 238.466 477.262 237.591C479.277 236.715 480.999 235.231 482.21 233.327C483.422 231.423 484.069 229.185 484.069 226.895C484.064 223.829 482.904 220.89 480.842 218.721C478.78 216.551 475.984 215.328 473.066 215.319Z" fill="#231F20"/>
<path d="M454.7 187.195C454.7 187.195 442.015 196.164 439.191 196.867C436.367 197.57 421.756 197.09 421.756 197.09L435.632 176.391C435.632 176.391 445.427 174.248 450.472 174.796C455.516 175.345 454.7 187.195 454.7 187.195Z" fill="white"/>
<path d="M431.388 198.119C426.833 198.119 422.066 197.947 421.723 197.947C421.577 197.936 421.436 197.886 421.313 197.802C421.19 197.718 421.09 197.603 421.021 197.467C420.95 197.334 420.912 197.183 420.912 197.03C420.912 196.877 420.95 196.726 421.021 196.593L434.897 175.894C435.019 175.717 435.2 175.595 435.403 175.551C435.795 175.551 445.362 173.373 450.488 173.956C456.267 174.591 455.483 186.749 455.385 187.264C455.377 187.394 455.34 187.52 455.277 187.633C455.215 187.746 455.129 187.843 455.026 187.915C453.72 188.841 442.162 196.97 439.273 197.707C436.658 198.057 434.022 198.195 431.388 198.119ZM423.225 196.267C428.008 196.404 436.954 196.541 438.946 196.044C440.938 195.547 450.112 189.339 453.834 186.732C453.998 183.405 453.655 176.031 450.308 175.654C445.933 175.174 437.738 176.803 436.04 177.163L423.225 196.267Z" fill="#231F20"/>
<path d="M400.713 136.057C401.144 138.412 401.26 140.819 401.056 143.208C400.681 145.558 402.329 154.029 402.329 154.029L386.902 167.611C386.902 167.611 383.082 147.032 384.045 143.603C385.982 138.529 388.161 133.56 390.575 128.717L400.713 136.057Z" fill="white"/>
<path d="M386.902 168.434C386.816 168.451 386.728 168.451 386.641 168.434C386.507 168.385 386.388 168.301 386.294 168.19C386.199 168.079 386.134 167.945 386.102 167.8C385.711 165.673 382.266 146.981 383.262 143.38C385.191 138.252 387.37 133.232 389.792 128.34C389.845 128.232 389.919 128.137 390.009 128.06C390.099 127.984 390.203 127.927 390.314 127.894C390.429 127.865 390.548 127.862 390.663 127.886C390.779 127.91 390.888 127.959 390.984 128.031L401.17 135.405C401.289 135.501 401.384 135.624 401.448 135.766C401.948 138.279 402.086 140.857 401.856 143.414C401.562 145.129 402.672 151.594 403.113 153.909C403.146 154.062 403.138 154.222 403.089 154.371C403.04 154.519 402.952 154.651 402.836 154.749L387.36 168.28C387.227 168.381 387.067 168.435 386.902 168.434ZM390.837 129.883C388.579 134.383 386.557 139.008 384.78 143.74C384.143 146.038 385.923 157.75 387.392 165.913L401.448 153.635C401.056 151.645 399.897 145.163 400.256 143.002C400.41 140.854 400.311 138.694 399.962 136.572L390.837 129.883Z" fill="#231F20"/>
<path d="M504.687 116.902C506.058 125.613 493.096 175.071 490.533 177.832C487.97 180.593 453.688 193.111 453.688 193.111L448.006 172.447C448.006 172.447 472.38 160.717 473.833 159.448C475.286 158.179 478.73 139.315 478.73 139.315C478.73 139.315 457.083 135.886 449.035 128.683C440.987 121.481 433.689 97.9866 429.657 97.0434C425.625 96.1002 413.463 103.749 411.7 106.99C409.937 110.231 405.643 139.401 405.643 139.401L385.27 132.747C385.27 132.747 391.016 102.565 394.379 93.9223C397.742 85.2793 436.612 65.6267 441.036 65.1637C445.46 64.7007 503.316 108.207 504.687 116.902Z" fill="#12275C"/>
<path d="M428.368 115.547C428.925 121.434 431.206 126.994 434.898 131.461C434.898 131.461 433.886 134.411 435.91 135.2C437.023 135.675 438.22 135.897 439.42 135.851C439.42 135.851 451.762 142.522 458.047 139.281C464.332 136.04 455.696 109.562 444.856 109.819C434.017 110.077 428.368 115.547 428.368 115.547Z" fill="white"/>
<path d="M453.835 141.03C447.795 141.03 440.595 137.412 439.273 136.709C438.033 136.717 436.804 136.479 435.649 136.006C434.91 135.632 434.332 134.981 434.029 134.18C433.727 133.379 433.722 132.488 434.016 131.684C430.377 127.129 428.145 121.519 427.617 115.599C427.609 115.471 427.628 115.343 427.674 115.224C427.719 115.106 427.789 114.999 427.878 114.913C428.107 114.673 433.837 109.219 444.872 108.962C452.382 108.705 458.406 120.057 460.283 128.117C461.72 134.257 461.034 138.715 458.439 140.121C456.988 140.783 455.415 141.093 453.835 141.03ZM439.371 135.028C439.495 135.002 439.622 135.002 439.746 135.028C439.877 135.028 451.811 141.476 457.704 138.458C459.5 137.532 459.891 133.622 458.683 128.477C456.675 119.903 450.896 110.625 445.019 110.625H444.889C439.293 110.55 433.82 112.353 429.266 115.77C429.865 121.305 432.038 126.523 435.502 130.741C435.604 130.856 435.675 130.998 435.706 131.152C435.738 131.306 435.729 131.466 435.682 131.616C435.682 131.616 434.98 133.776 436.204 134.274C437.203 134.7 438.277 134.899 439.355 134.857L439.371 135.028Z" fill="#231F20"/>
<path d="M428.368 115.547C430.431 118.245 433.185 120.267 436.307 121.373C439.428 122.479 442.786 122.624 445.983 121.789C445.983 121.789 447.615 134.737 458.014 139.281C458.014 139.281 477.082 131.581 481.016 116.679C484.951 101.777 475.564 89.4466 464.512 84.3019C453.46 79.1572 425.919 85.9482 428.368 115.547Z" fill="white"/>
<path d="M458.014 140.173C457.912 140.197 457.806 140.197 457.703 140.173C448.545 136.143 445.933 126.042 445.329 122.921C442.075 123.557 438.719 123.253 435.616 122.042C432.514 120.831 429.783 118.758 427.714 116.044C427.632 115.917 427.582 115.769 427.568 115.616C426.311 100.37 432.824 92.0703 438.522 87.8002C447.304 81.1636 458.732 80.6491 464.854 83.5816C475.906 88.7263 485.913 101.382 481.799 116.988C477.8 132.13 459.107 139.83 458.307 140.156C458.211 140.178 458.112 140.184 458.014 140.173ZM445.982 120.966C446.18 120.969 446.37 121.047 446.517 121.185C446.664 121.324 446.758 121.514 446.782 121.721C446.782 121.841 448.513 133.965 458.03 138.389C460.446 137.326 476.706 129.815 480.232 116.49C484.085 101.862 474.616 89.9781 464.185 85.125C458.356 82.3983 447.5 83.2043 439.452 89.2407C434.147 93.2192 428.025 100.971 429.151 115.256C431.119 117.777 433.731 119.657 436.681 120.674C439.63 121.692 442.794 121.805 445.803 121L445.982 120.966Z" fill="#231F20"/>
<path d="M381.48 178.992L415.143 203.323C417.186 204.8 419.981 204.257 421.387 202.111L438.247 176.37C439.652 174.225 439.136 171.289 437.093 169.812L403.43 145.481C401.387 144.005 398.592 144.548 397.187 146.693L380.327 172.434C378.921 174.58 379.438 177.516 381.48 178.992Z" fill="white"/>
<path d="M417.642 205.03C416.571 205.026 415.524 204.686 414.638 204.052L380.976 179.718C379.818 178.879 379.025 177.591 378.771 176.137C378.517 174.684 378.823 173.183 379.621 171.967L396.469 146.243C397.268 145.028 398.493 144.194 399.875 143.924C401.258 143.654 402.686 143.97 403.848 144.803L437.51 169.12C438.086 169.533 438.579 170.061 438.96 170.675C439.342 171.289 439.603 171.975 439.731 172.696C439.858 173.416 439.849 174.156 439.703 174.873C439.557 175.589 439.278 176.269 438.881 176.871L422.034 202.595C421.546 203.346 420.891 203.961 420.126 204.385C419.36 204.81 418.508 205.031 417.642 205.03ZM400.844 145.523C400.245 145.528 399.657 145.686 399.13 145.985C398.604 146.284 398.155 146.714 397.824 147.238L380.96 172.961C380.412 173.806 380.204 174.845 380.381 175.85C380.558 176.855 381.107 177.746 381.907 178.329L415.569 202.646C415.966 202.936 416.413 203.14 416.886 203.246C417.358 203.353 417.846 203.361 418.321 203.268C418.796 203.176 419.249 202.985 419.654 202.708C420.059 202.43 420.407 202.071 420.679 201.651L437.542 175.928C438.091 175.083 438.299 174.045 438.121 173.039C437.944 172.034 437.396 171.143 436.596 170.561L402.933 146.209C402.319 145.763 401.591 145.523 400.844 145.523Z" fill="#231F20"/>
<path d="M385.107 176.513L416.053 198.88C417.13 199.659 418.604 199.372 419.345 198.241L434.086 175.736C434.827 174.604 434.554 173.056 433.477 172.278L402.531 149.91C401.454 149.132 399.98 149.418 399.239 150.549L384.498 173.055C383.757 174.186 384.03 175.734 385.107 176.513Z" fill="white"/>
<path d="M417.348 200.194C416.708 200.189 416.084 199.986 415.552 199.611L384.535 177.317C384.188 177.069 383.892 176.749 383.665 176.378C383.438 176.007 383.284 175.591 383.212 175.156C383.13 174.728 383.132 174.286 383.219 173.858C383.307 173.43 383.476 173.026 383.719 172.67L398.411 150.153C398.903 149.442 399.637 148.956 400.46 148.797C401.283 148.637 402.134 148.816 402.835 149.296L433.853 171.589C434.53 172.106 434.992 172.877 435.144 173.742C435.296 174.607 435.126 175.5 434.669 176.237L419.976 198.753C419.678 199.194 419.284 199.555 418.827 199.805C418.37 200.055 417.863 200.189 417.348 200.194ZM401.137 150.359C400.888 150.366 400.644 150.434 400.423 150.555C400.202 150.677 400.011 150.851 399.864 151.062L385.171 173.562C384.948 173.921 384.86 174.355 384.927 174.779C385.011 175.202 385.244 175.575 385.58 175.825L416.597 198.119C416.762 198.242 416.949 198.329 417.147 198.375C417.345 198.421 417.55 198.425 417.749 198.387C417.948 198.348 418.138 198.268 418.308 198.152C418.477 198.035 418.623 197.884 418.736 197.707L433.428 175.191C433.546 175.019 433.63 174.825 433.675 174.618C433.72 174.412 433.725 174.199 433.689 173.99C433.605 173.568 433.372 173.194 433.036 172.944L402.019 150.565C401.749 150.411 401.444 150.339 401.137 150.359Z" fill="#231F20"/>
<path d="M433.706 187.658C433.706 187.658 422.279 189.561 421.054 187.486C419.83 185.411 422.262 182.239 424.434 181.604C426.605 180.97 438.228 180.13 438.228 180.13" fill="white"/>
<path d="M425.495 189.321C423.079 189.321 420.989 188.978 420.369 187.95C420.094 187.467 419.933 186.923 419.899 186.362C419.865 185.802 419.959 185.241 420.173 184.726C420.536 183.803 421.085 182.973 421.78 182.292C422.476 181.612 423.303 181.097 424.205 180.781C426.442 180.113 437.69 179.307 438.179 179.272C438.393 179.258 438.604 179.333 438.766 179.48C438.928 179.628 439.028 179.837 439.045 180.061C439.053 180.174 439.04 180.288 439.006 180.396C438.972 180.503 438.917 180.603 438.846 180.688C438.774 180.773 438.687 180.842 438.589 180.89C438.491 180.939 438.385 180.966 438.277 180.97C435.012 181.21 426.36 181.913 424.646 182.428C423.987 182.666 423.384 183.049 422.877 183.552C422.37 184.055 421.971 184.665 421.707 185.343C421.576 185.608 421.507 185.902 421.507 186.2C421.507 186.499 421.576 186.793 421.707 187.058C422.279 187.898 427.813 187.795 433.543 186.835C433.649 186.818 433.757 186.823 433.862 186.85C433.966 186.877 434.064 186.925 434.151 186.992C434.237 187.059 434.31 187.143 434.365 187.24C434.421 187.336 434.458 187.444 434.474 187.555C434.49 187.667 434.485 187.78 434.459 187.89C434.433 187.999 434.387 188.102 434.324 188.193C434.26 188.284 434.18 188.361 434.088 188.419C433.996 188.477 433.894 188.516 433.788 188.533C431.045 189.004 428.274 189.267 425.495 189.321Z" fill="#231F20"/>
<path d="M389.563 149.502C389.563 149.793 388.959 162.552 391.767 163.547C394.575 164.541 394.445 161.317 394.787 158.402C395.13 155.487 394.216 150.531 395.783 146.964" fill="white"/>
<path d="M392.698 164.593C392.298 164.579 391.902 164.504 391.523 164.37C388.829 163.409 388.519 155.795 388.747 149.605C388.751 149.375 388.837 149.156 388.989 148.99C389.14 148.825 389.346 148.726 389.564 148.713C389.667 148.708 389.77 148.726 389.867 148.764C389.964 148.803 390.053 148.861 390.127 148.936C390.202 149.012 390.262 149.102 390.302 149.202C390.343 149.302 390.364 149.41 390.364 149.519V149.673C390.07 157.767 390.984 162.363 391.996 162.741C392.327 162.877 392.694 162.877 393.025 162.741C393.547 162.398 393.694 160.854 393.824 159.5C393.824 159.105 393.824 158.694 393.939 158.299C394.008 157.191 394.008 156.08 393.939 154.972C393.686 152.14 394.026 149.284 394.935 146.604C394.98 146.501 395.045 146.408 395.124 146.332C395.204 146.255 395.298 146.196 395.4 146.158C395.501 146.119 395.609 146.103 395.717 146.109C395.825 146.114 395.931 146.143 396.028 146.192C396.126 146.238 396.213 146.304 396.286 146.387C396.359 146.469 396.415 146.566 396.452 146.671C396.488 146.777 396.504 146.889 396.499 147.001C396.493 147.113 396.467 147.223 396.42 147.324C395.622 149.769 395.333 152.365 395.571 154.938C395.648 156.126 395.648 157.317 395.571 158.505C395.571 158.899 395.473 159.294 395.441 159.671C395.261 161.575 395.081 163.392 393.906 164.181C393.552 164.444 393.131 164.587 392.698 164.593Z" fill="#231F20"/>
<path d="M297.628 349.117L255.07 304.77L203.609 359.263L246.167 403.611L297.628 349.117Z" fill="white"/>
<path d="M246.132 404.471C245.917 404.468 245.712 404.375 245.561 404.214L203.002 359.867C202.854 359.706 202.772 359.49 202.773 359.267C202.769 359.153 202.786 359.039 202.826 358.933C202.865 358.826 202.925 358.73 203.002 358.649L254.458 304.167C254.534 304.087 254.624 304.023 254.724 303.98C254.823 303.936 254.93 303.914 255.038 303.914C255.145 303.914 255.252 303.936 255.352 303.98C255.451 304.023 255.541 304.087 255.617 304.167L298.176 348.514C298.253 348.594 298.314 348.689 298.355 348.793C298.397 348.898 298.418 349.01 298.418 349.123C298.418 349.236 298.397 349.348 298.355 349.453C298.314 349.557 298.253 349.652 298.176 349.732L246.72 404.265C246.557 404.411 246.346 404.484 246.132 404.471ZM204.732 359.249L246.132 402.396L296.446 349.132L255.046 305.985L204.732 359.249Z" fill="#231F20"/>
<path d="M281.753 351.961C281.65 351.961 281.548 351.94 281.453 351.899C281.358 351.858 281.271 351.797 281.198 351.721L252.499 321.796C252.427 321.721 252.37 321.631 252.331 321.533C252.292 321.434 252.272 321.329 252.272 321.222C252.272 321.115 252.292 321.01 252.331 320.911C252.37 320.812 252.427 320.723 252.499 320.647C252.571 320.572 252.656 320.512 252.75 320.471C252.844 320.43 252.944 320.409 253.046 320.409C253.147 320.409 253.248 320.43 253.342 320.471C253.436 320.512 253.521 320.572 253.593 320.647L282.292 350.555C282.436 350.712 282.516 350.921 282.516 351.138C282.516 351.356 282.436 351.565 282.292 351.721C282.146 351.867 281.955 351.952 281.753 351.961Z" fill="#D1D3D4"/>
<path d="M273.525 360.656C273.424 360.659 273.324 360.639 273.231 360.597C273.138 360.556 273.054 360.494 272.986 360.416L244.271 330.525C244.197 330.449 244.139 330.358 244.1 330.258C244.06 330.158 244.04 330.05 244.04 329.942C244.04 329.834 244.06 329.726 244.1 329.626C244.139 329.526 244.197 329.435 244.271 329.359C244.42 329.208 244.619 329.124 244.826 329.124C245.033 329.124 245.232 329.208 245.381 329.359L274.08 359.267C274.153 359.343 274.211 359.434 274.251 359.534C274.29 359.634 274.31 359.741 274.31 359.85C274.31 359.958 274.29 360.065 274.251 360.165C274.211 360.265 274.153 360.356 274.08 360.433C273.929 360.579 273.73 360.659 273.525 360.656Z" fill="#D1D3D4"/>
<path d="M265.314 369.35C265.108 369.355 264.909 369.275 264.759 369.127L236.059 339.202C235.987 339.127 235.929 339.038 235.89 338.939C235.85 338.841 235.83 338.735 235.83 338.628C235.83 338.521 235.85 338.415 235.89 338.317C235.929 338.218 235.987 338.129 236.059 338.054C236.131 337.977 236.216 337.917 236.31 337.875C236.404 337.834 236.504 337.813 236.606 337.813C236.708 337.813 236.809 337.834 236.903 337.875C236.996 337.917 237.082 337.977 237.153 338.054L265.852 367.978C265.925 368.053 265.983 368.143 266.022 368.241C266.061 368.34 266.081 368.446 266.081 368.553C266.081 368.66 266.061 368.766 266.022 368.864C265.983 368.963 265.925 369.052 265.852 369.127C265.707 369.273 265.514 369.353 265.314 369.35Z" fill="#D1D3D4"/>
<path d="M257.086 378.062C256.884 378.06 256.69 377.973 256.548 377.822L227.832 347.914C227.692 347.756 227.614 347.547 227.614 347.331C227.614 347.115 227.692 346.907 227.832 346.748C227.905 346.671 227.991 346.61 228.087 346.569C228.182 346.527 228.284 346.506 228.387 346.506C228.49 346.506 228.592 346.527 228.688 346.569C228.783 346.61 228.869 346.671 228.942 346.748L257.641 376.656C257.751 376.771 257.826 376.918 257.857 377.077C257.887 377.237 257.872 377.403 257.812 377.554C257.753 377.705 257.652 377.833 257.523 377.924C257.394 378.014 257.242 378.062 257.086 378.062Z" fill="#D1D3D4"/>
<path d="M236.974 374.358C236.874 374.36 236.775 374.341 236.683 374.303C236.59 374.265 236.506 374.207 236.435 374.135L219.62 356.608C219.547 356.532 219.489 356.441 219.45 356.341C219.41 356.241 219.39 356.134 219.39 356.025C219.39 355.917 219.41 355.81 219.45 355.71C219.489 355.61 219.547 355.519 219.62 355.442C219.766 355.293 219.963 355.209 220.167 355.209C220.371 355.209 220.568 355.293 220.714 355.442L237.529 372.968C237.601 373.043 237.659 373.133 237.698 373.232C237.737 373.33 237.758 373.436 237.758 373.543C237.758 373.65 237.737 373.756 237.698 373.854C237.659 373.953 237.601 374.042 237.529 374.117C237.458 374.197 237.372 374.26 237.276 374.301C237.18 374.343 237.077 374.362 236.974 374.358Z" fill="#D1D3D4"/>
<path d="M187.264 370.105C189.468 367.618 193.125 367.43 196.373 367.43C198.529 367.302 200.688 367.569 202.757 368.218C205.494 369.52 207.891 371.496 209.744 373.98C213.139 377.856 216.731 382.16 217.041 387.425C217.449 394.285 211.539 400.424 205.026 401.521C198.512 402.619 191.966 399.669 186.774 395.348C183.882 393.258 181.797 390.15 180.897 386.585C180.684 384.772 180.844 382.933 181.365 381.19C181.886 379.448 182.756 377.843 183.918 376.484C186.268 373.812 188.966 371.502 191.933 369.625" fill="white"/>
<path d="M202.202 402.55C195.247 402.55 189.37 398.572 186.269 395.965C182.677 392.947 180.653 389.912 180.098 386.688C179.863 384.746 180.033 382.773 180.597 380.908C181.16 379.042 182.104 377.328 183.363 375.884C185.738 373.12 188.489 370.74 191.525 368.819C191.708 368.694 191.93 368.649 192.143 368.694C192.357 368.738 192.545 368.869 192.668 369.059C192.786 369.248 192.828 369.478 192.786 369.7C192.743 369.921 192.618 370.116 192.439 370.242C189.53 372.077 186.891 374.348 184.603 376.981C183.508 378.237 182.685 379.728 182.192 381.35C181.699 382.973 181.547 384.689 181.747 386.379C182.236 389.191 184.065 391.884 187.33 394.628C190.595 397.371 197.37 401.899 204.944 400.612C210.74 399.635 216.666 394.113 216.274 387.425C215.996 382.623 212.764 378.576 209.205 374.512C207.429 372.136 205.141 370.237 202.528 368.973C200.549 368.356 198.483 368.107 196.423 368.235C193.158 368.235 189.893 368.424 187.917 370.636C187.842 370.717 187.751 370.78 187.652 370.824C187.552 370.868 187.446 370.89 187.338 370.89C187.23 370.89 187.123 370.868 187.024 370.824C186.925 370.78 186.834 370.717 186.758 370.636C186.608 370.473 186.524 370.255 186.524 370.028C186.524 369.8 186.608 369.582 186.758 369.419C189.174 366.709 193.027 366.469 196.553 366.469C198.802 366.339 201.055 366.618 203.214 367.292C206.074 368.649 208.583 370.707 210.528 373.294C214.299 377.599 217.727 381.869 218.037 387.271C218.494 394.868 211.834 401.161 205.336 402.259C204.301 402.45 203.253 402.548 202.202 402.55Z" fill="#231F20"/>
<path d="M215 310.821C215.931 310.398 216.906 310.093 217.906 309.912C219.065 309.775 223.897 309.363 228.06 308.575C232.223 307.786 234.949 307.066 234.296 305.745C233.643 304.425 226.232 304.133 226.232 304.133C228.732 301.94 231.396 299.961 234.198 298.217C236.37 297.256 237.463 296.502 237.333 295.387C237.202 294.272 237.088 293.089 231.847 296.262C231.847 296.262 236.892 292.043 234.819 291.22C232.745 290.397 228.86 293.569 228.86 293.569C228.86 293.569 233.415 289.505 232.549 288.425C231.684 287.344 226.46 289.831 226.46 289.831C226.46 289.831 231.619 286.881 230.264 285.75C228.909 284.618 224.828 285.904 219.587 289.608C214.347 293.312 206.07 300.377 206.07 300.377L215 310.821Z" fill="white"/>
<path d="M215 311.661C214.885 311.66 214.772 311.633 214.668 311.583C214.564 311.533 214.471 311.46 214.396 311.37L205.466 300.892C205.394 300.806 205.339 300.705 205.306 300.596C205.272 300.487 205.26 300.372 205.27 300.257C205.278 300.142 205.308 300.029 205.359 299.926C205.409 299.823 205.479 299.731 205.564 299.657C205.564 299.657 213.922 292.54 219.13 288.853C224.632 284.944 228.925 283.52 230.77 285.029C230.952 285.177 231.096 285.371 231.188 285.593C231.279 285.815 231.315 286.058 231.292 286.298C231.246 286.668 231.105 287.018 230.884 287.31C231.279 287.186 231.698 287.17 232.1 287.263C232.503 287.356 232.877 287.555 233.186 287.842C233.643 288.442 233.545 289.282 232.876 290.38C233.599 290.147 234.372 290.147 235.096 290.38C235.356 290.463 235.589 290.621 235.768 290.836C235.947 291.051 236.065 291.315 236.108 291.597C236.143 292.257 235.952 292.908 235.569 293.432C236.095 293.221 236.676 293.221 237.202 293.432C237.481 293.611 237.71 293.864 237.868 294.164C238.025 294.465 238.105 294.804 238.1 295.147C238.312 297.016 236.467 298.011 234.476 298.868C232.328 300.143 230.291 301.612 228.386 303.258C231.406 303.516 234.394 304.047 234.916 305.213C235.025 305.439 235.082 305.689 235.082 305.942C235.082 306.196 235.025 306.445 234.916 306.671C234.41 307.786 232.745 308.386 228.076 309.295C224.436 309.964 220.289 310.375 218.51 310.547H217.857C216.942 310.726 216.049 311.014 215.196 311.404C215.149 311.504 215.082 311.591 215 311.661ZM207.327 300.446L215.294 309.809C216.125 309.445 216.998 309.191 217.889 309.055H218.559C220.306 308.883 224.403 308.472 227.995 307.803C231.586 307.134 233.382 306.585 233.659 306.088C231.249 305.397 228.762 305.045 226.264 305.042C226.099 305.039 225.939 304.98 225.807 304.876C225.675 304.771 225.578 304.625 225.529 304.459C225.474 304.294 225.468 304.116 225.511 303.947C225.555 303.778 225.647 303.628 225.774 303.516C228.329 301.266 231.059 299.247 233.937 297.479C235.782 296.656 236.614 296.056 236.565 295.542C236.58 295.388 236.58 295.232 236.565 295.078C236.565 295.078 235.831 294.958 232.386 297.051C232.205 297.155 231.994 297.186 231.793 297.139C231.592 297.091 231.414 296.969 231.292 296.793C231.179 296.613 231.135 296.395 231.168 296.182C231.201 295.969 231.31 295.777 231.472 295.644C233.104 294.255 234.639 292.506 234.623 291.957C233.398 291.597 230.623 293.364 229.48 294.29C229.398 294.359 229.303 294.41 229.202 294.44C229.101 294.471 228.994 294.48 228.89 294.467C228.785 294.454 228.684 294.42 228.592 294.366C228.5 294.312 228.419 294.239 228.354 294.152C228.22 293.977 228.156 293.755 228.175 293.532C228.193 293.308 228.292 293.101 228.452 292.952C229.819 291.845 230.996 290.499 231.929 288.973C230.187 289.258 228.5 289.837 226.933 290.688C226.739 290.791 226.513 290.808 226.306 290.735C226.1 290.663 225.929 290.507 225.832 290.303C225.734 290.098 225.718 289.861 225.787 289.644C225.856 289.427 226.004 289.247 226.199 289.145C227.523 288.455 228.722 287.526 229.741 286.401C228.778 285.921 225.546 286.573 220.175 290.397C215.751 293.329 209.335 298.697 207.327 300.446Z" fill="#231F20"/>
<path d="M211.996 313.839L215.963 311.198L206.397 298.766L200.062 303.087L211.996 313.839Z" fill="#231F20"/>
<path d="M211.997 314.697C211.8 314.699 211.608 314.626 211.458 314.491L199.541 303.739C199.442 303.656 199.365 303.548 199.316 303.425C199.268 303.302 199.249 303.168 199.263 303.036C199.271 302.903 199.307 302.773 199.369 302.658C199.432 302.542 199.518 302.442 199.623 302.367L205.957 298.045C206.127 297.931 206.331 297.887 206.53 297.922C206.729 297.957 206.908 298.068 207.034 298.234L216.601 310.65C216.733 310.85 216.791 311.094 216.764 311.336C216.744 311.455 216.7 311.569 216.636 311.669C216.571 311.77 216.487 311.855 216.388 311.919L212.421 314.56C212.295 314.646 212.148 314.693 211.997 314.697ZM201.435 303.19L212.062 312.776L214.739 311.061L206.234 299.983L201.435 303.19Z" fill="#231F20"/>
<path d="M238.181 394.628C238.181 394.628 233.725 386.705 233.284 383.687C232.843 380.668 233.708 375.798 234.443 375.712C235.177 375.627 237.022 379.691 236.647 382.092C236.647 382.092 240.581 369.933 242.72 369.607C244.858 369.282 244.352 371.888 243.862 373.38C243.862 373.38 245.691 369.727 246.67 370.619C247.65 371.511 247.095 375.026 247.095 375.026C247.095 375.026 248.466 371.099 249.592 371.871C250.719 372.643 250.033 376.038 250.033 376.038C250.033 376.038 251.453 372.043 252.286 373.689C253.119 375.335 252.939 392.295 250.98 397.406C249.021 402.516 238.181 394.628 238.181 394.628Z" fill="white"/>
<path d="M248.14 399.995C244.14 399.995 238.345 395.862 237.659 395.331C237.563 395.267 237.484 395.179 237.431 395.073C237.235 394.731 232.892 386.979 232.37 383.824C231.949 380.964 232.311 378.038 233.415 375.387C233.51 375.245 233.632 375.126 233.772 375.034C233.912 374.943 234.068 374.882 234.231 374.855C234.443 374.84 234.656 374.881 234.849 374.974C235.043 375.067 235.212 375.209 235.341 375.387C236.051 376.301 236.579 377.357 236.892 378.491C238.41 374.323 240.663 369.042 242.491 368.767C242.864 368.672 243.255 368.689 243.618 368.817C243.982 368.944 244.304 369.176 244.548 369.487C244.715 369.711 244.838 369.967 244.907 370.242C245.197 369.946 245.558 369.738 245.952 369.642C246.154 369.6 246.362 369.608 246.56 369.665C246.758 369.721 246.941 369.825 247.095 369.968C247.534 370.427 247.806 371.034 247.862 371.682C248.1 371.404 248.396 371.187 248.727 371.048C248.925 370.977 249.136 370.955 249.343 370.985C249.55 371.015 249.747 371.095 249.919 371.219C250.167 371.414 250.375 371.658 250.532 371.938C250.689 372.217 250.791 372.527 250.833 372.849C251.06 372.65 251.339 372.53 251.633 372.506C251.9 372.489 252.165 372.562 252.391 372.712C252.617 372.863 252.791 373.085 252.89 373.346C253.951 375.455 253.543 392.81 251.617 397.8C251.436 398.298 251.147 398.745 250.773 399.105C250.399 399.465 249.95 399.729 249.462 399.875C249.028 399.978 248.584 400.018 248.14 399.995ZM238.785 393.976C240.908 395.502 246.442 398.932 249.054 398.109C249.303 398.036 249.533 397.901 249.723 397.716C249.913 397.531 250.059 397.301 250.148 397.046C251.992 392.261 252.123 377.393 251.601 374.443C251.248 375.025 250.958 375.646 250.735 376.295C250.675 376.523 250.531 376.716 250.335 376.831C250.139 376.947 249.907 376.977 249.691 376.913C249.474 376.849 249.291 376.698 249.18 376.492C249.07 376.286 249.042 376.043 249.103 375.815C249.357 374.775 249.357 373.683 249.103 372.643C248.499 373.423 248.035 374.312 247.732 375.267C247.658 375.465 247.518 375.629 247.338 375.727C247.157 375.825 246.949 375.85 246.752 375.798C246.557 375.745 246.388 375.617 246.279 375.439C246.17 375.261 246.129 375.046 246.164 374.838C246.4 373.708 246.4 372.538 246.164 371.408C245.492 372.103 244.94 372.916 244.532 373.809C244.487 373.911 244.423 374.004 244.344 374.08C244.265 374.157 244.173 374.216 244.072 374.255C243.971 374.294 243.864 374.312 243.757 374.307C243.649 374.303 243.544 374.276 243.446 374.229C243.349 374.182 243.261 374.115 243.188 374.032C243.115 373.949 243.059 373.852 243.021 373.746C242.984 373.64 242.967 373.527 242.972 373.415C242.976 373.302 243.001 373.191 243.046 373.089C243.447 372.312 243.546 371.403 243.324 370.551C243.226 370.431 242.916 370.465 242.785 370.551C241.838 370.859 239.357 376.313 237.382 382.452C237.33 382.679 237.194 382.876 237.004 382.998C236.814 383.12 236.586 383.158 236.369 383.104C236.153 383.049 235.966 382.906 235.85 382.707C235.733 382.508 235.697 382.268 235.749 382.04C235.811 380.293 235.373 378.567 234.492 377.084C233.909 379.205 233.736 381.427 233.986 383.618C234.41 385.83 237.512 391.747 238.785 393.976Z" fill="#231F20"/>
<path d="M237.039 398.846L238.182 394.628L250.915 397.406L249.528 404.642L237.039 398.846Z" fill="#231F20"/>
<path d="M249.527 405.5C249.419 405.518 249.309 405.518 249.201 405.5L236.712 399.618C236.531 399.538 236.384 399.39 236.3 399.204C236.216 399.017 236.2 398.804 236.255 398.606L237.398 394.405C237.448 394.193 237.575 394.01 237.752 393.894C237.929 393.779 238.142 393.741 238.345 393.787L251.078 396.565C251.288 396.615 251.472 396.748 251.591 396.937C251.709 397.125 251.754 397.355 251.715 397.577L250.327 404.814C250.302 404.938 250.251 405.055 250.178 405.156C250.104 405.257 250.01 405.339 249.903 405.397C249.788 405.465 249.659 405.501 249.527 405.5ZM238.1 398.366L249.005 403.425L250.034 398.075L238.753 395.691L238.1 398.366Z" fill="#231F20"/>
<path d="M182.236 376.827C182.236 376.827 170.597 369.642 164.083 368.493C164.083 368.493 176.343 342.769 177.812 341.054C179.281 339.34 213.727 314.131 213.727 314.131L201.712 300.034C201.712 300.034 166.352 324.574 158.989 332.96C151.627 341.346 136.641 363.451 140.656 377.479C144.672 391.506 148.819 408.587 166.238 424.535C179.407 436.749 196.119 443.928 213.662 444.908C225.285 445.577 238.035 442.301 241.692 438.494C245.349 434.687 250.915 401.881 250.915 401.881L234.933 397.406L229.513 424.278L216.453 419.133C216.453 419.133 214.69 407.729 201.614 396.445C194.597 390.543 188.11 383.976 182.236 376.827Z" fill="#12275C"/>
<path d="M186.594 424.072C190.117 424.231 193.606 423.288 196.618 421.363C204.209 416.527 210.772 411.365 215.49 403.185C217.302 400.064 218.755 396.222 217.514 392.896C215.881 388.591 210.021 386.636 208.992 382.263C208.649 380.788 209.123 379.176 208.649 377.736C208.366 377.027 207.919 376.404 207.349 375.922C206.779 375.44 206.104 375.114 205.384 374.975C204.728 374.852 204.079 374.686 203.442 374.478C202.272 373.767 201.255 372.809 200.454 371.665C199.097 370.316 197.467 369.306 195.686 368.713C193.905 368.119 192.019 367.956 190.169 368.235C186.47 368.835 182.977 370.41 180.015 372.814C171.722 379.091 163.364 391.678 164.915 402.996C166.515 413.937 175.885 423.643 186.594 424.072Z" fill="white"/>
<path d="M187.345 424.947H186.562C175.803 424.518 165.731 414.657 164.131 403.099C162.499 391.747 170.922 378.645 179.575 372.094C182.648 369.608 186.27 367.979 190.104 367.361C192.077 367.058 194.089 367.23 195.989 367.862C197.889 368.495 199.628 369.573 201.075 371.014L201.777 371.837C202.318 372.556 203.003 373.142 203.785 373.552C204.152 373.681 204.529 373.778 204.911 373.843L205.613 373.998C206.459 374.179 207.25 374.577 207.914 375.158C208.578 375.738 209.094 376.483 209.417 377.324C209.664 378.203 209.752 379.122 209.678 380.034C209.635 380.665 209.668 381.298 209.776 381.92C210.249 383.944 211.98 385.436 213.808 387.065C215.702 388.451 217.235 390.314 218.265 392.484C219.424 395.537 218.738 399.172 216.192 403.596C211.163 412.308 204.013 417.607 197.042 422.066C194.126 423.95 190.769 424.948 187.345 424.947ZM191.9 368.956C191.378 368.956 190.839 368.956 190.267 369.042C186.7 369.625 183.33 371.147 180.472 373.466C172.212 379.725 164.147 392.141 165.78 402.842C167.412 413.543 176.652 422.82 186.66 423.215C190.024 423.385 193.359 422.482 196.226 420.625C203.017 416.304 209.988 411.125 214.837 402.739C217.106 398.812 217.742 395.674 216.779 393.136C215.841 391.243 214.473 389.623 212.796 388.42C210.853 386.705 208.829 384.99 208.225 382.4C208.08 381.627 208.03 380.838 208.078 380.051C208.135 379.349 208.08 378.642 207.915 377.959C207.673 377.391 207.305 376.892 206.842 376.504C206.379 376.116 205.835 375.851 205.254 375.73L204.65 375.61C204.155 375.518 203.668 375.381 203.197 375.198C202.171 374.674 201.276 373.905 200.585 372.951C200.373 372.694 200.16 372.437 199.932 372.197C198.864 371.126 197.604 370.287 196.225 369.731C194.846 369.175 193.376 368.911 191.9 368.956Z" fill="#231F20"/>
<path d="M219.718 189.133C223.361 187.852 227.271 187.656 231.015 188.567C231.015 188.567 232.5 185.137 234.851 184.708C237.202 184.28 236.696 185.326 236.696 185.326C236.696 185.326 238.638 182.839 239.732 183.782C239.732 183.782 242.034 184.846 242.311 186.372C242.311 186.372 245.381 185.24 245.87 187.109C246.36 188.979 243.813 192.803 239.879 196.267C235.945 199.731 231.21 202.458 229.79 202.526C228.37 202.595 217.579 200.314 217.579 200.314L219.718 189.133Z" fill="white"/>
<path d="M229.725 203.384C228.011 203.384 219.212 201.531 217.433 201.154C217.22 201.109 217.032 200.977 216.91 200.788C216.788 200.599 216.741 200.367 216.78 200.142L218.918 188.961C218.943 188.819 219.003 188.685 219.092 188.574C219.181 188.463 219.295 188.378 219.424 188.327C223.021 187.062 226.869 186.802 230.591 187.572C231.006 186.697 231.583 185.918 232.29 185.282C232.997 184.646 233.818 184.165 234.705 183.868C235.402 183.645 236.146 183.645 236.843 183.868C237.872 182.874 239.145 182.153 240.108 182.994C241.172 183.492 242.087 184.287 242.753 185.291C243.681 185.017 244.669 185.078 245.561 185.463C245.819 185.599 246.045 185.792 246.226 186.029C246.406 186.266 246.535 186.541 246.606 186.835C247.275 189.373 243.945 193.694 240.369 196.867C236.794 200.04 231.587 203.229 229.774 203.332L229.725 203.384ZM218.543 199.645C222.706 200.52 228.844 201.686 229.742 201.669C230.64 201.652 235.194 199.268 239.357 195.615C243.52 191.962 245.414 188.601 245.071 187.332C245.06 187.265 245.034 187.201 244.994 187.148C244.954 187.094 244.902 187.051 244.842 187.024C244.089 186.824 243.296 186.878 242.573 187.178C242.468 187.228 242.354 187.253 242.239 187.253C242.123 187.253 242.009 187.228 241.904 187.178C241.805 187.113 241.719 187.029 241.651 186.928C241.584 186.828 241.537 186.715 241.512 186.595C241.365 185.789 240.027 184.88 239.406 184.623C239.338 184.595 239.272 184.561 239.21 184.52C239.014 184.348 238.051 185.017 237.333 185.926C237.237 186.061 237.104 186.163 236.952 186.218C236.8 186.273 236.636 186.279 236.481 186.234C236.326 186.19 236.187 186.098 236.083 185.969C235.979 185.841 235.914 185.682 235.896 185.514C235.6 185.518 235.305 185.553 235.015 185.617C233.382 185.943 232.125 188.155 231.75 189.047C231.666 189.226 231.526 189.37 231.354 189.454C231.182 189.538 230.987 189.558 230.803 189.51C227.363 188.694 223.779 188.83 220.404 189.905L218.543 199.645Z" fill="#231F20"/>
<path d="M236.239 200.76C236.09 200.763 235.942 200.721 235.815 200.64C235.632 200.522 235.5 200.335 235.446 200.118C235.391 199.901 235.418 199.67 235.521 199.474L246.687 179.341C246.799 179.145 246.98 179.003 247.19 178.945C247.401 178.888 247.625 178.919 247.813 179.032C248 179.15 248.135 179.34 248.19 179.561C248.245 179.782 248.215 180.017 248.107 180.215L236.941 200.331C236.87 200.461 236.768 200.568 236.644 200.644C236.521 200.719 236.382 200.759 236.239 200.76Z" fill="#231F20"/>
<path d="M238.867 187.126C240.139 186.801 241.443 186.629 242.752 186.612C243.04 186.57 243.333 186.589 243.614 186.668C243.894 186.748 244.156 186.886 244.385 187.075C244.577 187.307 244.7 187.594 244.738 187.899C244.775 188.204 244.726 188.514 244.597 188.79C244.329 189.342 243.916 189.8 243.405 190.11C241.827 191.028 240.135 191.709 238.377 192.134C237.977 192.237 237.596 192.411 237.251 192.648C236.844 193.02 236.492 193.454 236.206 193.935C234.959 195.456 233.425 196.688 231.7 197.553" fill="white"/>
<path d="M231.684 198.479C231.537 198.481 231.392 198.441 231.265 198.362C231.139 198.284 231.035 198.17 230.966 198.033C230.914 197.934 230.882 197.825 230.87 197.713C230.858 197.601 230.868 197.487 230.898 197.379C230.929 197.27 230.979 197.169 231.047 197.082C231.114 196.994 231.198 196.921 231.292 196.867C232.917 196.044 234.363 194.876 235.537 193.437L235.733 193.163C236.012 192.713 236.36 192.313 236.761 191.98C237.176 191.686 237.634 191.466 238.116 191.328L239.194 190.985C240.507 190.663 241.767 190.137 242.932 189.424C243.311 189.193 243.626 188.862 243.846 188.464C243.912 188.344 243.947 188.208 243.947 188.07C243.947 187.931 243.912 187.795 243.846 187.675C243.65 187.469 243.161 187.469 242.801 187.469C241.558 187.489 240.32 187.656 239.112 187.967C238.902 188.018 238.681 187.981 238.498 187.862C238.314 187.743 238.183 187.552 238.133 187.332C238.106 187.224 238.1 187.111 238.115 187.001C238.13 186.89 238.166 186.784 238.221 186.688C238.275 186.592 238.348 186.509 238.434 186.443C238.519 186.377 238.617 186.329 238.72 186.303C240.051 185.958 241.415 185.774 242.785 185.755C243.182 185.713 243.583 185.755 243.965 185.879C244.346 186.002 244.7 186.205 245.005 186.475C245.313 186.832 245.512 187.276 245.579 187.753C245.646 188.229 245.577 188.715 245.381 189.15C245.052 189.859 244.536 190.454 243.895 190.865C242.589 191.66 241.174 192.238 239.7 192.58L238.655 192.923C238.343 192.997 238.046 193.125 237.773 193.3C237.514 193.533 237.288 193.804 237.104 194.106L236.892 194.415C235.573 196.033 233.95 197.346 232.125 198.273C232 198.384 231.847 198.456 231.684 198.479Z" fill="#231F20"/>
<path d="M258.229 154.218C256.39 156.813 255.159 159.827 254.637 163.015C253.315 169.137 252.515 174.385 253.756 174.539C254.996 174.693 257.576 168.863 257.576 168.863C257.576 168.863 258.392 182.308 260.514 182.359C262.636 182.41 262.473 180.113 262.473 180.113C262.473 180.113 263.812 182.959 264.857 181.827C265.156 181.433 265.359 180.967 265.447 180.47C265.535 179.974 265.506 179.462 265.363 178.981C265.363 178.981 266.75 181.587 267.534 180.576C267.763 180.207 267.914 179.791 267.976 179.356C268.038 178.921 268.01 178.477 267.893 178.055C267.893 178.055 269.705 180.438 270.228 178.621C270.75 176.803 269.362 163.049 267.73 157.699C266.915 154.768 265.753 151.956 264.269 149.33L258.229 154.218Z" fill="white"/>
<path d="M260.563 183.216C258.931 183.216 257.707 179.392 257.054 171.967C255.764 174.333 254.637 175.517 253.789 175.397C253.607 175.376 253.431 175.315 253.273 175.217C253.116 175.119 252.98 174.988 252.874 174.831C252.287 173.956 252.009 171.898 253.952 162.827C254.506 159.497 255.804 156.352 257.739 153.652L257.837 153.549L263.845 148.644C264.028 148.503 264.256 148.442 264.481 148.473C264.704 148.523 264.902 148.657 265.037 148.85C266.561 151.54 267.757 154.421 268.595 157.425C270.081 162.449 271.762 176.734 271.126 178.946C271.068 179.253 270.926 179.535 270.717 179.758C270.508 179.98 270.241 180.134 269.95 180.198C269.569 180.27 269.175 180.197 268.84 179.993C268.74 180.43 268.55 180.84 268.285 181.193C268.148 181.38 267.969 181.527 267.763 181.623C267.558 181.719 267.334 181.76 267.11 181.742C266.742 181.71 266.39 181.567 266.098 181.33C265.957 181.768 265.716 182.162 265.396 182.479C265.23 182.667 265.022 182.807 264.791 182.888C264.56 182.969 264.313 182.988 264.073 182.942C263.552 182.812 263.087 182.505 262.751 182.068C262.679 182.179 262.597 182.282 262.506 182.376C262.257 182.652 261.955 182.87 261.621 183.015C261.286 183.16 260.925 183.229 260.563 183.216ZM257.592 168.005H257.739C257.917 168.04 258.078 168.137 258.197 168.28C258.315 168.423 258.384 168.605 258.392 168.794C258.784 175.122 259.813 180.936 260.645 181.519C260.907 181.507 261.156 181.398 261.347 181.21C261.567 180.906 261.677 180.529 261.657 180.147C261.651 179.949 261.709 179.754 261.822 179.596C261.934 179.437 262.095 179.323 262.278 179.272C262.458 179.221 262.65 179.237 262.82 179.319C262.989 179.4 263.127 179.541 263.208 179.718C263.456 180.332 263.857 180.865 264.367 181.262C264.939 180.61 264.579 179.307 264.579 179.289C264.528 179.09 264.547 178.878 264.633 178.692C264.719 178.506 264.865 178.359 265.046 178.278C265.227 178.196 265.429 178.186 265.616 178.249C265.804 178.312 265.963 178.444 266.065 178.621C266.321 179.1 266.639 179.538 267.012 179.924C267.209 179.424 267.244 178.869 267.11 178.346C267.065 178.158 267.083 177.959 267.16 177.782C267.237 177.606 267.368 177.462 267.533 177.374C267.698 177.286 267.887 177.26 268.068 177.3C268.249 177.339 268.412 177.442 268.53 177.592C268.79 177.92 269.092 178.208 269.428 178.449C269.397 171.507 268.553 164.596 266.914 157.87C266.18 155.323 265.206 152.859 264.008 150.514L258.8 154.767C257.096 157.252 255.942 160.105 255.421 163.118C253.789 170.441 253.789 172.739 254.001 173.407C255.138 171.854 256.092 170.161 256.841 168.366C256.926 168.242 257.04 168.144 257.171 168.081C257.303 168.018 257.448 167.992 257.592 168.005Z" fill="#231F20"/>
<path d="M202.332 84.5077C202.332 84.5077 186.627 62.6772 180.848 61.4939C175.069 60.3106 126.421 126.197 126.568 134.514C126.715 142.831 161.617 160.031 161.617 160.031L202.332 84.5077Z" fill="#231F20"/>
<path d="M161.617 160.889C161.504 160.912 161.387 160.912 161.274 160.889C157.618 159.037 125.898 143.14 125.702 134.531C125.702 126.745 164.115 74.0639 176.652 63.0029C179.297 60.6707 180.358 60.5335 180.995 60.6535C186.921 61.8539 201.352 81.7295 202.968 83.9931C203.06 84.1314 203.11 84.296 203.11 84.4647C203.11 84.6334 203.06 84.798 202.968 84.9363L162.156 160.391C162.108 160.512 162.035 160.619 161.941 160.705C161.848 160.792 161.737 160.854 161.617 160.889ZM180.717 62.3341C180.603 62.3341 179.689 62.437 176.734 65.2494C162.303 78.8999 127.335 128.169 127.335 134.514C127.335 140.859 151.218 153.892 161.242 158.916L201.352 84.5762C196.781 78.2826 185.027 63.2259 180.685 62.2827L180.717 62.3341Z" fill="#231F20"/>
<path d="M168.931 100.73C168.931 100.73 184.472 82.3983 195.573 77.3565C206.674 72.3148 216.649 72.0575 223.538 78.0939C230.427 84.1303 248.156 101.211 251.519 108.962C254.882 116.713 268.122 150.908 268.122 150.908L252.335 158.625C252.335 158.625 236.81 120.64 235.635 117.468C234.459 114.295 213.939 100.559 213.221 99.8215C212.502 99.0841 208.323 117.759 201.222 125.339C194.12 132.919 169.959 151.611 169.959 151.611C169.959 151.611 186.464 172.807 189.337 175.757C192.21 178.706 224.991 185.429 224.991 185.429L220.681 202.852C220.681 202.852 185.778 197.176 180.375 194.775C174.971 192.374 145.047 172.636 143.66 154.029C142.272 135.423 168.931 100.73 168.931 100.73Z" fill="#12275C"/>
<path d="M206.038 107.676C208.03 110.352 209.676 113.293 210.935 116.422C212.823 120.265 213.606 124.603 213.188 128.906C212.502 133.142 209.433 137.189 205.368 137.635C207.001 142.677 203.866 148.387 199.393 150.839C194.92 153.292 189.484 152.983 184.701 151.457C178.782 149.459 173.471 145.856 169.303 141.011C165.135 136.166 162.259 130.251 160.964 123.864C158.924 113.575 164.474 100.576 174.841 97.5408C185.615 94.4026 199.018 98.5869 206.038 107.676Z" fill="white"/>
<path d="M191.868 153.48C189.366 153.46 186.88 153.055 184.489 152.28C178.434 150.224 172.999 146.533 168.73 141.576C164.461 136.619 161.507 130.57 160.165 124.036C158.14 113.746 163.577 99.9416 174.612 96.7177C185.648 93.4937 199.573 97.9352 206.675 107.144C208.747 109.896 210.455 112.931 211.752 116.164C213.107 119.371 214.837 124.207 214.054 129.129C213.417 133.125 210.625 137.429 206.446 138.407C207.573 143.86 204.112 149.347 199.916 151.68C197.411 152.954 194.65 153.571 191.868 153.48ZM182.318 97.3007C179.865 97.2922 177.422 97.6267 175.053 98.2954C164.883 101.279 159.887 114.038 161.765 123.624C163.046 129.853 165.861 135.62 169.929 140.348C173.997 145.075 179.176 148.599 184.946 150.565C190.301 152.28 195.329 152.057 199.084 149.999C202.838 147.941 206.136 142.659 204.65 137.823C204.609 137.704 204.596 137.576 204.613 137.45C204.631 137.325 204.677 137.206 204.748 137.103C204.812 136.995 204.897 136.903 204.999 136.835C205.101 136.767 205.216 136.724 205.336 136.709C209.189 136.28 211.866 132.267 212.437 128.683C213.009 125.099 212.29 121.481 210.25 116.679C208.987 113.605 207.34 110.722 205.352 108.104C200.161 101.434 191.084 97.3007 182.318 97.3007Z" fill="#231F20"/>
<path d="M172.473 95.8602C170.013 95.7557 167.572 96.348 165.405 97.5751C163.786 98.2154 162.364 99.3062 161.291 100.73C160.625 101.866 160.233 103.155 160.148 104.486C159.737 107.331 160.255 110.238 161.617 112.735C162.305 113.959 163.306 114.955 164.507 115.61C165.708 116.265 167.06 116.552 168.409 116.439C169.562 116.221 170.668 115.785 171.674 115.153C174.203 113.777 176.322 111.694 177.795 109.133C180.211 104.28 178.367 96.5633 172.473 95.8602Z" fill="white"/>
<path d="M167.609 117.262C166.246 117.213 164.916 116.806 163.741 116.078C162.566 115.35 161.583 114.324 160.883 113.095C159.424 110.447 158.849 107.362 159.251 104.332C159.362 102.866 159.804 101.449 160.54 100.199C161.695 98.6449 163.238 97.4577 164.997 96.7691C167.294 95.4699 169.884 94.8478 172.49 94.9685C173.754 95.1157 174.963 95.5971 176.002 96.3679C177.041 97.1386 177.877 98.1734 178.432 99.3757C179.185 100.933 179.578 102.654 179.578 104.4C179.578 106.147 179.185 107.868 178.432 109.425C176.905 112.132 174.681 114.331 172.017 115.77C170.93 116.463 169.728 116.935 168.474 117.159C168.189 117.218 167.9 117.253 167.609 117.262ZM171.576 96.6834C169.541 96.8239 167.556 97.4079 165.748 98.3983C164.269 98.9545 162.96 99.9203 161.96 101.194C161.36 102.232 161.013 103.41 160.948 104.623C160.564 107.254 161.024 109.945 162.254 112.272C162.87 113.346 163.754 114.222 164.81 114.806C165.866 115.389 167.054 115.658 168.246 115.581C169.296 115.38 170.303 114.979 171.217 114.398C173.616 113.113 175.624 111.147 177.012 108.722C177.641 107.414 177.968 105.969 177.968 104.503C177.968 103.038 177.641 101.593 177.012 100.285C176.573 99.3417 175.913 98.5319 175.093 97.9318C174.273 97.3316 173.321 96.961 172.327 96.8549C172.08 96.7765 171.83 96.7135 171.576 96.6662V96.6834Z" fill="#231F20"/>
</svg>
