<svg width="88" height="88" viewBox="0 0 88 88" fill="none" xmlns="http://www.w3.org/2000/svg">
<path d="M43.8728 0C19.6814 0 0 19.6941 0 43.9013V62.0896C0 66.5851 3.93539 70.2421 8.77457 70.2421H13.1618C14.3254 70.2421 15.4413 69.7796 16.2641 68.9563C17.0869 68.1329 17.5491 67.0163 17.5491 65.852V43.2735C17.5491 42.1092 17.0869 40.9925 16.2641 40.1692C15.4413 39.3459 14.3254 38.8834 13.1618 38.8834H9.17819C11.6175 21.8936 26.2272 8.78026 43.8728 8.78026C61.5185 8.78026 76.1281 21.8936 78.5675 38.8834H74.5838C73.4202 38.8834 72.3043 39.3459 71.4815 40.1692C70.6588 40.9925 70.1965 42.1092 70.1965 43.2735V70.2421C70.1965 75.0844 66.2611 79.0223 61.422 79.0223H52.6474V74.6322H35.0983V87.8026H61.422C71.1003 87.8026 78.9711 79.9267 78.9711 70.2421C83.8103 70.2421 87.7457 66.5851 87.7457 62.0896V43.9013C87.7457 19.6941 68.0643 0 43.8728 0Z" fill="white"/>
</svg>
