<svg width="102" height="102" viewBox="0 0 102 102" fill="none" xmlns="http://www.w3.org/2000/svg">
<path d="M67.5653 63.9891C69.9758 62.6941 72.735 61.957 75.6735 61.957H75.6835C75.9823 61.957 76.1217 61.5984 75.9026 61.3992C72.8467 58.6568 69.3559 56.4418 65.5731 54.8449C65.5333 54.825 65.4934 54.815 65.4536 54.7951C71.6393 50.3027 75.6635 43.0014 75.6635 34.7637C75.6635 21.1172 64.6268 10.0605 51.0102 10.0605C37.3936 10.0605 26.3669 21.1172 26.3669 34.7637C26.3669 43.0014 30.3911 50.3027 36.5868 54.7951C36.5469 54.815 36.5071 54.825 36.4672 54.8449C32.0147 56.7275 28.0204 59.427 24.5838 62.8734C21.1672 66.2839 18.447 70.3269 16.5752 74.7768C14.7336 79.1343 13.7397 83.803 13.6467 88.5328C13.6441 88.6391 13.6627 88.7449 13.7016 88.8439C13.7404 88.9429 13.7987 89.0331 13.873 89.1092C13.9472 89.1853 14.036 89.2458 14.134 89.2871C14.232 89.3284 14.3373 89.3496 14.4436 89.3496H20.4102C20.8385 89.3496 21.1971 89.001 21.2071 88.5727C21.4063 80.8828 24.4842 73.6811 29.9329 68.2225C35.5608 62.5746 43.0514 59.4668 51.0202 59.4668C56.668 59.4668 62.0868 61.0307 66.7585 63.9592C66.8785 64.0346 67.0162 64.0771 67.1579 64.0823C67.2995 64.0875 67.44 64.0554 67.5653 63.9891ZM51.0202 51.8965C46.4581 51.8965 42.1649 50.1135 38.9276 46.8762C37.3348 45.2875 36.0721 43.3994 35.2122 41.3205C34.3523 39.2417 33.9122 37.0133 33.9172 34.7637C33.9172 30.1916 35.7002 25.8885 38.9276 22.6512C42.1549 19.4139 46.4481 17.6309 51.0202 17.6309C55.5922 17.6309 59.8754 19.4139 63.1127 22.6512C64.7056 24.2398 65.9683 26.128 66.8282 28.2068C67.6881 30.2856 68.1282 32.514 68.1231 34.7637C68.1231 39.3357 66.3401 43.6389 63.1127 46.8762C59.8754 50.1135 55.5823 51.8965 51.0202 51.8965ZM87.6565 75.6035H79.2893V67.2363C79.2893 66.798 78.9307 66.4395 78.4924 66.4395H72.9143C72.476 66.4395 72.1174 66.798 72.1174 67.2363V75.6035H63.7502C63.312 75.6035 62.9534 75.9621 62.9534 76.4004V81.9785C62.9534 82.4168 63.312 82.7754 63.7502 82.7754H72.1174V91.1426C72.1174 91.5809 72.476 91.9395 72.9143 91.9395H78.4924C78.9307 91.9395 79.2893 91.5809 79.2893 91.1426V82.7754H87.6565C88.0948 82.7754 88.4534 82.4168 88.4534 81.9785V76.4004C88.4534 75.9621 88.0948 75.6035 87.6565 75.6035Z" fill="white"/>
</svg>
