<svg width="99" height="99" viewBox="0 0 99 99" fill="none" xmlns="http://www.w3.org/2000/svg">
<path d="M91.3621 39.832H66.6121C66.1867 39.832 65.8387 40.1801 65.8387 40.6055V45.2461C65.8387 45.6715 66.1867 46.0195 66.6121 46.0195H91.3621C91.7875 46.0195 92.1356 45.6715 92.1356 45.2461V40.6055C92.1356 40.1801 91.7875 39.832 91.3621 39.832ZM78.407 52.9805H66.6121C66.1867 52.9805 65.8387 53.3285 65.8387 53.7539V58.3945C65.8387 58.8199 66.1867 59.168 66.6121 59.168H78.407C78.8324 59.168 79.1805 58.8199 79.1805 58.3945V53.7539C79.1805 53.3285 78.8324 52.9805 78.407 52.9805ZM46.145 31.1792H41.9588C41.3594 31.1792 40.876 31.6626 40.876 32.262V56.2386C40.876 56.5866 41.0403 56.9057 41.3207 57.1087L55.7163 67.6081C56.1997 67.9562 56.8765 67.8595 57.2245 67.3761L59.7092 63.9826V63.9729C60.0572 63.4896 59.9509 62.8128 59.4675 62.4647L47.2182 53.6089V32.262C47.2278 31.6626 46.7348 31.1792 46.145 31.1792Z" fill="white"/>
<path d="M77.8079 65.1524H72.2198C71.6784 65.1524 71.166 65.4328 70.8759 65.8969C69.6481 67.8401 68.2173 69.6384 66.5737 71.2819C63.741 74.1146 60.4442 76.3383 56.78 77.8851C52.9805 79.49 48.949 80.3021 44.7918 80.3021C40.6249 80.3021 36.5933 79.49 32.8035 77.8851C29.1393 76.3383 25.8425 74.1146 23.0098 71.2819C20.1771 68.4492 17.9535 65.1524 16.4066 61.4883C14.8017 57.6984 13.9896 53.6669 13.9896 49.5C13.9896 45.3331 14.8017 41.3112 16.4066 37.5117C17.9535 33.8476 20.1771 30.5508 23.0098 27.7181C25.8425 24.8853 29.1393 22.6617 32.8035 21.1148C36.5933 19.51 40.6345 18.6978 44.7918 18.6978C48.9587 18.6978 52.9902 19.51 56.78 21.1148C60.4442 22.6617 63.741 24.8853 66.5737 27.7181C68.2173 29.3616 69.6481 31.1599 70.8759 33.1031C71.166 33.5672 71.6784 33.8476 72.2198 33.8476H77.8079C78.475 33.8476 78.9004 33.1515 78.6007 32.5617C72.2971 20.0224 59.5161 11.8723 45.2462 11.7079C24.3537 11.4469 6.99968 28.5495 6.961 49.4227C6.92233 70.3345 23.8703 87.3018 44.7821 87.3018C59.2357 87.3018 72.2295 79.1227 78.6007 66.4383C78.9004 65.8485 78.4653 65.1524 77.8079 65.1524Z" fill="white"/>
</svg>
