<svg width="58" height="58" viewBox="0 0 58 58" fill="none" xmlns="http://www.w3.org/2000/svg">
<g clip-path="url(#clip0_40_130)">
<path d="M44.2251 21.7499H30.4501V28.0937C30.4501 32.5909 27.5229 36.2499 23.9251 36.2499C20.3273 36.2499 17.4001 32.5909 17.4001 28.0937V14.3187L11.5185 18.7366C9.76949 20.0394 8.70011 22.407 8.70011 24.9445V30.3027L1.45011 35.5363C0.0635513 36.5331 -0.416761 38.7534 0.389801 40.4866L7.6398 56.1874C8.4373 57.9206 10.2136 58.5097 11.6001 57.5128L20.9707 50.7499H33.3501C36.5492 50.7499 39.1501 47.4988 39.1501 43.4999H40.6001C42.2042 43.4999 43.5001 41.88 43.5001 39.8749V32.6249H44.2251C45.4304 32.6249 46.4001 31.4128 46.4001 29.9062V24.4687C46.4001 22.962 45.4304 21.7499 44.2251 21.7499ZM57.6104 17.5132L50.3604 1.81243C49.5629 0.0792267 47.7867 -0.509836 46.4001 0.487039L37.0295 7.24993H27.7676C26.6801 7.24993 25.6198 7.63509 24.6954 8.34876L21.6595 10.7163C20.8076 11.3734 20.3001 12.5402 20.3001 13.7863V28.0937C20.3001 30.5972 21.9223 32.6249 23.9251 32.6249C25.9279 32.6249 27.5501 30.5972 27.5501 28.0937V18.1249H44.2251C47.0254 18.1249 49.3001 20.9683 49.3001 24.4687V27.6972L56.5501 22.4636C57.9367 21.4554 58.4079 19.2464 57.6104 17.5132Z" fill="black"/>
</g>
<defs>
<clipPath id="clip0_40_130">
<rect width="58" height="58" fill="white"/>
</clipPath>
</defs>
</svg>
