<svg width="111" height="111" viewBox="0 0 111 111" fill="none" xmlns="http://www.w3.org/2000/svg">
<g clip-path="url(#clip0_214_46)">
<path d="M29.6003 70.5467V32.6833H75.2337L80.1053 27.75H24.667V70.5467H29.6003Z" fill="white"/>
<path d="M18.4997 21.5833H92.4997V70.9166H98.6663V20.0416C98.6663 18.815 98.1791 17.6386 97.3117 16.7713C96.4444 15.9039 95.268 15.4166 94.0413 15.4166H16.958C15.7314 15.4166 14.555 15.9039 13.6876 16.7713C12.8203 17.6386 12.333 18.815 12.333 20.0416V70.9166H18.4997V21.5833Z" fill="white"/>
<path d="M3.08301 77.0834V87.5667C3.08301 89.6929 3.92762 91.7319 5.43104 93.2353C6.93445 94.7388 8.97352 95.5834 11.0997 95.5834H99.7147C101.841 95.5834 103.88 94.7388 105.383 93.2353C106.887 91.7319 107.731 89.6929 107.731 87.5667V77.0834H3.08301ZM101.75 87.5667C101.75 88.0574 101.555 88.5279 101.208 88.8749C100.861 89.2218 100.39 89.4167 99.8997 89.4167H10.9763C10.4857 89.4167 10.0151 89.2218 9.66819 88.8749C9.32125 88.5279 9.12634 88.0574 9.12634 87.5667V81.8009H39.8055C40.191 82.7104 40.8344 83.4871 41.6563 84.035C42.4783 84.583 43.4427 84.8782 44.4305 84.8842H66.4147C67.4025 84.8782 68.3669 84.583 69.1888 84.035C70.0108 83.4871 70.6542 82.7104 71.0397 81.8009H101.75V87.5667Z" fill="white"/>
</g>
<defs>
<clipPath id="clip0_214_46">
<rect width="111" height="111" fill="white"/>
</clipPath>
</defs>
</svg>
