<svg width="58" height="58" viewBox="0 0 58 58" fill="none" xmlns="http://www.w3.org/2000/svg">
<g clip-path="url(#clip0_40_141)">
<path d="M41.7328 2.07305L35.423 8.39414L49.6058 22.577L55.9156 16.2672C58.3964 13.7863 58.3964 9.77617 55.9156 7.29531L50.7046 2.07305C48.2238 -0.407812 44.2136 -0.407812 41.7328 2.07305ZM32.625 10.7164L31.5828 11.0336L15.2589 15.9273C13.0046 16.607 11.2148 18.3289 10.4671 20.5719L0.430425 50.5008C-4.41223e-05 51.7809 0.317143 53.2082 1.25738 54.1711L18.6574 36.7824C18.3175 36.0687 18.125 35.2758 18.125 34.4375C18.125 31.4355 20.5605 29 23.5625 29C26.5644 29 29 31.4355 29 34.4375C29 37.4394 26.5644 39.875 23.5625 39.875C22.7242 39.875 21.9312 39.6824 21.2175 39.3426L3.81753 56.7426C4.79175 57.6828 6.20777 58.0113 7.48785 57.5695L37.4281 47.5328C39.6597 46.7852 41.3929 44.9953 42.0726 42.741L46.9664 26.4172L47.2835 25.375L32.625 10.7164Z" fill="black"/>
</g>
<defs>
<clipPath id="clip0_40_141">
<rect width="58" height="58" fill="white"/>
</clipPath>
</defs>
</svg>
