<svg width="256" height="256" viewBox="0 0 256 256" fill="none" xmlns="http://www.w3.org/2000/svg">
<path opacity="0.7" d="M34.7794 85.5501C34.7794 85.5501 20.5048 122.414 40.565 159.534C60.6251 196.654 101.944 216.264 135.014 233.032C168.084 249.8 202.424 241.633 218.741 214.17C235.058 186.706 212.679 167.101 212.648 127.939C212.617 88.7757 218.511 78.4077 197.288 45.3223C176.066 12.2368 124.041 4.91009 84.6994 29.4503C45.3573 53.9904 34.7794 85.5501 34.7794 85.5501Z" fill="white"/>
<path d="M120.381 18.2886C183.869 12.6566 183.997 48.4608 212.613 81.8432C241.228 115.226 247.347 130.355 236.544 168.837C225.74 207.319 189.44 237.481 144.455 220.39C99.471 203.3 73.7277 219.709 45.368 204.518C17.0083 189.327 6.45598 160.02 27.2329 125.46C48.0099 90.9005 42.0758 25.2621 120.381 18.2886Z" fill="#7093EC"/>
<path opacity="0.7" d="M120.381 18.2886C183.869 12.6566 183.997 48.4608 212.613 81.8432C241.228 115.226 247.347 130.355 236.544 168.837C225.74 207.319 189.44 237.481 144.455 220.39C99.471 203.3 73.7277 219.709 45.368 204.518C17.0083 189.327 6.45598 160.02 27.2329 125.46C48.0099 90.9005 42.0758 25.2621 120.381 18.2886Z" fill="white"/>
<path d="M162.658 33.6105L62.8662 44.7158L78.3042 183.441L178.096 172.336L162.658 33.6105Z" fill="white" stroke="#263238" stroke-linecap="round" stroke-linejoin="round"/>
<path d="M162.659 33.6112L62.8662 44.7166L65.0022 63.9107L164.795 52.8054L162.659 33.6112Z" fill="#BFBFBF" stroke="#263238" stroke-linecap="round" stroke-linejoin="round"/>
<path d="M134.932 42.4551L91.8523 47.2474C91.6521 47.2574 91.4561 47.3081 91.2762 47.3964C91.0962 47.4846 90.9362 47.6087 90.8058 47.7609C90.6754 47.9132 90.5774 48.0904 90.5178 48.2817C90.4583 48.4731 90.4383 48.6746 90.4592 48.874C90.4801 49.0733 90.5415 49.2663 90.6395 49.4411C90.7375 49.616 90.8701 49.769 91.0292 49.8908C91.1883 50.0127 91.3706 50.1008 91.565 50.1499C91.7593 50.1989 91.9616 50.2078 92.1595 50.176L135.239 45.3837C135.616 45.3267 135.956 45.126 136.188 44.8236C136.421 44.5212 136.527 44.1406 136.484 43.7618C136.442 43.3829 136.254 43.0352 135.961 42.7916C135.668 42.548 135.292 42.4274 134.912 42.4551H134.932Z" fill="white"/>
<path d="M124.831 49.6641L103.296 52.0602C103.2 52.0698 103.106 52.0984 103.021 52.1444C102.936 52.1904 102.862 52.2529 102.801 52.3282C102.74 52.4035 102.696 52.4902 102.669 52.5831C102.642 52.6759 102.634 52.7732 102.646 52.8692C102.666 53.0632 102.763 53.2412 102.915 53.364C103.066 53.4869 103.261 53.5446 103.455 53.5245L124.994 51.1284C125.183 51.0999 125.353 50.9995 125.469 50.8483C125.585 50.6971 125.638 50.5068 125.617 50.3174C125.596 50.128 125.502 49.9541 125.355 49.8323C125.209 49.7105 125.021 49.6502 124.831 49.6641V49.6641Z" fill="white"/>
<path opacity="0.3" d="M140.927 66.2632L84.4795 72.5403C84.3349 72.5566 84.2026 72.6297 84.1119 72.7435C84.0212 72.8573 83.9793 73.0024 83.9956 73.1471C84.0119 73.2917 84.085 73.4239 84.1988 73.5146C84.3126 73.6054 84.4577 73.6472 84.6024 73.6309L141.035 67.3538C141.18 67.3375 141.312 67.2644 141.403 67.1506C141.493 67.0368 141.535 66.8917 141.519 66.7471C141.503 66.6024 141.429 66.4702 141.316 66.3795C141.202 66.2887 141.057 66.2469 140.912 66.2632H140.927Z" fill="black"/>
<path opacity="0.3" d="M141.363 70.1799L76.4619 77.3991C76.3173 77.4154 76.1851 77.4885 76.0943 77.6023C76.0036 77.7161 75.9618 77.8612 75.9781 78.0059C75.9944 78.1505 76.0674 78.2827 76.1812 78.3734C76.295 78.4642 76.4402 78.506 76.5848 78.4897L141.486 71.2705C141.56 71.2661 141.632 71.2467 141.698 71.2136C141.764 71.1805 141.823 71.1343 141.871 71.0778C141.919 71.0214 141.955 70.9558 141.977 70.8851C141.998 70.8144 142.006 70.7399 141.998 70.6663C141.99 70.592 141.967 70.5201 141.93 70.455C141.893 70.3898 141.844 70.3328 141.784 70.2873C141.725 70.2419 141.657 70.2089 141.585 70.1905C141.512 70.172 141.437 70.1684 141.363 70.1799Z" fill="black"/>
<path opacity="0.3" d="M124.861 75.9809L76.8965 81.316C76.7519 81.3323 76.6196 81.4053 76.5289 81.5191C76.4382 81.6329 76.3963 81.7781 76.4126 81.9227C76.4289 82.0673 76.502 82.1995 76.6158 82.2903C76.7296 82.381 76.8747 82.4228 77.0194 82.4065L124.978 77.0715C125.052 77.0671 125.124 77.0477 125.191 77.0146C125.257 76.9815 125.316 76.9353 125.364 76.8788C125.411 76.8224 125.447 76.7568 125.469 76.6861C125.491 76.6154 125.498 76.5409 125.49 76.4673C125.482 76.3935 125.459 76.3221 125.423 76.2573C125.387 76.1926 125.338 76.1358 125.279 76.0904C125.22 76.045 125.153 76.0119 125.081 75.9931C125.009 75.9743 124.934 75.9702 124.861 75.9809Z" fill="black"/>
<path opacity="0.3" d="M155.24 64.1826L149.515 64.8197C148.745 64.9054 148.191 65.5991 148.276 66.3691L148.913 72.0938C148.999 72.8638 149.693 73.4186 150.463 73.3329L156.187 72.6958C156.957 72.6101 157.512 71.9164 157.427 71.1464L156.789 65.4217C156.704 64.6517 156.01 64.0969 155.24 64.1826Z" stroke="#263238" stroke-linecap="round" stroke-linejoin="round"/>
<path d="M150.532 68.5825L152.416 70.3591L154.894 66.5652" stroke="#7093EC" stroke-width="3" stroke-linecap="round" stroke-linejoin="round"/>
<path opacity="0.3" d="M142.991 84.8179L86.5586 91.095C86.414 91.1113 86.2817 91.1844 86.191 91.2982C86.1003 91.412 86.0584 91.5571 86.0747 91.7017C86.091 91.8464 86.1641 91.9786 86.2779 92.0693C86.3917 92.1601 86.5368 92.2019 86.6815 92.1856L143.114 85.9085C143.186 85.9004 143.255 85.8783 143.318 85.8434C143.381 85.8086 143.437 85.7616 143.482 85.7053C143.527 85.649 143.56 85.5843 143.58 85.5151C143.6 85.4458 143.606 85.3733 143.598 85.3017C143.59 85.2301 143.568 85.1608 143.533 85.0977C143.498 85.0347 143.451 84.9791 143.395 84.9342C143.338 84.8892 143.274 84.8558 143.205 84.8359C143.135 84.8159 143.063 84.8098 142.991 84.8179V84.8179Z" fill="black"/>
<path opacity="0.3" d="M143.426 88.7349L78.5254 95.9541C78.4538 95.9622 78.3844 95.9843 78.3214 96.0191C78.2583 96.054 78.2027 96.1009 78.1578 96.1572C78.1129 96.2136 78.0795 96.2782 78.0595 96.3475C78.0396 96.4167 78.0335 96.4892 78.0415 96.5608C78.0496 96.6324 78.0717 96.7017 78.1066 96.7648C78.1414 96.8279 78.1883 96.8835 78.2447 96.9284C78.301 96.9733 78.3657 97.0067 78.4349 97.0267C78.5042 97.0466 78.5766 97.0527 78.6483 97.0447L143.549 89.8255C143.694 89.8092 143.826 89.7361 143.917 89.6223C144.008 89.5085 144.05 89.3634 144.033 89.2187C144.017 89.0741 143.944 88.9419 143.83 88.8512C143.716 88.7604 143.571 88.7186 143.426 88.7349Z" fill="black"/>
<path opacity="0.3" d="M126.924 94.5356L78.96 99.8707C78.8153 99.887 78.6831 99.96 78.5924 100.074C78.5016 100.188 78.4598 100.333 78.4761 100.477C78.4924 100.622 78.5655 100.754 78.6793 100.845C78.793 100.936 78.9382 100.978 79.0828 100.961L127.042 95.6262C127.116 95.6218 127.188 95.6024 127.254 95.5693C127.32 95.5362 127.379 95.49 127.427 95.4335C127.475 95.3771 127.511 95.3115 127.533 95.2408C127.554 95.17 127.562 95.0956 127.554 95.022C127.546 94.9482 127.523 94.8768 127.486 94.812C127.45 94.7473 127.401 94.6905 127.342 94.6451C127.283 94.5997 127.216 94.5666 127.144 94.5478C127.072 94.529 126.998 94.5249 126.924 94.5356Z" fill="black"/>
<path opacity="0.3" d="M157.304 82.7334L151.58 83.3705C150.81 83.4562 150.255 84.1499 150.341 84.9199L150.978 90.6446C151.063 91.4146 151.757 91.9694 152.527 91.8837L158.252 91.2466C159.022 91.1609 159.577 90.4672 159.491 89.6972L158.854 83.9725C158.768 83.2025 158.075 82.6477 157.304 82.7334Z" stroke="#263238" stroke-linecap="round" stroke-linejoin="round"/>
<path d="M152.602 87.1374L154.481 88.914L156.959 85.1201" stroke="#7093EC" stroke-width="3" stroke-linecap="round" stroke-linejoin="round"/>
<path opacity="0.3" d="M145.055 103.373L88.6219 109.65C88.4864 109.676 88.3658 109.752 88.2841 109.863C88.2025 109.975 88.1657 110.112 88.1812 110.25C88.1967 110.387 88.2634 110.513 88.3678 110.603C88.4723 110.693 88.6069 110.74 88.7448 110.735L145.177 104.448C145.249 104.44 145.318 104.418 145.381 104.383C145.444 104.348 145.5 104.301 145.545 104.245C145.59 104.189 145.623 104.124 145.643 104.055C145.663 103.985 145.669 103.913 145.661 103.841C145.653 103.77 145.631 103.7 145.596 103.637C145.561 103.574 145.514 103.519 145.458 103.474C145.402 103.429 145.337 103.395 145.268 103.375C145.199 103.356 145.126 103.349 145.055 103.357V103.373Z" fill="black"/>
<path opacity="0.3" d="M145.495 107.29L80.5883 114.509C80.5165 114.516 80.447 114.537 80.3836 114.571C80.3203 114.606 80.2645 114.653 80.2196 114.709C80.1747 114.765 80.1416 114.83 80.1223 114.9C80.1029 114.969 80.0977 115.042 80.107 115.113C80.1146 115.185 80.1364 115.254 80.1709 115.317C80.2054 115.381 80.2521 115.436 80.3082 115.482C80.3643 115.527 80.4288 115.56 80.4979 115.581C80.5671 115.601 80.6395 115.607 80.7112 115.599L145.612 108.38C145.686 108.375 145.759 108.355 145.825 108.321C145.891 108.288 145.95 108.241 145.998 108.184C146.045 108.127 146.081 108.061 146.103 107.99C146.125 107.919 146.132 107.845 146.124 107.771C146.116 107.697 146.093 107.626 146.057 107.561C146.02 107.497 145.971 107.441 145.912 107.396C145.853 107.351 145.786 107.318 145.714 107.3C145.642 107.282 145.568 107.278 145.495 107.29V107.29Z" fill="black"/>
<path opacity="0.3" d="M128.988 113.091L81.0234 118.426C80.8788 118.442 80.7466 118.515 80.6559 118.629C80.5651 118.743 80.5233 118.888 80.5396 119.032C80.5559 119.177 80.629 119.309 80.7427 119.4C80.8565 119.491 81.0017 119.532 81.1463 119.516L129.105 114.176C129.25 114.16 129.382 114.088 129.474 113.975C129.565 113.861 129.607 113.716 129.592 113.572C129.576 113.427 129.504 113.295 129.39 113.204C129.277 113.112 129.132 113.07 128.988 113.085V113.091Z" fill="black"/>
<path opacity="0.3" d="M159.369 101.284L153.644 101.921C152.874 102.007 152.319 102.701 152.405 103.471L153.042 109.195C153.128 109.965 153.822 110.52 154.592 110.434L160.316 109.797C161.086 109.712 161.641 109.018 161.555 108.248L160.918 102.523C160.833 101.753 160.139 101.198 159.369 101.284Z" stroke="#263238" stroke-linecap="round" stroke-linejoin="round"/>
<path d="M154.664 105.692L156.543 107.469L159.026 103.67" stroke="#7093EC" stroke-width="3" stroke-linecap="round" stroke-linejoin="round"/>
<path opacity="0.3" d="M147.118 121.928L90.6854 128.205C90.5499 128.231 90.4293 128.307 90.3476 128.418C90.2659 128.529 90.2292 128.667 90.2447 128.804C90.2602 128.941 90.3269 129.068 90.4313 129.158C90.5358 129.248 90.6704 129.295 90.8082 129.29L147.241 123.013C147.316 123.01 147.39 122.992 147.459 122.96C147.527 122.927 147.587 122.881 147.637 122.823C147.686 122.766 147.723 122.699 147.745 122.627C147.767 122.555 147.775 122.479 147.766 122.404C147.758 122.329 147.734 122.256 147.696 122.191C147.658 122.126 147.607 122.069 147.546 122.024C147.485 121.979 147.416 121.948 147.342 121.931C147.268 121.915 147.192 121.913 147.118 121.928V121.928Z" fill="black"/>
<path opacity="0.3" d="M147.558 125.845L82.6517 133.064C82.58 133.071 82.5104 133.092 82.4471 133.126C82.3838 133.161 82.328 133.208 82.2831 133.264C82.2382 133.32 82.2051 133.385 82.1858 133.455C82.1664 133.524 82.1612 133.597 82.1705 133.668C82.1781 133.74 82.1998 133.809 82.2344 133.872C82.2689 133.936 82.3155 133.991 82.3717 134.036C82.4278 134.082 82.4923 134.115 82.5614 134.136C82.6305 134.156 82.703 134.162 82.7746 134.154L147.676 126.935C147.821 126.918 147.953 126.845 148.045 126.731C148.136 126.617 148.178 126.471 148.162 126.326C148.145 126.182 148.073 126.051 147.959 125.961C147.846 125.87 147.702 125.829 147.558 125.845V125.845Z" fill="black"/>
<path opacity="0.3" d="M131.072 131.645L83.1078 136.98C83.0361 136.987 82.9665 137.009 82.9032 137.043C82.8398 137.077 82.7841 137.124 82.7392 137.181C82.6943 137.237 82.6612 137.302 82.6418 137.371C82.6225 137.441 82.6173 137.513 82.6265 137.585C82.6342 137.656 82.6559 137.726 82.6904 137.789C82.7249 137.852 82.7716 137.908 82.8277 137.953C82.8838 137.998 82.9483 138.032 83.0175 138.052C83.0866 138.072 83.1591 138.079 83.2307 138.071L131.19 132.736C131.261 132.728 131.331 132.707 131.394 132.672C131.457 132.638 131.513 132.591 131.558 132.535C131.603 132.479 131.637 132.414 131.657 132.345C131.678 132.276 131.684 132.203 131.676 132.132C131.669 132.06 131.648 131.99 131.614 131.927C131.579 131.863 131.533 131.807 131.476 131.762C131.42 131.716 131.355 131.683 131.286 131.663C131.216 131.643 131.144 131.637 131.072 131.645V131.645Z" fill="black"/>
<path opacity="0.3" d="M161.434 119.84L155.71 120.477C154.94 120.563 154.385 121.257 154.471 122.027L155.108 127.751C155.193 128.521 155.887 129.076 156.657 128.99L162.382 128.353C163.152 128.268 163.707 127.574 163.621 126.804L162.984 121.079C162.898 120.309 162.204 119.754 161.434 119.84Z" stroke="#263238" stroke-linecap="round" stroke-linejoin="round"/>
<path d="M156.728 124.242L158.607 126.019L161.09 122.225" stroke="#7093EC" stroke-width="3" stroke-linecap="round" stroke-linejoin="round"/>
<path opacity="0.3" d="M149.186 140.478L92.7532 146.755C92.6816 146.762 92.6123 146.784 92.5491 146.819C92.4859 146.853 92.4301 146.9 92.3849 146.956C92.3397 147.012 92.3061 147.077 92.2858 147.146C92.2656 147.215 92.2591 147.287 92.2668 147.359C92.2746 147.43 92.2963 147.5 92.3309 147.563C92.3654 147.626 92.4121 147.682 92.4682 147.727C92.5243 147.772 92.5887 147.806 92.6579 147.826C92.727 147.847 92.7994 147.853 92.871 147.845L149.304 141.568C149.375 141.56 149.445 141.539 149.508 141.504C149.571 141.47 149.627 141.423 149.672 141.367C149.717 141.311 149.751 141.246 149.771 141.177C149.791 141.108 149.798 141.036 149.79 140.964C149.773 140.82 149.701 140.688 149.588 140.597C149.475 140.506 149.33 140.463 149.186 140.478Z" fill="black"/>
<path opacity="0.3" d="M149.621 144.384L84.7152 151.603C84.6397 151.606 84.5656 151.624 84.4975 151.657C84.4294 151.689 84.3688 151.736 84.3194 151.793C84.2701 151.85 84.2332 151.917 84.2109 151.989C84.1886 152.061 84.1815 152.137 84.19 152.212C84.1985 152.287 84.2224 152.36 84.2603 152.425C84.2981 152.491 84.3491 152.548 84.4099 152.592C84.4708 152.637 84.5402 152.669 84.6139 152.685C84.6876 152.702 84.7639 152.703 84.8381 152.689L149.739 145.47C149.815 145.468 149.89 145.45 149.958 145.418C150.027 145.386 150.088 145.34 150.138 145.283C150.188 145.226 150.226 145.159 150.248 145.087C150.271 145.014 150.279 144.938 150.271 144.863C150.263 144.787 150.239 144.715 150.201 144.649C150.163 144.583 150.112 144.526 150.051 144.481C149.99 144.436 149.92 144.404 149.846 144.387C149.772 144.371 149.696 144.37 149.621 144.384Z" fill="black"/>
<path opacity="0.3" d="M133.119 150.2L85.1553 155.535C85.0106 155.552 84.8784 155.625 84.7877 155.739C84.6969 155.852 84.6551 155.998 84.6714 156.142C84.6877 156.287 84.7608 156.419 84.8746 156.51C84.9884 156.6 85.1335 156.642 85.2781 156.626L133.242 151.291C133.386 151.273 133.518 151.199 133.608 151.085C133.698 150.971 133.739 150.826 133.724 150.682C133.716 150.61 133.694 150.541 133.66 150.478C133.625 150.415 133.578 150.36 133.522 150.315C133.466 150.27 133.401 150.237 133.332 150.217C133.263 150.198 133.191 150.192 133.119 150.2V150.2Z" fill="black"/>
<path opacity="0.3" d="M163.5 138.396L157.775 139.033C157.005 139.119 156.45 139.812 156.536 140.583L157.173 146.307C157.259 147.077 157.952 147.632 158.723 147.546L164.447 146.909C165.217 146.824 165.772 146.13 165.686 145.36L165.049 139.635C164.964 138.865 164.27 138.31 163.5 138.396Z" stroke="#263238" stroke-linecap="round" stroke-linejoin="round"/>
<path d="M158.791 142.797L160.67 144.573L163.153 140.78" stroke="#7093EC" stroke-width="3" stroke-linecap="round" stroke-linejoin="round"/>
<path opacity="0.3" d="M150.758 154.624L94.3252 160.911C94.1806 160.928 94.0483 161.001 93.9576 161.114C93.8669 161.228 93.825 161.373 93.8413 161.518C93.8576 161.663 93.9307 161.795 94.0445 161.886C94.1583 161.976 94.3034 162.018 94.4481 162.002L150.881 155.725C150.952 155.718 151.022 155.697 151.085 155.662C151.149 155.628 151.204 155.581 151.249 155.525C151.294 155.468 151.327 155.403 151.347 155.334C151.366 155.265 151.371 155.192 151.362 155.121C151.356 155.048 151.335 154.978 151.301 154.913C151.267 154.849 151.22 154.792 151.164 154.745C151.108 154.699 151.043 154.665 150.973 154.644C150.903 154.623 150.83 154.616 150.758 154.624V154.624Z" fill="black"/>
<path opacity="0.3" d="M151.194 158.556L86.2925 165.775C86.2167 165.777 86.1421 165.795 86.0734 165.827C86.0048 165.859 85.9435 165.905 85.8936 165.962C85.8436 166.019 85.806 166.086 85.7832 166.158C85.7604 166.231 85.7528 166.307 85.761 166.382C85.7692 166.458 85.7929 166.53 85.8307 166.596C85.8685 166.662 85.9195 166.719 85.9806 166.764C86.0416 166.809 86.1113 166.841 86.1853 166.858C86.2592 166.874 86.3358 166.875 86.4103 166.861L151.317 159.642C151.452 159.616 151.573 159.539 151.654 159.428C151.736 159.317 151.773 159.179 151.757 159.042C151.742 158.905 151.675 158.779 151.571 158.689C151.466 158.599 151.331 158.551 151.194 158.556Z" fill="black"/>
<path opacity="0.3" d="M134.686 164.352L86.7269 169.687C86.6553 169.695 86.5859 169.716 86.5226 169.751C86.4594 169.786 86.4036 169.832 86.3584 169.888C86.3132 169.944 86.2796 170.009 86.2593 170.078C86.2391 170.147 86.2327 170.22 86.2405 170.291C86.2573 170.436 86.3307 170.569 86.4449 170.66C86.559 170.751 86.7046 170.794 86.8498 170.778L134.809 165.443C134.88 165.435 134.95 165.412 135.013 165.378C135.076 165.343 135.131 165.296 135.176 165.239C135.221 165.183 135.255 165.119 135.275 165.049C135.295 164.98 135.301 164.908 135.293 164.836C135.285 164.764 135.263 164.695 135.228 164.632C135.193 164.569 135.146 164.513 135.09 164.468C135.033 164.423 134.969 164.39 134.899 164.37C134.83 164.35 134.758 164.344 134.686 164.352V164.352Z" fill="black"/>
<path opacity="0.3" d="M165.076 152.548L159.351 153.185C158.581 153.27 158.026 153.964 158.112 154.734L158.749 160.459C158.835 161.229 159.529 161.784 160.299 161.698L166.023 161.061C166.793 160.975 167.348 160.281 167.262 159.511L166.625 153.787C166.54 153.017 165.846 152.462 165.076 152.548Z" stroke="#263238" stroke-linecap="round" stroke-linejoin="round"/>
<path d="M160.363 156.954L162.242 158.73L164.726 154.936" stroke="#7093EC" stroke-width="3" stroke-linecap="round" stroke-linejoin="round"/>
<path opacity="0.3" d="M82.1655 105.871C85.2887 108.165 87.8999 119.183 88.1355 129.285C88.371 139.387 93.2555 156.421 93.8391 159.211C94.4228 162.002 94.2078 166.026 97.8327 160.425C101.458 154.824 112.061 145.101 116.48 148.331C120.898 151.562 113.459 162.422 109.43 168.269C105.4 174.116 104.991 184.412 100.162 190.858C95.3342 197.304 90.9719 207.037 86.2411 206.889C81.5102 206.74 50.1758 229.985 50.1758 229.985L50.7902 198.17L78.9502 152.09L82.1655 105.871Z" fill="black" fill-opacity="0.7"/>
<path d="M119.05 149.893C118.891 150.891 113.377 158.198 110.136 163.666C106.895 169.134 103.859 178.652 103.045 180.05C102.231 181.448 92.293 190.177 89.5692 193.828C86.8454 197.478 81.9814 199.091 77.1225 202.532C73.9993 204.744 64.2662 216.156 57.7074 224.036C54.062 228.413 51.3945 231.716 51.3945 231.716L9.4668 220.785C9.4668 220.785 12.9382 217.922 17.5052 214.062H17.5359L17.582 214.026C25.0879 207.652 35.5481 198.656 38.4358 195.261C43.0898 189.793 49.5718 183.296 49.5718 183.296C49.1775 175.703 49.9814 168.509 49.2697 165.775C48.901 164.347 48.2457 156.221 47.7337 153.723C46.4895 147.338 41.0777 140.723 40.4684 138.117C39.8591 135.511 32.7167 124.416 36.2034 122.368C36.8373 121.969 37.5908 121.804 38.3334 121.902C43.0438 122.552 46.9247 133.929 49.5974 136.827C50.7426 138.199 51.7799 139.657 52.7001 141.189C54.8095 144.532 56.878 148.291 56.878 148.291C57.687 145.05 51.8143 133.504 50.1913 122.568C48.5682 111.631 43.9142 105.759 50.1913 105.083C50.707 105.025 51.2292 105.07 51.7273 105.216C56.1458 106.506 58.0607 115.686 60.7026 124.595C60.9484 125.414 62.9606 131.297 64.5273 135.834C65.5513 138.803 66.3705 141.194 66.3705 141.194C66.5702 135.624 64.8345 130.442 64.5478 125.394C64.4249 123.371 65.0598 115.267 64.261 107.167C63.575 100.331 63.8873 97.5615 66.5599 97.0239C67.1324 96.9209 67.7159 96.8934 68.2956 96.942C72.9292 97.2339 74.5727 109.547 74.5727 114.35C74.5727 117.14 75.0489 122.588 75.4482 126.674C75.7401 129.628 75.991 131.871 75.991 131.871C75.991 131.871 76.7999 125.087 76.1958 110.454C76.0575 107.249 76.2674 104.955 77.527 104.028C78.2182 103.516 79.2166 103.429 80.6502 103.818C84.7001 104.914 86.0159 119.921 86.0159 125.594C86.0159 131.267 89.2569 140.984 89.8662 148.634C90.4754 156.283 93.1276 165.683 93.1276 165.683C93.1276 165.683 94.6278 166.292 95.6364 166.093C96.645 165.893 103.639 155.561 103.639 155.561C106.895 148.49 113.234 146.345 116.685 147.139C118.272 147.502 119.296 148.48 119.05 149.893Z" fill="white"/>
<path opacity="0.4" d="M119.05 149.893C118.891 150.891 113.377 158.198 110.136 163.666C106.895 169.134 103.859 178.652 103.045 180.05C102.231 181.448 92.2926 190.177 89.5688 193.828C86.845 197.478 81.981 199.091 77.1221 202.532C73.9989 204.744 64.2658 216.156 57.707 224.036C58.429 221.179 60.0469 217.528 64.276 214.021C71.6181 207.923 72.0584 203.141 76.0059 199.091C79.9534 195.041 86.9064 196.255 89.405 191.411C91.9035 186.568 100.618 182.093 102.44 177.838C104.263 173.583 100.618 172.682 103.859 167.562C107.1 162.442 110.243 161.198 109.783 159.191C109.322 157.184 107.96 154.143 110.771 151.608C112.527 150.031 114.59 148.05 116.7 147.138C118.272 147.502 119.296 148.48 119.05 149.893Z" fill="#7093EC"/>
<path opacity="0.4" d="M66.519 173.926C65.1724 173.25 66.2528 171.904 65.3056 170.783C64.3584 169.661 62.1977 176.901 61.7216 176.927C61.2454 176.952 59.7964 173.245 59.223 172.877C58.6495 172.508 58.3116 174.059 57.4976 176.927C56.6835 179.794 53.6934 181.248 51.9577 183.296C50.222 185.344 39.7824 196.48 37.2172 200.663C34.6521 204.846 18.8108 213.125 17.582 214.016C25.088 207.652 35.5481 198.656 38.4358 195.261C43.0899 189.793 49.5718 183.296 49.5718 183.296C49.1775 175.703 49.9814 168.509 49.2697 165.775C48.9011 164.347 48.2457 156.221 47.7337 153.723C46.4896 147.338 41.0777 140.723 40.4684 138.117C39.8592 135.511 32.7167 124.416 36.2035 122.368C36.8373 121.969 37.5908 121.804 38.3334 121.902C37.5398 122.465 36.7667 123.274 37.4886 124.462C38.7737 126.541 40.1868 128.727 40.1868 131.026C40.1868 133.325 44.1036 136.561 45.6243 138.706C47.1449 140.851 45.7267 140.093 46.7404 143.032C47.7542 145.971 48.9676 145.357 49.5718 148.326C50.1759 151.296 53.5552 153.19 53.0176 156.892C52.48 160.594 54.6355 165.745 54.6355 165.745C54.6355 165.745 56.3916 160.753 55.7516 158.065C55.1116 155.377 55.854 151.987 55.2396 151.076C54.7276 150.257 53.3248 144.696 52.6796 141.24C54.7891 144.584 56.8576 148.342 56.8576 148.342C57.6665 145.101 51.7939 133.555 50.1708 122.619C48.5478 111.682 43.8937 105.81 50.1708 105.134C50.6866 105.076 51.2087 105.121 51.7068 105.267C54.3846 110.269 52.5209 113.971 51.927 116.142C51.2767 118.507 55.1475 124.58 55.7209 128.763C56.2329 132.669 57.2876 132.265 57.4259 132.193C57.3081 132.301 56.3097 133.32 56.9139 136.218C57.5436 139.29 62.0339 146.586 62.0339 148.623C62.0339 150.661 61.6652 154.015 61.6652 155.008C61.6652 156.001 65.2492 162.647 65.6793 164.388C66.1094 166.129 65.5104 161.034 66.4883 159.268C67.4662 157.501 67.9833 151.337 68.1113 151.67C69.7958 155.95 67.8707 174.592 66.519 173.926Z" fill="#7093EC"/>
<path opacity="0.4" d="M69.4215 128.174C68.2747 129.91 68.3054 143.457 66.3495 143.503C65.4023 143.503 64.9415 140.098 64.5575 135.823C65.5815 138.793 66.4007 141.184 66.4007 141.184C66.6004 135.613 64.8647 130.432 64.578 125.384C64.4551 123.361 65.09 115.256 64.2913 107.156C63.6052 100.321 63.9175 97.5513 66.5902 97.0137C67.1534 98.8364 68.5358 100.987 68.8891 102.984C69.3703 105.738 68.4283 108.017 67.6193 108.36C66.8103 108.703 66.6721 110.479 67.6859 110.74C68.6996 111.002 67.6859 123.93 68.1569 125.588C68.6279 127.247 70.5735 126.464 69.4215 128.174Z" fill="#7093EC"/>
<path opacity="0.4" d="M79.9437 113.009C77.8394 113.935 77.7267 115.594 77.097 117.975C76.4672 120.356 77.9981 123.832 77.097 129.295C76.1958 134.758 79.4829 138.281 77.097 144.394C74.711 150.507 75.8323 139.274 75.433 134.154C75.2954 131.661 75.3056 129.161 75.4637 126.669C75.7555 129.623 76.0064 131.866 76.0064 131.866C76.0064 131.866 76.8154 125.082 76.2112 110.449C76.073 107.243 76.2829 104.95 77.5424 104.023C79.703 105.984 81.7357 112.22 79.9437 113.009Z" fill="#7093EC"/>
<path d="M51.394 231.721C51.394 231.721 72.258 205.998 77.122 202.537C81.986 199.076 86.85 197.473 89.5687 193.833C92.2874 190.193 102.236 181.473 103.045 180.055C103.854 178.637 106.895 169.119 110.136 163.671C113.377 158.223 118.891 150.871 119.05 149.898C119.756 145.439 108.415 145.239 103.654 155.571C103.654 155.571 96.665 165.898 95.6513 166.103C94.6375 166.308 93.1425 165.693 93.1425 165.693C93.1425 165.693 90.4903 156.298 89.881 148.644C89.2718 140.989 86.0308 131.261 86.0308 125.604C86.0308 119.946 84.715 104.924 80.665 103.828C76.6151 102.733 76.0007 105.508 76.2106 110.484C76.8148 125.117 76.0058 131.901 76.0058 131.901C76.0058 131.901 74.5876 119.188 74.5876 114.381C74.5876 109.573 72.9441 97.2595 68.3105 96.9727C64.0558 96.7014 63.4618 99.0924 64.2759 107.213C65.09 115.333 64.4398 123.418 64.5626 125.44C64.8647 130.504 66.6106 135.68 66.3854 141.24C66.3854 141.24 61.1169 125.988 60.7124 124.631C57.7786 114.688 55.746 104.448 50.1754 105.062C43.8983 105.738 48.5575 111.611 50.1754 122.547C51.7934 133.483 57.6711 145.029 56.8622 148.27C56.8622 148.27 52.0033 139.448 49.5815 136.806C46.5095 133.483 41.8708 119.004 36.1978 122.347C32.7111 124.395 39.874 135.526 40.4782 138.132C41.0823 140.739 46.4993 147.348 47.7434 153.738C48.2554 156.237 48.8954 164.362 49.2794 165.791C49.9911 168.525 49.1873 175.718 49.5815 183.311C49.5815 183.311 43.0996 189.793 38.4455 195.261C33.7914 200.73 9.47656 220.785 9.47656 220.785" stroke="#263238" stroke-linecap="round" stroke-linejoin="round"/>
<path d="M93.1426 165.688C94.0771 167.995 94.0771 170.575 93.1426 172.882" stroke="#263238" stroke-linecap="round" stroke-linejoin="round"/>
<path d="M94.8477 166.118C95.4289 166.545 95.8596 167.146 96.0776 167.833C96.2957 168.52 96.2899 169.259 96.0611 169.943" stroke="#263238" stroke-linecap="round" stroke-linejoin="round"/>
<path d="M76.0059 131.865C76.0059 131.865 77.6289 143.309 76.9172 145.433" stroke="#263238" stroke-linecap="round" stroke-linejoin="round"/>
<path d="M66.3857 141.184C66.5595 142.29 66.5595 143.416 66.3857 144.522" stroke="#263238" stroke-linecap="round" stroke-linejoin="round"/>
<path d="M56.8682 148.27C56.8682 148.27 57.1702 149.995 56.8682 150.4" stroke="#263238" stroke-linecap="round" stroke-linejoin="round"/>
<path d="M108.211 157.993C108.211 157.993 110.044 158.986 110.643 160.425" stroke="#263238" stroke-linecap="round" stroke-linejoin="round"/>
<path d="M66.4521 110.448C67.0463 110.591 67.6668 110.582 68.2564 110.422C68.8461 110.262 69.3859 109.956 69.8262 109.532" stroke="#263238" stroke-linecap="round" stroke-linejoin="round"/>
<path d="M67.0723 126.904C67.0723 126.904 70.7177 128.118 72.0387 126.904" stroke="#263238" stroke-linecap="round" stroke-linejoin="round"/>
<path d="M78.9453 130.447C78.9453 130.447 81.3722 129.536 82.9952 130.043" stroke="#263238" stroke-linecap="round" stroke-linejoin="round"/>
<path d="M55.752 133.688C55.752 133.688 57.6771 131.154 59.1977 131.866" stroke="#263238" stroke-linecap="round" stroke-linejoin="round"/>
<path d="M47.8512 141.184C47.8512 141.184 46.1309 141.993 45.624 142.853" stroke="#263238" stroke-linecap="round" stroke-linejoin="round"/>
<path d="M49.5713 183.296C49.9933 182.822 50.3672 182.308 50.6874 181.76C50.9895 181.151 50.585 174.669 50.6874 170.496" stroke="#263238" stroke-linecap="round" stroke-linejoin="round"/>
<path d="M70.8198 208.814C68.4338 211.487 61.1174 216.33 58.1836 219.264" stroke="#263238" stroke-linecap="round" stroke-linejoin="round"/>
<path d="M80.4606 148.27C79.2472 151.716 80.563 156.068 80.4606 157.998C80.3582 159.928 79.9486 168.75 79.9486 168.75" stroke="#263238" stroke-linecap="round" stroke-linejoin="round"/>
<path d="M69.4216 148.27C67.8036 151.004 68.3105 154.65 68.8174 156.462C69.3243 158.274 68.8737 165.678 68.8737 165.678" stroke="#263238" stroke-linecap="round" stroke-linejoin="round"/>
<path d="M52.0033 156.979C51.8692 158.762 52.2232 160.548 53.0273 162.145" stroke="#263238" stroke-linecap="round" stroke-linejoin="round"/>
<path d="M62.0287 151.613C61.1173 154.957 62.3359 156.472 62.4383 156.979" stroke="#263238" stroke-linecap="round" stroke-linejoin="round"/>
<path opacity="0.3" d="M144.292 129.536L142.567 119.521C142.49 119.076 142.505 118.621 142.609 118.182C142.714 117.742 142.906 117.329 143.174 116.966C143.443 116.603 143.781 116.298 144.171 116.069C144.56 115.841 144.991 115.693 145.439 115.635L149.304 115.123C149.304 115.123 148.014 112.507 152.167 104.883C156.319 97.2596 176.282 77.01 191.416 111.027C206.551 145.045 220.38 214.364 220.38 214.364C220.38 214.364 179.528 166.789 178.227 164.352C176.927 161.915 164.49 163.374 161.618 156.836C158.746 150.298 152.714 131.64 152.714 131.64L148.045 132.28C147.186 132.397 146.315 132.176 145.616 131.664C144.916 131.153 144.442 130.39 144.292 129.536V129.536Z" fill="black" fill-opacity="0.7"/>
<path d="M180.296 106.557L172.457 107.981L161.562 109.962L147.292 112.558C147.019 112.608 146.738 112.604 146.466 112.545C146.194 112.487 145.936 112.375 145.707 112.217C145.478 112.058 145.283 111.856 145.132 111.622C144.982 111.388 144.879 111.127 144.83 110.853L141.696 93.6243C141.598 93.0718 141.721 92.5028 142.041 92.0414C142.36 91.58 142.849 91.2637 143.401 91.1616L151.701 89.6256L163.774 87.4342L176.405 85.1353C176.678 85.0851 176.959 85.0894 177.231 85.1479C177.503 85.2065 177.761 85.3182 177.99 85.4766C178.219 85.635 178.414 85.837 178.565 86.071C178.715 86.305 178.818 86.5664 178.867 86.8403L182.001 104.069C182.055 104.345 182.053 104.628 181.997 104.903C181.94 105.178 181.829 105.439 181.67 105.671C181.511 105.902 181.308 106.1 181.072 106.252C180.836 106.405 180.572 106.508 180.296 106.557V106.557Z" fill="#7093EC"/>
<path opacity="0.3" d="M174.751 95.1194L172.457 107.981L161.562 109.962C158.408 108.575 153.206 106.158 152.167 104.842C150.928 103.306 151.102 94.2542 151.701 89.6257L163.774 87.4343C168.029 90.3681 174.751 95.1194 174.751 95.1194Z" fill="black" fill-opacity="0.7"/>
<path opacity="0.3" d="M149.458 112.164L147.292 112.558C147.019 112.608 146.738 112.604 146.466 112.545C146.194 112.487 145.936 112.375 145.707 112.217C145.478 112.058 145.283 111.856 145.132 111.622C144.982 111.388 144.879 111.127 144.83 110.853L141.696 93.6243C141.598 93.0718 141.721 92.5028 142.041 92.0414C142.36 91.58 142.849 91.2637 143.401 91.1616L145.562 90.7673C145.01 90.8694 144.522 91.1859 144.203 91.6475C143.884 92.1091 143.762 92.6782 143.862 93.2301L146.995 110.459C147.045 110.733 147.148 110.994 147.298 111.228C147.449 111.462 147.644 111.664 147.873 111.823C148.102 111.981 148.359 112.093 148.631 112.151C148.903 112.21 149.184 112.214 149.458 112.164V112.164Z" fill="black" fill-opacity="0.7"/>
<path d="M180.296 106.557L172.457 107.981L161.562 109.962L147.292 112.558C147.019 112.608 146.738 112.604 146.466 112.545C146.194 112.487 145.936 112.375 145.707 112.217C145.478 112.058 145.283 111.856 145.132 111.622C144.982 111.388 144.879 111.127 144.83 110.853L141.696 93.6243C141.598 93.0718 141.721 92.5028 142.041 92.0414C142.36 91.58 142.849 91.2637 143.401 91.1616L151.701 89.6256L163.774 87.4342L176.405 85.1353C176.678 85.0851 176.959 85.0894 177.231 85.1479C177.503 85.2065 177.761 85.3182 177.99 85.4766C178.219 85.635 178.414 85.837 178.565 86.071C178.715 86.305 178.818 86.5664 178.867 86.8403L182.001 104.069C182.055 104.345 182.053 104.628 181.997 104.903C181.94 105.178 181.829 105.439 181.67 105.671C181.511 105.902 181.308 106.1 181.072 106.252C180.836 106.405 180.572 106.508 180.296 106.557V106.557Z" stroke="#263238" stroke-linecap="round" stroke-linejoin="round"/>
<path d="M177.967 84.2251L145.097 90.2625C143.95 90.4732 143.19 91.5741 143.401 92.7213L146.552 109.877C146.763 111.024 147.864 111.783 149.011 111.572L181.881 105.535C183.028 105.324 183.788 104.223 183.577 103.076L180.426 85.9208C180.215 84.7736 179.114 84.0144 177.967 84.2251Z" stroke="#263238" stroke-width="0.996394" stroke-linecap="round" stroke-linejoin="round"/>
<path d="M177.048 86.2968L146.073 91.926C145.517 92.0272 145.147 92.5602 145.249 93.1166L148.334 110.093C148.435 110.649 148.968 111.018 149.524 110.917L180.5 105.288C181.056 105.187 181.425 104.654 181.324 104.098L178.239 87.1212C178.138 86.5648 177.605 86.1957 177.048 86.2968Z" stroke="#263238" stroke-linecap="round" stroke-linejoin="round"/>
<path d="M182.461 106.163L180.311 106.552C180.86 106.449 181.346 106.133 181.663 105.672C181.979 105.212 182.101 104.644 182 104.095L178.867 86.8659C178.818 86.5921 178.715 86.3306 178.564 86.0966C178.414 85.8626 178.218 85.6606 177.99 85.5022C177.761 85.3438 177.503 85.2321 177.231 85.1736C176.959 85.115 176.678 85.1107 176.404 85.161L178.57 84.7667C179.122 84.6681 179.692 84.792 180.153 85.1115C180.614 85.4309 180.931 85.9199 181.033 86.4717L184.166 103.7C184.265 104.253 184.141 104.822 183.821 105.283C183.502 105.745 183.013 106.061 182.461 106.163V106.163Z" stroke="#263238" stroke-linecap="round" stroke-linejoin="round"/>
<path d="M244.736 161.352L223.534 218.225C223.534 218.225 214.666 201.329 206.474 185.692C199.931 173.189 193.818 161.464 192.993 159.739C191.145 155.853 184.832 147.712 184.832 147.712C184.832 147.712 178.355 144.005 175.391 137.549C172.426 131.093 169.165 107.996 169.165 107.996C169.165 107.996 160.65 104.791 158.618 103.388C156.585 101.985 154.731 89.0215 154.731 87.5418C154.731 86.0622 156.779 83.0977 156.779 83.0977C156.779 83.0977 156.324 80.9268 158.925 78.7354C159.775 78.0375 160.717 77.4604 161.725 77.0202H161.777C161.777 77.0202 161.439 72.1204 163.988 70.6919C164.11 70.623 164.237 70.5631 164.367 70.5127C166.641 69.6372 174.095 68.5057 174.095 68.5057C175.149 67.5797 176.376 66.8714 177.705 66.4218C179.026 66.0583 186.276 67.7428 190.326 68.7412C191.954 69.1406 193.065 69.4273 193.065 69.4273C193.065 69.4273 199.915 69.7396 201.211 70.5127C202.114 71.1051 202.94 71.8087 203.668 72.6068V72.6068L203.796 72.7553C203.796 72.7553 209.905 74.025 211.2 76.2625C212.495 78.4999 213.048 89.6001 212.127 96.8142C211.205 104.028 212.859 116.27 212.859 116.27C212.859 116.27 214.769 125.727 216.248 129.316C217.728 132.905 244.736 161.352 244.736 161.352Z" fill="white"/>
<path opacity="0.4" d="M206.474 185.692C199.931 173.189 193.818 161.464 192.993 159.739C191.145 155.853 184.832 147.712 184.832 147.712C184.832 147.712 178.355 144.005 175.391 137.549C172.426 131.093 169.165 107.996 169.165 107.996C169.165 107.996 160.65 104.791 158.618 103.388C156.585 101.985 154.731 89.0215 154.731 87.5418C154.731 86.0621 156.779 83.0977 156.779 83.0977C156.779 83.0977 156.324 80.9268 158.925 78.7354C158.925 79.3191 158.925 80.3021 158.925 81.8484C158.863 84.7821 162.319 102.472 163.174 101.934C164.029 101.397 165.35 100.101 165.002 98.9594C165.002 98.9594 163.328 92.0935 161.746 77.0202H161.797C161.797 77.0202 161.459 72.1204 164.009 70.6919C163.57 71.7529 163.289 72.8724 163.174 74.0148C163.118 76.4007 165.954 96.8449 167.066 97.362C168.177 97.8791 170.993 95.1553 170.993 95.1553C170.993 95.1553 170.03 89.3543 170.373 86.8813C170.373 86.8813 178.939 92.1037 179.195 98.0327C179.22 98.6829 180.864 107.976 180.864 107.976C180.864 107.976 173.496 122.005 181.018 134.805C181.018 134.805 177.193 132.511 176.282 128.865C176.282 128.865 175.17 139.587 183.071 145.249C183.071 145.249 188.738 139.684 194.335 138.977C194.335 138.977 194.437 139.346 190.689 142.3C186.941 145.254 186.434 146.57 186.434 146.57C186.434 146.57 190.49 142.474 193.73 142.3C193.73 142.3 190.387 146.166 190.49 146.975C190.592 147.784 200.049 163.953 203.489 175.232C204.892 179.942 205.85 183.342 206.474 185.692Z" fill="#7093EC"/>
<path opacity="0.4" d="M179.922 78.3871C179.922 78.3871 182.651 80.4351 183.46 78.3871C183.924 77.2912 184.219 76.1311 184.335 74.9465C184.335 74.9465 185.385 74.4652 186.383 76.9945C187.382 79.5238 197.391 80.1689 199.736 81.4642C202.081 82.7596 203.013 81.4642 203.013 81.4642C203.559 81.9131 203.934 82.5367 204.074 83.2297C204.214 83.9227 204.11 84.6428 203.781 85.2684C202.644 87.6185 205.865 87.8284 207.114 86.0978C208.363 84.3673 207.396 91.0489 204.308 91.7298C204.308 91.7298 204.395 94.6482 202.409 96.6502H204.093C204.093 96.6502 199.608 100.209 198.415 100.403C197.222 100.598 202.854 102.589 201.81 103.009C200.765 103.429 197.806 103.393 197.806 103.393C197.806 103.393 199.721 104.719 199.736 105.595C199.752 106.47 198.83 107.131 198.415 106.399C198.001 105.666 194.693 95.1807 193.044 91.3049C191.396 87.429 184.586 84.3622 179.922 78.3871Z" fill="#7093EC"/>
<path opacity="0.4" d="M203.663 72.5709C197.918 70.9991 190.213 68.7616 190.213 68.7616L190.32 68.7053C191.949 69.1047 193.06 69.3914 193.06 69.3914C193.06 69.3914 199.91 69.7037 201.206 70.4768C202.109 71.0692 202.935 71.7728 203.663 72.5709V72.5709Z" fill="#7093EC"/>
<path d="M195.584 81.6076C190.587 80.5836 187.019 84.8536 187.019 84.8536C187.019 84.8536 191.985 89.349 193.086 91.2792C194.187 93.2095 196.014 99.717 196.014 99.717C198.108 100.055 201.969 97.8943 202.896 92.1599C203.822 86.4255 200.556 82.6264 195.584 81.6076Z" fill="#7093EC"/>
<path d="M223.534 218.225C223.534 218.225 194.862 163.625 192.993 159.739C191.124 155.853 184.832 147.712 184.832 147.712C184.832 147.712 178.355 144.005 175.391 137.549C172.426 131.092 169.165 107.996 169.165 107.996C169.165 107.996 160.65 104.791 158.618 103.388C156.585 101.985 154.731 89.0214 154.731 87.5417C154.731 86.0621 156.779 83.0976 156.779 83.0976C156.779 83.0976 156.042 79.5904 161.777 76.9945C161.777 76.9945 161.408 71.6237 164.367 70.487C166.641 69.6115 174.095 68.48 174.095 68.48C175.149 67.554 176.376 66.8457 177.705 66.3961C179.553 65.8841 193.065 69.4016 193.065 69.4016C193.065 69.4016 199.915 69.7139 201.211 70.487C202.158 71.1119 203.02 71.8571 203.776 72.704C203.776 72.704 209.884 73.9737 211.179 76.2112C212.475 78.4486 213.028 89.5488 212.106 96.7629C211.185 103.977 212.838 116.219 212.838 116.219C212.838 116.219 214.748 125.676 216.228 129.265C217.707 132.854 244.736 161.352 244.736 161.352" stroke="#263238" stroke-linecap="round" stroke-linejoin="round"/>
<path d="M199.261 107.243C199.261 107.243 197.965 106.967 196.301 100.859C194.637 94.7506 194.197 91.8936 190.746 88.2738C188.299 85.7138 182.698 81.5308 179.923 78.3871C177.147 75.2434 174.081 72.7039 171.684 74.6495C169.77 76.1855 168.52 80.174 170.205 86.3282C172.371 94.2335 179.201 97.9967 179.201 97.9967L180.87 107.94C180.87 107.94 173.625 122.45 181.791 136.146" stroke="#263238" stroke-linecap="round" stroke-linejoin="round"/>
<path d="M186.993 84.8538C186.993 84.8538 190.577 80.5888 195.559 81.6077C200.541 82.6266 203.777 86.4205 202.87 92.16C201.964 97.8996 198.083 100.055 195.989 99.7172" stroke="#263238" stroke-linecap="round" stroke-linejoin="round"/>
<path d="M174.08 68.4697C173.332 70.3507 172.756 72.2958 172.359 74.2809" stroke="#263238" stroke-linecap="round" stroke-linejoin="round"/>
<path d="M171.049 88.5198C171.049 88.5198 171.479 94.843 172.37 96.7835C173.261 98.7239 174.74 100.301 175.385 102.799C176.031 105.298 176.128 109.184 176.312 109.742C176.497 110.3 177.567 110.444 177.567 110.444C179.103 110.479 179.722 109.681 180.608 108.462" stroke="#263238" stroke-linecap="round" stroke-linejoin="round"/>
<path d="M161.792 76.9844C161.792 76.9844 163.18 90.4909 164.291 96.2305C165.402 101.97 167.363 102.799 170.583 104.653C173.804 106.506 175.58 110.285 175.862 110.853C176.143 111.421 177.198 111.483 177.198 111.483C177.818 111.431 178.415 111.226 178.935 110.885C179.456 110.545 179.883 110.08 180.178 109.532" stroke="#263238" stroke-linecap="round" stroke-linejoin="round"/>
<path d="M156.785 83.0874C156.437 83.625 159.406 97.3415 160.953 101.32C162.499 105.298 162.673 105.928 166.764 107.054C170.855 108.181 173.963 110.054 175.068 109.394" stroke="#263238" stroke-linecap="round" stroke-linejoin="round"/>
<path d="M185.195 75.4995C185.195 75.4995 187.32 80.5888 185.917 83.9373" stroke="#263238" stroke-linecap="round" stroke-linejoin="round"/>
<path d="M193.06 69.3914C196.542 70.768 200.124 71.8754 203.776 72.704" stroke="#263238" stroke-linecap="round" stroke-linejoin="round"/>
<path d="M207.13 86.9785C207.13 86.9785 205.502 89.9532 203.034 90.5932" stroke="#263238" stroke-linecap="round" stroke-linejoin="round"/>
<path d="M203.028 83.7375C203.028 83.7375 202.445 85.2735 201.825 85.6985" stroke="#263238" stroke-linecap="round" stroke-linejoin="round"/>
<path d="M205.076 95.9539C205.076 95.9539 201.375 98.7545 197.821 99.4815" stroke="#263238" stroke-linecap="round" stroke-linejoin="round"/>
<path d="M196.301 100.864C196.301 100.864 197.837 102.804 201.825 102.989" stroke="#263238" stroke-linecap="round" stroke-linejoin="round"/>
<path d="M184.32 92.37C184.32 92.37 187.945 88.8884 190.014 89.3696" stroke="#263238" stroke-linecap="round" stroke-linejoin="round"/>
<path d="M191.416 93.0764C191.416 93.0764 188.672 95.1244 188.17 95.1244" stroke="#263238" stroke-linecap="round" stroke-linejoin="round"/>
<path d="M163.159 103.936C163.159 103.936 164.071 104.105 164.782 103.004" stroke="#263238" stroke-linecap="round" stroke-linejoin="round"/>
<path d="M166.4 98.9492C166.4 98.9492 168.602 97.5873 170.041 97.3262" stroke="#263238" stroke-linecap="round" stroke-linejoin="round"/>
<path d="M185.795 145.132C186.251 144.727 190.505 141.286 193.137 140.068" stroke="#263238" stroke-linecap="round" stroke-linejoin="round"/>
<path d="M191.314 143.503C191.012 143.411 188.595 145.941 187.32 146.954" stroke="#263238" stroke-linecap="round" stroke-linejoin="round"/>
<path d="M192.512 151.004C192.512 151.004 200.617 166.364 202.439 172.508" stroke="#263238" stroke-linecap="round" stroke-linejoin="round"/>
<path d="M216.248 129.285C216.934 133.059 219.161 135.839 220.38 137.344" stroke="#263238" stroke-linecap="round" stroke-linejoin="round"/>
<path opacity="0.4" d="M190.699 83.0872C189.522 83.8143 190.761 86.19 191.416 87.4034C192.071 88.6168 195 90.5471 195.609 92.3698C196.219 94.1925 200.069 94.1413 201.241 92.3698C202.414 90.5983 202.265 87.0604 199.071 84.3672C195.876 81.6741 192.374 82.0632 190.699 83.0872Z" fill="white"/>
<path d="M168.218 185.124C163.003 184.238 157.642 185.144 153.009 187.696C148.376 190.247 144.744 194.293 142.706 199.174C140.668 204.054 140.343 209.481 141.785 214.57C143.227 219.659 146.35 224.109 150.646 227.195" stroke="#263238" stroke-linecap="round" stroke-linejoin="round"/>
<path d="M177.971 189.204C175.8 187.637 173.375 186.456 170.803 185.713" stroke="#263238" stroke-linecap="round" stroke-linejoin="round"/>
<path d="M175.616 228.649C178.772 226.902 181.481 224.448 183.53 221.481C185.58 218.513 186.916 215.111 187.432 211.541C187.949 207.971 187.633 204.33 186.508 200.903C185.384 197.476 183.482 194.355 180.951 191.785" stroke="#263238" stroke-linecap="round" stroke-linejoin="round"/>
<path d="M176.747 236.032L178.14 237.261L175.969 229.822" stroke="#263238" stroke-linecap="round" stroke-linejoin="round"/>
<path d="M160.363 231.25C163.806 231.84 167.337 231.65 170.695 230.692L175.104 234.583" stroke="#263238" stroke-linecap="round" stroke-linejoin="round"/>
<path d="M154.998 229.663C155.872 230.039 156.768 230.362 157.681 230.63" stroke="#263238" stroke-linecap="round" stroke-linejoin="round"/>
<path d="M166.139 196.808C169.039 197.303 171.649 198.867 173.454 201.19C175.259 203.513 176.129 206.428 175.893 209.36C175.657 212.293 174.331 215.031 172.178 217.035C170.024 219.04 167.198 220.166 164.256 220.191C161.314 220.216 158.469 219.139 156.282 217.172C154.094 215.205 152.721 212.49 152.435 209.562C152.148 206.634 152.968 203.705 154.733 201.351C156.498 198.997 159.08 197.389 161.971 196.843" stroke="#263238" stroke-linecap="round" stroke-linejoin="round"/>
<path d="M161.971 221.276C158.561 220.695 155.521 218.784 153.52 215.962C151.519 213.14 150.721 209.639 151.301 206.229" stroke="#263238" stroke-linecap="round" stroke-linejoin="round"/>
<path d="M176.43 212.849C175.627 215.069 174.237 217.03 172.408 218.524C170.579 220.017 168.378 220.986 166.042 221.327" stroke="#263238" stroke-linecap="round" stroke-linejoin="round"/>
<path d="M152.305 202.972C153.627 200.098 155.948 197.802 158.837 196.511C161.725 195.221 164.984 195.025 168.007 195.958C171.03 196.892 173.611 198.892 175.268 201.587C176.926 204.282 177.548 207.487 177.019 210.606" stroke="#263238" stroke-linecap="round" stroke-linejoin="round"/>
<path d="M171.991 203.715L172.14 203.556" stroke="#263238" stroke-width="2" stroke-linecap="round" stroke-linejoin="round"/>
<path d="M169.902 205.967L170.942 204.846" stroke="#263238" stroke-width="2" stroke-linecap="round" stroke-linejoin="round"/>
<path d="M157.148 207.621L162.171 214.298L168.991 206.95" stroke="#263238" stroke-width="2" stroke-linecap="round" stroke-linejoin="round"/>
</svg>
