<svg width="2225" height="3601" viewBox="0 0 2225 3601" fill="none" xmlns="http://www.w3.org/2000/svg">
<rect width="1440" height="3601" fill="white"/>
<ellipse cx="1973.92" cy="1256.89" rx="250" ry="253.714" transform="rotate(155.5 1973.92 1256.89)" fill="#7093EC"/>
<ellipse cx="779.926" cy="429.799" rx="99.5" ry="100.978" transform="rotate(155.5 779.926 429.799)" fill="#7093EC"/>
<ellipse cx="1301" cy="523.012" rx="62" ry="62.9211" transform="rotate(155.5 1301 523.012)" fill="#7093EC"/>
<ellipse cx="1013.85" cy="90.6593" rx="62" ry="62.9211" transform="rotate(155.5 1013.85 90.6593)" fill="#7093EC"/>
<ellipse cx="1390.74" cy="1244.41" rx="73.5" ry="74.592" transform="rotate(155.5 1390.74 1244.41)" fill="#7093EC"/>
<ellipse cx="1674.25" cy="748.833" rx="32" ry="32.4754" transform="rotate(155.5 1674.25 748.833)" fill="#7093EC"/>
<ellipse cx="619.756" cy="1060.99" rx="32" ry="32.4754" transform="rotate(155.5 619.756 1060.99)" fill="#7093EC"/>
<ellipse cx="326.283" cy="600.29" rx="32" ry="32.4754" transform="rotate(155.5 326.283 600.29)" fill="#7093EC"/>
<ellipse cx="388.136" cy="543.105" rx="19" ry="19.2823" transform="rotate(155.5 388.136 543.105)" fill="#7093EC"/>
<ellipse cx="326.879" cy="513.583" rx="14.5" ry="14.7154" transform="rotate(155.5 326.879 513.583)" fill="#7093EC"/>
<ellipse cx="1464.93" cy="711.51" rx="32" ry="32.4754" transform="rotate(155.5 1464.93 711.51)" fill="#7093EC"/>
<ellipse cx="837.253" cy="849.784" rx="82.5" ry="83.7257" transform="rotate(155.5 837.253 849.784)" fill="#7093EC"/>
<path d="M499.535 1947H488.591L470.287 1919.29V1947H459.343V1902.07H470.287L488.591 1929.91V1902.07H499.535V1947ZM542.732 1911.29V1947H531.788V1942.14C530.679 1943.71 529.164 1944.99 527.244 1945.98C525.367 1946.91 523.276 1947.38 520.972 1947.38C518.241 1947.38 515.831 1946.79 513.74 1945.59C511.649 1944.35 510.028 1942.58 508.876 1940.28C507.724 1937.98 507.148 1935.27 507.148 1932.15V1911.29H518.028V1930.68C518.028 1933.07 518.647 1934.93 519.884 1936.25C521.121 1937.57 522.785 1938.23 524.876 1938.23C527.009 1938.23 528.695 1937.57 529.932 1936.25C531.169 1934.93 531.788 1933.07 531.788 1930.68V1911.29H542.732ZM584.257 1928.57C584.257 1929.59 584.193 1930.66 584.065 1931.77H559.297C559.468 1933.99 560.172 1935.69 561.409 1936.89C562.689 1938.04 564.246 1938.62 566.081 1938.62C568.812 1938.62 570.71 1937.46 571.777 1935.16H583.425C582.828 1937.51 581.74 1939.62 580.161 1941.5C578.625 1943.37 576.684 1944.85 574.337 1945.91C571.99 1946.98 569.366 1947.51 566.465 1947.51C562.966 1947.51 559.852 1946.77 557.121 1945.27C554.39 1943.78 552.257 1941.65 550.721 1938.87C549.185 1936.1 548.417 1932.86 548.417 1929.14C548.417 1925.43 549.164 1922.19 550.657 1919.42C552.193 1916.64 554.326 1914.51 557.057 1913.02C559.788 1911.52 562.924 1910.78 566.465 1910.78C569.921 1910.78 572.993 1911.5 575.681 1912.95C578.369 1914.4 580.46 1916.47 581.953 1919.16C583.489 1921.85 584.257 1924.98 584.257 1928.57ZM573.057 1925.69C573.057 1923.81 572.417 1922.32 571.137 1921.21C569.857 1920.1 568.257 1919.54 566.337 1919.54C564.502 1919.54 562.945 1920.08 561.665 1921.14C560.428 1922.21 559.66 1923.73 559.361 1925.69H573.057ZM604.559 1947.51C601.444 1947.51 598.671 1946.98 596.239 1945.91C593.807 1944.85 591.887 1943.39 590.479 1941.56C589.071 1939.68 588.281 1937.59 588.111 1935.29H598.927C599.055 1936.53 599.631 1937.53 600.655 1938.3C601.679 1939.06 602.937 1939.45 604.431 1939.45C605.796 1939.45 606.841 1939.19 607.567 1938.68C608.335 1938.13 608.719 1937.42 608.719 1936.57C608.719 1935.54 608.185 1934.8 607.119 1934.33C606.052 1933.82 604.324 1933.26 601.935 1932.66C599.375 1932.07 597.241 1931.45 595.535 1930.81C593.828 1930.13 592.356 1929.08 591.119 1927.67C589.881 1926.22 589.263 1924.28 589.263 1921.85C589.263 1919.8 589.817 1917.94 590.927 1916.28C592.079 1914.57 593.743 1913.23 595.919 1912.25C598.137 1911.27 600.761 1910.78 603.791 1910.78C608.271 1910.78 611.791 1911.89 614.351 1914.1C616.953 1916.32 618.447 1919.27 618.831 1922.94H608.719C608.548 1921.7 607.993 1920.72 607.055 1919.99C606.159 1919.27 604.964 1918.9 603.471 1918.9C602.191 1918.9 601.209 1919.16 600.527 1919.67C599.844 1920.14 599.503 1920.8 599.503 1921.66C599.503 1922.68 600.036 1923.45 601.103 1923.96C602.212 1924.47 603.919 1924.98 606.223 1925.5C608.868 1926.18 611.023 1926.86 612.687 1927.54C614.351 1928.18 615.801 1929.25 617.039 1930.74C618.319 1932.19 618.98 1934.16 619.023 1936.63C619.023 1938.72 618.425 1940.6 617.231 1942.26C616.079 1943.89 614.393 1945.17 612.175 1946.1C609.999 1947.04 607.46 1947.51 604.559 1947.51ZM645.622 1937.72V1947H640.054C636.086 1947 632.993 1946.04 630.774 1944.12C628.555 1942.16 627.446 1938.98 627.446 1934.58V1920.38H623.094V1911.29H627.446V1902.58H638.39V1911.29H645.558V1920.38H638.39V1934.71C638.39 1935.78 638.646 1936.55 639.158 1937.02C639.67 1937.49 640.523 1937.72 641.718 1937.72H645.622ZM662.662 1917.24C663.942 1915.28 665.542 1913.74 667.462 1912.63C669.382 1911.48 671.515 1910.9 673.862 1910.9V1922.49H670.854C668.123 1922.49 666.075 1923.09 664.71 1924.28C663.345 1925.43 662.662 1927.48 662.662 1930.42V1947H651.718V1911.29H662.662V1917.24ZM695.349 1947.51C691.85 1947.51 688.693 1946.77 685.877 1945.27C683.104 1943.78 680.906 1941.65 679.285 1938.87C677.706 1936.1 676.917 1932.86 676.917 1929.14C676.917 1925.47 677.728 1922.25 679.349 1919.48C680.97 1916.66 683.189 1914.51 686.005 1913.02C688.821 1911.52 691.978 1910.78 695.477 1910.78C698.976 1910.78 702.133 1911.52 704.949 1913.02C707.765 1914.51 709.984 1916.66 711.605 1919.48C713.226 1922.25 714.037 1925.47 714.037 1929.14C714.037 1932.81 713.205 1936.06 711.541 1938.87C709.92 1941.65 707.68 1943.78 704.821 1945.27C702.005 1946.77 698.848 1947.51 695.349 1947.51ZM695.349 1938.04C697.44 1938.04 699.21 1937.27 700.661 1935.74C702.154 1934.2 702.901 1932 702.901 1929.14C702.901 1926.29 702.176 1924.09 700.725 1922.55C699.317 1921.02 697.568 1920.25 695.477 1920.25C693.344 1920.25 691.573 1921.02 690.165 1922.55C688.757 1924.05 688.053 1926.24 688.053 1929.14C688.053 1932 688.736 1934.2 690.101 1935.74C691.509 1937.27 693.258 1938.04 695.349 1938.04ZM734.371 1947.51C731.256 1947.51 728.483 1946.98 726.051 1945.91C723.619 1944.85 721.699 1943.39 720.291 1941.56C718.883 1939.68 718.094 1937.59 717.923 1935.29H728.739C728.867 1936.53 729.443 1937.53 730.467 1938.3C731.491 1939.06 732.75 1939.45 734.243 1939.45C735.608 1939.45 736.654 1939.19 737.379 1938.68C738.147 1938.13 738.531 1937.42 738.531 1936.57C738.531 1935.54 737.998 1934.8 736.931 1934.33C735.864 1933.82 734.136 1933.26 731.747 1932.66C729.187 1932.07 727.054 1931.45 725.347 1930.81C723.64 1930.13 722.168 1929.08 720.931 1927.67C719.694 1926.22 719.075 1924.28 719.075 1921.85C719.075 1919.8 719.63 1917.94 720.739 1916.28C721.891 1914.57 723.555 1913.23 725.731 1912.25C727.95 1911.27 730.574 1910.78 733.603 1910.78C738.083 1910.78 741.603 1911.89 744.163 1914.1C746.766 1916.32 748.259 1919.27 748.643 1922.94H738.531C738.36 1921.7 737.806 1920.72 736.867 1919.99C735.971 1919.27 734.776 1918.9 733.283 1918.9C732.003 1918.9 731.022 1919.16 730.339 1919.67C729.656 1920.14 729.315 1920.8 729.315 1921.66C729.315 1922.68 729.848 1923.45 730.915 1923.96C732.024 1924.47 733.731 1924.98 736.035 1925.5C738.68 1926.18 740.835 1926.86 742.499 1927.54C744.163 1928.18 745.614 1929.25 746.851 1930.74C748.131 1932.19 748.792 1934.16 748.835 1936.63C748.835 1938.72 748.238 1940.6 747.043 1942.26C745.891 1943.89 744.206 1945.17 741.987 1946.1C739.811 1947.04 737.272 1947.51 734.371 1947.51ZM803.333 1916.54C803.333 1919.14 802.736 1921.53 801.541 1923.7C800.346 1925.84 798.512 1927.57 796.037 1928.89C793.562 1930.21 790.49 1930.87 786.821 1930.87H780.037V1947H769.093V1902.07H786.821C790.405 1902.07 793.434 1902.69 795.909 1903.93C798.384 1905.17 800.24 1906.87 801.477 1909.05C802.714 1911.22 803.333 1913.72 803.333 1916.54ZM785.989 1922.17C788.08 1922.17 789.637 1921.68 790.661 1920.7C791.685 1919.71 792.197 1918.33 792.197 1916.54C792.197 1914.74 791.685 1913.36 790.661 1912.38C789.637 1911.39 788.08 1910.9 785.989 1910.9H780.037V1922.17H785.989ZM819.975 1899.64V1947H809.031V1899.64H819.975ZM825.73 1929.08C825.73 1925.41 826.412 1922.19 827.778 1919.42C829.186 1916.64 831.084 1914.51 833.474 1913.02C835.863 1911.52 838.53 1910.78 841.474 1910.78C843.991 1910.78 846.188 1911.29 848.066 1912.31C849.986 1913.34 851.458 1914.68 852.482 1916.34V1911.29H863.426V1947H852.482V1941.94C851.415 1943.61 849.922 1944.95 848.002 1945.98C846.124 1947 843.927 1947.51 841.41 1947.51C838.508 1947.51 835.863 1946.77 833.474 1945.27C831.084 1943.74 829.186 1941.58 827.778 1938.81C826.412 1935.99 825.73 1932.75 825.73 1929.08ZM852.482 1929.14C852.482 1926.41 851.714 1924.26 850.178 1922.68C848.684 1921.1 846.85 1920.31 844.674 1920.31C842.498 1920.31 840.642 1921.1 839.106 1922.68C837.612 1924.22 836.866 1926.35 836.866 1929.08C836.866 1931.81 837.612 1933.99 839.106 1935.61C840.642 1937.19 842.498 1937.98 844.674 1937.98C846.85 1937.98 848.684 1937.19 850.178 1935.61C851.714 1934.03 852.482 1931.87 852.482 1929.14ZM893.103 1910.9C897.284 1910.9 900.612 1912.27 903.087 1915C905.604 1917.69 906.863 1921.4 906.863 1926.14V1947H895.983V1927.61C895.983 1925.22 895.364 1923.36 894.127 1922.04C892.89 1920.72 891.226 1920.06 889.135 1920.06C887.044 1920.06 885.38 1920.72 884.143 1922.04C882.906 1923.36 882.287 1925.22 882.287 1927.61V1947H871.343V1911.29H882.287V1916.02C883.396 1914.45 884.89 1913.21 886.767 1912.31C888.644 1911.37 890.756 1910.9 893.103 1910.9ZM948.132 1928.57C948.132 1929.59 948.068 1930.66 947.94 1931.77H923.172C923.343 1933.99 924.047 1935.69 925.284 1936.89C926.564 1938.04 928.121 1938.62 929.956 1938.62C932.687 1938.62 934.585 1937.46 935.652 1935.16H947.3C946.703 1937.51 945.615 1939.62 944.036 1941.5C942.5 1943.37 940.559 1944.85 938.212 1945.91C935.865 1946.98 933.241 1947.51 930.34 1947.51C926.841 1947.51 923.727 1946.77 920.996 1945.27C918.265 1943.78 916.132 1941.65 914.596 1938.87C913.06 1936.1 912.292 1932.86 912.292 1929.14C912.292 1925.43 913.039 1922.19 914.532 1919.42C916.068 1916.64 918.201 1914.51 920.932 1913.02C923.663 1911.52 926.799 1910.78 930.34 1910.78C933.796 1910.78 936.868 1911.5 939.556 1912.95C942.244 1914.4 944.335 1916.47 945.828 1919.16C947.364 1921.85 948.132 1924.98 948.132 1928.57ZM936.932 1925.69C936.932 1923.81 936.292 1922.32 935.012 1921.21C933.732 1920.1 932.132 1919.54 930.212 1919.54C928.377 1919.54 926.82 1920.08 925.54 1921.14C924.303 1922.21 923.535 1923.73 923.236 1925.69H936.932ZM968.434 1947.51C965.319 1947.51 962.546 1946.98 960.114 1945.91C957.682 1944.85 955.762 1943.39 954.354 1941.56C952.946 1939.68 952.156 1937.59 951.986 1935.29H962.802C962.93 1936.53 963.506 1937.53 964.53 1938.3C965.554 1939.06 966.812 1939.45 968.306 1939.45C969.671 1939.45 970.716 1939.19 971.442 1938.68C972.21 1938.13 972.594 1937.42 972.594 1936.57C972.594 1935.54 972.06 1934.8 970.994 1934.33C969.927 1933.82 968.199 1933.26 965.81 1932.66C963.25 1932.07 961.116 1931.45 959.41 1930.81C957.703 1930.13 956.231 1929.08 954.994 1927.67C953.756 1926.22 953.138 1924.28 953.138 1921.85C953.138 1919.8 953.692 1917.94 954.802 1916.28C955.954 1914.57 957.618 1913.23 959.794 1912.25C962.012 1911.27 964.636 1910.78 967.666 1910.78C972.146 1910.78 975.666 1911.89 978.226 1914.1C980.828 1916.32 982.322 1919.27 982.706 1922.94H972.594C972.423 1921.7 971.868 1920.72 970.93 1919.99C970.034 1919.27 968.839 1918.9 967.346 1918.9C966.066 1918.9 965.084 1919.16 964.402 1919.67C963.719 1920.14 963.378 1920.8 963.378 1921.66C963.378 1922.68 963.911 1923.45 964.978 1923.96C966.087 1924.47 967.794 1924.98 970.098 1925.5C972.743 1926.18 974.898 1926.86 976.562 1927.54C978.226 1928.18 979.676 1929.25 980.914 1930.74C982.194 1932.19 982.855 1934.16 982.898 1936.63C982.898 1938.72 982.3 1940.6 981.106 1942.26C979.954 1943.89 978.268 1945.17 976.05 1946.1C973.874 1947.04 971.335 1947.51 968.434 1947.51Z" fill="white"/>
<path d="M499.535 1947H488.591L470.287 1919.29V1947H459.343V1902.07H470.287L488.591 1929.91V1902.07H499.535V1947ZM542.732 1911.29V1947H531.788V1942.14C530.679 1943.71 529.164 1944.99 527.244 1945.98C525.367 1946.91 523.276 1947.38 520.972 1947.38C518.241 1947.38 515.831 1946.79 513.74 1945.59C511.649 1944.35 510.028 1942.58 508.876 1940.28C507.724 1937.98 507.148 1935.27 507.148 1932.15V1911.29H518.028V1930.68C518.028 1933.07 518.647 1934.93 519.884 1936.25C521.121 1937.57 522.785 1938.23 524.876 1938.23C527.009 1938.23 528.695 1937.57 529.932 1936.25C531.169 1934.93 531.788 1933.07 531.788 1930.68V1911.29H542.732ZM584.257 1928.57C584.257 1929.59 584.193 1930.66 584.065 1931.77H559.297C559.468 1933.99 560.172 1935.69 561.409 1936.89C562.689 1938.04 564.246 1938.62 566.081 1938.62C568.812 1938.62 570.71 1937.46 571.777 1935.16H583.425C582.828 1937.51 581.74 1939.62 580.161 1941.5C578.625 1943.37 576.684 1944.85 574.337 1945.91C571.99 1946.98 569.366 1947.51 566.465 1947.51C562.966 1947.51 559.852 1946.77 557.121 1945.27C554.39 1943.78 552.257 1941.65 550.721 1938.87C549.185 1936.1 548.417 1932.86 548.417 1929.14C548.417 1925.43 549.164 1922.19 550.657 1919.42C552.193 1916.64 554.326 1914.51 557.057 1913.02C559.788 1911.52 562.924 1910.78 566.465 1910.78C569.921 1910.78 572.993 1911.5 575.681 1912.95C578.369 1914.4 580.46 1916.47 581.953 1919.16C583.489 1921.85 584.257 1924.98 584.257 1928.57ZM573.057 1925.69C573.057 1923.81 572.417 1922.32 571.137 1921.21C569.857 1920.1 568.257 1919.54 566.337 1919.54C564.502 1919.54 562.945 1920.08 561.665 1921.14C560.428 1922.21 559.66 1923.73 559.361 1925.69H573.057ZM604.559 1947.51C601.444 1947.51 598.671 1946.98 596.239 1945.91C593.807 1944.85 591.887 1943.39 590.479 1941.56C589.071 1939.68 588.281 1937.59 588.111 1935.29H598.927C599.055 1936.53 599.631 1937.53 600.655 1938.3C601.679 1939.06 602.937 1939.45 604.431 1939.45C605.796 1939.45 606.841 1939.19 607.567 1938.68C608.335 1938.13 608.719 1937.42 608.719 1936.57C608.719 1935.54 608.185 1934.8 607.119 1934.33C606.052 1933.82 604.324 1933.26 601.935 1932.66C599.375 1932.07 597.241 1931.45 595.535 1930.81C593.828 1930.13 592.356 1929.08 591.119 1927.67C589.881 1926.22 589.263 1924.28 589.263 1921.85C589.263 1919.8 589.817 1917.94 590.927 1916.28C592.079 1914.57 593.743 1913.23 595.919 1912.25C598.137 1911.27 600.761 1910.78 603.791 1910.78C608.271 1910.78 611.791 1911.89 614.351 1914.1C616.953 1916.32 618.447 1919.27 618.831 1922.94H608.719C608.548 1921.7 607.993 1920.72 607.055 1919.99C606.159 1919.27 604.964 1918.9 603.471 1918.9C602.191 1918.9 601.209 1919.16 600.527 1919.67C599.844 1920.14 599.503 1920.8 599.503 1921.66C599.503 1922.68 600.036 1923.45 601.103 1923.96C602.212 1924.47 603.919 1924.98 606.223 1925.5C608.868 1926.18 611.023 1926.86 612.687 1927.54C614.351 1928.18 615.801 1929.25 617.039 1930.74C618.319 1932.19 618.98 1934.16 619.023 1936.63C619.023 1938.72 618.425 1940.6 617.231 1942.26C616.079 1943.89 614.393 1945.17 612.175 1946.1C609.999 1947.04 607.46 1947.51 604.559 1947.51ZM645.622 1937.72V1947H640.054C636.086 1947 632.993 1946.04 630.774 1944.12C628.555 1942.16 627.446 1938.98 627.446 1934.58V1920.38H623.094V1911.29H627.446V1902.58H638.39V1911.29H645.558V1920.38H638.39V1934.71C638.39 1935.78 638.646 1936.55 639.158 1937.02C639.67 1937.49 640.523 1937.72 641.718 1937.72H645.622ZM662.662 1917.24C663.942 1915.28 665.542 1913.74 667.462 1912.63C669.382 1911.48 671.515 1910.9 673.862 1910.9V1922.49H670.854C668.123 1922.49 666.075 1923.09 664.71 1924.28C663.345 1925.43 662.662 1927.48 662.662 1930.42V1947H651.718V1911.29H662.662V1917.24ZM695.349 1947.51C691.85 1947.51 688.693 1946.77 685.877 1945.27C683.104 1943.78 680.906 1941.65 679.285 1938.87C677.706 1936.1 676.917 1932.86 676.917 1929.14C676.917 1925.47 677.728 1922.25 679.349 1919.48C680.97 1916.66 683.189 1914.51 686.005 1913.02C688.821 1911.52 691.978 1910.78 695.477 1910.78C698.976 1910.78 702.133 1911.52 704.949 1913.02C707.765 1914.51 709.984 1916.66 711.605 1919.48C713.226 1922.25 714.037 1925.47 714.037 1929.14C714.037 1932.81 713.205 1936.06 711.541 1938.87C709.92 1941.65 707.68 1943.78 704.821 1945.27C702.005 1946.77 698.848 1947.51 695.349 1947.51ZM695.349 1938.04C697.44 1938.04 699.21 1937.27 700.661 1935.74C702.154 1934.2 702.901 1932 702.901 1929.14C702.901 1926.29 702.176 1924.09 700.725 1922.55C699.317 1921.02 697.568 1920.25 695.477 1920.25C693.344 1920.25 691.573 1921.02 690.165 1922.55C688.757 1924.05 688.053 1926.24 688.053 1929.14C688.053 1932 688.736 1934.2 690.101 1935.74C691.509 1937.27 693.258 1938.04 695.349 1938.04ZM734.371 1947.51C731.256 1947.51 728.483 1946.98 726.051 1945.91C723.619 1944.85 721.699 1943.39 720.291 1941.56C718.883 1939.68 718.094 1937.59 717.923 1935.29H728.739C728.867 1936.53 729.443 1937.53 730.467 1938.3C731.491 1939.06 732.75 1939.45 734.243 1939.45C735.608 1939.45 736.654 1939.19 737.379 1938.68C738.147 1938.13 738.531 1937.42 738.531 1936.57C738.531 1935.54 737.998 1934.8 736.931 1934.33C735.864 1933.82 734.136 1933.26 731.747 1932.66C729.187 1932.07 727.054 1931.45 725.347 1930.81C723.64 1930.13 722.168 1929.08 720.931 1927.67C719.694 1926.22 719.075 1924.28 719.075 1921.85C719.075 1919.8 719.63 1917.94 720.739 1916.28C721.891 1914.57 723.555 1913.23 725.731 1912.25C727.95 1911.27 730.574 1910.78 733.603 1910.78C738.083 1910.78 741.603 1911.89 744.163 1914.1C746.766 1916.32 748.259 1919.27 748.643 1922.94H738.531C738.36 1921.7 737.806 1920.72 736.867 1919.99C735.971 1919.27 734.776 1918.9 733.283 1918.9C732.003 1918.9 731.022 1919.16 730.339 1919.67C729.656 1920.14 729.315 1920.8 729.315 1921.66C729.315 1922.68 729.848 1923.45 730.915 1923.96C732.024 1924.47 733.731 1924.98 736.035 1925.5C738.68 1926.18 740.835 1926.86 742.499 1927.54C744.163 1928.18 745.614 1929.25 746.851 1930.74C748.131 1932.19 748.792 1934.16 748.835 1936.63C748.835 1938.72 748.238 1940.6 747.043 1942.26C745.891 1943.89 744.206 1945.17 741.987 1946.1C739.811 1947.04 737.272 1947.51 734.371 1947.51ZM803.333 1916.54C803.333 1919.14 802.736 1921.53 801.541 1923.7C800.346 1925.84 798.512 1927.57 796.037 1928.89C793.562 1930.21 790.49 1930.87 786.821 1930.87H780.037V1947H769.093V1902.07H786.821C790.405 1902.07 793.434 1902.69 795.909 1903.93C798.384 1905.17 800.24 1906.87 801.477 1909.05C802.714 1911.22 803.333 1913.72 803.333 1916.54ZM785.989 1922.17C788.08 1922.17 789.637 1921.68 790.661 1920.7C791.685 1919.71 792.197 1918.33 792.197 1916.54C792.197 1914.74 791.685 1913.36 790.661 1912.38C789.637 1911.39 788.08 1910.9 785.989 1910.9H780.037V1922.17H785.989ZM819.975 1899.64V1947H809.031V1899.64H819.975ZM825.73 1929.08C825.73 1925.41 826.412 1922.19 827.778 1919.42C829.186 1916.64 831.084 1914.51 833.474 1913.02C835.863 1911.52 838.53 1910.78 841.474 1910.78C843.991 1910.78 846.188 1911.29 848.066 1912.31C849.986 1913.34 851.458 1914.68 852.482 1916.34V1911.29H863.426V1947H852.482V1941.94C851.415 1943.61 849.922 1944.95 848.002 1945.98C846.124 1947 843.927 1947.51 841.41 1947.51C838.508 1947.51 835.863 1946.77 833.474 1945.27C831.084 1943.74 829.186 1941.58 827.778 1938.81C826.412 1935.99 825.73 1932.75 825.73 1929.08ZM852.482 1929.14C852.482 1926.41 851.714 1924.26 850.178 1922.68C848.684 1921.1 846.85 1920.31 844.674 1920.31C842.498 1920.31 840.642 1921.1 839.106 1922.68C837.612 1924.22 836.866 1926.35 836.866 1929.08C836.866 1931.81 837.612 1933.99 839.106 1935.61C840.642 1937.19 842.498 1937.98 844.674 1937.98C846.85 1937.98 848.684 1937.19 850.178 1935.61C851.714 1934.03 852.482 1931.87 852.482 1929.14ZM893.103 1910.9C897.284 1910.9 900.612 1912.27 903.087 1915C905.604 1917.69 906.863 1921.4 906.863 1926.14V1947H895.983V1927.61C895.983 1925.22 895.364 1923.36 894.127 1922.04C892.89 1920.72 891.226 1920.06 889.135 1920.06C887.044 1920.06 885.38 1920.72 884.143 1922.04C882.906 1923.36 882.287 1925.22 882.287 1927.61V1947H871.343V1911.29H882.287V1916.02C883.396 1914.45 884.89 1913.21 886.767 1912.31C888.644 1911.37 890.756 1910.9 893.103 1910.9ZM948.132 1928.57C948.132 1929.59 948.068 1930.66 947.94 1931.77H923.172C923.343 1933.99 924.047 1935.69 925.284 1936.89C926.564 1938.04 928.121 1938.62 929.956 1938.62C932.687 1938.62 934.585 1937.46 935.652 1935.16H947.3C946.703 1937.51 945.615 1939.62 944.036 1941.5C942.5 1943.37 940.559 1944.85 938.212 1945.91C935.865 1946.98 933.241 1947.51 930.34 1947.51C926.841 1947.51 923.727 1946.77 920.996 1945.27C918.265 1943.78 916.132 1941.65 914.596 1938.87C913.06 1936.1 912.292 1932.86 912.292 1929.14C912.292 1925.43 913.039 1922.19 914.532 1919.42C916.068 1916.64 918.201 1914.51 920.932 1913.02C923.663 1911.52 926.799 1910.78 930.34 1910.78C933.796 1910.78 936.868 1911.5 939.556 1912.95C942.244 1914.4 944.335 1916.47 945.828 1919.16C947.364 1921.85 948.132 1924.98 948.132 1928.57ZM936.932 1925.69C936.932 1923.81 936.292 1922.32 935.012 1921.21C933.732 1920.1 932.132 1919.54 930.212 1919.54C928.377 1919.54 926.82 1920.08 925.54 1921.14C924.303 1922.21 923.535 1923.73 923.236 1925.69H936.932ZM968.434 1947.51C965.319 1947.51 962.546 1946.98 960.114 1945.91C957.682 1944.85 955.762 1943.39 954.354 1941.56C952.946 1939.68 952.156 1937.59 951.986 1935.29H962.802C962.93 1936.53 963.506 1937.53 964.53 1938.3C965.554 1939.06 966.812 1939.45 968.306 1939.45C969.671 1939.45 970.716 1939.19 971.442 1938.68C972.21 1938.13 972.594 1937.42 972.594 1936.57C972.594 1935.54 972.06 1934.8 970.994 1934.33C969.927 1933.82 968.199 1933.26 965.81 1932.66C963.25 1932.07 961.116 1931.45 959.41 1930.81C957.703 1930.13 956.231 1929.08 954.994 1927.67C953.756 1926.22 953.138 1924.28 953.138 1921.85C953.138 1919.8 953.692 1917.94 954.802 1916.28C955.954 1914.57 957.618 1913.23 959.794 1912.25C962.012 1911.27 964.636 1910.78 967.666 1910.78C972.146 1910.78 975.666 1911.89 978.226 1914.1C980.828 1916.32 982.322 1919.27 982.706 1922.94H972.594C972.423 1921.7 971.868 1920.72 970.93 1919.99C970.034 1919.27 968.839 1918.9 967.346 1918.9C966.066 1918.9 965.084 1919.16 964.402 1919.67C963.719 1920.14 963.378 1920.8 963.378 1921.66C963.378 1922.68 963.911 1923.45 964.978 1923.96C966.087 1924.47 967.794 1924.98 970.098 1925.5C972.743 1926.18 974.898 1926.86 976.562 1927.54C978.226 1928.18 979.676 1929.25 980.914 1930.74C982.194 1932.19 982.855 1934.16 982.898 1936.63C982.898 1938.72 982.3 1940.6 981.106 1942.26C979.954 1943.89 978.268 1945.17 976.05 1946.1C973.874 1947.04 971.335 1947.51 968.434 1947.51Z" fill="white"/>
<path d="M499.535 1947H488.591L470.287 1919.29V1947H459.343V1902.07H470.287L488.591 1929.91V1902.07H499.535V1947ZM542.732 1911.29V1947H531.788V1942.14C530.679 1943.71 529.164 1944.99 527.244 1945.98C525.367 1946.91 523.276 1947.38 520.972 1947.38C518.241 1947.38 515.831 1946.79 513.74 1945.59C511.649 1944.35 510.028 1942.58 508.876 1940.28C507.724 1937.98 507.148 1935.27 507.148 1932.15V1911.29H518.028V1930.68C518.028 1933.07 518.647 1934.93 519.884 1936.25C521.121 1937.57 522.785 1938.23 524.876 1938.23C527.009 1938.23 528.695 1937.57 529.932 1936.25C531.169 1934.93 531.788 1933.07 531.788 1930.68V1911.29H542.732ZM584.257 1928.57C584.257 1929.59 584.193 1930.66 584.065 1931.77H559.297C559.468 1933.99 560.172 1935.69 561.409 1936.89C562.689 1938.04 564.246 1938.62 566.081 1938.62C568.812 1938.62 570.71 1937.46 571.777 1935.16H583.425C582.828 1937.51 581.74 1939.62 580.161 1941.5C578.625 1943.37 576.684 1944.85 574.337 1945.91C571.99 1946.98 569.366 1947.51 566.465 1947.51C562.966 1947.51 559.852 1946.77 557.121 1945.27C554.39 1943.78 552.257 1941.65 550.721 1938.87C549.185 1936.1 548.417 1932.86 548.417 1929.14C548.417 1925.43 549.164 1922.19 550.657 1919.42C552.193 1916.64 554.326 1914.51 557.057 1913.02C559.788 1911.52 562.924 1910.78 566.465 1910.78C569.921 1910.78 572.993 1911.5 575.681 1912.95C578.369 1914.4 580.46 1916.47 581.953 1919.16C583.489 1921.85 584.257 1924.98 584.257 1928.57ZM573.057 1925.69C573.057 1923.81 572.417 1922.32 571.137 1921.21C569.857 1920.1 568.257 1919.54 566.337 1919.54C564.502 1919.54 562.945 1920.08 561.665 1921.14C560.428 1922.21 559.66 1923.73 559.361 1925.69H573.057ZM604.559 1947.51C601.444 1947.51 598.671 1946.98 596.239 1945.91C593.807 1944.85 591.887 1943.39 590.479 1941.56C589.071 1939.68 588.281 1937.59 588.111 1935.29H598.927C599.055 1936.53 599.631 1937.53 600.655 1938.3C601.679 1939.06 602.937 1939.45 604.431 1939.45C605.796 1939.45 606.841 1939.19 607.567 1938.68C608.335 1938.13 608.719 1937.42 608.719 1936.57C608.719 1935.54 608.185 1934.8 607.119 1934.33C606.052 1933.82 604.324 1933.26 601.935 1932.66C599.375 1932.07 597.241 1931.45 595.535 1930.81C593.828 1930.13 592.356 1929.08 591.119 1927.67C589.881 1926.22 589.263 1924.28 589.263 1921.85C589.263 1919.8 589.817 1917.94 590.927 1916.28C592.079 1914.57 593.743 1913.23 595.919 1912.25C598.137 1911.27 600.761 1910.78 603.791 1910.78C608.271 1910.78 611.791 1911.89 614.351 1914.1C616.953 1916.32 618.447 1919.27 618.831 1922.94H608.719C608.548 1921.7 607.993 1920.72 607.055 1919.99C606.159 1919.27 604.964 1918.9 603.471 1918.9C602.191 1918.9 601.209 1919.16 600.527 1919.67C599.844 1920.14 599.503 1920.8 599.503 1921.66C599.503 1922.68 600.036 1923.45 601.103 1923.96C602.212 1924.47 603.919 1924.98 606.223 1925.5C608.868 1926.18 611.023 1926.86 612.687 1927.54C614.351 1928.18 615.801 1929.25 617.039 1930.74C618.319 1932.19 618.98 1934.16 619.023 1936.63C619.023 1938.72 618.425 1940.6 617.231 1942.26C616.079 1943.89 614.393 1945.17 612.175 1946.1C609.999 1947.04 607.46 1947.51 604.559 1947.51ZM645.622 1937.72V1947H640.054C636.086 1947 632.993 1946.04 630.774 1944.12C628.555 1942.16 627.446 1938.98 627.446 1934.58V1920.38H623.094V1911.29H627.446V1902.58H638.39V1911.29H645.558V1920.38H638.39V1934.71C638.39 1935.78 638.646 1936.55 639.158 1937.02C639.67 1937.49 640.523 1937.72 641.718 1937.72H645.622ZM662.662 1917.24C663.942 1915.28 665.542 1913.74 667.462 1912.63C669.382 1911.48 671.515 1910.9 673.862 1910.9V1922.49H670.854C668.123 1922.49 666.075 1923.09 664.71 1924.28C663.345 1925.43 662.662 1927.48 662.662 1930.42V1947H651.718V1911.29H662.662V1917.24ZM695.349 1947.51C691.85 1947.51 688.693 1946.77 685.877 1945.27C683.104 1943.78 680.906 1941.65 679.285 1938.87C677.706 1936.1 676.917 1932.86 676.917 1929.14C676.917 1925.47 677.728 1922.25 679.349 1919.48C680.97 1916.66 683.189 1914.51 686.005 1913.02C688.821 1911.52 691.978 1910.78 695.477 1910.78C698.976 1910.78 702.133 1911.52 704.949 1913.02C707.765 1914.51 709.984 1916.66 711.605 1919.48C713.226 1922.25 714.037 1925.47 714.037 1929.14C714.037 1932.81 713.205 1936.06 711.541 1938.87C709.92 1941.65 707.68 1943.78 704.821 1945.27C702.005 1946.77 698.848 1947.51 695.349 1947.51ZM695.349 1938.04C697.44 1938.04 699.21 1937.27 700.661 1935.74C702.154 1934.2 702.901 1932 702.901 1929.14C702.901 1926.29 702.176 1924.09 700.725 1922.55C699.317 1921.02 697.568 1920.25 695.477 1920.25C693.344 1920.25 691.573 1921.02 690.165 1922.55C688.757 1924.05 688.053 1926.24 688.053 1929.14C688.053 1932 688.736 1934.2 690.101 1935.74C691.509 1937.27 693.258 1938.04 695.349 1938.04ZM734.371 1947.51C731.256 1947.51 728.483 1946.98 726.051 1945.91C723.619 1944.85 721.699 1943.39 720.291 1941.56C718.883 1939.68 718.094 1937.59 717.923 1935.29H728.739C728.867 1936.53 729.443 1937.53 730.467 1938.3C731.491 1939.06 732.75 1939.45 734.243 1939.45C735.608 1939.45 736.654 1939.19 737.379 1938.68C738.147 1938.13 738.531 1937.42 738.531 1936.57C738.531 1935.54 737.998 1934.8 736.931 1934.33C735.864 1933.82 734.136 1933.26 731.747 1932.66C729.187 1932.07 727.054 1931.45 725.347 1930.81C723.64 1930.13 722.168 1929.08 720.931 1927.67C719.694 1926.22 719.075 1924.28 719.075 1921.85C719.075 1919.8 719.63 1917.94 720.739 1916.28C721.891 1914.57 723.555 1913.23 725.731 1912.25C727.95 1911.27 730.574 1910.78 733.603 1910.78C738.083 1910.78 741.603 1911.89 744.163 1914.1C746.766 1916.32 748.259 1919.27 748.643 1922.94H738.531C738.36 1921.7 737.806 1920.72 736.867 1919.99C735.971 1919.27 734.776 1918.9 733.283 1918.9C732.003 1918.9 731.022 1919.16 730.339 1919.67C729.656 1920.14 729.315 1920.8 729.315 1921.66C729.315 1922.68 729.848 1923.45 730.915 1923.96C732.024 1924.47 733.731 1924.98 736.035 1925.5C738.68 1926.18 740.835 1926.86 742.499 1927.54C744.163 1928.18 745.614 1929.25 746.851 1930.74C748.131 1932.19 748.792 1934.16 748.835 1936.63C748.835 1938.72 748.238 1940.6 747.043 1942.26C745.891 1943.89 744.206 1945.17 741.987 1946.1C739.811 1947.04 737.272 1947.51 734.371 1947.51ZM803.333 1916.54C803.333 1919.14 802.736 1921.53 801.541 1923.7C800.346 1925.84 798.512 1927.57 796.037 1928.89C793.562 1930.21 790.49 1930.87 786.821 1930.87H780.037V1947H769.093V1902.07H786.821C790.405 1902.07 793.434 1902.69 795.909 1903.93C798.384 1905.17 800.24 1906.87 801.477 1909.05C802.714 1911.22 803.333 1913.72 803.333 1916.54ZM785.989 1922.17C788.08 1922.17 789.637 1921.68 790.661 1920.7C791.685 1919.71 792.197 1918.33 792.197 1916.54C792.197 1914.74 791.685 1913.36 790.661 1912.38C789.637 1911.39 788.08 1910.9 785.989 1910.9H780.037V1922.17H785.989ZM819.975 1899.64V1947H809.031V1899.64H819.975ZM825.73 1929.08C825.73 1925.41 826.412 1922.19 827.778 1919.42C829.186 1916.64 831.084 1914.51 833.474 1913.02C835.863 1911.52 838.53 1910.78 841.474 1910.78C843.991 1910.78 846.188 1911.29 848.066 1912.31C849.986 1913.34 851.458 1914.68 852.482 1916.34V1911.29H863.426V1947H852.482V1941.94C851.415 1943.61 849.922 1944.95 848.002 1945.98C846.124 1947 843.927 1947.51 841.41 1947.51C838.508 1947.51 835.863 1946.77 833.474 1945.27C831.084 1943.74 829.186 1941.58 827.778 1938.81C826.412 1935.99 825.73 1932.75 825.73 1929.08ZM852.482 1929.14C852.482 1926.41 851.714 1924.26 850.178 1922.68C848.684 1921.1 846.85 1920.31 844.674 1920.31C842.498 1920.31 840.642 1921.1 839.106 1922.68C837.612 1924.22 836.866 1926.35 836.866 1929.08C836.866 1931.81 837.612 1933.99 839.106 1935.61C840.642 1937.19 842.498 1937.98 844.674 1937.98C846.85 1937.98 848.684 1937.19 850.178 1935.61C851.714 1934.03 852.482 1931.87 852.482 1929.14ZM893.103 1910.9C897.284 1910.9 900.612 1912.27 903.087 1915C905.604 1917.69 906.863 1921.4 906.863 1926.14V1947H895.983V1927.61C895.983 1925.22 895.364 1923.36 894.127 1922.04C892.89 1920.72 891.226 1920.06 889.135 1920.06C887.044 1920.06 885.38 1920.72 884.143 1922.04C882.906 1923.36 882.287 1925.22 882.287 1927.61V1947H871.343V1911.29H882.287V1916.02C883.396 1914.45 884.89 1913.21 886.767 1912.31C888.644 1911.37 890.756 1910.9 893.103 1910.9ZM948.132 1928.57C948.132 1929.59 948.068 1930.66 947.94 1931.77H923.172C923.343 1933.99 924.047 1935.69 925.284 1936.89C926.564 1938.04 928.121 1938.62 929.956 1938.62C932.687 1938.62 934.585 1937.46 935.652 1935.16H947.3C946.703 1937.51 945.615 1939.62 944.036 1941.5C942.5 1943.37 940.559 1944.85 938.212 1945.91C935.865 1946.98 933.241 1947.51 930.34 1947.51C926.841 1947.51 923.727 1946.77 920.996 1945.27C918.265 1943.78 916.132 1941.65 914.596 1938.87C913.06 1936.1 912.292 1932.86 912.292 1929.14C912.292 1925.43 913.039 1922.19 914.532 1919.42C916.068 1916.64 918.201 1914.51 920.932 1913.02C923.663 1911.52 926.799 1910.78 930.34 1910.78C933.796 1910.78 936.868 1911.5 939.556 1912.95C942.244 1914.4 944.335 1916.47 945.828 1919.16C947.364 1921.85 948.132 1924.98 948.132 1928.57ZM936.932 1925.69C936.932 1923.81 936.292 1922.32 935.012 1921.21C933.732 1920.1 932.132 1919.54 930.212 1919.54C928.377 1919.54 926.82 1920.08 925.54 1921.14C924.303 1922.21 923.535 1923.73 923.236 1925.69H936.932ZM968.434 1947.51C965.319 1947.51 962.546 1946.98 960.114 1945.91C957.682 1944.85 955.762 1943.39 954.354 1941.56C952.946 1939.68 952.156 1937.59 951.986 1935.29H962.802C962.93 1936.53 963.506 1937.53 964.53 1938.3C965.554 1939.06 966.812 1939.45 968.306 1939.45C969.671 1939.45 970.716 1939.19 971.442 1938.68C972.21 1938.13 972.594 1937.42 972.594 1936.57C972.594 1935.54 972.06 1934.8 970.994 1934.33C969.927 1933.82 968.199 1933.26 965.81 1932.66C963.25 1932.07 961.116 1931.45 959.41 1930.81C957.703 1930.13 956.231 1929.08 954.994 1927.67C953.756 1926.22 953.138 1924.28 953.138 1921.85C953.138 1919.8 953.692 1917.94 954.802 1916.28C955.954 1914.57 957.618 1913.23 959.794 1912.25C962.012 1911.27 964.636 1910.78 967.666 1910.78C972.146 1910.78 975.666 1911.89 978.226 1914.1C980.828 1916.32 982.322 1919.27 982.706 1922.94H972.594C972.423 1921.7 971.868 1920.72 970.93 1919.99C970.034 1919.27 968.839 1918.9 967.346 1918.9C966.066 1918.9 965.084 1919.16 964.402 1919.67C963.719 1920.14 963.378 1920.8 963.378 1921.66C963.378 1922.68 963.911 1923.45 964.978 1923.96C966.087 1924.47 967.794 1924.98 970.098 1925.5C972.743 1926.18 974.898 1926.86 976.562 1927.54C978.226 1928.18 979.676 1929.25 980.914 1930.74C982.194 1932.19 982.855 1934.16 982.898 1936.63C982.898 1938.72 982.3 1940.6 981.106 1942.26C979.954 1943.89 978.268 1945.17 976.05 1946.1C973.874 1947.04 971.335 1947.51 968.434 1947.51Z" fill="white"/>
<path d="M499.535 1947H488.591L470.287 1919.29V1947H459.343V1902.07H470.287L488.591 1929.91V1902.07H499.535V1947ZM542.732 1911.29V1947H531.788V1942.14C530.679 1943.71 529.164 1944.99 527.244 1945.98C525.367 1946.91 523.276 1947.38 520.972 1947.38C518.241 1947.38 515.831 1946.79 513.74 1945.59C511.649 1944.35 510.028 1942.58 508.876 1940.28C507.724 1937.98 507.148 1935.27 507.148 1932.15V1911.29H518.028V1930.68C518.028 1933.07 518.647 1934.93 519.884 1936.25C521.121 1937.57 522.785 1938.23 524.876 1938.23C527.009 1938.23 528.695 1937.57 529.932 1936.25C531.169 1934.93 531.788 1933.07 531.788 1930.68V1911.29H542.732ZM584.257 1928.57C584.257 1929.59 584.193 1930.66 584.065 1931.77H559.297C559.468 1933.99 560.172 1935.69 561.409 1936.89C562.689 1938.04 564.246 1938.62 566.081 1938.62C568.812 1938.62 570.71 1937.46 571.777 1935.16H583.425C582.828 1937.51 581.74 1939.62 580.161 1941.5C578.625 1943.37 576.684 1944.85 574.337 1945.91C571.99 1946.98 569.366 1947.51 566.465 1947.51C562.966 1947.51 559.852 1946.77 557.121 1945.27C554.39 1943.78 552.257 1941.65 550.721 1938.87C549.185 1936.1 548.417 1932.86 548.417 1929.14C548.417 1925.43 549.164 1922.19 550.657 1919.42C552.193 1916.64 554.326 1914.51 557.057 1913.02C559.788 1911.52 562.924 1910.78 566.465 1910.78C569.921 1910.78 572.993 1911.5 575.681 1912.95C578.369 1914.4 580.46 1916.47 581.953 1919.16C583.489 1921.85 584.257 1924.98 584.257 1928.57ZM573.057 1925.69C573.057 1923.81 572.417 1922.32 571.137 1921.21C569.857 1920.1 568.257 1919.54 566.337 1919.54C564.502 1919.54 562.945 1920.08 561.665 1921.14C560.428 1922.21 559.66 1923.73 559.361 1925.69H573.057ZM604.559 1947.51C601.444 1947.51 598.671 1946.98 596.239 1945.91C593.807 1944.85 591.887 1943.39 590.479 1941.56C589.071 1939.68 588.281 1937.59 588.111 1935.29H598.927C599.055 1936.53 599.631 1937.53 600.655 1938.3C601.679 1939.06 602.937 1939.45 604.431 1939.45C605.796 1939.45 606.841 1939.19 607.567 1938.68C608.335 1938.13 608.719 1937.42 608.719 1936.57C608.719 1935.54 608.185 1934.8 607.119 1934.33C606.052 1933.82 604.324 1933.26 601.935 1932.66C599.375 1932.07 597.241 1931.45 595.535 1930.81C593.828 1930.13 592.356 1929.08 591.119 1927.67C589.881 1926.22 589.263 1924.28 589.263 1921.85C589.263 1919.8 589.817 1917.94 590.927 1916.28C592.079 1914.57 593.743 1913.23 595.919 1912.25C598.137 1911.27 600.761 1910.78 603.791 1910.78C608.271 1910.78 611.791 1911.89 614.351 1914.1C616.953 1916.32 618.447 1919.27 618.831 1922.94H608.719C608.548 1921.7 607.993 1920.72 607.055 1919.99C606.159 1919.27 604.964 1918.9 603.471 1918.9C602.191 1918.9 601.209 1919.16 600.527 1919.67C599.844 1920.14 599.503 1920.8 599.503 1921.66C599.503 1922.68 600.036 1923.45 601.103 1923.96C602.212 1924.47 603.919 1924.98 606.223 1925.5C608.868 1926.18 611.023 1926.86 612.687 1927.54C614.351 1928.18 615.801 1929.25 617.039 1930.74C618.319 1932.19 618.98 1934.16 619.023 1936.63C619.023 1938.72 618.425 1940.6 617.231 1942.26C616.079 1943.89 614.393 1945.17 612.175 1946.1C609.999 1947.04 607.46 1947.51 604.559 1947.51ZM645.622 1937.72V1947H640.054C636.086 1947 632.993 1946.04 630.774 1944.12C628.555 1942.16 627.446 1938.98 627.446 1934.58V1920.38H623.094V1911.29H627.446V1902.58H638.39V1911.29H645.558V1920.38H638.39V1934.71C638.39 1935.78 638.646 1936.55 639.158 1937.02C639.67 1937.49 640.523 1937.72 641.718 1937.72H645.622ZM662.662 1917.24C663.942 1915.28 665.542 1913.74 667.462 1912.63C669.382 1911.48 671.515 1910.9 673.862 1910.9V1922.49H670.854C668.123 1922.49 666.075 1923.09 664.71 1924.28C663.345 1925.43 662.662 1927.48 662.662 1930.42V1947H651.718V1911.29H662.662V1917.24ZM695.349 1947.51C691.85 1947.51 688.693 1946.77 685.877 1945.27C683.104 1943.78 680.906 1941.65 679.285 1938.87C677.706 1936.1 676.917 1932.86 676.917 1929.14C676.917 1925.47 677.728 1922.25 679.349 1919.48C680.97 1916.66 683.189 1914.51 686.005 1913.02C688.821 1911.52 691.978 1910.78 695.477 1910.78C698.976 1910.78 702.133 1911.52 704.949 1913.02C707.765 1914.51 709.984 1916.66 711.605 1919.48C713.226 1922.25 714.037 1925.47 714.037 1929.14C714.037 1932.81 713.205 1936.06 711.541 1938.87C709.92 1941.65 707.68 1943.78 704.821 1945.27C702.005 1946.77 698.848 1947.51 695.349 1947.51ZM695.349 1938.04C697.44 1938.04 699.21 1937.27 700.661 1935.74C702.154 1934.2 702.901 1932 702.901 1929.14C702.901 1926.29 702.176 1924.09 700.725 1922.55C699.317 1921.02 697.568 1920.25 695.477 1920.25C693.344 1920.25 691.573 1921.02 690.165 1922.55C688.757 1924.05 688.053 1926.24 688.053 1929.14C688.053 1932 688.736 1934.2 690.101 1935.74C691.509 1937.27 693.258 1938.04 695.349 1938.04ZM734.371 1947.51C731.256 1947.51 728.483 1946.98 726.051 1945.91C723.619 1944.85 721.699 1943.39 720.291 1941.56C718.883 1939.68 718.094 1937.59 717.923 1935.29H728.739C728.867 1936.53 729.443 1937.53 730.467 1938.3C731.491 1939.06 732.75 1939.45 734.243 1939.45C735.608 1939.45 736.654 1939.19 737.379 1938.68C738.147 1938.13 738.531 1937.42 738.531 1936.57C738.531 1935.54 737.998 1934.8 736.931 1934.33C735.864 1933.82 734.136 1933.26 731.747 1932.66C729.187 1932.07 727.054 1931.45 725.347 1930.81C723.64 1930.13 722.168 1929.08 720.931 1927.67C719.694 1926.22 719.075 1924.28 719.075 1921.85C719.075 1919.8 719.63 1917.94 720.739 1916.28C721.891 1914.57 723.555 1913.23 725.731 1912.25C727.95 1911.27 730.574 1910.78 733.603 1910.78C738.083 1910.78 741.603 1911.89 744.163 1914.1C746.766 1916.32 748.259 1919.27 748.643 1922.94H738.531C738.36 1921.7 737.806 1920.72 736.867 1919.99C735.971 1919.27 734.776 1918.9 733.283 1918.9C732.003 1918.9 731.022 1919.16 730.339 1919.67C729.656 1920.14 729.315 1920.8 729.315 1921.66C729.315 1922.68 729.848 1923.45 730.915 1923.96C732.024 1924.47 733.731 1924.98 736.035 1925.5C738.68 1926.18 740.835 1926.86 742.499 1927.54C744.163 1928.18 745.614 1929.25 746.851 1930.74C748.131 1932.19 748.792 1934.16 748.835 1936.63C748.835 1938.72 748.238 1940.6 747.043 1942.26C745.891 1943.89 744.206 1945.17 741.987 1946.1C739.811 1947.04 737.272 1947.51 734.371 1947.51ZM803.333 1916.54C803.333 1919.14 802.736 1921.53 801.541 1923.7C800.346 1925.84 798.512 1927.57 796.037 1928.89C793.562 1930.21 790.49 1930.87 786.821 1930.87H780.037V1947H769.093V1902.07H786.821C790.405 1902.07 793.434 1902.69 795.909 1903.93C798.384 1905.17 800.24 1906.87 801.477 1909.05C802.714 1911.22 803.333 1913.72 803.333 1916.54ZM785.989 1922.17C788.08 1922.17 789.637 1921.68 790.661 1920.7C791.685 1919.71 792.197 1918.33 792.197 1916.54C792.197 1914.74 791.685 1913.36 790.661 1912.38C789.637 1911.39 788.08 1910.9 785.989 1910.9H780.037V1922.17H785.989ZM819.975 1899.64V1947H809.031V1899.64H819.975ZM825.73 1929.08C825.73 1925.41 826.412 1922.19 827.778 1919.42C829.186 1916.64 831.084 1914.51 833.474 1913.02C835.863 1911.52 838.53 1910.78 841.474 1910.78C843.991 1910.78 846.188 1911.29 848.066 1912.31C849.986 1913.34 851.458 1914.68 852.482 1916.34V1911.29H863.426V1947H852.482V1941.94C851.415 1943.61 849.922 1944.95 848.002 1945.98C846.124 1947 843.927 1947.51 841.41 1947.51C838.508 1947.51 835.863 1946.77 833.474 1945.27C831.084 1943.74 829.186 1941.58 827.778 1938.81C826.412 1935.99 825.73 1932.75 825.73 1929.08ZM852.482 1929.14C852.482 1926.41 851.714 1924.26 850.178 1922.68C848.684 1921.1 846.85 1920.31 844.674 1920.31C842.498 1920.31 840.642 1921.1 839.106 1922.68C837.612 1924.22 836.866 1926.35 836.866 1929.08C836.866 1931.81 837.612 1933.99 839.106 1935.61C840.642 1937.19 842.498 1937.98 844.674 1937.98C846.85 1937.98 848.684 1937.19 850.178 1935.61C851.714 1934.03 852.482 1931.87 852.482 1929.14ZM893.103 1910.9C897.284 1910.9 900.612 1912.27 903.087 1915C905.604 1917.69 906.863 1921.4 906.863 1926.14V1947H895.983V1927.61C895.983 1925.22 895.364 1923.36 894.127 1922.04C892.89 1920.72 891.226 1920.06 889.135 1920.06C887.044 1920.06 885.38 1920.72 884.143 1922.04C882.906 1923.36 882.287 1925.22 882.287 1927.61V1947H871.343V1911.29H882.287V1916.02C883.396 1914.45 884.89 1913.21 886.767 1912.31C888.644 1911.37 890.756 1910.9 893.103 1910.9ZM948.132 1928.57C948.132 1929.59 948.068 1930.66 947.94 1931.77H923.172C923.343 1933.99 924.047 1935.69 925.284 1936.89C926.564 1938.04 928.121 1938.62 929.956 1938.62C932.687 1938.62 934.585 1937.46 935.652 1935.16H947.3C946.703 1937.51 945.615 1939.62 944.036 1941.5C942.5 1943.37 940.559 1944.85 938.212 1945.91C935.865 1946.98 933.241 1947.51 930.34 1947.51C926.841 1947.51 923.727 1946.77 920.996 1945.27C918.265 1943.78 916.132 1941.65 914.596 1938.87C913.06 1936.1 912.292 1932.86 912.292 1929.14C912.292 1925.43 913.039 1922.19 914.532 1919.42C916.068 1916.64 918.201 1914.51 920.932 1913.02C923.663 1911.52 926.799 1910.78 930.34 1910.78C933.796 1910.78 936.868 1911.5 939.556 1912.95C942.244 1914.4 944.335 1916.47 945.828 1919.16C947.364 1921.85 948.132 1924.98 948.132 1928.57ZM936.932 1925.69C936.932 1923.81 936.292 1922.32 935.012 1921.21C933.732 1920.1 932.132 1919.54 930.212 1919.54C928.377 1919.54 926.82 1920.08 925.54 1921.14C924.303 1922.21 923.535 1923.73 923.236 1925.69H936.932ZM968.434 1947.51C965.319 1947.51 962.546 1946.98 960.114 1945.91C957.682 1944.85 955.762 1943.39 954.354 1941.56C952.946 1939.68 952.156 1937.59 951.986 1935.29H962.802C962.93 1936.53 963.506 1937.53 964.53 1938.3C965.554 1939.06 966.812 1939.45 968.306 1939.45C969.671 1939.45 970.716 1939.19 971.442 1938.68C972.21 1938.13 972.594 1937.42 972.594 1936.57C972.594 1935.54 972.06 1934.8 970.994 1934.33C969.927 1933.82 968.199 1933.26 965.81 1932.66C963.25 1932.07 961.116 1931.45 959.41 1930.81C957.703 1930.13 956.231 1929.08 954.994 1927.67C953.756 1926.22 953.138 1924.28 953.138 1921.85C953.138 1919.8 953.692 1917.94 954.802 1916.28C955.954 1914.57 957.618 1913.23 959.794 1912.25C962.012 1911.27 964.636 1910.78 967.666 1910.78C972.146 1910.78 975.666 1911.89 978.226 1914.1C980.828 1916.32 982.322 1919.27 982.706 1922.94H972.594C972.423 1921.7 971.868 1920.72 970.93 1919.99C970.034 1919.27 968.839 1918.9 967.346 1918.9C966.066 1918.9 965.084 1919.16 964.402 1919.67C963.719 1920.14 963.378 1920.8 963.378 1921.66C963.378 1922.68 963.911 1923.45 964.978 1923.96C966.087 1924.47 967.794 1924.98 970.098 1925.5C972.743 1926.18 974.898 1926.86 976.562 1927.54C978.226 1928.18 979.676 1929.25 980.914 1930.74C982.194 1932.19 982.855 1934.16 982.898 1936.63C982.898 1938.72 982.3 1940.6 981.106 1942.26C979.954 1943.89 978.268 1945.17 976.05 1946.1C973.874 1947.04 971.335 1947.51 968.434 1947.51Z" fill="white"/>
</svg>
