<svg width="51" height="43" viewBox="0 0 51 43" fill="none" xmlns="http://www.w3.org/2000/svg">
<path d="M44.7297 24.9926C43.7428 24.5199 42.9197 23.7872 42.3588 22.882C39.2107 23.4773 36.0172 23.8303 32.8094 23.9373C28.7704 23.9373 25.5098 23.7547 26.8415 20.1769C28.1733 16.5991 31.7079 9.22349 32.9469 7.73965C34.1859 6.25582 35.879 4.37769 36.7119 4.46588C37.7445 4.57588 39.6756 5.79822 39.4584 6.57645C39.252 7.31837 38.227 8.93917 36.4597 7.78531" stroke="#F8F8F8" stroke-linecap="round" stroke-linejoin="round"/>
<path d="M35.8752 8.59156C36.2667 7.96866 36.7411 7.39634 37.2866 6.88879M39.233 7.10358C39.8519 6.95416 41.0232 7.70749 40.3617 8.48157C39.5267 9.25295 38.4442 9.73657 37.2866 9.85541C36.6044 9.91352 34.2334 9.83466 34.2334 9.83466C33.2236 11.4918 33.4529 14.0236 33.3601 16.2494C33.3133 17.5639 32.9858 18.8557 32.3973 20.0461C36.4362 18.2562 43.3232 16.9031 47.4855 17.5578M7.66797 24.9926C8.65496 24.5199 9.47803 23.7872 10.0389 22.882C13.187 23.4773 16.3805 23.8303 19.5883 23.9373C23.6273 23.9373 26.8879 23.7547 25.5562 20.1769C24.2244 16.5991 20.6898 9.22349 19.4508 7.73965C18.2118 6.25582 16.5187 4.37769 15.6858 4.46588C14.6532 4.57588 12.7221 5.79822 12.9394 6.57645C13.1457 7.31837 14.1707 8.93917 15.938 7.78531" stroke="#F8F8F8" stroke-linecap="round" stroke-linejoin="round"/>
<path d="M16.5225 8.59178C16.1313 7.96894 15.6573 7.39663 15.1121 6.88901M13.1647 7.1038C12.5457 6.95438 11.3744 7.70771 12.036 8.48179C12.8712 9.25338 13.9541 9.73702 15.1121 9.85564C15.7933 9.91374 18.1642 9.83488 18.1642 9.83488C19.174 11.492 18.9448 14.0239 19.0375 16.2496C19.0843 17.5642 19.4119 18.8559 20.0003 20.0463C15.9614 18.2554 9.07442 16.9033 4.91211 17.557M35.129 5.37716C29.3118 3.65846 23.083 3.65846 17.2659 5.37716" stroke="#F8F8F8" stroke-linecap="round" stroke-linejoin="round"/>
<path d="M11.917 7.70972C7.61493 10.2727 4.91211 13.9771 4.91211 18.0965C4.91211 25.8332 14.4419 32.1047 26.1985 32.1047C37.9551 32.1047 47.4849 25.8332 47.4849 18.0965C47.4849 13.9771 44.7821 10.2727 40.48 7.70972" stroke="#F8F8F8" stroke-linecap="round" stroke-linejoin="round"/>
</svg>
