<svg width="111" height="111" viewBox="0 0 111 111" fill="none" xmlns="http://www.w3.org/2000/svg">
<g clip-path="url(#clip0_30_39)">
<path d="M72.2424 51.8925C71.6659 51.3078 70.8807 50.9761 70.0596 50.9703C69.2385 50.9645 68.4488 51.2851 67.8641 51.8617C67.2794 52.4382 66.9477 53.2233 66.9419 54.0444C66.9361 54.8655 67.2567 55.6553 67.8332 56.24L79.3032 67.8333H24.1424C23.3247 67.8333 22.5404 68.1582 21.9622 68.7364C21.3839 69.3146 21.0591 70.0989 21.0591 70.9167C21.0591 71.7344 21.3839 72.5187 21.9622 73.0969C22.5404 73.6751 23.3247 74 24.1424 74H79.3032L67.8332 85.4083C67.5478 85.6958 67.3217 86.0367 67.168 86.4115C67.0143 86.7864 66.9359 87.1878 66.9374 87.593C66.9388 87.9981 67.02 88.399 67.1764 88.7727C67.3327 89.1465 67.5612 89.4858 67.8487 89.7712C68.1361 90.0567 68.477 90.2827 68.8519 90.4365C69.2267 90.5902 69.6282 90.6686 70.0333 90.6671C70.4384 90.6657 70.8393 90.5845 71.2131 90.4281C71.5868 90.2718 71.9261 90.0433 72.2116 89.7558L91.0508 70.9167L72.2424 51.8925Z" fill="black"/>
<path d="M40.8233 56.8875C41.4357 56.8911 42.0353 56.7122 42.5456 56.3736C43.056 56.0351 43.454 55.5522 43.6888 54.9866C43.9237 54.421 43.9847 53.7982 43.8643 53.1978C43.7438 52.5973 43.4473 52.0463 43.0124 51.615L31.5733 40.0834H86.7033C87.521 40.0834 88.3053 39.7585 88.8835 39.1803C89.4617 38.602 89.7866 37.8178 89.7866 37C89.7866 36.1823 89.4617 35.398 88.8835 34.8198C88.3053 34.2415 87.521 33.9167 86.7033 33.9167H31.5733L43.0124 22.4159C43.2979 22.1284 43.5239 21.7875 43.6776 21.4126C43.8314 21.0378 43.9097 20.6363 43.9083 20.2312C43.9069 19.8261 43.8257 19.4252 43.6693 19.0514C43.5129 18.6777 43.2845 18.3384 42.997 18.0529C42.7095 17.7675 42.3686 17.5414 41.9938 17.3877C41.6189 17.234 41.2175 17.1556 40.8124 17.1571C39.9941 17.16 39.2106 17.4878 38.6341 18.0684L19.7949 37L38.6341 55.9317C38.9171 56.2286 39.2564 56.4661 39.6323 56.6302C40.0082 56.7943 40.4131 56.8818 40.8233 56.8875Z" fill="black"/>
</g>
<defs>
<clipPath id="clip0_30_39">
<rect width="111" height="111" fill="white"/>
</clipPath>
</defs>
</svg>
