<svg width="111" height="111" viewBox="0 0 111 111" fill="none" xmlns="http://www.w3.org/2000/svg">
<path d="M14 82.375H48.6875V89.3125H14V82.375ZM14 61.5625H48.6875V68.5H14V61.5625ZM90.3125 47.6875H20.9375C19.0976 47.6875 17.333 46.9566 16.0319 45.6556C14.7309 44.3545 14 42.5899 14 40.75V19.9375C14 18.0976 14.7309 16.333 16.0319 15.0319C17.333 13.7309 19.0976 13 20.9375 13H90.3125C92.1524 13 93.917 13.7309 95.2181 15.0319C96.5191 16.333 97.25 18.0976 97.25 19.9375V40.75C97.25 42.5899 96.5191 44.3545 95.2181 45.6556C93.917 46.9566 92.1524 47.6875 90.3125 47.6875ZM20.9375 19.9375V40.75H90.3125V19.9375H20.9375ZM90.3125 96.25H69.5C67.6601 96.25 65.8955 95.5191 64.5944 94.2181C63.2934 92.917 62.5625 91.1524 62.5625 89.3125V68.5C62.5625 66.6601 63.2934 64.8955 64.5944 63.5944C65.8955 62.2934 67.6601 61.5625 69.5 61.5625H90.3125C92.1524 61.5625 93.917 62.2934 95.2181 63.5944C96.5191 64.8955 97.25 66.6601 97.25 68.5V89.3125C97.25 91.1524 96.5191 92.917 95.2181 94.2181C93.917 95.5191 92.1524 96.25 90.3125 96.25ZM69.5 68.5V89.3125H90.3125V68.5H69.5Z" fill="black"/>
</svg>
