<svg width="181" height="224" viewBox="0 0 181 224" fill="none" xmlns="http://www.w3.org/2000/svg">
<path d="M141.742 48.2812H111.742C111.227 48.2812 110.805 48.7031 110.805 49.2187V54.8437C110.805 55.3594 111.227 55.7812 111.742 55.7812H141.742C142.258 55.7812 142.68 55.3594 142.68 54.8437V49.2187C142.68 48.7031 142.258 48.2812 141.742 48.2812ZM126.039 64.2187H111.742C111.227 64.2187 110.805 64.6406 110.805 65.1562V70.7812C110.805 71.2969 111.227 71.7187 111.742 71.7187H126.039C126.555 71.7187 126.977 71.2969 126.977 70.7812V65.1562C126.977 64.6406 126.555 64.2187 126.039 64.2187ZM86.9336 37.793H81.8594C81.1328 37.793 80.5469 38.3789 80.5469 39.1055V68.168C80.5469 68.5898 80.7461 68.9766 81.0859 69.2227L98.5352 81.9492C99.1211 82.3711 99.9414 82.2539 100.363 81.668L103.375 77.5547V77.543C103.797 76.957 103.668 76.1367 103.082 75.7148L88.2344 64.9805V39.1055C88.2461 38.3789 87.6484 37.793 86.9336 37.793V37.793Z" fill="white"/>
<path d="M125.313 78.9727H118.539C117.883 78.9727 117.262 79.3125 116.91 79.875C115.422 82.2305 113.688 84.4102 111.695 86.4024C108.262 89.836 104.266 92.5313 99.8243 94.4063C95.2188 96.3516 90.3321 97.336 85.293 97.336C80.2423 97.336 75.3555 96.3516 70.7618 94.4063C66.3204 92.5313 62.3243 89.836 58.8907 86.4024C55.4571 82.9688 52.7618 78.9727 50.8868 74.5313C48.9415 69.9375 47.9571 65.0508 47.9571 60C47.9571 54.9493 48.9415 50.0743 50.8868 45.4688C52.7618 41.0274 55.4571 37.0313 58.8907 33.5977C62.3243 30.1641 66.3204 27.4688 70.7618 25.5938C75.3555 23.6485 80.254 22.6641 85.293 22.6641C90.3438 22.6641 95.2305 23.6485 99.8243 25.5938C104.266 27.4688 108.262 30.1641 111.695 33.5977C113.688 35.5899 115.422 37.7696 116.91 40.125C117.262 40.6875 117.883 41.0274 118.539 41.0274H125.313C126.121 41.0274 126.637 40.1836 126.274 39.4688C118.633 24.2696 103.141 14.3907 85.8438 14.1914C60.5196 13.875 39.4845 34.6055 39.4376 59.9063C39.3907 85.2539 59.9337 105.82 85.2813 105.82C102.801 105.82 118.551 95.9063 126.274 80.5313C126.637 79.8164 126.109 78.9727 125.313 78.9727V78.9727Z" fill="white"/>
<path d="M11.1684 163.832C11.1684 161.656 11.6697 159.704 12.6724 157.976C13.6964 156.248 15.0724 154.904 16.8004 153.944C18.5497 152.963 20.459 152.472 22.5284 152.472C24.8964 152.472 26.9977 153.059 28.8324 154.232C30.6884 155.384 32.0324 157.027 32.8644 159.16H28.4804C27.9044 157.987 27.1044 157.112 26.0804 156.536C25.0564 155.96 23.8724 155.672 22.5284 155.672C21.0564 155.672 19.7444 156.003 18.5924 156.664C17.4404 157.325 16.5337 158.275 15.8724 159.512C15.2324 160.749 14.9124 162.189 14.9124 163.832C14.9124 165.475 15.2324 166.915 15.8724 168.152C16.5337 169.389 17.4404 170.349 18.5924 171.032C19.7444 171.693 21.0564 172.024 22.5284 172.024C23.8724 172.024 25.0564 171.736 26.0804 171.16C27.1044 170.584 27.9044 169.709 28.4804 168.536H32.8644C32.0324 170.669 30.6884 172.312 28.8324 173.464C26.9977 174.616 24.8964 175.192 22.5284 175.192C20.4377 175.192 18.5284 174.712 16.8004 173.752C15.0724 172.771 13.6964 171.416 12.6724 169.688C11.6697 167.96 11.1684 166.008 11.1684 163.832ZM35.9184 166.104C35.9184 164.333 36.281 162.765 37.0064 161.4C37.753 160.035 38.7557 158.979 40.0144 158.232C41.2944 157.464 42.7024 157.08 44.2384 157.08C45.625 157.08 46.8304 157.357 47.8544 157.912C48.8997 158.445 49.7317 159.117 50.3504 159.928V157.368H54.0304V175H50.3504V172.376C49.7317 173.208 48.889 173.901 47.8224 174.456C46.7557 175.011 45.5397 175.288 44.1744 175.288C42.6597 175.288 41.273 174.904 40.0144 174.136C38.7557 173.347 37.753 172.259 37.0064 170.872C36.281 169.464 35.9184 167.875 35.9184 166.104ZM50.3504 166.168C50.3504 164.952 50.0944 163.896 49.5824 163C49.0917 162.104 48.441 161.421 47.6304 160.952C46.8197 160.483 45.945 160.248 45.0064 160.248C44.0677 160.248 43.193 160.483 42.3824 160.952C41.5717 161.4 40.9104 162.072 40.3984 162.968C39.9077 163.843 39.6624 164.888 39.6624 166.104C39.6624 167.32 39.9077 168.387 40.3984 169.304C40.9104 170.221 41.5717 170.925 42.3824 171.416C43.2144 171.885 44.089 172.12 45.0064 172.12C45.945 172.12 46.8197 171.885 47.6304 171.416C48.441 170.947 49.0917 170.264 49.5824 169.368C50.0944 168.451 50.3504 167.384 50.3504 166.168ZM62.4699 151.32V175H58.8219V151.32H62.4699ZM69.1154 155.032C68.454 155.032 67.8994 154.808 67.4514 154.36C67.0034 153.912 66.7794 153.357 66.7794 152.696C66.7794 152.035 67.0034 151.48 67.4514 151.032C67.8994 150.584 68.454 150.36 69.1154 150.36C69.7554 150.36 70.2994 150.584 70.7474 151.032C71.1954 151.48 71.4194 152.035 71.4194 152.696C71.4194 153.357 71.1954 153.912 70.7474 154.36C70.2994 154.808 69.7554 155.032 69.1154 155.032ZM70.9074 157.368V175H67.2594V157.368H70.9074ZM74.4809 166.104C74.4809 164.333 74.8435 162.765 75.5689 161.4C76.3155 160.035 77.3182 158.979 78.5769 158.232C79.8569 157.464 81.2755 157.08 82.8329 157.08C83.9849 157.08 85.1155 157.336 86.2249 157.848C87.3555 158.339 88.2515 159 88.9129 159.832V151.32H92.5929V175H88.9129V172.344C88.3155 173.197 87.4835 173.901 86.4169 174.456C85.3715 175.011 84.1662 175.288 82.8009 175.288C81.2649 175.288 79.8569 174.904 78.5769 174.136C77.3182 173.347 76.3155 172.259 75.5689 170.872C74.8435 169.464 74.4809 167.875 74.4809 166.104ZM88.9129 166.168C88.9129 164.952 88.6569 163.896 88.1449 163C87.6542 162.104 87.0035 161.421 86.1929 160.952C85.3822 160.483 84.5075 160.248 83.5689 160.248C82.6302 160.248 81.7555 160.483 80.9449 160.952C80.1342 161.4 79.4729 162.072 78.9609 162.968C78.4702 163.843 78.2249 164.888 78.2249 166.104C78.2249 167.32 78.4702 168.387 78.9609 169.304C79.4729 170.221 80.1342 170.925 80.9449 171.416C81.7769 171.885 82.6515 172.12 83.5689 172.12C84.5075 172.12 85.3822 171.885 86.1929 171.416C87.0035 170.947 87.6542 170.264 88.1449 169.368C88.6569 168.451 88.9129 167.384 88.9129 166.168ZM96.1684 166.104C96.1684 164.333 96.531 162.765 97.2564 161.4C98.003 160.035 99.0057 158.979 100.264 158.232C101.544 157.464 102.952 157.08 104.488 157.08C105.875 157.08 107.08 157.357 108.104 157.912C109.15 158.445 109.982 159.117 110.6 159.928V157.368H114.28V175H110.6V172.376C109.982 173.208 109.139 173.901 108.072 174.456C107.006 175.011 105.79 175.288 104.424 175.288C102.91 175.288 101.523 174.904 100.264 174.136C99.0057 173.347 98.003 172.259 97.2564 170.872C96.531 169.464 96.1684 167.875 96.1684 166.104ZM110.6 166.168C110.6 164.952 110.344 163.896 109.832 163C109.342 162.104 108.691 161.421 107.88 160.952C107.07 160.483 106.195 160.248 105.256 160.248C104.318 160.248 103.443 160.483 102.632 160.952C101.822 161.4 101.16 162.072 100.648 162.968C100.158 163.843 99.9124 164.888 99.9124 166.104C99.9124 167.32 100.158 168.387 100.648 169.304C101.16 170.221 101.822 170.925 102.632 171.416C103.464 171.885 104.339 172.12 105.256 172.12C106.195 172.12 107.07 171.885 107.88 171.416C108.691 170.947 109.342 170.264 109.832 169.368C110.344 168.451 110.6 167.384 110.6 166.168ZM117.856 166.104C117.856 164.333 118.219 162.765 118.944 161.4C119.691 160.035 120.693 158.979 121.952 158.232C123.232 157.464 124.651 157.08 126.208 157.08C127.36 157.08 128.491 157.336 129.6 157.848C130.731 158.339 131.627 159 132.288 159.832V151.32H135.968V175H132.288V172.344C131.691 173.197 130.859 173.901 129.792 174.456C128.747 175.011 127.541 175.288 126.176 175.288C124.64 175.288 123.232 174.904 121.952 174.136C120.693 173.347 119.691 172.259 118.944 170.872C118.219 169.464 117.856 167.875 117.856 166.104ZM132.288 166.168C132.288 164.952 132.032 163.896 131.52 163C131.029 162.104 130.379 161.421 129.568 160.952C128.757 160.483 127.883 160.248 126.944 160.248C126.005 160.248 125.131 160.483 124.32 160.952C123.509 161.4 122.848 162.072 122.336 162.968C121.845 163.843 121.6 164.888 121.6 166.104C121.6 167.32 121.845 168.387 122.336 169.304C122.848 170.221 123.509 170.925 124.32 171.416C125.152 171.885 126.027 172.12 126.944 172.12C127.883 172.12 128.757 171.885 129.568 171.416C130.379 170.947 131.029 170.264 131.52 169.368C132.032 168.451 132.288 167.384 132.288 166.168ZM166.256 175L163.504 172.248C162.437 173.315 161.275 174.115 160.016 174.648C158.757 175.16 157.349 175.416 155.792 175.416C154.213 175.416 152.816 175.139 151.6 174.584C150.384 174.029 149.445 173.24 148.784 172.216C148.123 171.171 147.792 169.965 147.792 168.6C147.792 167.064 148.229 165.699 149.104 164.504C149.979 163.288 151.28 162.328 153.008 161.624C152.389 160.877 151.952 160.184 151.696 159.544C151.44 158.883 151.312 158.157 151.312 157.368C151.312 156.387 151.557 155.512 152.048 154.744C152.56 153.976 153.285 153.368 154.224 152.92C155.163 152.472 156.251 152.248 157.488 152.248C158.747 152.248 159.813 152.493 160.688 152.984C161.584 153.453 162.245 154.104 162.672 154.936C163.12 155.768 163.301 156.696 163.216 157.72H159.568C159.589 156.931 159.397 156.323 158.992 155.896C158.587 155.448 158.032 155.224 157.328 155.224C156.624 155.224 156.048 155.437 155.6 155.864C155.173 156.269 154.96 156.771 154.96 157.368C154.96 157.944 155.12 158.52 155.44 159.096C155.781 159.651 156.368 160.376 157.2 161.272L163.088 167.128L165.36 163.384H169.296L166.416 168.312L165.616 169.624L171.024 175H166.256ZM155.792 172.312C157.797 172.312 159.568 171.491 161.104 169.848L155.216 163.928C152.699 164.931 151.44 166.445 151.44 168.472C151.44 169.56 151.845 170.477 152.656 171.224C153.467 171.949 154.512 172.312 155.792 172.312ZM7.2355 203.704V210.232H14.9155V213.208H7.2355V220.024H15.8755V223H3.5875V200.728H15.8755V203.704H7.2355ZM27.7608 208.344H24.4968V223H20.8168V208.344H18.7368V205.368H20.8168V204.12C20.8168 202.093 21.3501 200.621 22.4168 199.704C23.5048 198.765 25.2008 198.296 27.5048 198.296V201.336C26.3954 201.336 25.6168 201.549 25.1688 201.976C24.7208 202.381 24.4968 203.096 24.4968 204.12V205.368H27.7608V208.344ZM47.1538 213.752C47.1538 214.413 47.1111 215.011 47.0258 215.544H33.5538C33.6604 216.952 34.1831 218.083 35.1218 218.936C36.0604 219.789 37.2124 220.216 38.5778 220.216C40.5404 220.216 41.9271 219.395 42.7378 217.752H46.6737C46.1404 219.373 45.1698 220.707 43.7618 221.752C42.3751 222.776 40.6471 223.288 38.5778 223.288C36.8924 223.288 35.3778 222.915 34.0338 222.168C32.7111 221.4 31.6658 220.333 30.8978 218.968C30.1511 217.581 29.7778 215.981 29.7778 214.168C29.7778 212.355 30.1404 210.765 30.8658 209.4C31.6124 208.013 32.6471 206.947 33.9698 206.2C35.3138 205.453 36.8498 205.08 38.5778 205.08C40.2418 205.08 41.7244 205.443 43.0258 206.168C44.3271 206.893 45.3404 207.917 46.0658 209.24C46.7911 210.541 47.1538 212.045 47.1538 213.752ZM43.3458 212.6C43.3244 211.256 42.8444 210.179 41.9058 209.368C40.9671 208.557 39.8044 208.152 38.4178 208.152C37.1591 208.152 36.0818 208.557 35.1858 209.368C34.2898 210.157 33.7564 211.235 33.5858 212.6H43.3458ZM49.5278 214.168C49.5278 212.355 49.8904 210.765 50.6158 209.4C51.3624 208.013 52.3864 206.947 53.6878 206.2C54.9891 205.453 56.4824 205.08 58.1678 205.08C60.3011 205.08 62.0611 205.592 63.4478 206.616C64.8558 207.619 65.8051 209.059 66.2958 210.936H62.3598C62.0398 210.061 61.5278 209.379 60.8238 208.888C60.1198 208.397 59.2344 208.152 58.1678 208.152C56.6744 208.152 55.4798 208.685 54.5838 209.752C53.7091 210.797 53.2718 212.269 53.2718 214.168C53.2718 216.067 53.7091 217.549 54.5838 218.616C55.4798 219.683 56.6744 220.216 58.1678 220.216C60.2798 220.216 61.6771 219.288 62.3598 217.432H66.2958C65.7838 219.224 64.8238 220.653 63.4158 221.72C62.0078 222.765 60.2584 223.288 58.1678 223.288C56.4824 223.288 54.9891 222.915 53.6878 222.168C52.3864 221.4 51.3624 220.333 50.6158 218.968C49.8904 217.581 49.5278 215.981 49.5278 214.168ZM74.1873 208.344V218.104C74.1873 218.765 74.3366 219.245 74.6353 219.544C74.9553 219.821 75.4886 219.96 76.2353 219.96H78.4753V223H75.5953C73.9526 223 72.6939 222.616 71.8193 221.848C70.9446 221.08 70.5073 219.832 70.5073 218.104V208.344H68.4273V205.368H70.5073V200.984H74.1873V205.368H78.4753V208.344H74.1873ZM83.6935 203.032C83.0322 203.032 82.4775 202.808 82.0295 202.36C81.5815 201.912 81.3575 201.357 81.3575 200.696C81.3575 200.035 81.5815 199.48 82.0295 199.032C82.4775 198.584 83.0322 198.36 83.6935 198.36C84.3335 198.36 84.8775 198.584 85.3255 199.032C85.7735 199.48 85.9975 200.035 85.9975 200.696C85.9975 201.357 85.7735 201.912 85.3255 202.36C84.8775 202.808 84.3335 203.032 83.6935 203.032ZM85.4855 205.368V223H81.8375V205.368H85.4855ZM97.091 219.736L102.083 205.368H105.955L99.235 223H94.883L88.195 205.368H92.099L97.091 219.736ZM110.569 203.032C109.907 203.032 109.353 202.808 108.905 202.36C108.457 201.912 108.233 201.357 108.233 200.696C108.233 200.035 108.457 199.48 108.905 199.032C109.353 198.584 109.907 198.36 110.569 198.36C111.209 198.36 111.753 198.584 112.201 199.032C112.649 199.48 112.873 200.035 112.873 200.696C112.873 201.357 112.649 201.912 112.201 202.36C111.753 202.808 111.209 203.032 110.569 203.032ZM112.361 205.368V223H108.713V205.368H112.361ZM115.934 214.104C115.934 212.333 116.297 210.765 117.022 209.4C117.769 208.035 118.771 206.979 120.03 206.232C121.31 205.464 122.729 205.08 124.286 205.08C125.438 205.08 126.569 205.336 127.678 205.848C128.809 206.339 129.705 207 130.366 207.832V199.32H134.046V223H130.366V220.344C129.769 221.197 128.937 221.901 127.87 222.456C126.825 223.011 125.619 223.288 124.254 223.288C122.718 223.288 121.31 222.904 120.03 222.136C118.771 221.347 117.769 220.259 117.022 218.872C116.297 217.464 115.934 215.875 115.934 214.104ZM130.366 214.168C130.366 212.952 130.11 211.896 129.598 211C129.107 210.104 128.457 209.421 127.646 208.952C126.835 208.483 125.961 208.248 125.022 208.248C124.083 208.248 123.209 208.483 122.398 208.952C121.587 209.4 120.926 210.072 120.414 210.968C119.923 211.843 119.678 212.888 119.678 214.104C119.678 215.32 119.923 216.387 120.414 217.304C120.926 218.221 121.587 218.925 122.398 219.416C123.23 219.885 124.105 220.12 125.022 220.12C125.961 220.12 126.835 219.885 127.646 219.416C128.457 218.947 129.107 218.264 129.598 217.368C130.11 216.451 130.366 215.384 130.366 214.168ZM137.622 214.104C137.622 212.333 137.984 210.765 138.71 209.4C139.456 208.035 140.459 206.979 141.718 206.232C142.998 205.464 144.406 205.08 145.942 205.08C147.328 205.08 148.534 205.357 149.558 205.912C150.603 206.445 151.435 207.117 152.054 207.928V205.368H155.734V223H152.054V220.376C151.435 221.208 150.592 221.901 149.526 222.456C148.459 223.011 147.243 223.288 145.878 223.288C144.363 223.288 142.976 222.904 141.718 222.136C140.459 221.347 139.456 220.259 138.71 218.872C137.984 217.464 137.622 215.875 137.622 214.104ZM152.054 214.168C152.054 212.952 151.798 211.896 151.286 211C150.795 210.104 150.144 209.421 149.334 208.952C148.523 208.483 147.648 208.248 146.71 208.248C145.771 208.248 144.896 208.483 144.086 208.952C143.275 209.4 142.614 210.072 142.102 210.968C141.611 211.843 141.366 212.888 141.366 214.104C141.366 215.32 141.611 216.387 142.102 217.304C142.614 218.221 143.275 218.925 144.086 219.416C144.918 219.885 145.792 220.12 146.71 220.12C147.648 220.12 148.523 219.885 149.334 219.416C150.144 218.947 150.795 218.264 151.286 217.368C151.798 216.451 152.054 215.384 152.054 214.168ZM159.309 214.104C159.309 212.333 159.672 210.765 160.397 209.4C161.144 208.035 162.146 206.979 163.405 206.232C164.685 205.464 166.104 205.08 167.661 205.08C168.813 205.08 169.944 205.336 171.053 205.848C172.184 206.339 173.08 207 173.741 207.832V199.32H177.421V223H173.741V220.344C173.144 221.197 172.312 221.901 171.245 222.456C170.2 223.011 168.994 223.288 167.629 223.288C166.093 223.288 164.685 222.904 163.405 222.136C162.146 221.347 161.144 220.259 160.397 218.872C159.672 217.464 159.309 215.875 159.309 214.104ZM173.741 214.168C173.741 212.952 173.485 211.896 172.973 211C172.482 210.104 171.832 209.421 171.021 208.952C170.21 208.483 169.336 208.248 168.397 208.248C167.458 208.248 166.584 208.483 165.773 208.952C164.962 209.4 164.301 210.072 163.789 210.968C163.298 211.843 163.053 212.888 163.053 214.104C163.053 215.32 163.298 216.387 163.789 217.304C164.301 218.221 164.962 218.925 165.773 219.416C166.605 219.885 167.48 220.12 168.397 220.12C169.336 220.12 170.21 219.885 171.021 219.416C171.832 218.947 172.482 218.264 172.973 217.368C173.485 216.451 173.741 215.384 173.741 214.168Z" fill="white"/>
</svg>
