<svg width="202" height="223" viewBox="0 0 202 223" fill="none" xmlns="http://www.w3.org/2000/svg">
<path d="M101 60C114.807 60 126 48.8071 126 35C126 21.1929 114.807 10 101 10C87.1929 10 76 21.1929 76 35C76 48.8071 87.1929 60 101 60Z" stroke="#F8F8F8" stroke-width="9"/>
<path d="M126 110H67.3303C65.9122 110 64.5103 109.699 63.2175 109.116C61.9248 108.533 60.7708 107.682 59.8322 106.619C58.8936 105.556 58.1917 104.306 57.7733 102.951C57.3549 101.596 57.2295 100.167 57.4053 98.76L59.3553 83.14C59.8088 79.5111 61.5724 76.1729 64.3145 73.7531C67.0565 71.3333 70.5882 69.9986 74.2453 70H76.0003M136 65V95M121 80H151" stroke="#F8F8F8" stroke-width="9" stroke-linecap="round" stroke-linejoin="round"/>
<path d="M22.8496 163.984H16.3856V170.608H12.9936V163.984H6.52963V160.912H12.9936V154.288H16.3856V160.912H22.8496V163.984ZM30.0454 169.04C32.0934 167.269 33.704 165.819 34.8774 164.688C36.072 163.536 37.064 162.341 37.8534 161.104C38.6427 159.867 39.0374 158.629 39.0374 157.392C39.0374 156.112 38.728 155.109 38.1094 154.384C37.512 153.659 36.5627 153.296 35.2614 153.296C34.0027 153.296 33.0214 153.701 32.3174 154.512C31.6347 155.301 31.272 156.368 31.2294 157.712H27.7094C27.7734 155.28 28.4987 153.424 29.8854 152.144C31.2934 150.843 33.0747 150.192 35.2294 150.192C37.5547 150.192 39.368 150.832 40.6694 152.112C41.992 153.392 42.6534 155.099 42.6534 157.232C42.6534 158.768 42.2587 160.251 41.4694 161.68C40.7014 163.088 39.7734 164.357 38.6854 165.488C37.6187 166.597 36.2534 167.888 34.5894 169.36L33.1494 170.64H43.2934V173.68H27.7414V171.024L30.0454 169.04ZM46.4981 162.032C46.4981 158.341 47.1168 155.461 48.3541 153.392C49.6128 151.301 51.7675 150.256 54.8181 150.256C57.8688 150.256 60.0128 151.301 61.2501 153.392C62.5088 155.461 63.1381 158.341 63.1381 162.032C63.1381 165.765 62.5088 168.688 61.2501 170.8C60.0128 172.891 57.8688 173.936 54.8181 173.936C51.7675 173.936 49.6128 172.891 48.3541 170.8C47.1168 168.688 46.4981 165.765 46.4981 162.032ZM59.5541 162.032C59.5541 160.304 59.4368 158.843 59.2021 157.648C58.9888 156.453 58.5408 155.483 57.8581 154.736C57.1755 153.968 56.1621 153.584 54.8181 153.584C53.4741 153.584 52.4608 153.968 51.7781 154.736C51.0955 155.483 50.6368 156.453 50.4021 157.648C50.1888 158.843 50.0821 160.304 50.0821 162.032C50.0821 163.824 50.1888 165.328 50.4021 166.544C50.6155 167.76 51.0635 168.741 51.7461 169.488C52.4501 170.235 53.4741 170.608 54.8181 170.608C56.1621 170.608 57.1755 170.235 57.8581 169.488C58.5621 168.741 59.0208 167.76 59.2341 166.544C59.4475 165.328 59.5541 163.824 59.5541 162.032ZM74.5746 165.168C74.5746 163.355 74.9373 161.765 75.6626 160.4C76.4093 159.013 77.4333 157.947 78.7346 157.2C80.036 156.453 81.5293 156.08 83.2146 156.08C85.348 156.08 87.108 156.592 88.4946 157.616C89.9026 158.619 90.852 160.059 91.3426 161.936H87.4066C87.0866 161.061 86.5746 160.379 85.8706 159.888C85.1666 159.397 84.2813 159.152 83.2146 159.152C81.7213 159.152 80.5266 159.685 79.6306 160.752C78.756 161.797 78.3186 163.269 78.3186 165.168C78.3186 167.067 78.756 168.549 79.6306 169.616C80.5266 170.683 81.7213 171.216 83.2146 171.216C85.3266 171.216 86.724 170.288 87.4066 168.432H91.3426C90.8306 170.224 89.8706 171.653 88.4626 172.72C87.0546 173.765 85.3053 174.288 83.2146 174.288C81.5293 174.288 80.036 173.915 78.7346 173.168C77.4333 172.4 76.4093 171.333 75.6626 169.968C74.9373 168.581 74.5746 166.981 74.5746 165.168ZM98.6261 150.32V174H94.9781V150.32H98.6261ZM105.272 154.032C104.61 154.032 104.056 153.808 103.608 153.36C103.16 152.912 102.936 152.357 102.936 151.696C102.936 151.035 103.16 150.48 103.608 150.032C104.056 149.584 104.61 149.36 105.272 149.36C105.912 149.36 106.456 149.584 106.904 150.032C107.352 150.48 107.576 151.035 107.576 151.696C107.576 152.357 107.352 152.912 106.904 153.36C106.456 153.808 105.912 154.032 105.272 154.032ZM107.064 156.368V174H103.416V156.368H107.064ZM128.013 164.752C128.013 165.413 127.97 166.011 127.885 166.544H114.413C114.52 167.952 115.042 169.083 115.981 169.936C116.92 170.789 118.072 171.216 119.437 171.216C121.4 171.216 122.786 170.395 123.597 168.752H127.533C127 170.373 126.029 171.707 124.621 172.752C123.234 173.776 121.506 174.288 119.437 174.288C117.752 174.288 116.237 173.915 114.893 173.168C113.57 172.4 112.525 171.333 111.757 169.968C111.01 168.581 110.637 166.981 110.637 165.168C110.637 163.355 111 161.765 111.725 160.4C112.472 159.013 113.506 157.947 114.829 157.2C116.173 156.453 117.709 156.08 119.437 156.08C121.101 156.08 122.584 156.443 123.885 157.168C125.186 157.893 126.2 158.917 126.925 160.24C127.65 161.541 128.013 163.045 128.013 164.752ZM124.205 163.6C124.184 162.256 123.704 161.179 122.765 160.368C121.826 159.557 120.664 159.152 119.277 159.152C118.018 159.152 116.941 159.557 116.045 160.368C115.149 161.157 114.616 162.235 114.445 163.6H124.205ZM140.499 156.08C141.886 156.08 143.123 156.368 144.211 156.944C145.32 157.52 146.184 158.373 146.803 159.504C147.422 160.635 147.731 162 147.731 163.6V174H144.115V164.144C144.115 162.565 143.72 161.36 142.931 160.528C142.142 159.675 141.064 159.248 139.699 159.248C138.334 159.248 137.246 159.675 136.435 160.528C135.646 161.36 135.251 162.565 135.251 164.144V174H131.603V156.368H135.251V158.384C135.848 157.659 136.606 157.093 137.523 156.688C138.462 156.283 139.454 156.08 140.499 156.08ZM156.64 159.344V169.104C156.64 169.765 156.79 170.245 157.088 170.544C157.408 170.821 157.942 170.96 158.688 170.96H160.928V174H158.048C156.406 174 155.147 173.616 154.272 172.848C153.398 172.08 152.96 170.832 152.96 169.104V159.344H150.88V156.368H152.96V151.984H156.64V156.368H160.928V159.344H156.64ZM180.451 164.752C180.451 165.413 180.408 166.011 180.323 166.544H166.851C166.957 167.952 167.48 169.083 168.419 169.936C169.357 170.789 170.509 171.216 171.875 171.216C173.837 171.216 175.224 170.395 176.035 168.752H179.971C179.437 170.373 178.467 171.707 177.059 172.752C175.672 173.776 173.944 174.288 171.875 174.288C170.189 174.288 168.675 173.915 167.331 173.168C166.008 172.4 164.963 171.333 164.195 169.968C163.448 168.581 163.075 166.981 163.075 165.168C163.075 163.355 163.437 161.765 164.163 160.4C164.909 159.013 165.944 157.947 167.267 157.2C168.611 156.453 170.147 156.08 171.875 156.08C173.539 156.08 175.021 156.443 176.323 157.168C177.624 157.893 178.637 158.917 179.363 160.24C180.088 161.541 180.451 163.045 180.451 164.752ZM176.643 163.6C176.621 162.256 176.141 161.179 175.203 160.368C174.264 159.557 173.101 159.152 171.715 159.152C170.456 159.152 169.379 159.557 168.483 160.368C167.587 161.157 167.053 162.235 166.883 163.6H176.643ZM190.441 174.288C189.054 174.288 187.806 174.043 186.697 173.552C185.609 173.04 184.745 172.357 184.105 171.504C183.465 170.629 183.123 169.659 183.081 168.592H186.857C186.921 169.339 187.273 169.968 187.913 170.48C188.574 170.971 189.395 171.216 190.377 171.216C191.401 171.216 192.19 171.024 192.745 170.64C193.321 170.235 193.609 169.723 193.609 169.104C193.609 168.443 193.289 167.952 192.649 167.632C192.03 167.312 191.038 166.96 189.673 166.576C188.35 166.213 187.273 165.861 186.441 165.52C185.609 165.179 184.883 164.656 184.265 163.952C183.667 163.248 183.369 162.32 183.369 161.168C183.369 160.229 183.646 159.376 184.201 158.608C184.755 157.819 185.545 157.2 186.569 156.752C187.614 156.304 188.809 156.08 190.153 156.08C192.158 156.08 193.769 156.592 194.985 157.616C196.222 158.619 196.883 159.995 196.969 161.744H193.321C193.257 160.955 192.937 160.325 192.361 159.856C191.785 159.387 191.006 159.152 190.025 159.152C189.065 159.152 188.329 159.333 187.817 159.696C187.305 160.059 187.049 160.539 187.049 161.136C187.049 161.605 187.219 162 187.561 162.32C187.902 162.64 188.318 162.896 188.809 163.088C189.299 163.259 190.025 163.483 190.985 163.76C192.265 164.101 193.31 164.453 194.121 164.816C194.953 165.157 195.667 165.669 196.265 166.352C196.862 167.035 197.171 167.941 197.193 169.072C197.193 170.075 196.915 170.971 196.361 171.76C195.806 172.549 195.017 173.168 193.993 173.616C192.99 174.064 191.806 174.288 190.441 174.288ZM17.7688 222.288C16.3821 222.288 15.1341 222.043 14.0248 221.552C12.9368 221.04 12.0728 220.357 11.4328 219.504C10.7928 218.629 10.4514 217.659 10.4088 216.592H14.1848C14.2488 217.339 14.6008 217.968 15.2408 218.48C15.9021 218.971 16.7234 219.216 17.7048 219.216C18.7288 219.216 19.5181 219.024 20.0728 218.64C20.6488 218.235 20.9368 217.723 20.9368 217.104C20.9368 216.443 20.6168 215.952 19.9768 215.632C19.3581 215.312 18.3661 214.96 17.0008 214.576C15.6781 214.213 14.6008 213.861 13.7688 213.52C12.9368 213.179 12.2114 212.656 11.5928 211.952C10.9954 211.248 10.6968 210.32 10.6968 209.168C10.6968 208.229 10.9741 207.376 11.5288 206.608C12.0834 205.819 12.8728 205.2 13.8968 204.752C14.9421 204.304 16.1368 204.08 17.4808 204.08C19.4861 204.08 21.0968 204.592 22.3128 205.616C23.5501 206.619 24.2114 207.995 24.2968 209.744H20.6488C20.5848 208.955 20.2648 208.325 19.6888 207.856C19.1128 207.387 18.3341 207.152 17.3528 207.152C16.3928 207.152 15.6568 207.333 15.1448 207.696C14.6328 208.059 14.3768 208.539 14.3768 209.136C14.3768 209.605 14.5474 210 14.8888 210.32C15.2301 210.64 15.6461 210.896 16.1368 211.088C16.6274 211.259 17.3528 211.483 18.3128 211.76C19.5928 212.101 20.6381 212.453 21.4488 212.816C22.2808 213.157 22.9954 213.669 23.5928 214.352C24.1901 215.035 24.4994 215.941 24.5208 217.072C24.5208 218.075 24.2434 218.971 23.6888 219.76C23.1341 220.549 22.3448 221.168 21.3208 221.616C20.3181 222.064 19.1341 222.288 17.7688 222.288ZM27.2465 213.104C27.2465 211.333 27.6092 209.765 28.3345 208.4C29.0812 207.035 30.0838 205.979 31.3425 205.232C32.6225 204.464 34.0305 204.08 35.5665 204.08C36.9532 204.08 38.1585 204.357 39.1825 204.912C40.2278 205.445 41.0598 206.117 41.6785 206.928V204.368H45.3585V222H41.6785V219.376C41.0598 220.208 40.2172 220.901 39.1505 221.456C38.0838 222.011 36.8678 222.288 35.5025 222.288C33.9878 222.288 32.6012 221.904 31.3425 221.136C30.0838 220.347 29.0812 219.259 28.3345 217.872C27.6092 216.464 27.2465 214.875 27.2465 213.104ZM41.6785 213.168C41.6785 211.952 41.4225 210.896 40.9105 210C40.4198 209.104 39.7692 208.421 38.9585 207.952C38.1478 207.483 37.2732 207.248 36.3345 207.248C35.3958 207.248 34.5212 207.483 33.7105 207.952C32.8998 208.4 32.2385 209.072 31.7265 209.968C31.2358 210.843 30.9905 211.888 30.9905 213.104C30.9905 214.32 31.2358 215.387 31.7265 216.304C32.2385 217.221 32.8998 217.925 33.7105 218.416C34.5425 218.885 35.4172 219.12 36.3345 219.12C37.2732 219.12 38.1478 218.885 38.9585 218.416C39.7692 217.947 40.4198 217.264 40.9105 216.368C41.4225 215.451 41.6785 214.384 41.6785 213.168ZM56.55 222.288C55.1633 222.288 53.9153 222.043 52.806 221.552C51.718 221.04 50.854 220.357 50.214 219.504C49.574 218.629 49.2327 217.659 49.19 216.592H52.966C53.03 217.339 53.382 217.968 54.022 218.48C54.6833 218.971 55.5047 219.216 56.486 219.216C57.51 219.216 58.2993 219.024 58.854 218.64C59.43 218.235 59.718 217.723 59.718 217.104C59.718 216.443 59.398 215.952 58.758 215.632C58.1393 215.312 57.1473 214.96 55.782 214.576C54.4593 214.213 53.382 213.861 52.55 213.52C51.718 213.179 50.9927 212.656 50.374 211.952C49.7767 211.248 49.478 210.32 49.478 209.168C49.478 208.229 49.7553 207.376 50.31 206.608C50.8647 205.819 51.654 205.2 52.678 204.752C53.7233 204.304 54.918 204.08 56.262 204.08C58.2673 204.08 59.878 204.592 61.094 205.616C62.3313 206.619 62.9927 207.995 63.078 209.744H59.43C59.366 208.955 59.046 208.325 58.47 207.856C57.894 207.387 57.1153 207.152 56.134 207.152C55.174 207.152 54.438 207.333 53.926 207.696C53.414 208.059 53.158 208.539 53.158 209.136C53.158 209.605 53.3287 210 53.67 210.32C54.0113 210.64 54.4273 210.896 54.918 211.088C55.4087 211.259 56.134 211.483 57.094 211.76C58.374 212.101 59.4193 212.453 60.23 212.816C61.062 213.157 61.7767 213.669 62.374 214.352C62.9713 215.035 63.2807 215.941 63.302 217.072C63.302 218.075 63.0247 218.971 62.47 219.76C61.9153 220.549 61.126 221.168 60.102 221.616C59.0993 222.064 57.9153 222.288 56.55 222.288ZM71.4998 207.344V217.104C71.4998 217.765 71.6491 218.245 71.9478 218.544C72.2678 218.821 72.8011 218.96 73.5478 218.96H75.7878V222H72.9078C71.2651 222 70.0064 221.616 69.1318 220.848C68.2571 220.08 67.8198 218.832 67.8198 217.104V207.344H65.7398V204.368H67.8198V199.984H71.4998V204.368H75.7878V207.344H71.4998ZM81.006 202.032C80.3447 202.032 79.79 201.808 79.342 201.36C78.894 200.912 78.67 200.357 78.67 199.696C78.67 199.035 78.894 198.48 79.342 198.032C79.79 197.584 80.3447 197.36 81.006 197.36C81.646 197.36 82.19 197.584 82.638 198.032C83.086 198.48 83.31 199.035 83.31 199.696C83.31 200.357 83.086 200.912 82.638 201.36C82.19 201.808 81.646 202.032 81.006 202.032ZM82.798 204.368V222H79.15V204.368H82.798ZM94.9795 207.344H91.7155V222H88.0355V207.344H85.9555V204.368H88.0355V203.12C88.0355 201.093 88.5688 199.621 89.6355 198.704C90.7235 197.765 92.4195 197.296 94.7235 197.296V200.336C93.6142 200.336 92.8355 200.549 92.3875 200.976C91.9395 201.381 91.7155 202.096 91.7155 203.12V204.368H94.9795V207.344ZM114.373 212.752C114.373 213.413 114.33 214.011 114.245 214.544H100.773C100.879 215.952 101.402 217.083 102.341 217.936C103.279 218.789 104.431 219.216 105.797 219.216C107.759 219.216 109.146 218.395 109.957 216.752H113.892C113.359 218.373 112.389 219.707 110.981 220.752C109.594 221.776 107.866 222.288 105.797 222.288C104.111 222.288 102.597 221.915 101.253 221.168C99.9298 220.4 98.8845 219.333 98.1165 217.968C97.3698 216.581 96.9965 214.981 96.9965 213.168C96.9965 211.355 97.3592 209.765 98.0845 208.4C98.8312 207.013 99.8658 205.947 101.189 205.2C102.533 204.453 104.069 204.08 105.797 204.08C107.461 204.08 108.943 204.443 110.245 205.168C111.546 205.893 112.559 206.917 113.285 208.24C114.01 209.541 114.373 211.045 114.373 212.752ZM110.565 211.6C110.543 210.256 110.063 209.179 109.125 208.368C108.186 207.557 107.023 207.152 105.637 207.152C104.378 207.152 103.301 207.557 102.405 208.368C101.509 209.157 100.975 210.235 100.805 211.6H110.565ZM116.747 213.168C116.747 211.355 117.109 209.765 117.835 208.4C118.581 207.013 119.605 205.947 120.907 205.2C122.208 204.453 123.701 204.08 125.387 204.08C127.52 204.08 129.28 204.592 130.667 205.616C132.075 206.619 133.024 208.059 133.515 209.936H129.579C129.259 209.061 128.747 208.379 128.043 207.888C127.339 207.397 126.453 207.152 125.387 207.152C123.893 207.152 122.699 207.685 121.803 208.752C120.928 209.797 120.491 211.269 120.491 213.168C120.491 215.067 120.928 216.549 121.803 217.616C122.699 218.683 123.893 219.216 125.387 219.216C127.499 219.216 128.896 218.288 129.579 216.432H133.515C133.003 218.224 132.043 219.653 130.635 220.72C129.227 221.765 127.477 222.288 125.387 222.288C123.701 222.288 122.208 221.915 120.907 221.168C119.605 220.4 118.581 219.333 117.835 217.968C117.109 216.581 116.747 214.981 116.747 213.168ZM146.27 204.08C147.614 204.08 148.809 204.368 149.854 204.944C150.921 205.52 151.753 206.373 152.35 207.504C152.969 208.635 153.278 210 153.278 211.6V222H149.662V212.144C149.662 210.565 149.267 209.36 148.478 208.528C147.689 207.675 146.611 207.248 145.246 207.248C143.881 207.248 142.793 207.675 141.982 208.528C141.193 209.36 140.798 210.565 140.798 212.144V222H137.15V198.32H140.798V206.416C141.417 205.669 142.195 205.093 143.134 204.688C144.094 204.283 145.139 204.08 146.27 204.08ZM165.579 222.288C163.915 222.288 162.411 221.915 161.067 221.168C159.723 220.4 158.667 219.333 157.899 217.968C157.131 216.581 156.747 214.981 156.747 213.168C156.747 211.376 157.142 209.787 157.931 208.4C158.721 207.013 159.798 205.947 161.163 205.2C162.529 204.453 164.054 204.08 165.739 204.08C167.425 204.08 168.95 204.453 170.315 205.2C171.681 205.947 172.758 207.013 173.547 208.4C174.337 209.787 174.731 211.376 174.731 213.168C174.731 214.96 174.326 216.549 173.515 217.936C172.705 219.323 171.595 220.4 170.187 221.168C168.801 221.915 167.265 222.288 165.579 222.288ZM165.579 219.12C166.518 219.12 167.393 218.896 168.203 218.448C169.035 218 169.707 217.328 170.219 216.432C170.731 215.536 170.987 214.448 170.987 213.168C170.987 211.888 170.742 210.811 170.251 209.936C169.761 209.04 169.11 208.368 168.299 207.92C167.489 207.472 166.614 207.248 165.675 207.248C164.737 207.248 163.862 207.472 163.051 207.92C162.262 208.368 161.633 209.04 161.163 209.936C160.694 210.811 160.459 211.888 160.459 213.168C160.459 215.067 160.939 216.539 161.899 217.584C162.881 218.608 164.107 219.12 165.579 219.12ZM184.738 222.288C183.351 222.288 182.103 222.043 180.994 221.552C179.906 221.04 179.042 220.357 178.402 219.504C177.762 218.629 177.42 217.659 177.378 216.592H181.154C181.218 217.339 181.57 217.968 182.21 218.48C182.871 218.971 183.692 219.216 184.674 219.216C185.698 219.216 186.487 219.024 187.042 218.64C187.618 218.235 187.906 217.723 187.906 217.104C187.906 216.443 187.586 215.952 186.946 215.632C186.327 215.312 185.335 214.96 183.97 214.576C182.647 214.213 181.57 213.861 180.738 213.52C179.906 213.179 179.18 212.656 178.562 211.952C177.964 211.248 177.666 210.32 177.666 209.168C177.666 208.229 177.943 207.376 178.498 206.608C179.052 205.819 179.842 205.2 180.866 204.752C181.911 204.304 183.106 204.08 184.45 204.08C186.455 204.08 188.066 204.592 189.282 205.616C190.519 206.619 191.18 207.995 191.266 209.744H187.618C187.554 208.955 187.234 208.325 186.658 207.856C186.082 207.387 185.303 207.152 184.322 207.152C183.362 207.152 182.626 207.333 182.114 207.696C181.602 208.059 181.346 208.539 181.346 209.136C181.346 209.605 181.516 210 181.858 210.32C182.199 210.64 182.615 210.896 183.106 211.088C183.596 211.259 184.322 211.483 185.282 211.76C186.562 212.101 187.607 212.453 188.418 212.816C189.25 213.157 189.964 213.669 190.562 214.352C191.159 215.035 191.468 215.941 191.49 217.072C191.49 218.075 191.212 218.971 190.658 219.76C190.103 220.549 189.314 221.168 188.29 221.616C187.287 222.064 186.103 222.288 184.738 222.288Z" fill="white"/>
</svg>
