<svg width="111" height="111" viewBox="0 0 111 111" fill="none" xmlns="http://www.w3.org/2000/svg">
<g clip-path="url(#clip0_30_25)">
<path d="M85.2619 47.3485C81.8136 40.89 76.3593 35.7275 69.7212 32.6391C63.083 29.5508 55.6209 28.7039 48.4595 30.2263C41.2981 31.7487 34.8257 35.5578 30.0179 41.0794C25.2101 46.6009 22.3275 53.5358 21.8046 60.8384C15.8504 61.4812 10.3688 64.3811 6.48723 68.9418C2.60567 73.5024 0.619224 79.377 0.936437 85.3574C1.25365 91.3379 3.85041 96.9694 8.19264 101.094C12.5349 105.218 18.2925 107.522 24.2813 107.531H79.7813C87.3573 107.54 94.6625 104.714 100.26 99.6094C105.858 94.5044 109.343 87.4897 110.03 79.945C110.717 72.4002 108.556 64.8714 103.973 58.8392C99.3895 52.8071 92.7149 48.7081 85.2619 47.3485ZM79.7813 102.328H24.2813C19.6603 102.348 15.2052 100.607 11.8231 97.4579C8.441 94.3091 6.38605 89.9896 6.07661 85.3789C5.76717 80.7683 7.22649 76.213 10.1575 72.6404C13.0885 69.0678 17.2709 66.7465 21.8532 66.1491C22.2199 70.7411 23.5232 75.2093 25.6827 79.2783C25.8444 79.5794 26.0638 79.8457 26.3284 80.062C26.5931 80.2783 26.8977 80.4404 27.225 80.5389C27.5522 80.6375 27.8957 80.6706 28.2357 80.6365C28.5758 80.6023 28.9058 80.5015 29.2069 80.3398C29.508 80.178 29.7743 79.9586 29.9906 79.694C30.2069 79.4294 30.369 79.1247 30.4675 78.7975C30.5661 78.4702 30.5992 78.1267 30.5651 77.7867C30.5309 77.4466 30.4301 77.1166 30.2683 76.8155C26.8336 70.3876 25.9808 62.8914 27.8839 55.8562C29.7869 48.821 34.3024 42.777 40.5092 38.9572C46.716 35.1373 54.1464 33.8295 61.2844 35.3006C68.4224 36.7716 74.7303 40.9106 78.921 46.8733C74.7637 46.9879 70.6742 47.9553 66.9061 49.7155C63.138 51.4757 59.7717 53.9913 57.0159 57.1061C56.7762 57.3598 56.5901 57.6592 56.4685 57.9864C56.347 58.3136 56.2925 58.6618 56.3084 59.0105C56.3242 59.3592 56.4101 59.7011 56.5608 60.0159C56.7115 60.3307 56.9241 60.612 57.1858 60.8429C57.4475 61.0739 57.7529 61.2498 58.084 61.3603C58.4151 61.4707 58.7651 61.5134 59.113 61.4858C59.4609 61.4582 59.7998 61.3608 60.1093 61.1996C60.4188 61.0383 60.6928 60.8164 60.9148 60.5471C63.6941 57.3951 67.2189 54.9899 71.1672 53.5512C75.1155 52.1124 79.3614 51.686 83.517 52.3109C87.6725 52.9358 91.6053 54.592 94.9558 57.1283C98.3064 59.6646 100.968 63.0001 102.697 66.83C104.427 70.66 105.169 74.8622 104.856 79.0528C104.543 83.2434 103.185 87.2888 100.906 90.8193C98.6265 94.3498 95.499 97.2529 91.8088 99.2634C88.1187 101.274 83.9836 102.328 79.7813 102.328ZM110.646 35.5721C110.474 35.2726 110.244 35.0101 109.97 34.7996C109.696 34.589 109.383 34.4346 109.049 34.345C108.716 34.2554 108.367 34.2325 108.025 34.2776C107.682 34.3227 107.352 34.4349 107.053 34.6078L96.577 40.6573C96.264 40.8226 95.9877 41.0494 95.7644 41.3241C95.5411 41.5987 95.3754 41.9155 95.2774 42.2556C95.1793 42.5957 95.1509 42.9521 95.1937 43.3035C95.2365 43.6548 95.3497 43.9939 95.5266 44.3005C95.7035 44.6071 95.9403 44.8749 96.223 45.0879C96.5058 45.3009 96.8285 45.4546 97.172 45.54C97.5155 45.6254 97.8727 45.6406 98.2222 45.5848C98.5718 45.529 98.9065 45.4033 99.2063 45.2152L109.682 39.1657C110.286 38.8167 110.727 38.2422 110.908 37.5684C111.088 36.8946 110.994 36.1766 110.646 35.5721ZM78.6574 27.2991C78.9568 27.4725 79.2874 27.5851 79.6304 27.6305C79.9734 27.6759 80.3219 27.6531 80.6561 27.5635C80.9903 27.474 81.3035 27.3193 81.5778 27.1085C81.852 26.8976 82.082 26.6347 82.2545 26.3348L88.304 15.8592C88.6224 15.2568 88.6948 14.5544 88.506 13.8997C88.3173 13.245 87.882 12.689 87.2918 12.3485C86.7016 12.008 86.0024 11.9096 85.3412 12.074C84.6799 12.2384 84.1082 12.6527 83.7461 13.2299L77.6966 23.7055C77.3481 24.3096 77.2536 25.0273 77.4337 25.701C77.6138 26.3748 78.0539 26.9495 78.6574 27.2991ZM55.5 21.0935C55.8458 21.0935 56.1881 21.0254 56.5076 20.8931C56.827 20.7608 57.1172 20.5669 57.3617 20.3224C57.6062 20.0779 57.8001 19.7877 57.9324 19.4683C58.0647 19.1488 58.1328 18.8065 58.1328 18.4607V6.3652C58.1328 5.66695 57.8554 4.99729 57.3617 4.50355C56.868 4.0098 56.1983 3.73242 55.5 3.73242C54.8018 3.73242 54.1321 4.0098 53.6384 4.50355C53.1446 4.99729 52.8673 5.66695 52.8673 6.3652V18.4607C52.8668 18.8068 52.9346 19.1495 53.0667 19.4693C53.1988 19.7891 53.3926 20.0798 53.6371 20.3246C53.8817 20.5695 54.1721 20.7637 54.4917 20.8962C54.8114 21.0288 55.154 21.097 55.5 21.097V21.0935ZM28.7456 26.3348C29.1045 26.9195 29.6775 27.341 30.3425 27.5095C31.0075 27.6781 31.7121 27.5804 32.3062 27.2372C32.9003 26.8941 33.3369 26.3326 33.5232 25.6723C33.7095 25.012 33.6306 24.3051 33.3035 23.702L27.254 13.2264C27.0823 12.9244 26.8526 12.6593 26.578 12.4465C26.3034 12.2337 25.9894 12.0774 25.6541 11.9865C25.3188 11.8956 24.9689 11.8719 24.6244 11.9169C24.2799 11.9619 23.9478 12.0746 23.647 12.2485C23.3463 12.4224 23.083 12.6542 22.8723 12.9303C22.6615 13.2065 22.5075 13.5216 22.4191 13.8576C22.3307 14.1935 22.3097 14.5437 22.3572 14.8878C22.4047 15.2319 22.5199 15.5632 22.6961 15.8626L28.7456 26.3348ZM14.4231 40.6573L3.94747 34.6078C3.64764 34.4197 3.31295 34.2939 2.96343 34.2381C2.6139 34.1823 2.25671 34.1976 1.91321 34.283C1.5697 34.3683 1.24695 34.5221 0.964229 34.7351C0.681511 34.948 0.444639 35.2158 0.267774 35.5224C0.0909084 35.829 -0.0223183 36.1681 -0.065137 36.5195C-0.107956 36.8708 -0.0794872 37.2272 0.0185666 37.5673C0.11662 37.9074 0.282246 38.2243 0.505541 38.4989C0.728837 38.7735 1.00522 39.0003 1.31816 39.1657L11.7938 45.2152C12.0935 45.3992 12.427 45.5212 12.7747 45.5742C13.1223 45.6272 13.4771 45.6099 13.818 45.5235C14.1588 45.4371 14.479 45.2833 14.7594 45.0712C15.0399 44.859 15.275 44.5928 15.4509 44.2883C15.6268 43.9838 15.7399 43.6471 15.7836 43.2982C15.8272 42.9492 15.8005 42.5951 15.705 42.2566C15.6095 41.9182 15.4472 41.6023 15.2276 41.3276C15.0081 41.0529 14.7357 40.825 14.4266 40.6573H14.4231Z" fill="black"/>
</g>
<defs>
<clipPath id="clip0_30_25">
<rect width="111" height="111" fill="white"/>
</clipPath>
</defs>
</svg>
