<svg width="198" height="224" viewBox="0 0 198 224" fill="none" xmlns="http://www.w3.org/2000/svg">
<path d="M139 55C139 44.3913 134.786 34.2172 127.284 26.7157C119.783 19.2143 109.609 15 99 15C88.3913 15 78.2172 19.2143 70.7157 26.7157C63.2143 34.2172 59 44.3913 59 55" stroke="#F8F8F8" stroke-width="9" stroke-linecap="round" stroke-linejoin="round"/>
<path d="M139 90V92.5C139 95.1522 137.946 97.6957 136.071 99.5711C134.196 101.446 131.652 102.5 129 102.5H111.5M49 77.19V67.81C49.0003 65.58 49.746 63.4142 51.1185 61.6566C52.491 59.8991 54.4116 58.6508 56.575 58.11L65.275 55.93C65.7171 55.8199 66.1784 55.8119 66.6241 55.9067C67.0697 56.0015 67.4879 56.1965 67.8469 56.4769C68.2059 56.7574 68.4963 57.116 68.6961 57.5254C68.8959 57.9348 68.9998 58.3844 69 58.84V86.155C69.0008 86.6115 68.8974 87.0622 68.6976 87.4728C68.4979 87.8833 68.207 88.2428 67.8473 88.524C67.4876 88.8051 67.0684 89.0004 66.6218 89.095C66.1752 89.1896 65.7128 89.1811 65.27 89.07L56.57 86.895C54.4075 86.3533 52.4881 85.1045 51.1166 83.3471C49.745 81.5896 49.0001 79.4243 49 77.195V77.19ZM149 77.19V67.81C149 65.58 148.254 63.4142 146.881 61.6566C145.509 59.8991 143.588 58.6508 141.425 58.11L132.725 55.93C132.283 55.8199 131.822 55.8119 131.376 55.9067C130.93 56.0015 130.512 56.1965 130.153 56.4769C129.794 56.7574 129.504 57.116 129.304 57.5254C129.104 57.9348 129 58.3844 129 58.84V86.155C128.999 86.611 129.103 87.0611 129.302 87.4712C129.502 87.8813 129.792 88.2405 130.151 88.5215C130.51 88.8025 130.929 88.998 131.375 89.093C131.821 89.1881 132.283 89.1802 132.725 89.07L141.425 86.895C143.588 86.3542 145.509 85.1059 146.881 83.3483C148.254 81.5908 149 79.4249 149 77.195V77.19Z" stroke="#F8F8F8" stroke-width="9"/>
<path d="M106.5 110H91.5C89.5109 110 87.6032 109.21 86.1967 107.803C84.7902 106.397 84 104.489 84 102.5C84 100.511 84.7902 98.6032 86.1967 97.1967C87.6032 95.7902 89.5109 95 91.5 95H106.5C108.489 95 110.397 95.7902 111.803 97.1967C113.21 98.6032 114 100.511 114 102.5C114 104.489 113.21 106.397 111.803 107.803C110.397 109.21 108.489 110 106.5 110Z" stroke="#F8F8F8" stroke-width="9"/>
<path d="M86.6934 164.984H80.2294V171.608H76.8374V164.984H70.3734V161.912H76.8374V155.288H80.2294V161.912H86.6934V164.984ZM106.913 154.808H96.1931V161.176C96.6411 160.579 97.3025 160.077 98.1771 159.672C99.0731 159.267 100.022 159.064 101.025 159.064C102.817 159.064 104.268 159.448 105.377 160.216C106.508 160.984 107.308 161.955 107.777 163.128C108.268 164.301 108.513 165.539 108.513 166.84C108.513 168.419 108.204 169.827 107.585 171.064C106.988 172.28 106.081 173.24 104.865 173.944C103.67 174.648 102.198 175 100.449 175C98.1238 175 96.2571 174.424 94.8491 173.272C93.4411 172.12 92.5985 170.595 92.3211 168.696H95.8731C96.1078 169.699 96.6305 170.499 97.4411 171.096C98.2518 171.672 99.2651 171.96 100.481 171.96C101.996 171.96 103.126 171.501 103.873 170.584C104.641 169.667 105.025 168.451 105.025 166.936C105.025 165.4 104.641 164.227 103.873 163.416C103.105 162.584 101.974 162.168 100.481 162.168C99.4358 162.168 98.5505 162.435 97.8251 162.968C97.1211 163.48 96.6091 164.184 96.2891 165.08H92.8331V151.608H106.913V154.808ZM112.311 163.032C112.311 159.341 112.929 156.461 114.167 154.392C115.425 152.301 117.58 151.256 120.631 151.256C123.681 151.256 125.825 152.301 127.063 154.392C128.321 156.461 128.951 159.341 128.951 163.032C128.951 166.765 128.321 169.688 127.063 171.8C125.825 173.891 123.681 174.936 120.631 174.936C117.58 174.936 115.425 173.891 114.167 171.8C112.929 169.688 112.311 166.765 112.311 163.032ZM125.367 163.032C125.367 161.304 125.249 159.843 125.015 158.648C124.801 157.453 124.353 156.483 123.671 155.736C122.988 154.968 121.975 154.584 120.631 154.584C119.287 154.584 118.273 154.968 117.591 155.736C116.908 156.483 116.449 157.453 116.215 158.648C116.001 159.843 115.895 161.304 115.895 163.032C115.895 164.824 116.001 166.328 116.215 167.544C116.428 168.76 116.876 169.741 117.559 170.488C118.263 171.235 119.287 171.608 120.631 171.608C121.975 171.608 122.988 171.235 123.671 170.488C124.375 169.741 124.833 168.76 125.047 167.544C125.26 166.328 125.367 164.824 125.367 163.032ZM21.4965 214.168C21.4965 212.355 21.8592 210.765 22.5845 209.4C23.3312 208.013 24.3552 206.947 25.6565 206.2C26.9578 205.453 28.4512 205.08 30.1365 205.08C32.2698 205.08 34.0298 205.592 35.4165 206.616C36.8245 207.619 37.7738 209.059 38.2645 210.936H34.3285C34.0085 210.061 33.4965 209.379 32.7925 208.888C32.0885 208.397 31.2032 208.152 30.1365 208.152C28.6432 208.152 27.4485 208.685 26.5525 209.752C25.6778 210.797 25.2405 212.269 25.2405 214.168C25.2405 216.067 25.6778 217.549 26.5525 218.616C27.4485 219.683 28.6432 220.216 30.1365 220.216C32.2485 220.216 33.6458 219.288 34.3285 217.432H38.2645C37.7525 219.224 36.7925 220.653 35.3845 221.72C33.9765 222.765 32.2272 223.288 30.1365 223.288C28.4512 223.288 26.9578 222.915 25.6565 222.168C24.3552 221.4 23.3312 220.333 22.5845 218.968C21.8592 217.581 21.4965 215.981 21.4965 214.168ZM49.548 223.288C47.884 223.288 46.38 222.915 45.036 222.168C43.692 221.4 42.636 220.333 41.868 218.968C41.1 217.581 40.716 215.981 40.716 214.168C40.716 212.376 41.1107 210.787 41.9 209.4C42.6893 208.013 43.7667 206.947 45.132 206.2C46.4973 205.453 48.0227 205.08 49.708 205.08C51.3933 205.08 52.9187 205.453 54.284 206.2C55.6493 206.947 56.7267 208.013 57.516 209.4C58.3053 210.787 58.7 212.376 58.7 214.168C58.7 215.96 58.2947 217.549 57.484 218.936C56.6733 220.323 55.564 221.4 54.156 222.168C52.7693 222.915 51.2333 223.288 49.548 223.288ZM49.548 220.12C50.4867 220.12 51.3613 219.896 52.172 219.448C53.004 219 53.676 218.328 54.188 217.432C54.7 216.536 54.956 215.448 54.956 214.168C54.956 212.888 54.7107 211.811 54.22 210.936C53.7293 210.04 53.0787 209.368 52.268 208.92C51.4573 208.472 50.5827 208.248 49.644 208.248C48.7053 208.248 47.8307 208.472 47.02 208.92C46.2307 209.368 45.6013 210.04 45.132 210.936C44.6627 211.811 44.428 212.888 44.428 214.168C44.428 216.067 44.908 217.539 45.868 218.584C46.8493 219.608 48.076 220.12 49.548 220.12ZM71.2023 205.08C72.5889 205.08 73.8263 205.368 74.9143 205.944C76.0236 206.52 76.8876 207.373 77.5063 208.504C78.1249 209.635 78.4343 211 78.4343 212.6V223H74.8183V213.144C74.8183 211.565 74.4236 210.36 73.6343 209.528C72.8449 208.675 71.7676 208.248 70.4023 208.248C69.0369 208.248 67.9489 208.675 67.1383 209.528C66.3489 210.36 65.9543 211.565 65.9543 213.144V223H62.3063V205.368H65.9543V207.384C66.5516 206.659 67.3089 206.093 68.2263 205.688C69.1649 205.283 70.1569 205.08 71.2023 205.08ZM89.4875 223.288C88.1008 223.288 86.8528 223.043 85.7435 222.552C84.6555 222.04 83.7915 221.357 83.1515 220.504C82.5115 219.629 82.1702 218.659 82.1275 217.592H85.9035C85.9675 218.339 86.3195 218.968 86.9595 219.48C87.6208 219.971 88.4422 220.216 89.4235 220.216C90.4475 220.216 91.2368 220.024 91.7915 219.64C92.3675 219.235 92.6555 218.723 92.6555 218.104C92.6555 217.443 92.3355 216.952 91.6955 216.632C91.0768 216.312 90.0848 215.96 88.7195 215.576C87.3968 215.213 86.3195 214.861 85.4875 214.52C84.6555 214.179 83.9302 213.656 83.3115 212.952C82.7142 212.248 82.4155 211.32 82.4155 210.168C82.4155 209.229 82.6928 208.376 83.2475 207.608C83.8022 206.819 84.5915 206.2 85.6155 205.752C86.6608 205.304 87.8555 205.08 89.1995 205.08C91.2048 205.08 92.8155 205.592 94.0315 206.616C95.2688 207.619 95.9302 208.995 96.0155 210.744H92.3675C92.3035 209.955 91.9835 209.325 91.4075 208.856C90.8315 208.387 90.0528 208.152 89.0715 208.152C88.1115 208.152 87.3755 208.333 86.8635 208.696C86.3515 209.059 86.0955 209.539 86.0955 210.136C86.0955 210.605 86.2662 211 86.6075 211.32C86.9488 211.64 87.3648 211.896 87.8555 212.088C88.3462 212.259 89.0715 212.483 90.0315 212.76C91.3115 213.101 92.3568 213.453 93.1675 213.816C93.9995 214.157 94.7142 214.669 95.3115 215.352C95.9088 216.035 96.2182 216.941 96.2395 218.072C96.2395 219.075 95.9622 219.971 95.4075 220.76C94.8528 221.549 94.0635 222.168 93.0395 222.616C92.0368 223.064 90.8528 223.288 89.4875 223.288ZM116.149 205.368V223H112.501V220.92C111.925 221.645 111.168 222.221 110.229 222.648C109.312 223.053 108.331 223.256 107.285 223.256C105.899 223.256 104.651 222.968 103.541 222.392C102.453 221.816 101.589 220.963 100.949 219.832C100.331 218.701 100.021 217.336 100.021 215.736V205.368H103.637V215.192C103.637 216.771 104.032 217.987 104.821 218.84C105.611 219.672 106.688 220.088 108.053 220.088C109.419 220.088 110.496 219.672 111.285 218.84C112.096 217.987 112.501 216.771 112.501 215.192V205.368H116.149ZM124.611 199.32V223H120.963V199.32H124.611ZM133.656 208.344V218.104C133.656 218.765 133.805 219.245 134.104 219.544C134.424 219.821 134.957 219.96 135.704 219.96H137.944V223H135.064C133.421 223 132.163 222.616 131.288 221.848C130.413 221.08 129.976 219.832 129.976 218.104V208.344H127.896V205.368H129.976V200.984H133.656V205.368H137.944V208.344H133.656ZM140.09 214.104C140.09 212.333 140.453 210.765 141.178 209.4C141.925 208.035 142.928 206.979 144.186 206.232C145.466 205.464 146.874 205.08 148.41 205.08C149.797 205.08 151.002 205.357 152.026 205.912C153.072 206.445 153.904 207.117 154.522 207.928V205.368H158.202V223H154.522V220.376C153.904 221.208 153.061 221.901 151.994 222.456C150.928 223.011 149.712 223.288 148.346 223.288C146.832 223.288 145.445 222.904 144.186 222.136C142.928 221.347 141.925 220.259 141.178 218.872C140.453 217.464 140.09 215.875 140.09 214.104ZM154.522 214.168C154.522 212.952 154.266 211.896 153.754 211C153.264 210.104 152.613 209.421 151.802 208.952C150.992 208.483 150.117 208.248 149.178 208.248C148.24 208.248 147.365 208.483 146.554 208.952C145.744 209.4 145.082 210.072 144.57 210.968C144.08 211.843 143.834 212.888 143.834 214.104C143.834 215.32 144.08 216.387 144.57 217.304C145.082 218.221 145.744 218.925 146.554 219.416C147.386 219.885 148.261 220.12 149.178 220.12C150.117 220.12 150.992 219.885 151.802 219.416C152.613 218.947 153.264 218.264 153.754 217.368C154.266 216.451 154.522 215.384 154.522 214.168ZM169.394 223.288C168.007 223.288 166.759 223.043 165.65 222.552C164.562 222.04 163.698 221.357 163.058 220.504C162.418 219.629 162.076 218.659 162.034 217.592H165.81C165.874 218.339 166.226 218.968 166.866 219.48C167.527 219.971 168.348 220.216 169.33 220.216C170.354 220.216 171.143 220.024 171.698 219.64C172.274 219.235 172.562 218.723 172.562 218.104C172.562 217.443 172.242 216.952 171.602 216.632C170.983 216.312 169.991 215.96 168.626 215.576C167.303 215.213 166.226 214.861 165.394 214.52C164.562 214.179 163.836 213.656 163.218 212.952C162.62 212.248 162.322 211.32 162.322 210.168C162.322 209.229 162.599 208.376 163.154 207.608C163.708 206.819 164.498 206.2 165.522 205.752C166.567 205.304 167.762 205.08 169.106 205.08C171.111 205.08 172.722 205.592 173.938 206.616C175.175 207.619 175.836 208.995 175.922 210.744H172.274C172.21 209.955 171.89 209.325 171.314 208.856C170.738 208.387 169.959 208.152 168.978 208.152C168.018 208.152 167.282 208.333 166.77 208.696C166.258 209.059 166.002 209.539 166.002 210.136C166.002 210.605 166.172 211 166.514 211.32C166.855 211.64 167.271 211.896 167.762 212.088C168.252 212.259 168.978 212.483 169.938 212.76C171.218 213.101 172.263 213.453 173.074 213.816C173.906 214.157 174.62 214.669 175.218 215.352C175.815 216.035 176.124 216.941 176.146 218.072C176.146 219.075 175.868 219.971 175.314 220.76C174.759 221.549 173.97 222.168 172.946 222.616C171.943 223.064 170.759 223.288 169.394 223.288Z" fill="white"/>
</svg>
