<svg width="45" height="45" viewBox="0 0 45 45" fill="none" xmlns="http://www.w3.org/2000/svg">
<g clip-path="url(#clip0_858_6)">
<path d="M26.25 15H8.75C8.41848 15 8.10054 14.8683 7.86612 14.6339C7.6317 14.3995 7.5 14.0815 7.5 13.75V8.75C7.5 8.41848 7.6317 8.10054 7.86612 7.86612C8.10054 7.6317 8.41848 7.5 8.75 7.5H26.25C26.5815 7.5 26.8995 7.6317 27.1339 7.86612C27.3683 8.10054 27.5 8.41848 27.5 8.75V13.75C27.5 14.0815 27.3683 14.3995 27.1339 14.6339C26.8995 14.8683 26.5815 15 26.25 15ZM10 12.5H25V9.925H10V12.5Z" fill="black"/>
<path d="M26.25 17.6001H8.75C8.41848 17.6001 8.10054 17.7318 7.86612 17.9662C7.6317 18.2006 7.5 18.5186 7.5 18.8501V23.7501C7.5 24.0816 7.6317 24.3996 7.86612 24.634C8.10054 24.8684 8.41848 25.0001 8.75 25.0001H22.95L27.5 20.3751V18.8501C27.5 18.5186 27.3683 18.2006 27.1339 17.9662C26.8995 17.7318 26.5815 17.6001 26.25 17.6001ZM25 22.5001H10V20.0001H25V22.5001Z" fill="black"/>
<path d="M13.825 39.3875V39.3125L14.225 37.575H5V5H30V17.8125L32.5 15.45V3.75C32.5 3.41848 32.3683 3.10054 32.1339 2.86612C31.8995 2.6317 31.5815 2.5 31.25 2.5H3.75C3.41848 2.5 3.10054 2.6317 2.86612 2.86612C2.6317 3.10054 2.5 3.41848 2.5 3.75V38.75C2.5 39.0815 2.6317 39.3995 2.86612 39.6339C3.10054 39.8683 3.41848 40 3.75 40H13.75C13.7603 39.7943 13.7854 39.5896 13.825 39.3875V39.3875Z" fill="black"/>
<path d="M27.4999 23.9624L26.5249 24.9499C26.7668 24.9 26.9885 24.7796 27.162 24.6039C27.3356 24.4281 27.4531 24.2049 27.4999 23.9624Z" fill="black"/>
<path d="M7.5 33.675C7.5 34.0065 7.6317 34.3245 7.86612 34.5589C8.10054 34.7933 8.41848 34.925 8.75 34.925H14.8L15.175 33.3L15.3375 32.6125V32.55H10V30H17.925L20.425 27.5H8.75C8.41848 27.5 8.10054 27.6317 7.86612 27.8661C7.6317 28.1005 7.5 28.4185 7.5 28.75V33.675Z" fill="black"/>
<path d="M41.8625 20.8376L37.65 16.6251C37.4631 16.4376 37.241 16.2889 36.9965 16.1874C36.7519 16.0859 36.4898 16.0337 36.225 16.0337C35.9603 16.0337 35.6981 16.0859 35.4536 16.1874C35.2091 16.2889 34.987 16.4376 34.8 16.6251L17.6625 33.8626L16.25 39.8751C16.1972 40.1345 16.196 40.4017 16.2465 40.6616C16.2971 40.9214 16.3985 41.1688 16.5448 41.3894C16.6911 41.61 16.8795 41.7996 17.0992 41.9473C17.3188 42.095 17.5655 42.1979 17.825 42.2501C17.9539 42.263 18.0837 42.263 18.2125 42.2501C18.3657 42.2751 18.5219 42.2751 18.675 42.2501L24.7375 40.9126L41.8625 23.7501C42.0496 23.5642 42.1981 23.3432 42.2994 23.0997C42.4007 22.8562 42.4529 22.5951 42.4529 22.3313C42.4529 22.0676 42.4007 21.8065 42.2994 21.563C42.1981 21.3195 42.0496 21.0985 41.8625 20.9126V20.8376ZM23.4625 38.6376L18.8875 39.6501L20 35.1126L32.85 22.1251L36.375 25.6501L23.4625 38.6376ZM37.7875 24.2376L34.2625 20.7126L36.25 18.7501L39.8 22.3001L37.7875 24.2376Z" fill="black"/>
</g>
<defs>
<clipPath id="clip0_858_6">
<rect width="45" height="45" fill="white"/>
</clipPath>
</defs>
</svg>
