<svg width="36" height="33" viewBox="0 0 36 33" fill="none" xmlns="http://www.w3.org/2000/svg">
<path d="M17.5141 10.9977C14.2973 10.9977 11.6721 13.4702 11.6721 16.5C11.6721 19.5298 14.2973 22.0023 17.5141 22.0023C20.7309 22.0023 23.3561 19.5298 23.3561 16.5C23.3561 13.4702 20.7309 10.9977 17.5141 10.9977ZM35.0357 16.5C35.0357 14.2215 35.0576 11.9636 34.9217 9.68915C34.7859 7.04736 34.146 4.70278 32.095 2.77097C30.0395 0.835041 27.5546 0.236512 24.7498 0.10855C22.3306 -0.0194112 19.9333 0.00122779 17.5185 0.00122779C15.0993 0.00122779 12.702 -0.0194112 10.2872 0.10855C7.48237 0.236512 4.99307 0.839169 2.94202 2.77097C0.886585 4.70691 0.251111 7.04736 0.115251 9.68915C-0.0206094 11.9677 0.00130357 14.2256 0.00130357 16.5C0.00130357 18.7744 -0.0206094 21.0364 0.115251 23.3109C0.251111 25.9526 0.890968 28.2972 2.94202 30.229C4.99745 32.165 7.48237 32.7635 10.2872 32.8914C12.7064 33.0194 15.1037 32.9988 17.5185 32.9988C19.9377 32.9988 22.335 33.0194 24.7498 32.8914C27.5546 32.7635 30.0439 32.1608 32.095 30.229C34.1504 28.2931 34.7859 25.9526 34.9217 23.3109C35.062 21.0364 35.0357 18.7785 35.0357 16.5ZM17.5141 24.9661C12.5399 24.9661 8.52543 21.185 8.52543 16.5C8.52543 11.815 12.5399 8.0339 17.5141 8.0339C22.4883 8.0339 26.5028 11.815 26.5028 16.5C26.5028 21.185 22.4883 24.9661 17.5141 24.9661ZM26.8709 9.66438C25.7095 9.66438 24.7717 8.78103 24.7717 7.68717C24.7717 6.59331 25.7095 5.70996 26.8709 5.70996C28.0323 5.70996 28.9702 6.59331 28.9702 7.68717C28.9705 7.94691 28.9165 8.20417 28.8111 8.4442C28.7057 8.68424 28.5511 8.90233 28.3561 9.086C28.1611 9.26966 27.9295 9.41529 27.6747 9.51454C27.4198 9.61379 27.1467 9.66471 26.8709 9.66438Z" fill="#F8F8F8"/>
</svg>
