<svg width="36" height="33" viewBox="0 0 36 33" fill="none" xmlns="http://www.w3.org/2000/svg">
<path fill-rule="evenodd" clip-rule="evenodd" d="M0.0874028 2.757C0.0874028 2.0258 0.395807 1.32455 0.94477 0.80751C1.49373 0.290472 2.23829 3.67547e-06 3.01464 3.67547e-06H32.1946C32.5793 -0.000588152 32.9604 0.070298 33.316 0.208604C33.6717 0.346909 33.9948 0.549918 34.267 0.806008C34.5392 1.0621 34.7551 1.36624 34.9023 1.70102C35.0496 2.0358 35.1252 2.39464 35.125 2.757V30.24C35.1255 30.6024 35.05 30.9614 34.903 31.2963C34.756 31.6313 34.5403 31.9356 34.2682 32.192C33.9962 32.4483 33.6732 32.6516 33.3176 32.7903C32.9621 32.9289 32.581 33.0002 32.1962 33H3.01464C2.63009 33 2.24932 32.9286 1.89407 32.79C1.53881 32.6513 1.21605 32.4481 0.944207 32.192C0.672367 31.9358 0.456782 31.6317 0.309768 31.297C0.162754 30.9624 0.0871936 30.6037 0.0874028 30.2415V2.757ZM13.9559 12.582H18.7003V14.826C19.3852 13.536 21.1371 12.375 23.7697 12.375C28.8167 12.375 30.0127 14.9445 30.0127 19.659V28.392H24.9052V20.733C24.9052 18.048 24.2204 16.533 22.4812 16.533C20.0684 16.533 19.0651 18.1665 19.0651 20.733V28.392H13.9559V12.582ZM5.19653 28.1865H10.3057V12.375H5.19653V28.185V28.1865ZM11.0367 7.218C11.0463 7.63001 10.9685 8.03968 10.8077 8.42297C10.647 8.80627 10.4065 9.15546 10.1006 9.45005C9.7946 9.74465 9.42923 9.97871 9.02591 10.1385C8.62259 10.2983 8.18944 10.3806 7.75189 10.3806C7.31433 10.3806 6.88118 10.2983 6.47786 10.1385C6.07454 9.97871 5.70917 9.74465 5.4032 9.45005C5.09722 9.15546 4.85681 8.80627 4.69606 8.42297C4.53532 8.03968 4.45747 7.63001 4.46711 7.218C4.48601 6.40928 4.84039 5.63969 5.45435 5.07403C6.0683 4.50837 6.89302 4.19163 7.75189 4.19163C8.61075 4.19163 9.43547 4.50837 10.0494 5.07403C10.6634 5.63969 11.0178 6.40928 11.0367 7.218Z" fill="#F8F8F8"/>
</svg>
