<svg width="111" height="111" viewBox="0 0 111 111" fill="none" xmlns="http://www.w3.org/2000/svg">
<path d="M31.4269 44.5387V34.4562C31.4269 28.0772 33.961 21.9594 38.4717 17.4487C42.9823 12.938 49.1001 10.4039 55.4792 10.4039C61.8583 10.4039 67.9761 12.938 72.4868 17.4487C76.9974 21.9594 79.5315 28.0772 79.5315 34.4562V44.5387M23.5181 44.5387H87.4819C88.6464 44.54 89.7628 45.0034 90.5858 45.8273C91.4087 46.6511 91.871 47.768 91.871 48.9325V96.2C91.871 97.3649 91.4084 98.4821 90.5849 99.306C89.7615 100.13 88.6445 100.593 87.4796 100.594H23.5205C22.3552 100.594 21.2376 100.131 20.4136 99.3068C19.5896 98.4829 19.1267 97.3653 19.1267 96.2V48.9325C19.1267 47.7672 19.5896 46.6496 20.4136 45.8256C21.2376 45.0017 22.3552 44.5387 23.5205 44.5387H23.5181Z" stroke="black" stroke-width="6.25" stroke-linecap="round" stroke-linejoin="round"/>
<path d="M55.4793 81.8949C60.6313 81.8949 64.8079 77.7183 64.8079 72.5663C64.8079 67.4142 60.6313 63.2377 55.4793 63.2377C50.3272 63.2377 46.1506 67.4142 46.1506 72.5663C46.1506 77.7183 50.3272 81.8949 55.4793 81.8949Z" stroke="black" stroke-width="6.25" stroke-linecap="round" stroke-linejoin="round"/>
</svg>
