<svg width="14" height="14" viewBox="0 0 14 14" fill="none" xmlns="http://www.w3.org/2000/svg">
<g clip-path="url(#clip0_843_2)">
<path d="M13.7618 6.9886C13.7618 10.6555 10.742 13.6283 7.01686 13.6283C3.29175 13.6283 0.271973 10.6559 0.271973 6.9886C0.271973 3.32147 3.29153 0.348877 7.01686 0.348877C10.742 0.348877 13.7618 3.32169 13.7618 6.9886ZM7.01686 1.8331C4.1242 1.8331 1.77931 4.14135 1.77931 6.98881C1.77931 9.83606 4.12397 12.1448 7.01686 12.1448C9.90953 12.1448 12.2544 9.83606 12.2544 6.98881C12.2546 4.14156 9.90953 1.8331 7.01686 1.8331ZM5.6362 5.44575C5.6362 4.39838 6.31864 4.03066 7.00064 4.03066C7.40664 4.03066 7.7542 4.06763 8.03197 4.40625C8.68175 5.19791 7.95664 5.96616 7.13042 6.37281C6.54575 6.66069 6.26953 7.1485 6.26953 7.82772V9.34716H7.81242V8.4516C7.81242 7.08441 8.70575 7.42806 9.35553 6.57297C10.2342 5.41622 10.0442 4.11225 8.85175 3.18322C7.48775 2.11988 5.9442 2.6475 5.51397 2.93538C5.15642 3.17447 3.88975 4.0626 4.13331 5.97316L5.63264 5.97622C5.63264 5.97644 5.63575 5.7975 5.63575 5.44575H5.6362ZM7.81286 11.4257V9.86691H6.26997V11.4257H7.81286Z" fill="black"/>
</g>
<defs>
<clipPath id="clip0_843_2">
<rect width="14" height="14" fill="white"/>
</clipPath>
</defs>
</svg>
