<svg width="111" height="111" viewBox="0 0 111 111" fill="none" xmlns="http://www.w3.org/2000/svg">
<path d="M103.046 18.3601L92.64 7.95384C91.9895 7.30354 91.1074 6.93823 90.1876 6.93823C89.2678 6.93823 88.3857 7.30354 87.7352 7.95384L67.939 27.75H59.2984C51.3885 27.7557 43.6754 30.2168 37.224 34.7936C30.7727 39.3703 25.9013 45.837 23.2824 53.3008L7.13185 99.4491C6.91599 100.066 6.87863 100.731 7.02407 101.368C7.16951 102.004 7.49184 102.587 7.95395 103.049C8.41606 103.511 8.99917 103.833 9.63615 103.978C10.2731 104.122 10.9381 104.085 11.5545 103.868L57.6993 87.7178C65.1631 85.0988 71.6298 80.2274 76.2065 73.7761C80.7833 67.3247 83.2444 59.6116 83.2501 51.7017V43.0645L103.046 23.2649C103.697 22.6144 104.062 21.7323 104.062 20.8125C104.062 19.8927 103.697 19.0106 103.046 18.3601ZM77.3289 39.1726C76.6784 39.823 76.3128 40.7051 76.3126 41.625V51.7017C76.3077 58.1734 74.2938 64.484 70.549 69.7623C66.8042 75.0405 61.5132 79.0261 55.4064 81.1687L23.6049 92.3L55.5001 60.4048L50.5953 55.5L18.6967 87.3951L29.8314 55.5937C31.974 49.4869 35.9595 44.1959 41.2378 40.4511C46.516 36.7063 52.8266 34.6924 59.2984 34.6875H69.3751C70.295 34.6873 71.1771 34.3217 71.8275 33.6711L90.1876 15.3111L95.689 20.8125L77.3289 39.1726Z" fill="black"/>
</svg>
