<svg width="17" height="17" viewBox="0 0 17 17" fill="none" xmlns="http://www.w3.org/2000/svg">
<path d="M2.89 1.41668L3.16321 2.0471L3.49714 2.83335H6.07143V6.37501H1.21429V1.41668H2.89ZM3.26643 1.71586e-05H0.607143C0.446119 1.71586e-05 0.291689 0.074645 0.177828 0.207483C0.0639666 0.340321 0 0.520488 0 0.70835V7.08334C0 7.2712 0.0639666 7.45137 0.177828 7.58421C0.291689 7.71705 0.446119 7.79168 0.607143 7.79168H6.67857C6.8396 7.79168 6.99402 7.71705 7.10789 7.58421C7.22175 7.45137 7.28571 7.2712 7.28571 7.08334V2.12502C7.28571 1.93715 7.22175 1.75699 7.10789 1.62415C6.99402 1.49131 6.8396 1.41668 6.67857 1.41668H4.25L3.81286 0.3896C3.76194 0.271709 3.6838 0.172763 3.58725 0.103925C3.4907 0.0350881 3.37958 -0.000901541 3.26643 1.71586e-05V1.71586e-05ZM12.6043 1.41668L12.8775 2.0471L13.2114 2.83335H15.7857V6.37501H10.9286V1.41668H12.6043M12.9807 1.71586e-05H10.3214C10.1604 1.71586e-05 10.006 0.074645 9.89211 0.207483C9.77825 0.340321 9.71429 0.520488 9.71429 0.70835V7.08334C9.71429 7.2712 9.77825 7.45137 9.89211 7.58421C10.006 7.71705 10.1604 7.79168 10.3214 7.79168H16.3929C16.5539 7.79168 16.7083 7.71705 16.8222 7.58421C16.936 7.45137 17 7.2712 17 7.08334V2.12502C17 1.93715 16.936 1.75699 16.8222 1.62415C16.7083 1.49131 16.5539 1.41668 16.3929 1.41668H13.9643L13.5271 0.3896C13.4762 0.271709 13.3981 0.172763 13.3015 0.103925C13.205 0.0350881 13.0939 -0.000901541 12.9807 1.71586e-05V1.71586e-05ZM2.89 10.625L3.16321 11.2554L3.49714 12.0417H6.07143V15.5833H1.21429V10.625H2.89ZM3.26643 9.20834H0.607143C0.446119 9.20834 0.291689 9.28297 0.177828 9.41581C0.0639666 9.54864 0 9.72881 0 9.91667V16.2917C0 16.4795 0.0639666 16.6597 0.177828 16.7925C0.291689 16.9254 0.446119 17 0.607143 17H6.67857C6.8396 17 6.99402 16.9254 7.10789 16.7925C7.22175 16.6597 7.28571 16.4795 7.28571 16.2917V11.3333C7.28571 11.1455 7.22175 10.9653 7.10789 10.8325C6.99402 10.6996 6.8396 10.625 6.67857 10.625H4.25L3.81286 9.59792C3.76194 9.48003 3.6838 9.38109 3.58725 9.31225C3.4907 9.24341 3.37958 9.20742 3.26643 9.20834V9.20834ZM12.6043 10.625L12.8775 11.2554L13.2114 12.0417H15.7857V15.5833H10.9286V10.625H12.6043M12.9807 9.20834H10.3214C10.1604 9.20834 10.006 9.28297 9.89211 9.41581C9.77825 9.54864 9.71429 9.72881 9.71429 9.91667V16.2917C9.71429 16.4795 9.77825 16.6597 9.89211 16.7925C10.006 16.9254 10.1604 17 10.3214 17H16.3929C16.5539 17 16.7083 16.9254 16.8222 16.7925C16.936 16.6597 17 16.4795 17 16.2917V11.3333C17 11.1455 16.936 10.9653 16.8222 10.8325C16.7083 10.6996 16.5539 10.625 16.3929 10.625H13.9643L13.5271 9.59792C13.4762 9.48003 13.3981 9.38109 13.3015 9.31225C13.205 9.24341 13.0939 9.20742 12.9807 9.20834V9.20834Z" fill="#85B6FF"/>
</svg>
