<svg width="45" height="45" viewBox="0 0 45 45" fill="none" xmlns="http://www.w3.org/2000/svg">
<path d="M41.5944 22.1925L24.614 5.22081L23.4758 4.08263C23.2164 3.82501 22.8657 3.68042 22.5002 3.68042C22.1346 3.68042 21.7839 3.82501 21.5246 4.08263L3.40594 22.1925C3.14021 22.4572 2.9302 22.7724 2.7883 23.1196C2.64641 23.4668 2.5755 23.8389 2.57977 24.214C2.59735 25.7609 3.88495 26.9957 5.43182 26.9957H7.2995V41.3087H37.7009V26.9957H39.6081C40.3596 26.9957 41.0671 26.7013 41.5988 26.1695C41.8606 25.9086 42.0681 25.5982 42.2092 25.2565C42.3502 24.9148 42.4221 24.5485 42.4206 24.1788C42.4206 23.4317 42.1262 22.7242 41.5944 22.1925V22.1925ZM24.9611 38.1446H20.0392V29.1798H24.9611V38.1446ZM34.5368 23.8317V38.1446H27.7736V28.1251C27.7736 27.1539 26.987 26.3673 26.0158 26.3673H18.9846C18.0134 26.3673 17.2267 27.1539 17.2267 28.1251V38.1446H10.4636V23.8317H6.24481L22.5046 7.58507L23.5197 8.60021L38.7599 23.8317H34.5368Z" fill="black"/>
</svg>
