<svg width="232" height="222" viewBox="0 0 232 222" fill="none" xmlns="http://www.w3.org/2000/svg">
<path d="M88.0003 76.2667V35.3333H137.334L142.6 30H82.667V76.2667H88.0003V76.2667Z" fill="#F8F8F8"/>
<path d="M75.9997 23.3333H156V76.6666H162.666V21.6666C162.666 20.3405 162.14 19.0688 161.202 18.1311C160.264 17.1934 158.992 16.6666 157.666 16.6666H74.333C73.0069 16.6666 71.7352 17.1934 70.7975 18.1311C69.8598 19.0688 69.333 20.3405 69.333 21.6666V76.6666H75.9997V23.3333Z" fill="#F8F8F8"/>
<path d="M59.333 83.3334V94.6667C59.333 96.9652 60.2461 99.1697 61.8714 100.795C63.4967 102.42 65.7011 103.333 67.9997 103.333H163.8C166.098 103.333 168.303 102.42 169.928 100.795C171.553 99.1697 172.466 96.9652 172.466 94.6667V83.3334H59.333ZM166 94.6667C166 95.1971 165.789 95.7058 165.414 96.0809C165.039 96.456 164.53 96.6667 164 96.6667H67.8663C67.3359 96.6667 66.8272 96.456 66.4521 96.0809C66.0771 95.7058 65.8663 95.1971 65.8663 94.6667V88.4334H99.033C99.4497 89.4166 100.145 90.2563 101.034 90.8487C101.922 91.4411 102.965 91.7602 104.033 91.7667H127.8C128.868 91.7602 129.91 91.4411 130.799 90.8487C131.687 90.2563 132.383 89.4166 132.8 88.4334H166V94.6667Z" fill="#F8F8F8"/>
<path d="M23.4903 162.984H17.0263V169.608H13.6343V162.984H7.17025V159.912H13.6343V153.288H17.0263V159.912H23.4903V162.984ZM28.19 153V149.672H34.846V173H31.166V153H28.19ZM39.8575 161.032C39.8575 157.341 40.4762 154.461 41.7135 152.392C42.9722 150.301 45.1268 149.256 48.1775 149.256C51.2282 149.256 53.3722 150.301 54.6095 152.392C55.8682 154.461 56.4975 157.341 56.4975 161.032C56.4975 164.765 55.8682 167.688 54.6095 169.8C53.3722 171.891 51.2282 172.936 48.1775 172.936C45.1268 172.936 42.9722 171.891 41.7135 169.8C40.4762 167.688 39.8575 164.765 39.8575 161.032ZM52.9135 161.032C52.9135 159.304 52.7962 157.843 52.5615 156.648C52.3482 155.453 51.9002 154.483 51.2175 153.736C50.5348 152.968 49.5215 152.584 48.1775 152.584C46.8335 152.584 45.8202 152.968 45.1375 153.736C44.4548 154.483 43.9962 155.453 43.7615 156.648C43.5482 157.843 43.4415 159.304 43.4415 161.032C43.4415 162.824 43.5482 164.328 43.7615 165.544C43.9748 166.76 44.4228 167.741 45.1055 168.488C45.8095 169.235 46.8335 169.608 48.1775 169.608C49.5215 169.608 50.5348 169.235 51.2175 168.488C51.9215 167.741 52.3802 166.76 52.5935 165.544C52.8068 164.328 52.9135 162.824 52.9135 161.032ZM72.798 157.96C73.4167 157.149 74.2593 156.467 75.326 155.912C76.3927 155.357 77.598 155.08 78.942 155.08C80.478 155.08 81.8753 155.464 83.134 156.232C84.414 156.979 85.4167 158.035 86.142 159.4C86.8673 160.765 87.23 162.333 87.23 164.104C87.23 165.875 86.8673 167.464 86.142 168.872C85.4167 170.259 84.414 171.347 83.134 172.136C81.8753 172.904 80.478 173.288 78.942 173.288C77.598 173.288 76.4033 173.021 75.358 172.488C74.3127 171.933 73.4593 171.251 72.798 170.44V181.384H69.15V155.368H72.798V157.96ZM83.518 164.104C83.518 162.888 83.262 161.843 82.75 160.968C82.2593 160.072 81.598 159.4 80.766 158.952C79.9553 158.483 79.0807 158.248 78.142 158.248C77.2247 158.248 76.35 158.483 75.518 158.952C74.7073 159.421 74.046 160.104 73.534 161C73.0433 161.896 72.798 162.952 72.798 164.168C72.798 165.384 73.0433 166.451 73.534 167.368C74.046 168.264 74.7073 168.947 75.518 169.416C76.35 169.885 77.2247 170.12 78.142 170.12C79.0807 170.12 79.9553 169.885 80.766 169.416C81.598 168.925 82.2593 168.221 82.75 167.304C83.262 166.387 83.518 165.32 83.518 164.104ZM94.4855 157.928C95.0188 157.032 95.7228 156.339 96.5975 155.848C97.4935 155.336 98.5495 155.08 99.7655 155.08V158.856H98.8375C97.4082 158.856 96.3202 159.219 95.5735 159.944C94.8482 160.669 94.4855 161.928 94.4855 163.72V173H90.8375V155.368H94.4855V157.928ZM110.767 173.288C109.103 173.288 107.599 172.915 106.255 172.168C104.911 171.4 103.855 170.333 103.087 168.968C102.319 167.581 101.935 165.981 101.935 164.168C101.935 162.376 102.329 160.787 103.119 159.4C103.908 158.013 104.985 156.947 106.351 156.2C107.716 155.453 109.241 155.08 110.927 155.08C112.612 155.08 114.137 155.453 115.503 156.2C116.868 156.947 117.945 158.013 118.735 159.4C119.524 160.787 119.919 162.376 119.919 164.168C119.919 165.96 119.513 167.549 118.703 168.936C117.892 170.323 116.783 171.4 115.375 172.168C113.988 172.915 112.452 173.288 110.767 173.288ZM110.767 170.12C111.705 170.12 112.58 169.896 113.391 169.448C114.223 169 114.895 168.328 115.407 167.432C115.919 166.536 116.175 165.448 116.175 164.168C116.175 162.888 115.929 161.811 115.439 160.936C114.948 160.04 114.297 159.368 113.487 158.92C112.676 158.472 111.801 158.248 110.863 158.248C109.924 158.248 109.049 158.472 108.239 158.92C107.449 159.368 106.82 160.04 106.351 160.936C105.881 161.811 105.647 162.888 105.647 164.168C105.647 166.067 106.127 167.539 107.087 168.584C108.068 169.608 109.295 170.12 110.767 170.12ZM139.397 155.368L128.581 181.288H124.805L128.389 172.712L121.445 155.368H125.509L130.469 168.808L135.621 155.368H139.397ZM158.31 163.752C158.31 164.413 158.267 165.011 158.182 165.544H144.71C144.817 166.952 145.339 168.083 146.278 168.936C147.217 169.789 148.369 170.216 149.734 170.216C151.697 170.216 153.083 169.395 153.894 167.752H157.83C157.297 169.373 156.326 170.707 154.918 171.752C153.531 172.776 151.803 173.288 149.734 173.288C148.049 173.288 146.534 172.915 145.19 172.168C143.867 171.4 142.822 170.333 142.054 168.968C141.307 167.581 140.934 165.981 140.934 164.168C140.934 162.355 141.297 160.765 142.022 159.4C142.769 158.013 143.803 156.947 145.126 156.2C146.47 155.453 148.006 155.08 149.734 155.08C151.398 155.08 152.881 155.443 154.182 156.168C155.483 156.893 156.497 157.917 157.222 159.24C157.947 160.541 158.31 162.045 158.31 163.752ZM154.502 162.6C154.481 161.256 154.001 160.179 153.062 159.368C152.123 158.557 150.961 158.152 149.574 158.152C148.315 158.152 147.238 158.557 146.342 159.368C145.446 160.157 144.913 161.235 144.742 162.6H154.502ZM160.684 164.168C160.684 162.355 161.047 160.765 161.772 159.4C162.519 158.013 163.543 156.947 164.844 156.2C166.145 155.453 167.639 155.08 169.324 155.08C171.457 155.08 173.217 155.592 174.604 156.616C176.012 157.619 176.961 159.059 177.452 160.936H173.516C173.196 160.061 172.684 159.379 171.98 158.888C171.276 158.397 170.391 158.152 169.324 158.152C167.831 158.152 166.636 158.685 165.74 159.752C164.865 160.797 164.428 162.269 164.428 164.168C164.428 166.067 164.865 167.549 165.74 168.616C166.636 169.683 167.831 170.216 169.324 170.216C171.436 170.216 172.833 169.288 173.516 167.432H177.452C176.94 169.224 175.98 170.653 174.572 171.72C173.164 172.765 171.415 173.288 169.324 173.288C167.639 173.288 166.145 172.915 164.844 172.168C163.543 171.4 162.519 170.333 161.772 168.968C161.047 167.581 160.684 165.981 160.684 164.168ZM185.344 158.344V168.104C185.344 168.765 185.493 169.245 185.792 169.544C186.112 169.821 186.645 169.96 187.392 169.96H189.632V173H186.752C185.109 173 183.85 172.616 182.976 171.848C182.101 171.08 181.664 169.832 181.664 168.104V158.344H179.584V155.368H181.664V150.984H185.344V155.368H189.632V158.344H185.344ZM200.642 173.288C198.978 173.288 197.474 172.915 196.13 172.168C194.786 171.4 193.73 170.333 192.962 168.968C192.194 167.581 191.81 165.981 191.81 164.168C191.81 162.376 192.204 160.787 192.994 159.4C193.783 158.013 194.86 156.947 196.226 156.2C197.591 155.453 199.116 155.08 200.802 155.08C202.487 155.08 204.012 155.453 205.378 156.2C206.743 156.947 207.82 158.013 208.61 159.4C209.399 160.787 209.794 162.376 209.794 164.168C209.794 165.96 209.388 167.549 208.578 168.936C207.767 170.323 206.658 171.4 205.25 172.168C203.863 172.915 202.327 173.288 200.642 173.288ZM200.642 170.12C201.58 170.12 202.455 169.896 203.266 169.448C204.098 169 204.77 168.328 205.282 167.432C205.794 166.536 206.05 165.448 206.05 164.168C206.05 162.888 205.804 161.811 205.314 160.936C204.823 160.04 204.172 159.368 203.362 158.92C202.551 158.472 201.676 158.248 200.738 158.248C199.799 158.248 198.924 158.472 198.114 158.92C197.324 159.368 196.695 160.04 196.226 160.936C195.756 161.811 195.522 162.888 195.522 164.168C195.522 166.067 196.002 167.539 196.962 168.584C197.943 169.608 199.17 170.12 200.642 170.12ZM219.8 173.288C218.413 173.288 217.165 173.043 216.056 172.552C214.968 172.04 214.104 171.357 213.464 170.504C212.824 169.629 212.483 168.659 212.44 167.592H216.216C216.28 168.339 216.632 168.968 217.272 169.48C217.933 169.971 218.755 170.216 219.736 170.216C220.76 170.216 221.549 170.024 222.104 169.64C222.68 169.235 222.968 168.723 222.968 168.104C222.968 167.443 222.648 166.952 222.008 166.632C221.389 166.312 220.397 165.96 219.032 165.576C217.709 165.213 216.632 164.861 215.8 164.52C214.968 164.179 214.243 163.656 213.624 162.952C213.027 162.248 212.728 161.32 212.728 160.168C212.728 159.229 213.005 158.376 213.56 157.608C214.115 156.819 214.904 156.2 215.928 155.752C216.973 155.304 218.168 155.08 219.512 155.08C221.517 155.08 223.128 155.592 224.344 156.616C225.581 157.619 226.243 158.995 226.328 160.744H222.68C222.616 159.955 222.296 159.325 221.72 158.856C221.144 158.387 220.365 158.152 219.384 158.152C218.424 158.152 217.688 158.333 217.176 158.696C216.664 159.059 216.408 159.539 216.408 160.136C216.408 160.605 216.579 161 216.92 161.32C217.261 161.64 217.677 161.896 218.168 162.088C218.659 162.259 219.384 162.483 220.344 162.76C221.624 163.101 222.669 163.453 223.48 163.816C224.312 164.157 225.027 164.669 225.624 165.352C226.221 166.035 226.531 166.941 226.552 168.072C226.552 169.075 226.275 169.971 225.72 170.76C225.165 171.549 224.376 172.168 223.352 172.616C222.349 173.064 221.165 173.288 219.8 173.288ZM38.7824 205.928C39.3157 205.032 40.0197 204.339 40.8944 203.848C41.7904 203.336 42.8464 203.08 44.0624 203.08V206.856H43.1344C41.705 206.856 40.617 207.219 39.8704 207.944C39.145 208.669 38.7824 209.928 38.7824 211.72V221H35.1344V203.368H38.7824V205.928ZM63.5756 211.752C63.5756 212.413 63.533 213.011 63.4476 213.544H49.9756C50.0823 214.952 50.605 216.083 51.5436 216.936C52.4823 217.789 53.6343 218.216 54.9996 218.216C56.9623 218.216 58.349 217.395 59.1596 215.752H63.0956C62.5623 217.373 61.5916 218.707 60.1836 219.752C58.797 220.776 57.069 221.288 54.9996 221.288C53.3143 221.288 51.7996 220.915 50.4556 220.168C49.133 219.4 48.0876 218.333 47.3196 216.968C46.573 215.581 46.1996 213.981 46.1996 212.168C46.1996 210.355 46.5623 208.765 47.2876 207.4C48.0343 206.013 49.069 204.947 50.3916 204.2C51.7356 203.453 53.2716 203.08 54.9996 203.08C56.6636 203.08 58.1463 203.443 59.4476 204.168C60.749 204.893 61.7623 205.917 62.4876 207.24C63.213 208.541 63.5756 210.045 63.5756 211.752ZM59.7676 210.6C59.7463 209.256 59.2663 208.179 58.3276 207.368C57.389 206.557 56.2263 206.152 54.8396 206.152C53.581 206.152 52.5036 206.557 51.6076 207.368C50.7116 208.157 50.1783 209.235 50.0076 210.6H59.7676ZM65.9496 212.104C65.9496 210.333 66.3123 208.765 67.0376 207.4C67.7843 206.035 68.787 204.979 70.0456 204.232C71.3256 203.464 72.7336 203.08 74.2696 203.08C75.6563 203.08 76.8616 203.357 77.8856 203.912C78.931 204.445 79.763 205.117 80.3816 205.928V203.368H84.0616V221H80.3816V218.376C79.763 219.208 78.9203 219.901 77.8536 220.456C76.787 221.011 75.571 221.288 74.2056 221.288C72.691 221.288 71.3043 220.904 70.0456 220.136C68.787 219.347 67.7843 218.259 67.0376 216.872C66.3123 215.464 65.9496 213.875 65.9496 212.104ZM80.3816 212.168C80.3816 210.952 80.1256 209.896 79.6136 209C79.123 208.104 78.4723 207.421 77.6616 206.952C76.851 206.483 75.9763 206.248 75.0376 206.248C74.099 206.248 73.2243 206.483 72.4136 206.952C71.603 207.4 70.9416 208.072 70.4296 208.968C69.939 209.843 69.6936 210.888 69.6936 212.104C69.6936 213.32 69.939 214.387 70.4296 215.304C70.9416 216.221 71.603 216.925 72.4136 217.416C73.2456 217.885 74.1203 218.12 75.0376 218.12C75.9763 218.12 76.851 217.885 77.6616 217.416C78.4723 216.947 79.123 216.264 79.6136 215.368C80.1256 214.451 80.3816 213.384 80.3816 212.168ZM92.5011 197.32V221H88.8531V197.32H92.5011ZM99.1466 201.032C98.4853 201.032 97.9306 200.808 97.4826 200.36C97.0346 199.912 96.8106 199.357 96.8106 198.696C96.8106 198.035 97.0346 197.48 97.4826 197.032C97.9306 196.584 98.4853 196.36 99.1466 196.36C99.7866 196.36 100.331 196.584 100.779 197.032C101.227 197.48 101.451 198.035 101.451 198.696C101.451 199.357 101.227 199.912 100.779 200.36C100.331 200.808 99.7866 201.032 99.1466 201.032ZM100.939 203.368V221H97.2906V203.368H100.939ZM108.96 218.024H116.96V221H104.736V218.024L112.768 206.344H104.736V203.368H116.96V206.344L108.96 218.024ZM119.575 212.104C119.575 210.333 119.937 208.765 120.663 207.4C121.409 206.035 122.412 204.979 123.671 204.232C124.951 203.464 126.359 203.08 127.895 203.08C129.281 203.08 130.487 203.357 131.511 203.912C132.556 204.445 133.388 205.117 134.007 205.928V203.368H137.687V221H134.007V218.376C133.388 219.208 132.545 219.901 131.479 220.456C130.412 221.011 129.196 221.288 127.831 221.288C126.316 221.288 124.929 220.904 123.671 220.136C122.412 219.347 121.409 218.259 120.663 216.872C119.937 215.464 119.575 213.875 119.575 212.104ZM134.007 212.168C134.007 210.952 133.751 209.896 133.239 209C132.748 208.104 132.097 207.421 131.287 206.952C130.476 206.483 129.601 206.248 128.663 206.248C127.724 206.248 126.849 206.483 126.039 206.952C125.228 207.4 124.567 208.072 124.055 208.968C123.564 209.843 123.319 210.888 123.319 212.104C123.319 213.32 123.564 214.387 124.055 215.304C124.567 216.221 125.228 216.925 126.039 217.416C126.871 217.885 127.745 218.12 128.663 218.12C129.601 218.12 130.476 217.885 131.287 217.416C132.097 216.947 132.748 216.264 133.239 215.368C133.751 214.451 134.007 213.384 134.007 212.168ZM141.262 212.104C141.262 210.333 141.625 208.765 142.35 207.4C143.097 206.035 144.099 204.979 145.358 204.232C146.638 203.464 148.057 203.08 149.614 203.08C150.766 203.08 151.897 203.336 153.006 203.848C154.137 204.339 155.033 205 155.694 205.832V197.32H159.374V221H155.694V218.344C155.097 219.197 154.265 219.901 153.198 220.456C152.153 221.011 150.947 221.288 149.582 221.288C148.046 221.288 146.638 220.904 145.358 220.136C144.099 219.347 143.097 218.259 142.35 216.872C141.625 215.464 141.262 213.875 141.262 212.104ZM155.694 212.168C155.694 210.952 155.438 209.896 154.926 209C154.435 208.104 153.785 207.421 152.974 206.952C152.163 206.483 151.289 206.248 150.35 206.248C149.411 206.248 148.537 206.483 147.726 206.952C146.915 207.4 146.254 208.072 145.742 208.968C145.251 209.843 145.006 210.888 145.006 212.104C145.006 213.32 145.251 214.387 145.742 215.304C146.254 216.221 146.915 216.925 147.726 217.416C148.558 217.885 149.433 218.12 150.35 218.12C151.289 218.12 152.163 217.885 152.974 217.416C153.785 216.947 154.435 216.264 154.926 215.368C155.438 214.451 155.694 213.384 155.694 212.168ZM171.814 221.288C170.15 221.288 168.646 220.915 167.302 220.168C165.958 219.4 164.902 218.333 164.134 216.968C163.366 215.581 162.982 213.981 162.982 212.168C162.982 210.376 163.376 208.787 164.166 207.4C164.955 206.013 166.032 204.947 167.398 204.2C168.763 203.453 170.288 203.08 171.974 203.08C173.659 203.08 175.184 203.453 176.55 204.2C177.915 204.947 178.992 206.013 179.782 207.4C180.571 208.787 180.966 210.376 180.966 212.168C180.966 213.96 180.56 215.549 179.75 216.936C178.939 218.323 177.83 219.4 176.422 220.168C175.035 220.915 173.499 221.288 171.814 221.288ZM171.814 218.12C172.752 218.12 173.627 217.896 174.438 217.448C175.27 217 175.942 216.328 176.454 215.432C176.966 214.536 177.222 213.448 177.222 212.168C177.222 210.888 176.976 209.811 176.486 208.936C175.995 208.04 175.344 207.368 174.534 206.92C173.723 206.472 172.848 206.248 171.91 206.248C170.971 206.248 170.096 206.472 169.286 206.92C168.496 207.368 167.867 208.04 167.398 208.936C166.928 209.811 166.694 210.888 166.694 212.168C166.694 214.067 167.174 215.539 168.134 216.584C169.115 217.608 170.342 218.12 171.814 218.12ZM190.972 221.288C189.585 221.288 188.337 221.043 187.228 220.552C186.14 220.04 185.276 219.357 184.636 218.504C183.996 217.629 183.655 216.659 183.612 215.592H187.388C187.452 216.339 187.804 216.968 188.444 217.48C189.105 217.971 189.927 218.216 190.908 218.216C191.932 218.216 192.721 218.024 193.276 217.64C193.852 217.235 194.14 216.723 194.14 216.104C194.14 215.443 193.82 214.952 193.18 214.632C192.561 214.312 191.569 213.96 190.204 213.576C188.881 213.213 187.804 212.861 186.972 212.52C186.14 212.179 185.415 211.656 184.796 210.952C184.199 210.248 183.9 209.32 183.9 208.168C183.9 207.229 184.177 206.376 184.732 205.608C185.287 204.819 186.076 204.2 187.1 203.752C188.145 203.304 189.34 203.08 190.684 203.08C192.689 203.08 194.3 203.592 195.516 204.616C196.753 205.619 197.415 206.995 197.5 208.744H193.852C193.788 207.955 193.468 207.325 192.892 206.856C192.316 206.387 191.537 206.152 190.556 206.152C189.596 206.152 188.86 206.333 188.348 206.696C187.836 207.059 187.58 207.539 187.58 208.136C187.58 208.605 187.751 209 188.092 209.32C188.433 209.64 188.849 209.896 189.34 210.088C189.831 210.259 190.556 210.483 191.516 210.76C192.796 211.101 193.841 211.453 194.652 211.816C195.484 212.157 196.199 212.669 196.796 213.352C197.393 214.035 197.703 214.941 197.724 216.072C197.724 217.075 197.447 217.971 196.892 218.76C196.337 219.549 195.548 220.168 194.524 220.616C193.521 221.064 192.337 221.288 190.972 221.288Z" fill="white"/>
</svg>
