<svg width="45" height="45" viewBox="0 0 45 45" fill="none" xmlns="http://www.w3.org/2000/svg">
<path d="M18.1406 25.6875L19.7813 20.3438L15.4688 16.875H20.8125L22.5 11.625L24.1875 16.875H29.5312L25.1719 20.3438L26.8125 25.6875L22.5 22.3594L18.1406 25.6875ZM11.25 43.125V28.6406C10.0625 27.3281 9.14063 25.8281 8.48438 24.1406C7.82813 22.4531 7.5 20.6562 7.5 18.75C7.5 14.5625 8.95312 11.0156 11.8594 8.10937C14.7656 5.20312 18.3125 3.75 22.5 3.75C26.6875 3.75 30.2344 5.20312 33.1406 8.10937C36.0469 11.0156 37.5 14.5625 37.5 18.75C37.5 20.6562 37.1719 22.4531 36.5156 24.1406C35.8594 25.8281 34.9375 27.3281 33.75 28.6406V43.125L22.5 39.375L11.25 43.125ZM22.5 30C25.625 30 28.2813 28.9062 30.4688 26.7188C32.6562 24.5313 33.75 21.875 33.75 18.75C33.75 15.625 32.6562 12.9687 30.4688 10.7812C28.2813 8.59375 25.625 7.5 22.5 7.5C19.375 7.5 16.7187 8.59375 14.5312 10.7812C12.3438 12.9687 11.25 15.625 11.25 18.75C11.25 21.875 12.3438 24.5313 14.5312 26.7188C16.7187 28.9062 19.375 30 22.5 30ZM15 37.5469L22.5 35.625L30 37.5469V31.7344C28.9063 32.3594 27.7269 32.8512 26.4619 33.21C25.1956 33.57 23.875 33.75 22.5 33.75C21.125 33.75 19.8044 33.57 18.5381 33.21C17.2731 32.8512 16.0937 32.3594 15 31.7344V37.5469Z" fill="black"/>
</svg>
