<svg width="111" height="111" viewBox="0 0 111 111" fill="none" xmlns="http://www.w3.org/2000/svg">
<path d="M55.5 9.25C30.0625 9.25 9.25 30.0625 9.25 55.5C9.25 80.9375 30.0625 101.75 55.5 101.75C80.9375 101.75 101.75 80.9375 101.75 55.5C101.75 30.0625 80.9375 9.25 55.5 9.25ZM55.5 92.5C35.1038 92.5 18.5 75.8962 18.5 55.5C18.5 35.1038 35.1038 18.5 55.5 18.5C75.8962 18.5 92.5 35.1038 92.5 55.5C92.5 75.8962 75.8962 92.5 55.5 92.5ZM57.8125 32.375H50.875V60.125L74.925 74.925L78.625 68.9125L57.8125 56.425V32.375Z" fill="black"/>
</svg>
