<svg width="36" height="33" viewBox="0 0 36 33" fill="none" xmlns="http://www.w3.org/2000/svg">
<path d="M17.6936 6.68839C12.0078 6.68839 7.38567 11.0417 7.37785 16.3969C7.37785 18.231 7.92532 20.021 8.95768 21.5605L9.20012 21.9288L8.15994 25.5087L12.0626 24.5438L12.438 24.7574C14.0178 25.6413 15.8322 26.1127 17.6858 26.1127H17.6936C23.3716 26.1127 28.1189 21.7594 28.1189 16.4042C28.1189 13.8114 26.9301 11.3732 24.9827 9.53906C23.0275 7.69755 20.4466 6.68839 17.6936 6.68839ZM23.7548 20.5661C23.4967 21.2511 22.261 21.8699 21.6666 21.9509C20.6812 22.0908 19.9148 22.0172 17.9517 21.2217C14.8468 19.9547 12.8134 17.0083 12.657 16.8167C12.5005 16.6252 11.39 15.233 11.39 13.7967C11.39 12.3603 12.1877 11.6531 12.4771 11.3585C12.7586 11.0638 13.0949 10.9902 13.3061 10.9902C13.5094 10.9902 13.7206 10.9902 13.9005 10.9975C14.0882 11.0049 14.3463 10.9313 14.5965 11.4984C14.8546 12.0804 15.4725 13.5167 15.5507 13.6641C15.6289 13.8114 15.6837 13.9808 15.5742 14.1723C14.9798 15.292 14.3463 15.2478 14.6669 15.7634C15.8635 17.7007 17.0601 18.371 18.8824 19.2328C19.1952 19.3801 19.3751 19.358 19.555 19.1592C19.7349 18.9676 20.3293 18.3047 20.5326 18.0174C20.736 17.7228 20.9471 17.7743 21.2287 17.8701C21.5102 17.9658 23.0353 18.673 23.3481 18.8203C23.661 18.9676 23.8643 19.0413 23.9425 19.1592C24.0129 19.2991 24.0129 19.8884 23.7548 20.5661ZM31.4584 0H3.92884C1.8563 0 0.174805 1.58371 0.174805 3.53571V29.4643C0.174805 31.4163 1.8563 33 3.92884 33H31.4584C33.5309 33 35.2124 31.4163 35.2124 29.4643V3.53571C35.2124 1.58371 33.5309 0 31.4584 0ZM17.6858 28.0795C15.6054 28.0795 13.5642 27.5859 11.7576 26.6578L5.18018 28.2857L6.93988 22.2308C5.85278 20.4629 5.28185 18.452 5.28185 16.3895C5.28967 9.95156 10.8503 4.71429 17.6858 4.71429C21.0019 4.71429 24.1146 5.92969 26.4609 8.13951C28.7993 10.3493 30.2071 13.281 30.2071 16.4042C30.2071 22.8422 24.5213 28.0795 17.6858 28.0795Z" fill="#F8F8F8"/>
</svg>
