<svg width="111" height="111" viewBox="0 0 111 111" fill="none" xmlns="http://www.w3.org/2000/svg">
<g clip-path="url(#clip0_30_12)">
<path d="M81.8318 55.5001C81.8189 51.3541 81.3745 47.2207 80.5059 43.1667H91.6059C91.0343 41.4757 90.3439 39.8272 89.5401 38.2334H79.2109C77.2692 31.7462 74.2575 25.629 70.3001 20.1342C67.7717 19.0711 65.1354 18.2854 62.4376 17.7909C67.8591 23.616 71.9514 30.5488 74.4318 38.1101H57.8126V17.2667H53.1876V38.1409H36.5684C39.0538 30.5659 43.157 23.6221 48.5934 17.7909C45.9071 18.2771 43.2813 19.0525 40.7618 20.1034C36.7887 25.5751 33.7563 31.6713 31.7893 38.1409H21.3984C20.58 39.7638 19.8793 41.4434 19.3018 43.1667H30.4943C29.6256 47.2207 29.1813 51.3541 29.1684 55.5001C29.1769 60.035 29.6941 64.5546 30.7101 68.9742H19.7951C20.433 70.7025 21.1955 72.3822 22.0768 74.0001H32.0359C33.9236 79.9071 36.722 85.4831 40.3301 90.5267C42.9138 91.6349 45.613 92.4519 48.3776 92.9626C43.3453 87.4735 39.4753 81.0234 37.0001 74.0001H53.2184V93.5484H57.8434V74.0001H74.0001C71.5165 81.0263 67.6357 87.4767 62.5918 92.9626C65.3693 92.4343 68.079 91.5966 70.6701 90.4651C74.2725 85.4404 77.0707 79.8855 78.9643 74.0001H88.8309C89.7081 72.4121 90.4706 70.7635 91.1126 69.0667H80.1668C81.2312 64.6217 81.7897 60.0706 81.8318 55.5001ZM53.1876 68.9742H35.4893C33.3185 60.4884 33.2233 51.6046 35.2118 43.0742H53.1876V68.9742ZM75.5109 68.9742H57.8126V43.1667H75.7884C76.6742 47.2174 77.1085 51.3537 77.0834 55.5001C77.1085 60.0386 76.5804 64.5634 75.5109 68.9742Z" fill="black"/>
<path d="M55.5001 6.16663C45.7429 6.16663 36.2048 9.05997 28.092 14.4808C19.9791 19.9016 13.656 27.6064 9.92205 36.6209C6.18812 45.6354 5.21116 55.5547 7.1147 65.1244C9.01823 74.6941 13.7168 83.4845 20.6162 90.3839C27.5156 97.2833 36.3059 101.982 45.8756 103.885C55.4454 105.789 65.3647 104.812 74.3792 101.078C83.3936 97.3441 91.0985 91.0209 96.5193 82.9081C101.94 74.7953 104.833 65.2572 104.833 55.5C104.833 42.4159 99.6358 29.8678 90.384 20.616C81.1322 11.3642 68.5841 6.16663 55.5001 6.16663ZM55.5001 98.6666C46.9625 98.6666 38.6167 96.1349 31.518 91.3917C24.4193 86.6485 18.8865 79.9068 15.6193 72.0191C12.3521 64.1315 11.4973 55.4521 13.1629 47.0786C14.8285 38.705 18.9397 31.0135 24.9767 24.9765C31.0136 18.9395 38.7052 14.8283 47.0787 13.1627C55.4522 11.4971 64.1316 12.352 72.0193 15.6192C79.907 18.8863 86.6487 24.4191 91.3919 31.5178C96.1351 38.6166 98.6668 46.9624 98.6668 55.5C98.6668 66.9485 94.1189 77.9281 86.0235 86.0234C77.9282 94.1187 66.9486 98.6666 55.5001 98.6666Z" fill="black"/>
</g>
<defs>
<clipPath id="clip0_30_12">
<rect width="111" height="111" fill="white"/>
</clipPath>
</defs>
</svg>
